<svg width="24" height="24" viewBox="0 0 24 24" fill="none" xmlns="http://www.w3.org/2000/svg">
<path fill-rule="evenodd" clip-rule="evenodd" d="M1.09998 7.0001C1.09998 5.39847 2.39835 4.1001 3.99998 4.1001H20C21.6016 4.1001 22.9 5.39847 22.9 7.0001V9.0001V17.0001C22.9 18.6017 21.6016 19.9001 20 19.9001H3.99998C2.39835 19.9001 1.09998 18.6017 1.09998 17.0001V9.0001V7.0001ZM3.99998 5.9001C3.39246 5.9001 2.89998 6.39258 2.89998 7.0001V8.1001H21.1V7.0001C21.1 6.39258 20.6075 5.9001 20 5.9001H3.99998ZM21.1 9.9001H2.89998V17.0001C2.89998 17.6076 3.39246 18.1001 3.99998 18.1001H20C20.6075 18.1001 21.1 17.6076 21.1 17.0001V9.9001ZM13.1 15.0001C13.1 14.503 13.5029 14.1001 14 14.1001H18C18.497 14.1001 18.9 14.503 18.9 15.0001C18.9 15.4972 18.497 15.9001 18 15.9001H14C13.5029 15.9001 13.1 15.4972 13.1 15.0001Z" fill="#716360"/>
</svg>
