<svg width="23" height="22" viewBox="0 0 23 22" fill="none" xmlns="http://www.w3.org/2000/svg">
<path d="M15.4551 8.25684C16.2731 8.25684 16.9361 7.59379 16.9361 6.77584C16.9361 5.71556 15.4551 4.30322 15.4551 4.30322C15.4551 4.30322 13.9741 5.71561 13.9741 6.77584C13.9741 7.59379 14.6372 8.25684 15.4551 8.25684Z" fill="#958582"/>
<path d="M19.9425 15.1177C18.8996 15.1177 17.9106 15.5723 17.2292 16.3648L17.0364 16.5892H12.6069C12.093 16.5892 11.6749 17.0073 11.6749 17.5212C11.6749 18.0352 12.093 18.4533 12.6069 18.4533H16.6048V19.7423H12.6069C11.7527 19.7423 11.0095 19.2575 10.6381 18.5486L6.572 14.8558C6.20275 14.5205 5.63732 14.5341 5.28465 14.8869C5.10621 15.0654 5.0092 15.3028 5.01152 15.5552C5.01384 15.8076 5.11515 16.0431 5.29685 16.2184L11.2906 21.9987H19.2762L22.5 20.9091V16.1949C21.8282 15.5077 20.9085 15.1177 19.9425 15.1177Z" fill="#958582"/>
<path d="M8.45547 1.28898H10.9557C11.4019 1.28898 11.7649 1.65201 11.7649 2.09817H13.0539C13.0539 0.941216 12.1126 0 10.9557 0H4.37158V2.58888H8.45547V1.28898Z" fill="#958582"/>
<path d="M11.8999 11.4658C12.4811 11.4658 12.9538 10.993 12.9538 10.4119C12.9538 9.88058 12.3886 9.07909 11.8992 8.51392C11.3727 9.12141 10.8461 9.91199 10.8461 10.4119C10.846 10.993 11.3188 11.4658 11.8999 11.4658Z" fill="#958582"/>
<path d="M4.40206 17.1462C3.96939 16.7289 3.72805 16.1681 3.72259 15.567C3.71709 14.9659 3.94812 14.4007 4.3731 13.9756C5.21283 13.1356 6.55934 13.1031 7.4386 13.9017L10.5371 16.7157C10.8277 15.9714 11.5088 15.4214 12.3271 15.3181V12.7151C12.1885 12.7408 12.0459 12.7549 11.9 12.7549C10.6081 12.7549 9.55713 11.7039 9.55713 10.412C9.55713 8.96203 11.261 7.29533 11.4552 7.11006L11.8172 6.76487C11.3513 6.1175 10.6074 5.68302 9.76131 5.63937V3.87793H3.06581V5.63933C1.63856 5.71297 0.5 6.89725 0.5 8.3425V17.9599H5.24578L4.40206 17.1462Z" fill="#958582"/>
<path d="M0.5 19.2488V21.9986H9.43369L6.58237 19.2488H0.5Z" fill="#958582"/>
</svg>
