<svg fill="none" height="276" viewBox="0 0 518 276" width="518" xmlns="http://www.w3.org/2000/svg" xmlns:xlink="http://www.w3.org/1999/xlink"><clipPath id="a"><path d="m447 236h70.2441v40h-70.2441z"/></clipPath><g fill="#716360"><path clip-rule="evenodd" d="m263.756 242.14c-2.701 0-4.891 2.189-4.891 4.937 0 2.702 2.19 4.892 4.891 4.892 2.702 0 4.938-2.19 4.938-4.892-.047-2.748-2.236-4.937-4.938-4.937zm-1.584 5.683c-.978 0-1.723-.792-1.723-1.724 0-.978.792-1.723 1.723-1.723.979 0 1.724.792 1.724 1.723 0 .932-.745 1.724-1.724 1.724zm12.438 10.714c1.071-2.609 2.05-4.845 3.214-6.755 1.118-1.863 2.422-3.493 4.099-5.031 3.68-3.26 5.823-3.26 7.78-3.26h.186 49.611.046c.326 0 .699.046 1.025.093.326.046.652.14.978.279 1.631.606 2.842 1.864 2.935 3.541v.046c.043.343.007.803-.035 1.346l-.012.145c-.041.538-.156 1.222-.279 1.956l-.047.28c-.792 4.332-3.074 10.807-8.431 15.093-3.494 2.841-5.87 2.795-7.64 2.748h-.605-47.608c-1.397 0-2.608-.186-3.54-.559-.978-.373-1.724-.978-2.189-1.724-.466-.792-.699-1.77-.699-2.888 0-1.49.419-3.307 1.211-5.31zm60.092-9.736s-1.258-1.863-5.777-1.863c-4.518 0-11.086 2.562-12.577 8.385-1.584 5.869 2.562 9.503 7.966 9.503 5.403 0 8.617-1.584 11.273-4.566l-2.097-1.956s-2.934 4.518-8.431 3.214c-2.376-.559-2.329-5.403.745-8.618 3.075-3.214 5.171-2.841 5.87-2.422.698.419 2.003 1.211.419 4.472h3.494l6.894-7.453h-7.081zm-18.587-.326c-.14-1.118-1.397-1.91-2.748-1.724-1.398.187-2.376 1.258-2.236 2.376s1.397 1.91 2.748 1.724c1.398-.187 2.376-1.258 2.236-2.376zm-1.414 2.795h-4.921l-7.966 13.323h8.059zm-13.306-3.913h-15.093l-8.618 17.236h16.91c1.91 0 6.568-1.444 7.034-5.451.186-1.677-1.398-3.074-2.329-3.4 0 0 6.056-.745 6.056-5.264 0-2.096-2.236-3.121-3.96-3.121zm-31.723 15.978c.093.186.373.605.466.745.186.28.093.373-.279.14-.062-.031-.128-.071-.202-.117-.153-.093-.34-.208-.59-.302-.043-.022-.091-.043-.143-.066-.172-.078-.388-.174-.603-.354-.108-.075-.747-.563-1.666-1.269l-.057.198c-.326-.326-.326.326-.279.699.046.326-.326.419-.652.419-.29 0-.286.183-.281.387.001.026.001.053.001.079 0 .061.007.141.014.228.019.245.043.542-.06.61-.038.038-.076.067-.115.096-.201.15-.398.298-.398 1.628 0 .049-.01.121-.024.227-.04.295-.116.853-.116 1.916 0 0 .047.186.466.465.42.28.746.559.746.932-.047.512-.559.652-1.165.373-.272-.126-.459-.242-.604-.332-.178-.11-.292-.181-.421-.181-.184-.023-.312-.08-.427-.132-.118-.053-.224-.101-.365-.101-.197 0-.559.221-.971.471-.658.401-1.44.877-1.87.647-.466-.279.372-1.397 1.258-1.909.139-.047.139-.233.139-.653v-3.028c0-.366-.045-.372-.402-.417l-.017-.002c-.316-.039-.263-.649-.24-.918.004-.048.007-.085.007-.107 0-.139 0-.372-.466-.372-.408 0-.387-.43-.375-.661.001-.033.003-.062.003-.085v-2.236c0-.186-.047-.279-.373-.465-.077-.044-.169-.096-.267-.151-.316-.177-.687-.384-.758-.455-.016-.016-.034-.03-.052-.043-.084-.064-.173-.131-.134-.516.043-.214.273-1.366.555-2.57-.912-.711-1.526-1.195-1.581-1.25-.233-.232-.233.094-.233.094.039.537-.144.379-.288.254-.031-.027-.06-.052-.084-.068-1.817-1.351-4.239-3.54-4.705-5.637-.036-.182.07-.735.14-1.101.019-.101.036-.189.046-.249.093-.373.326-.14.559.093.311.31 6.104 5.386 6.665 5.878.173-.566.337-.971.463-1.034.374-.187.927-.313 1.323-.404.099-.023.187-.043.261-.062.041-.008.083-.019.124-.03.193-.053.391-.106.621.123.559.42.792.047.885-.139-.046-.093 0-.187.14-.187h.606c.093 0 .279 0 .186.233 0 .024-.012.047-.023.07-.012.024-.024.047-.024.07.187.186.466.373.839.14.093-.187.233-.373.372-.373.233 0 2.097 2.283 2.33 2.842.326.698.233 4.425 0 4.891-.015.074-.063.152-.115.238-.079.131-.168.279-.17.455 1.012.885 1.734 1.515 1.821 1.59.199.199.33.397.48.625v.001c.026.038.052.078.079.119zm-12.81-8.571.047-.093c.028-.029.039-.076.044-.096l-2.979-2.839c-.047-.047-.186 0-.233.046-.047.047-.093.14 0 .233l2.935 2.795c.046.047.139 0 .186-.046zm41.273-3.215c-.047 1.398-2.469 2.097-3.308 2.097-.819 0-4.132 0-4.237.043l2.421-3.584h3.4c.466 0 1.817.047 1.724 1.444zm-7.547 2.143.002-.003c-.002.001-.003.002-.002.003zm-.326 7.733c.746 0 3.261-1.165 3.587-2.702s-.419-2.143-1.211-2.143h-4.286l-3.214 4.845zm-26.412-8.152c.031-.031.062-.104.093-.176.016-.036.031-.073.047-.104.186.187.419.326.792.233v.047c-.047.186-.373.932-.559.932-.187-.047-.42-.839-.373-.932zm.466 11.459c.186 0 .372.14.372.746 0 .389-.038.586-.066.726-.015.078-.027.139-.027.205 0 .187-.139.326-.419.373-.279 0-.512 0-.652-.047-.14-.046-.186-.139-.186-.512 0-.326 0-1.072.046-1.211 0-.121.035-.137.164-.199.02-.01.043-.021.069-.034.108-.072.355-.061.548-.052.056.003.108.005.151.005zm-1.631 4.659c-.214.107-.32.121-.399.132-.058.008-.1.014-.16.054-.139.093-.232.186-.32.274-.087.087-.169.168-.285.238-.233.14-.885.42-1.025.28s0-.559.28-.746c.279-.186.419-.186.512-.186.04-.02.08-.065.12-.111.053-.061.106-.122.159-.122.028 0 .072-.082.113-.159.028-.052.055-.101.074-.12.046-.187.186-.28.372-.233h.513c.326.046.326.605.046.699zm.28-1.118c0 .093-.093.186-.186.186l-.466.046c-.093 0-.419-.046-.419-.232v-.746c0-.093 0-.419.326-.372h.605c.093 0 .187.093.187.186v.932zm.093-2.795c0 .389-.019.605-.033.759-.008.086-.013.152-.013.219 0 .186-.187.326-.466.326-.28 0-.466 0-.559-.047-.14-.046-.187-.139-.187-.512 0-.326 0-1.072.047-1.211 0-.14 0-.326.186-.326.075 0 .159-.005.246-.01.186-.011.388-.022.546.01.187.046.28.186.233.792zm-.093-11.506c-.14-.42-.28-.699-.419-.885.419.139.652-.094.745-.28.093.14.186.419.186.512-.093.839-.419.886-.512.653zm.279 14.114v-.559c0-.093.14-.419.233-.419h.699c.186 0 .326.14.326.326l-.046.745c0 .094-.28.28-.373.28h-.373c-.093 0-.466-.14-.466-.373zm1.677 1.165c.094.186.233.186.233.186.233 0 .699.326.559.559-.389.283-.779.055-1.168-.173-.123-.072-.246-.144-.369-.2-.132-.073-.269-.109-.393-.142-.269-.072-.477-.127-.445-.51.046-.326.698-.279.978-.186.079.026.098.128.117.228.015.076.029.151.069.191.039.02.095.015.156.009.085-.008.182-.016.263.038zm82.358-24.503c0 1.631 1.258 2.609 2.655 2.609 1.398 0 2.656-.978 2.656-2.609 0-1.63-1.258-2.608-2.656-2.608-1.397 0-2.655.931-2.655 2.608zm.792 0c0-1.211.839-2.003 1.863-2.003 1.025 0 1.864.792 1.864 2.003s-.839 2.003-1.864 2.003c-1.024 0-1.863-.792-1.863-2.003zm.839 1.398h.605v-1.211h.28l.652 1.164h.699l-.699-1.211c.373-.047.699-.233.699-.745 0-.652-.42-.839-1.165-.839h-1.071zm1.537-2.05c0 .326-.14.373-.419.373h-.559v-.699h.419c.233 0 .559.047.559.326z" fill-rule="evenodd"/><g clip-path="url(#a)"><path d="m517.244 268.963c-.183 0-.359-.007-.542-.007-23.017 0-46.041 0-69.058 0-.692-.007-.644.061-.644-.637 0-.699-.054-.631.644-.631h69.058c.183 0 .359-.007.542-.007z"/><path d="m494.966 276c0-1.396.007-2.793-.007-4.19 0-.312.095-.406.407-.406 1.342.013 2.685.006 4.027.006.176 0 .373-.034.387.251.006.298-.197.278-.394.278-1.139 0-2.278.007-3.417-.007-.311-.006-.406.102-.406.407 0 1.017-.007 1.017 1.01 1.017h2.332c.169 0 .386-.054.393.237.007.285-.21.244-.379.244-.984 0-1.96.014-2.943-.006-.305-.007-.434.088-.413.406.02.272.02.543 0 .814-.028.339.122.42.434.414 1.105-.014 2.21-.007 3.315-.007.522 0 .522 0 .529.542-1.628 0-3.248 0-4.875 0z"/><path d="m482.776 276c0-1.241 0-2.481.014-3.715 0-.264-.102-.359-.36-.353-.542.014-1.084 0-1.627 0-.183 0-.339-.013-.339-.264 0-.244.156-.264.339-.264h4.638c.196 0 .325.04.318.278-.007.23-.142.25-.318.25-.543 0-1.085.014-1.628-.006-.318-.014-.433.095-.427.42.014 1.213 0 2.434 0 3.647-.203.007-.406.007-.61.007z"/><path d="m458.973 271.451c-.163-.109-.421-.115-.59.074-.075.082-.129.183-.183.285-.597 1.01-1.193 2.014-1.797 3.024-.237.4-.251.4-.481.02-.603-.976-1.207-1.959-1.81-2.935-.075-.122-.149-.251-.237-.367-.156-.21-.414-.196-.584-.101-.189.108.028.264.095.386.197.346.394.685.611 1.01.128.197.135.36.013.556-.312.495-.597 1.011-.902 1.512-.183.299-.21.305-.393.007-.651-1.051-1.302-2.108-1.952-3.166-.048-.075-.088-.163-.15-.224-.176-.183-.42-.176-.589-.068-.143.095.04.258.108.366.854 1.39 1.715 2.78 2.576 4.17h.407c.407-.671.827-1.342 1.227-2.02.129-.217.204-.258.346-.007.387.685.868 1.315 1.207 2.027h.474c.834-1.39 1.668-2.786 2.495-4.176.068-.116.258-.278.109-.373z"/><path d="m457.441 249.322c-.36-.095-.624.007-.888.007-.611 0-1.221 0-1.831.007-.637.013-.949.318-.983.956v.067c-.02.807-.02.807-.82.807-1.797 0-3.587 0-5.383 0-.448 0-.455-.007-.455-.454 0-1.478 0-2.956 0-4.434 0-.393.028-.786.109-1.18.23-1.091.942-1.756 2.041-1.925.345-.054.691-.075 1.044-.075h16.386c.481 0 .481 0 .481.495 0 .983-.006 1.96.007 2.943 0 .23-.068.413-.21.583-2.895 3.471-5.783 6.949-8.678 10.42-.441.529-.949.99-1.451 1.451.014.095.082.088.136.081 1.044-.129 2.095-.054 3.146-.074.149 0 .291-.014.433-.041.489-.088.712-.359.739-.861.007-.203.014-.407 0-.61-.02-.285.109-.366.38-.366 1.159.007 2.326.007 3.485.007.82 0 1.647.006 2.468 0 .23 0 .366.047.359.318-.034 1.783.075 3.559-.061 5.343-.109 1.423-.963 2.264-2.373 2.393-.461.04-.922.054-1.383.054-5.519 0-11.037 0-16.556 0-.563 0-.563 0-.563-.556 0-.936.007-1.871-.006-2.807 0-.251.061-.454.223-.651 2.875-3.43 5.743-6.867 8.617-10.298.461-.556.956-1.098 1.587-1.6z"/><path d="m508.037 241.898c-.698 0-1.396-.006-2.095 0-.23 0-.318-.04-.183-.284.97-1.783 1.939-3.58 2.902-5.377.095-.169.217-.237.407-.237 1.851.007 3.701 0 5.552 0 .088 0 .197-.034.251.054.054.102-.047.163-.095.231-1.417 1.796-2.834 3.593-4.244 5.396-.129.163-.264.217-.461.217-.685 0-1.363 0-2.034 0z"/><path d="m516.837 250.095c-.562-2.102-1.606-3.885-3.383-5.186-1.695-1.255-3.647-1.729-5.715-1.783-1.071-.028-2.142.074-3.186.332-2.99.732-5.275 2.42-6.685 5.166-1.478 2.881-1.709 5.905-.766 8.997 1.383 4.528 5.349 7.335 10.047 7.572.637.048 1.275.048 1.905 0 .258-.02.516-.034.773-.067 2.583-.326 4.895-1.289 6.915-2.929.4-.319.387-.332.136-.76-.78-1.322-1.566-2.637-2.346-3.952-.23-.393-.23-.387-.603-.122-1.336.963-2.78 1.674-4.434 1.891-2.529.333-5.064-.854-5.661-3.722.122-.095.264-.047.393-.047 4.136 0 8.278 0 12.414-.007.135 0 .271.034.4-.034.027-.108.047-.217.074-.325.082-.339.021-.692.129-1.031 0-.542 0-1.084 0-1.627-.142-.793-.197-1.593-.407-2.366zm-7.206 1.064c-1.743 0-3.478 0-5.221-.006-.115 0-.359.108-.305-.19.434-1.519 1.654-2.475 3.214-2.495 1.41-.02 2.305.936 2.596 2.156.034.149.048.312.068.468 0 0-.007 0-.007.006-.006.007-.02.014-.027.021-.095.047-.21.04-.318.04z"/><path d="m513.868 273.953c-.238-.163-.231-.244.006-.414.699-.495.597-1.464-.162-1.858-.258-.128-.529-.196-.807-.223-1.132-.122-2.278-.021-3.41-.068-.346-.014-.448.102-.441.441.014 1.383 0 2.773 0 4.156h.61c0-.529.014-1.058 0-1.587-.006-.271.075-.393.366-.38.902.034 1.804-.074 2.699.062.773.108.922.311.922 1.098 0 .271.007.542.007.813h.61c0-.406-.007-.813-.007-1.213-.007-.332-.115-.631-.393-.827zm-.577-.685c-.332.163-.691.21-1.05.224-.36.013-.719 0-1.085 0v.006c-.387 0-.766-.006-1.153 0-.244.007-.352-.081-.345-.332.013-.305.006-.61 0-.915-.007-.224.067-.332.311-.332.868.007 1.736.007 2.604.013.224 0 .447.061.657.143.258.095.455.257.475.556.034.318-.156.508-.414.637z"/><path d="m469.278 271.695c-.271-.42-.583-.42-.861 0-.773 1.159-1.546 2.319-2.312 3.491-.169.258-.393.495-.461.814h.678c.244-.386.495-.773.739-1.166.095-.149.224-.203.393-.203.902.006 1.797.006 2.699 0 .216 0 .352.088.467.264.231.373.475.739.712 1.105h.678c-.915-1.437-1.824-2.875-2.732-4.305zm.522 2.4c-.325 0-.651 0-.983 0-.319 0-.631 0-.949 0-.204 0-.285-.068-.149-.258.332-.495.664-.99.996-1.491.095-.143.17-.163.271-.007.319.508.644 1.01.963 1.512.115.183.027.244-.149.244z"/><path d="m494.024 253.288c-.292-3.539-1.899-6.312-4.895-8.217-2.983-1.898-6.265-2.312-9.695-1.647-2.665.522-4.929 1.79-6.658 3.918-1.884 2.319-2.556 5.017-2.312 7.946.272 3.227 1.75 5.817 4.4 7.695 2.197 1.56 4.692 2.21 7.702 2.21.671.014 1.668-.081 2.651-.305 2.834-.637 5.213-2 6.915-4.393 1.546-2.156 2.109-4.583 1.892-7.207zm-7.695 5.438c-.882 1.552-2.278 2.325-4.007 2.406-1.878-.067-3.295-.854-4.183-2.454-.881-1.58-.847-3.207.075-4.766 1.254-2.129 2.555-4.224 3.837-6.339.196-.325.203-.325.393-.014 1.288 2.129 2.603 4.251 3.864 6.4.909 1.567.916 3.194.021 4.767z"/><path d="m515.915 264.515c-.671-.007-1.234.563-1.241 1.261-.006.726.536 1.282 1.241 1.282.678 0 1.248-.577 1.241-1.255.007-.725-.529-1.281-1.241-1.288zm.007 2.285c-.556 0-.942-.427-.942-1.017 0-.583.4-1.017.949-1.017.556 0 .928.407.928 1.024-.006.61-.372 1.01-.935 1.01z"/><path d="m516.39 265.756c.217-.183.101-.515-.177-.617-.542-.197-.793-.027-.8.536v.169h.007c0 .17-.007.339 0 .509 0 .074.041.135.122.135.082 0 .102-.061.129-.129.047-.135-.088-.373.129-.4.183-.02.21.231.318.353.007.007.014.02.021.027.061.095.142.224.264.142.122-.081-.007-.183-.054-.257-.142-.177-.156-.292.041-.468zm-.455-.054c-.142.006-.237-.027-.244-.177-.006-.162.088-.217.231-.21.122.007.271.021.278.177.013.189-.149.196-.265.21z"/></g><g clip-rule="evenodd" fill-rule="evenodd"><path d="m242.966 135.532h111.402c3.601 0 6.396 2.95 6.396 6.551v26.205h-111.247c-3.632 0-6.551-2.918-6.551-6.551zm14.22 10.65h2.453v-2.36c-3.788 0-6.862 1.242-6.862 2.763v2.205h-1.769l.931 1.459h.838v6.365c0 .838.994 1.49 2.205 1.49s2.204-.683 2.204-1.49v-6.365h1.77v-1.459h-1.77zm9.812 11.767h6.892.031v-6.582c0-1.522-3.105-2.764-6.892-2.764-3.819 0-6.893 1.242-6.893 2.764v.341h4.409v-.745h4.905v1.646h-9.345v2.577c0 1.521 3.074 2.763 6.893 2.763zm15.803.155c3.819 0 6.893-1.242 6.893-2.763h-.031v-5.278c0-.808-.994-1.46-2.205-1.46-1.241 0-2.235.652-2.235 1.46v5.682h-4.906v-6.986h-5.34l.931 1.459v5.123c0 1.521 3.074 2.763 6.893 2.763zm15.742-6.396h2.204v-2.98c-.683-.125-1.459-.156-2.204-.156-3.819 0-6.893 1.242-6.893 2.764v5.278c0 .838.994 1.49 2.235 1.49 1.211 0 2.205-.652 2.205-1.49v-5.651h2.453zm15.648 2.36c.683 0 1.366-.404 1.366-.994v-1.738c0-1.553-3.105-2.764-6.892-2.764-3.819 0-6.893 1.242-6.893 2.764v4.005c0 1.521 3.074 2.763 6.893 2.763 3.818 0 6.892-1.242 6.892-2.763v-.342h-4.409v.746h-4.936v-1.677zm12.513-2.36h4.409v-.372c0-1.522-3.105-2.764-6.893-2.764-3.819 0-6.893 1.242-6.893 2.764v4.005c0 1.521 3.074 2.763 6.893 2.763s6.893-1.242 6.893-2.763v-.342h-4.409v.746h-4.937v-4.782h4.937zm8.259 6.396c1.241 0 2.235-.652 2.235-1.49h-.031v-7.855h-4.409v7.855c0 .838.994 1.49 2.205 1.49zm-2.205-11.922c0 .838.994 1.49 2.205 1.49 1.241 0 2.235-.652 2.235-1.49 0-.808-1.025-1.46-2.235-1.46-1.211 0-2.205.652-2.205 1.46zm13.196 11.767h6.892v-6.582c0-1.522-3.104-2.764-6.892-2.764-3.819 0-6.893 1.242-6.893 2.764v.341h4.409v-.745h4.937v1.646h-9.346v2.577c0 1.521 3.074 2.763 6.893 2.763zm-39.743-6.986h4.937v1.646h-4.937zm37.29 3.105h4.936v1.677h-4.936zm-74.02 0h-4.936v1.677h4.936z"/><path d="m14.9361 229.743c-5.22119 0-11.35836 3.756-11.35836 7.191 0 1.214 1.0332 2.275 3.13459 2.448-.25809 1.123-.4326 2.432-.4326 3.918 0 .061.00021.122.00065.182-2.94394-.045-4.80964-1.543-4.80964-3.663 0-.687.1374-1.145.1832-1.282h-.1374l-.01536.031c-.16137.321-.717437 1.427-.717437 2.534 0 2.069 1.947607 3.976 5.575497 4.193.13281 1.646.42887 3.202.86463 4.646h-.02815c-5.03798 0-6.869974-2.336-7.0989735-3.618h-.09159972c-.13427178 2.417 2.35575322 5.184 7.81201322 5.308.6516 1.617 1.48967 3.062 2.47384 4.3-.194.007-.38621.01-.57629.01-3.11439 0-5.77078-.916-7.14477-2.107l-.0916.046c.5496.962 3.11439 3.343 8.01496 3.343.3096 0 .6206-.007.9326-.02 1.3204 1.316 2.8352 2.306 4.4718 2.906-1.8778.183-3.8472.137-5.90819-.275l-.0458.137.09109.036c.6882.268 2.6151 1.018 5.5423 1.018 6.87 0 11.5416-4.26 13.4193-7.511l-.0916-.092c-.6412.824-1.5114 1.603-2.4731 2.382-.2171-1.253-.5201-2.486-.8945-3.692 1.4576-1.115 2.7005-2.371 3.6318-3.724.2774 1.314.3937 2.637.3312 3.935h.1374c.1832-.687.3206-1.603.3206-3.115 0-.603-.0528-1.22-.1555-1.844.7734-1.404 1.2089-2.895 1.2089-4.43 0-1.008-.229-1.695-.2748-1.832l-.1374.091c.0173 1.575-.4163 3.081-1.1881 4.488-.4008-1.34-1.0132-2.686-1.808-3.977.6593-1.222 1.0267-2.49 1.0267-3.762 0-2.016-1.2823-3.069-1.5113-3.252l-.0916.046c.1832.32.458.961.458 2.015 0 1.107-.3485 2.243-.9759 3.362-.925-1.21-2.0139-2.342-3.2393-3.338.4148-.843.6428-1.699.6428-2.543 0-2.382-2.29-3.71-3.8472-3.985l-.0458.092c.5038.137 2.29 1.007 2.29 3.114 0 .696-.2127 1.432-.603 2.177-1.0815-.711-2.2457-1.316-3.4778-1.784.2706-.538.417-1.073.417-1.584 0-1.648-1.603-2.519-3.7098-2.519zm13.8058 17.016c-.4301-1.373-1.0313-2.721-1.783-4.006-.9336 1.353-2.2154 2.631-3.7346 3.775.6683 1.285 1.2702 2.63 1.7817 4.019 1.488-1.129 2.7736-2.403 3.7359-3.788zm-4.5682 4.391c-.5711-1.349-1.2116-2.667-1.9044-3.943-1.7691 1.192-3.7973 2.206-5.938 2.962.71 1.372 1.4571 2.696 2.2296 3.934 1.981-.775 3.9052-1.774 5.6128-2.953zm-6.6005 3.319c-.847-1.23-1.6458-2.553-2.3817-3.926-2.0402.621-4.1566 1.003-6.22856 1.079.68523 1.551 1.54596 2.982 2.54946 4.229 1.9376-.188 4.0152-.664 6.0608-1.382zm-4.9288 2.647c1.9816-.193 3.9824-.645 5.8976-1.308.8537 1.121 1.7476 2.14 2.6685 3.018-1.3282.504-2.748.916-4.2594 1.191-1.5777-.618-3.0303-1.619-4.3067-2.901zm6.8079-1.641c1.9192-.742 3.7323-1.695 5.3287-2.81.441 1.168.8269 2.354 1.1469 3.551-1.1908.87-2.5648 1.694-4.122 2.336-.7972-.905-1.5853-1.943-2.3536-3.077zm-11.15727-5.564c2.00477-.11 4.03947-.511 5.99747-1.132-.6829-1.412-1.2962-2.855-1.8252-4.286-1.713.503-3.48004.798-5.19471.821.17192 1.578.52077 3.126 1.02244 4.597zm7.14627-1.525c2.1009-.77 4.0853-1.786 5.8143-2.955-.8063-1.346-1.6651-2.635-2.554-3.85-1.5268 1.031-3.2883 1.913-5.1428 2.561.5781 1.418 1.2095 2.846 1.8825 4.244zm10.4415-7.287c-.9085 1.278-2.1624 2.514-3.6542 3.638-.8089-1.364-1.6863-2.646-2.5991-3.823 1.3062-1.001 2.3894-2.111 3.1397-3.263 1.1707 1.038 2.2158 2.201 3.1136 3.448zm-4.6502-4.685c-1.0441-.76-2.1666-1.424-3.3554-1.969-.5137.767-1.2639 1.522-2.1859 2.204.8838.79 1.7767 1.696 2.6521 2.7 1.2076-.922 2.1994-1.926 2.8892-2.935zm-3.7587 3.558c-.8115-1.018-1.6388-1.973-2.4659-2.851-1.0027.645-2.1629 1.2-3.4155 1.602.3662 1.158.7844 2.363 1.2471 3.588 1.6935-.61 3.2712-1.419 4.6343-2.339zm-5.6447 2.673c-.4073-1.269-.7413-2.513-.9915-3.702-1.08764.286-2.23214.454-3.3941.464-.17598 1.063-.29368 2.288-.29368 3.664 0 .132.00129.264.00386.396 1.58818-.07 3.16822-.364 4.67542-.822zm-2.89308-8.047c-.18766.376-.76761 1.551-1.21631 3.435h.02571c.92668 0 1.89545-.155 2.84298-.425-.1762-1.09-.2721-2.118-.2784-3.056l.1374-.045c.1996.91.4512 1.887.7489 2.911.9989-.339 1.9581-.8 2.8003-1.334-.797-.788-1.588-1.5-2.3584-2.127l.0916-.092c.8929.439 1.8505 1.059 2.8342 1.836.7889-.569 1.4412-1.2 1.8783-1.844-1.2805-.462-2.6268-.789-4.0255-.953v-.138c1.4992 0 2.9453.21 4.3201.59.1978-.399.3059-.798.3059-1.185 0-.596-.5038-1.924-3.1144-1.924-3.93879 0-9.06837 3.16-9.06837 5.817 0 1.085.77643 1.783 2.23634 1.937.6504-1.98 1.48637-3.152 1.70225-3.449zm141.88788 33.984c1.557-1.283 2.29-3.206 2.702-5.542v-.046h-7.099c-.504 2.153-1.694 3.069-3.71 3.069-2.335 0-3.938-1.42-3.938-5.038s1.603-5.038 4.213-5.038c2.428 0 3.206 1.832 3.389 3.114h7.145c-.87-7.099-6.732-7.648-10.58-7.648-3.847 0-10.991.32-10.991 9.572 0 9.251 7.144 9.572 10.991 9.572 3.893 0 6.321-.733 7.878-2.015zm-49.601-11.175c0 2.519 1.282 4.534 4.397 5.038l7.236 1.236c.87.138 1.145.687 1.145 1.191 0 .87-.55 1.466-2.519 1.466-.962 0-1.695-.138-2.153-.367-.458-.275-.641-.687-.687-1.282h-7.648c.046 5.267 5.358 6 10.259 6 7.145 0 10.351-2.061 10.351-6.412 0-3.023-1.97-4.718-5.176-5.222l-7.602-1.236c-.642-.092-.825-.412-.825-.916 0-.779.687-1.283 2.565-1.283.687 0 1.42.092 1.969.367.596.229.962.687.962 1.42h7.374c-.229-3.802-3.206-5.863-10.351-5.863-5.221 0-9.297 1.237-9.297 5.863zm-51.7084-1.054h-4.0762v3.71h4.0762c1.603 0 2.1984-.55 2.1984-1.832 0-1.328-.5954-1.878-2.1984-1.878zm-4.0304 13.648h-6.3662v-17.861h13.0988c4.5341 0 6.1829 2.244 6.1829 6.228 0 3.435-1.6488 6.092-6.1371 6.092h-6.7784zm32.0599-17.861h-17.0834v17.861h17.0834v-4.35h-10.7172v-2.382h9.9844v-4.351h-9.9844v-2.427h10.7172zm9.0225 4.213h4.0761c1.603 0 2.1984.55 2.1984 1.878 0 1.282-.5954 1.832-2.1984 1.832h-4.0761zm-6.3662 13.648h6.3662v-5.541h6.7783c4.4884 0 6.1372-2.657 6.1372-6.092 0-3.984-1.6488-6.228-6.183-6.228h-13.0987zm49.8306-17.861h-6.366v17.861h6.366zm31.831 8.93c0-3.618 1.649-5.038 4.213-5.038 2.611 0 4.214 1.42 4.214 5.038 0 3.619-1.649 5.038-4.214 5.038-2.61 0-4.213-1.419-4.213-5.038zm-6.779 0c0 9.252 7.145 9.573 10.992 9.573s10.992-.321 10.992-9.573c0-9.251-7.145-9.572-10.992-9.572s-10.992.321-10.992 9.572z"/><path d="m488.975 123.136c15.782 0 28.661 12.879 28.661 28.661 0 15.783-12.879 28.662-28.661 28.662-15.783 0-28.662-12.879-28.662-28.662 0-15.782 12.879-28.661 28.662-28.661zm-12.507 8.003c-2.792 1.675-5.174 3.908-7.072 6.551l11.055 26.093 4.95-10.981h7.184l4.951 10.981 11.055-26.093c-1.898-2.643-4.318-4.876-7.072-6.551l-8.896 20.026h-7.184zm19.43-2.494c-2.196-.67-4.504-1.005-6.923-1.005-2.42 0-4.727.372-6.924 1.005l6.924 15.522zm-30.039 16.154c-.67 2.197-1.042 4.579-1.042 6.998 0 9.678 5.733 18.053 13.996 21.887zm16.118 30.114c2.233.67 4.578 1.042 6.998 1.042 2.419 0 4.764-.372 6.998-1.042l-6.998-15.187zm17.16-1.229c8.263-3.834 13.995-12.209 13.995-21.887 0-2.419-.372-4.764-1.042-6.998z"/><path d="m145.052 44.6241.638-.1594c.518-.0798.797-.1595.638-.2791 0-.1993-.399-.8372-.798-1.3555l-3.428-4.5049c-.319-.4784-.718-.6378-1.196-.6378-.319 0-.558.1993-.558.9966v2.4319c0 2.9102.239 3.269 1.913 3.4285l.758.0797c.398.2392.398 1.196-.04 1.4352-1.555-.0797-3.588-.1196-5.821-.1196-2.192 0-4.225.0399-5.9.1196-.438-.2392-.438-1.196-.04-1.4352l.917-.0797c1.754-.1595 1.954-.5183 1.954-3.4285v-18.4183c0-1.6744 0-2.113-.957-2.6312l-.797-.4386c-.319-.2392-.319-.9966 0-1.2757 1.993-.4385 4.943-1.4352 7.415-2.3521.279 0 .638.0797.837.2791-.08 1.7142-.16 3.4683-.16 6.0995v13.156c0 .4784.16.598.678.598.798 0 1.834-.1994 2.791-1.1562l2.033-2.073c.917-.9568 1.156-1.3953 1.156-1.6744 0-.1993-.478-.3588-.917-.3987l-1.196-.1594c-.478-.3588-.398-1.2758.08-1.4352h1.156c2.272 0 6.259-.1994 9.13-.598.518.1594.558 1.1162.199 1.4352l-1.555.279c-.877.1595-1.914.5582-3.229 1.4352-1.749 1.1789-2.519 1.8136-3.175 2.3541l-.094.0778c-.239.279-.279.4385-.279.5581 0 .1595.08.3987.359.7176.877 1.3555 5.142 7.0564 6.338 8.0132.718.5182 1.595.7574 2.871.9568l.717.1594c.399.2791.279 1.2757-.199 1.4352-1.515-.0797-3.309-.1196-6.1-.1196-2.83 0-4.584.0399-5.94.1196-.518-.1993-.598-1.0365-.199-1.4352zm-18.338-12.4784c.279 0 .757.0399 1.834.8372.637.5183 1.196.7575 1.873.7575 1.555 0 3.11-.7973 3.11-2.7109 0-1.5548-1.356-2.4717-2.671-2.4717-1.514 0-2.674.7735-3.711 1.4649-.356.2372-.697.4647-1.033.648-.399-.0797-.479-.1993-.479-.5183 0-.3985.08-.9564.2-1.7931v-.0008-.0001c-.2-.2392-.479-.3986-.838-.3986-1.514.8372-4.823 1.9933-7.056 2.5116-.319.2392-.319.9966 0 1.2757l.678.3986c.917.5183.917.9967.917 2.6711v6.2989c0 2.9102-.2 3.3089-1.794 3.4285l-.917.0797c-.399.2791-.399 1.196.04 1.4751 1.594-.0797 3.747-.1196 5.701-.1196 2.272 0 4.225.0399 6.538.1196.438-.2791.438-1.196.04-1.4751l-1.555-.1196c-1.595-.1594-1.794-.4784-1.794-3.3886v-6.4584c0-1.5946.239-2.5116.917-2.5116zm-67.7337.6779c0-1.3555-.917-2.2724-2.5515-2.2724-1.9933 0-3.7474 1.6345-3.7873 2.99 0 .598.6777.6378 2.2325.6378h1.794c.6777 0 1.4352-.1196 1.9933-.3986.2392-.1196.319-.5183.319-.9568zm5.9002 8.9699c-1.9933 3.5482-5.5813 4.7441-8.4916 4.7441-6.4982 0-10.0463-3.9866-10.0463-8.5712 0-5.2624 4.3853-9.3687 10.445-9.3687 5.0232 0 7.7341 2.7907 7.7341 6.0199 0 .7973-.2392 1.3953-1.7541 1.3953h-9.2889c-1.1163 0-1.196.0797-1.196.7575 0 3.1494 2.3122 6.1793 6.8172 6.1793 1.3554 0 3.1893-.2392 4.5049-2.1528.5182-.0399 1.2757.279 1.2757.9966zm-35.5208-10.8039c-.7176-.1196-1.4751-.1595-2.3521-.1595-1.5548 0-2.4718.1196-2.4718.6379 0 .2791.1595.7575.4386 1.3953.6777 1.4751 2.5913 5.2624 3.4285 6.578.7176-1.1163 2.3521-4.1461 2.5913-4.9833.1595-.5581.1595-.9568.1595-1.2757 0-.6778-.8372-2.0332-1.794-2.1927zm-11.3221 1.3953c-.6777-1.1561-1.196-1.3554-1.9933-1.5548l-.9169-.2392c-.3588-.3189-.3588-1.2757.1594-1.475 1.9933.0797 3.5481.1196 5.5813.1196h9.7274c3.0299 0 5.4618-.0399 8.5713-.1196.5582.0398.5183 1.3156.1595 1.475l-.7176.1196c-1.1163.1994-1.794.4386-1.794.6379 0 .2663.0834.477.2734.9571.0375.0949.0792.2002.1253.3186.877 1.9933 2.1926 4.7043 3.269 6.7375.9324-1.9613 1.6056-3.6892 2.2285-5.2883.1494-.3837.296-.76.4426-1.1302.2791-.7575.4385-1.3555.4385-1.6346 0-.1993-.3588-.4385-1.196-.598l-.7973-.1594c-.2791-.319-.2791-1.3156.1993-1.4751 1.6346.0797 2.7907.1196 3.9867.1196 1.3953 0 2.671-.0399 3.7474-.1196.4386.1993.5582 1.0764.1595 1.4751l-.6777.1196c-1.5947.3189-1.9136.7176-2.711 2.2724-2.2325 4.3055-4.465 8.8902-6.4982 13.3154-.2791.279-.6379.3189-1.1163.3189s-.8372-.0797-1.1162-.3189c-.9967-2.2724-3.5481-7.176-4.9833-9.8471-1.2758 2.1927-4.186 7.774-5.2624 9.8471-.3189.279-.6379.3189-1.1163.3189s-.8372-.0797-1.1162-.3189l-.4466-.9088v-.0001c-2.1683-4.4138-4.3716-8.8987-6.6098-12.9647zm58.8427-1.5548c.8771 0 1.6345.0399 2.3521.1595.9568.1595 1.794 1.5149 1.794 2.1927 0 .3189 0 .7176-.1594 1.2757-.2392.8372-1.8738 3.867-2.5515 4.9833-.8372-1.3156-2.7508-5.1029-3.4285-6.578-.2791-.6378-.4385-1.1162-.4385-1.3953-.0399-.5183.9169-.6379 2.4318-.6379zm-10.9633 0c.8372.1994 1.3156.3987 1.9934 1.5548 2.3521 4.3455 4.7441 9.1693 7.0563 13.8736.2791.2392.6379.3189 1.1163.3189s.7973-.0399 1.1163-.3189c.3186-.5917.7833-1.4692 1.3145-2.4722l.0016-.003c1.3297-2.5106 3.0749-5.8057 3.9861-7.3719 1.4352 2.6711 3.9468 7.5747 4.9833 9.8471.2791.2392.6379.3189 1.1163.3189.5182 0 .8371-.0399 1.1162-.3189 2.0332-4.4252 4.2657-9.0099 6.4983-13.3154.7973-1.5548 1.1162-1.9535 2.7109-2.2724l.6777-.1196c.3988-.3987.2791-1.2758-.1595-1.4751-1.0764.0797-2.3122.1196-3.7474.1196-1.196 0-2.3521-.0399-3.9867-.1196-.5182.1595-.5182 1.1561-.1993 1.4751l.8372.1594c.8372.1595 1.196.3987 1.196.598 0 .2791-.1595.8771-.4385 1.6346-.2308.5539-.4583 1.1212-.6931 1.7067-.5762 1.4371-1.1964 2.9839-2.0179 4.7118-1.0764-2.0332-2.3919-4.7442-3.269-6.7375-.046-.1184-.0877-.2237-.1253-.3186v-.0002c-.19-.4799-.2734-.6906-.2734-.9569 0-.1993.6778-.4385 1.794-.6379l.7176-.1196c.319-.1594.3987-1.4352-.1594-1.475-3.1096.0797-5.5415.1196-8.5713.1196h-9.7673c-2.0332 0-3.588-.0399-5.5813-.1196-.4784.1993-.4784 1.1561-.1595 1.475zm45.567 7.2956c-.04-4.0664-1.395-7.5746-4.146-7.5746-2.153 0-3.867 1.8737-3.867 6.4185 0 4.3853 1.595 7.6145 4.385 7.6145 2.751 0 3.668-2.711 3.628-6.4584zm6.977-.598c0 6.1394-5.183 9.0098-11.123 9.0098-5.741 0-10.8036-2.8704-10.8435-8.6111-.0798-5.98 5.4215-9.2889 11.1225-9.2889s10.844 2.99 10.844 8.8902z"/><path d="m345.652 24.9649c.393.4077.786.8299 1.179 1.2521.031-.0461.058-.0801.078-.1061.018-.0233.032-.0403.039-.054 0-2.3004 0-4.6008.014-6.9012 0-.364-.204-.5096-.466-.6697-4.12-2.4897-8.488-3.2176-13.103-1.6889-5.78 1.9218-7.091 7.1632-6.436 11.0797.394 2.3441 2.024 3.9019 3.859 5.256.963.7127 1.989 1.3346 3.014 1.9561v.0001c.944.5719 1.887 1.1436 2.78 1.7856.699.495 1.354 1.0337 1.777 1.7908.829 1.5141.087 3.0866-1.602 3.4214-1.572.3203-2.97-.1456-4.266-.99-1.776-1.1502-3.159-2.7081-4.426-4.3678-.03-.0372-.055-.082-.08-.1278-.075-.1336-.154-.2762-.371-.2653 0 .5602-.004 1.1173-.007 1.6721-.006 1.1033-.013 2.1979.007 3.2926.004.3179-.03.6536-.064.9894v.0002.0001.0001.0001c-.077.7563-.154 1.5131.209 2.0676.593.9025 1.677 1.4054 2.706 1.8828l.001.0001c.133.0616.265.1229.394.1845 4.281 2.0384 8.503 1.9801 12.653-.3931 5.445-3.1157 7.046-12.5356.771-16.8016-1.063-.7279-2.155-1.3977-3.276-2.0092-.21-.1129-.422-.2241-.632-.3351-1.013-.5331-2.019-1.0625-2.935-1.7614-.436-.3203-.815-.6989-1.062-1.1793-.816-1.5433 0-2.8682 1.732-2.8974 1.514-.0291 2.868.3932 4.135 1.1648 1.252.7717 2.373 1.7035 3.378 2.7517zm-31.536 2.999c-.191.4906-.382.982-.574 1.4737-.683 1.7554-1.368 3.5158-2.061 5.2673-.209.5231-.417 1.0464-.624 1.5697-1.418 3.5695-2.834 7.1373-4.472 10.6165-.045.096-.086.2056-.128.3177-.138.3644-.285.7555-.586.7889-.371.0337-.559-.3581-.733-.7193v-.0001c-.052-.1065-.102-.2103-.155-.2998-2.858-4.7278-5.443-9.6114-8.027-14.4916v-.0001-.0001-.0002-.0001-.0002c-.575-1.086-1.15-2.1718-1.727-3.2557-.233-.4367-.466-.8735-.83-1.2666v.6843c0 1.3207.003 2.6414.006 3.962v.0047c.009 3.526.017 7.0521-.035 10.5781-.03 1.4706.538 2.446 1.703 3.2031.116.0728.247.1602.364.2475.007.0073.011.0182.018.0401s.018.0546.04.1055h-4.63c-1.121 0-1.121 0-1.121-1.1502 0-2.2556-.003-4.5112-.006-6.7665v-.0009c-.009-6.0131-.018-12.024.035-18.0273.015-1.6598-.655-2.708-1.98-3.4943-.132-.0741-.259-.1529-.389-.2337v-.0001-.0001l-.001-.0001c-.099-.0619-.201-.1251-.309-.1882.1-.1766.249-.1524.386-.1303.043.007.085.0138.124.0138.541-.0024 1.081-.0052 1.621-.0081 2.688-.0141 5.369-.0282 8.061.0081 2.359.0292 4.12 1.092 5.169 3.2468.387.8028.748 1.617 1.11 2.4317.551 1.2393 1.102 2.4798 1.743 3.6833.408.7716.859 1.5141 1.413 2.1984.334.4223.713.8008 1.164 1.092 1.238.8008 2.097.6406 2.839-.6406 1.121-1.9364 1.646-4.0767 2.155-6.2169.358-1.4699.637-2.9511.917-4.4337.039-.2061.078-.4123.117-.6184.087-.4514.262-.5824.713-.5824 2.956.0146 5.926.0291 8.882 0 .655-.0146.844.1602.844.8299-.013 3.6993-.011 7.4017-.01 11.1043v.0001.0001.0001.0001.0001c.003 4.4431.005 8.8867-.019 13.3259-.015 1.9219.029 3.6836 2.227 4.4843h-11.239c-.164 0-.342.015-.52.03-.456.0385-.918.0774-1.169-.1319-.296-.2446-.242-.7035-.188-1.1615.023-.1961.046-.3921.042-.5711-.014-5.6199-.014-11.2544-.014-16.8743l-.027-.011c-.054-.0218-.081-.0327-.119-.0327zm60.538 19.2042h-11.793c-1.121 0-2.17-.1892-3.072-.9172-.495-.4077-.845-.9318-1.078-1.5288-1.164-2.8536-2.65-5.5471-4.368-8.095-.32-.4805-.713-.9172-1.121-1.3395-.597-.6115-1.077-.6551-1.82-.2184-.786.4514-1.295 1.1648-1.674 1.9656-.218.4513-.466.6551-1.019.4222.307-.8612.613-1.7225.92-2.5835l.001-.0046c1.029-2.893 2.058-5.784 3.112-8.6664l.126-.3467c.991-2.7233 1.981-5.4429 3.252-8.0686.044-.089.084-.19.124-.2926v-.0001c.131-.3342.27-.6862.604-.6974.304-.0112.469.3272.623.6428.044.0916.088.1813.134.2599 2.382 4.0825 4.482 8.3004 6.581 12.5178.184.37.369.74.553 1.1099 2.038 4.0912 4.033 8.2115 6.013 12.3172.801 1.6453 2.009 2.6353 3.902 2.6499zm-88.23-10.4537c-1.529-1.9073-3.553-3.0866-5.78-3.9893-.597-.2475-1.194-.364-1.835-.3494-1.164.0291-2.329.0291-3.494 0-.51-.0146-.713.0874-.699.6697.022 2.9271.019 5.8542.017 8.7751-.001.9728-.002 1.9449-.002 2.9162v.0287c-.001.3497-.001.6119.509.6119 3.393-.0146 6.596-.6406 9.391-2.6935.538-.3959.991-.8696 1.443-1.3422.194-.2029.388-.4055.588-.6017-.002-.0024-.005-.0048-.007-.0072.007-.0185.012-.0416.016-.0648.014-.0687.028-.1389.115-.0954.073.0291.044.1602-.029.233-.009-.0031-.018-.0068-.026-.011l.026.0257c-.125.5167-.252 1.0323-.378 1.5474v.0002.0001.0001c-.329 1.3426-.657 2.6817-.962 4.0284-.089.3817-.311.3743-.55.3663-.035-.0011-.07-.0023-.105-.0023h-5.387c-1.219 0-2.439-.0009-3.658-.0018-3.658-.0027-7.316-.0055-10.974.0164-.626 0-.801-.1165-.801-.7862.012-3.4943.012-6.9886.011-10.4829 0-4.892-.001-9.7839.033-14.6758.014-1.6453-.626-2.7227-1.966-3.5089-.247-.1456-.48-.2912-.888-.5532h.816c1.885 0 3.77.0009 5.656.0018 5.656.0027 11.313.0055 16.969-.0164.568 0 .801.1456.917.6989.229 1.0186.482 2.031.736 3.0453v.0012c.134.5366.269 1.0737.4 1.6125.007.0291.014.0582.021.0874.041.1601.082.3203.008.4804-.128.0385-.2-.0361-.275-.1142-.01-.0105-.02-.021-.031-.0314-2.126-2.5333-4.965-3.6835-8.153-4.1785-.99-.1456-1.98-.1602-2.97-.1748-.422 0-.524.1456-.524.5387.014 3.8292.014 7.6583 0 11.4874 0 .4805.16.5533.582.5533.315-.0024.629-.0052.944-.0081h.002c1.578-.0141 3.155-.0283 4.732.0081 1.048.0291 1.82-.3931 2.432-1.1939.495-.6406.844-1.354 1.223-2.3004.215 1.0217.436 2.0233.654 3.0119.476 2.1529.937 4.2445 1.297 6.3498 0 .0292-.013.0453-.026.0615-.004.0041-.007.0082-.01.0125-.002.0023-.003.0047-.005.0072-.001.002-.002.004-.003.0062zm-27.801-9.1359-.066-.3133c-.393.9755-.757 1.7181-1.281 2.315-.466.5824-.99 1.1065-1.791 1.1211-1.301.0174-2.597.0192-3.891.0209h-.001c-.863.0012-1.725.0024-2.587.0082-.306.0145-.407-.1165-.407-.4222.014-3.902.014-7.8039 0-11.7058 0-.3058.087-.4368.407-.4368 4.543-.0437 8.634 1.0337 11.648 4.79.052-.2109-.002-.398-.056-.5828l-.017-.0578c-.078-.3076-.156-.6152-.234-.923-.332-1.3089-.665-2.6196-.96-3.9398-.131-.5533-.335-.7134-.903-.7134-7.585.0145-15.185.0145-22.771.0145h-.713c.422.2621.67.4077.917.5533 1.296.7716 1.951 1.8054 1.937 3.436-.049 5.6101-.046 11.2137-.042 16.8195.001 2.8031.003 5.6068-.002 8.412 0 .5824.116.7717.743.7717 2.991-.0219 5.975-.0191 8.957-.0164h.001.001c.993.0009 1.986.0018 2.979.0018.109 0 .222-.0096.351-.0205h.001c.095-.0081.2-.017.318-.0232-.168-.1051-.325-.1969-.473-.2837-.262-.1536-.498-.2913-.721-.4588-.83-.6261-1.354-1.4268-1.354-2.5188 0-.8735.001-1.7462.002-2.6184v-.0013-.0002-.0001c.003-2.6161.005-5.2281-.016-7.8482 0-.5096.174-.6115.626-.597 1.164.0292 2.329.0437 3.494 0 .742-.0291 1.427.1311 2.111.4223 2.169.9318 4.222 2.0528 5.751 3.9747-.648-2.988-1.283-5.9896-1.957-9.1766l-.001-.0025zm27.874 9.0631c.087.0728.116.2184.043.2475-.083.0313-.092-.0344-.101-.1009-.003-.0265-.007-.0531-.015-.0738.009-.0188.025-.0315.043-.046.005-.0042.01-.0084.015-.013.005-.0043.01-.0088.015-.0138z"/><path d="m27.7837 163.581c.9288.371 1.904.557 2.9257.557 2.1363 0 3.901-.511 5.1085-1.672.2786-.232.6037-.51.8359-.789.2786-.325.5573-.697.7895-1.115.2786-.464.4644-.975.6037-1.486.1393-.604.2322-1.207.2322-1.857 0-.79-.1393-1.579-.3715-2.369-.2322-.743-.6502-1.44-1.161-2.043-.6037-.697-1.3468-1.301-2.1363-1.811-1.0681-.697-2.1363-1.254-3.2973-1.765-.6966-.325-1.3467-.697-1.9969-1.115-.3715-.232-.7431-.557-1.0217-.929-.1858-.232-.3251-.464-.3715-.743-.0464-.185-.0464-.325-.0464-.51-.0465-.604.1393-1.208.5572-1.626.5573-.557 1.3004-.836 2.0899-.789.3715 0 .743.092 1.0681.232.3251.186.6037.371.8823.604.2787.232.4645.51.6038.835.1393.326.1857.697.1857 1.069h3.9011c0-.883-.1394-1.765-.5109-2.555-.3715-.789-.8359-1.486-1.4397-2.089-.6037-.604-1.3467-1.115-2.1362-1.44-.8359-.325-1.7183-.511-2.6007-.511-.9288 0-1.8112.139-2.6935.511-.7895.371-1.579.836-2.1827 1.486-.6038.604-1.0682 1.3-1.3468 2.043s-.4644 1.579-.418 2.369c0 .836.1858 1.718.6037 2.461.418.697.8824 1.301 1.4861 1.858.5573.511 1.2075.975 1.9041 1.347.6966.371 1.3468.696 1.997.975.9288.371 1.7647.836 2.5542 1.393.5108.372.9288.79 1.3003 1.3.2322.325.418.697.4644 1.069.0465.325.0465.557.0465.742v.001c.0464.51-.0929 1.068-.3716 1.532-.2322.372-.5573.697-.9288.929-.3251.232-.743.371-1.161.464-.3715.093-.743.14-1.1146.14-.5108 0-.9752-.093-1.4396-.279-.418-.186-.7895-.464-1.1146-.789-.3251-.326-.5573-.744-.743-1.162-.1858-.464-.2787-.975-.2787-1.486h-3.901c0 .976.1858 1.951.5573 2.88s.9288 1.764 1.6254 2.461c.6966.743 1.5326 1.3 2.4614 1.672zm117.8193.65c-1.3 0-2.369-1.068-2.369-2.368 0-1.301 1.069-2.369 2.369-2.369s2.368 1.068 2.368 2.369c0 1.3-1.068 2.368-2.368 2.368zm0-4.365c-1.115 0-1.997.882-1.997 1.997 0 1.114.882 1.997 1.997 1.997 1.114 0 1.997-.883 1.997-1.997 0-1.115-.929-1.997-1.997-1.997zm1.068 3.158h-.372c-.046 0-.139-.047-.139-.093l-.511-.743c0-.047-.046-.047-.046-.047h-.093-.186v.929h-.418v-2.322h.697c.139 0 .279 0 .418.047l.278.139c.093.046.14.139.14.232.046.093.046.186.046.279s0 .139-.046.232c0 .046-.047.139-.093.186l-.139.139c-.047.046-.14.093-.233.093.024 0 .035.011.047.023.011.012.023.023.046.023.047 0 .047.047.047.093zm-1.115-1.208c.093 0 .14 0 .233-.046.046 0 .093-.047.139-.093.023-.023.035-.047.046-.07.012-.023.024-.046.047-.069 0-.02.008-.039.017-.061.013-.032.029-.071.029-.125 0-.093-.046-.186-.139-.279s-.232-.093-.372-.093h-.278v.79zm-99.1035-18.251v5.434h6.8732v3.436h-6.8732v7.849h9.0094v3.529h-12.9104v-11.378h-2.1363v-3.436h2.1363v-8.963h12.9104v3.529zm37.4776 19.923c1.0216.418 2.1362.65 3.2508.65 1.1146.047 2.2291-.185 3.2044-.65.9752-.418 1.904-1.022 2.6471-1.765.743-.743 1.3468-1.625 1.7647-2.6.418-1.022.6502-2.09.6502-3.205v-15.882h-3.901v15.836c0 .604-.1393 1.161-.3715 1.718-.1858.511-.5109.975-.9288 1.393-.3716.372-.8824.697-1.3933.929-.5572.232-1.1145.372-1.7183.372-.5573 0-1.161-.14-1.7183-.372-.5108-.232-.9752-.511-1.3932-.929-.3715-.371-.6966-.882-.9288-1.393-.2322-.557-.3251-1.114-.3251-1.718v-15.836h-3.901v15.882c0 1.115.1858 2.183.6502 3.205.418.975 1.0217 1.857 1.7647 2.6.7895.743 1.6719 1.347 2.6472 1.765zm28.8859.325-6.455-9.009c-.418.232-.836.511-1.208.789-.371.325-.743.697-1.068 1.068-.186.325-.372.651-.464.976-.093.371-.186.789-.233 1.207l-.012.114c-.042.373-.08.714-.08 1.094v.975 2.74h-3.9015v-23.731h8.8235c.743.046 1.44.185 2.136.371.558.186 1.115.418 1.626.697.418.232.836.511 1.207.882.279.279.558.557.836.883.558.743.929 1.625 1.115 2.554.186.975.186 1.997-.047 2.972-.139.65-.418 1.3-.789 1.904-.325.511-.743.975-1.208 1.393-.464.372-.928.697-1.439.975-.511.279-1.022.511-1.533.697l7.524 10.542h-4.83zm-9.52-11.749c.696-.465 1.439-.883 2.182-1.254.743-.325 1.44-.604 2.09-.836.604-.232 1.115-.418 1.533-.557.371-.14.696-.325 1.021-.558.233-.185.465-.371.65-.65.186-.278.279-.557.372-.882.093-.372.139-.743.093-1.115 0-.418-.186-.836-.418-1.161-.511-.696-1.486-1.114-2.833-1.207h-4.737v8.22zm23.081 5.851h8.731l2.693 5.898h4.133l-11.192-23.777-11.192 23.777h4.133zm4.412-9.52 2.833 6.084h-5.666zm-71.4262-2.229.2769.278 6.3641-6.408h4.319l-8.509 8.581.7999.8-.0086.008.318.32 9.6753-9.709h4.319l-11.826 11.888.0415.042 11.7844 11.847h-4.3189l-8.8933-8.924-1.1166 1.124 7.7343 7.8h-4.319l-5.5803-5.619-1.0607 1.068v-2.136-2.183-2.183l.277.28 1.1113-1.116-.322-.323-1.0663 1.066v-2.136-2.229zm0 13.189 4.4119 4.458h-4.4119zm4.4119-19.319-4.4118 4.411v-4.411z"/><path d="m517.242 58.2759h-55.276v-55.2759h55.276zm-15.209-20.1003h-1.206v.536h3.986v-.5025h-1.206v-3.2496c0-.737.101-1.474.469-2.077.335-.5695.905-1.0385 1.608-1.0385 1.106 0 1.106 1.1724 1.106 2.1439v.0001 4.1876h-1.24v.5025h4.02v-.5025h-1.239v-4.5896c0-1.541-.871-2.412-2.211-2.412-1.24 0-2.044.603-2.546 1.5075v-1.3065h-2.781v.536h1.24zm-4.422-4.3216v.3685c-2.345-.067-4.322.536-4.288 2.4791 0 1.34.67 2.1105 2.077 2.1105 1.072 0 1.708-.5695 2.244-1.3735v1.2395h2.647v-.5025h-1.173v-4.2211c0-2.077-.737-2.7805-2.78-2.7805-.938 0-1.776.268-2.312.737v1.742h.536c0-.8375.268-1.943 1.709-1.943 1.273 0 1.34.8375 1.34 2.144zm-8.409-2.7135c-2.144 0-2.714 1.541-2.714 2.5795 0 .6365.201 1.4405.838 1.876-.737.201-1.273.737-1.273 1.6416 0 1.3065.871 1.6415 2.981 1.6415h.972c.938 0 1.742.1675 1.742 1.139 0 1.273-1.306 1.4405-2.412 1.4405-1.91 0-2.714-.9045-2.714-2.077h-.502v1.876c.737.4355 1.608.737 3.216.7705 1.541 0 3.35-.3015 3.35-2.4455 0-1.4405-.971-2.0435-2.982-2.0435h-1.44c-1.005 0-1.407-.1675-1.407-.7035 0-.4691.469-.7371 1.038-.8376.369.1675.838.268 1.341.268 2.11 0 2.713-1.5075 2.713-2.546 0-.536-.134-.938-.402-1.4405.302-.134.67-.201 1.139-.201v-.5025h-1.809c-.435-.268-.972-.4355-1.675-.4355zm-4.255 3.819c0-1.34-.703-3.819-3.484-3.819-2.747 0-3.45 2.479-3.45 3.819s.703 3.8191 3.45 3.8191c2.781 0 3.484-2.4791 3.484-3.8191zm-16.649 3.2161h-1.273v.5025h4.254v-.5025h-1.273v-4.6901h4.69v4.6901h-1.273v.5025h4.221v-.5025h-1.273v-9.6817h1.273v-.5025h-4.221v.5025h1.273v4.3886h-4.69v-4.3886h1.407v-.5025h-4.388v.5025h1.273zm-1.273 14.7067h8.308v-3.551h-.536c0 1.876-1.206 3.0485-3.049 3.0485h-1.775v-9.6146h1.273v-.5026h-4.221v.5026h1.273v9.6146h-1.273zm9.514-3.6515c0 1.34.703 3.819 3.45 3.819s3.484-2.4455 3.484-3.819c0-1.3401-.703-3.8191-3.484-3.8191-2.747 0-3.45 2.479-3.45 3.8191zm14.372-3.1491h.971v-.5025h-2.814v.5025h1.173l-2.01 4.9581-2.111-4.9581h1.105v-.5025h-3.785v.5025h1.038l2.982 6.8676h.636zm2.713 2.7135h4.791c.033-1.943-1.273-3.3835-3.216-3.3835s-3.25 1.7755-3.25 3.8191c0 2.144 1.106 3.8525 3.283 3.8525 2.479 0 3.049-2.2445 3.049-2.2445l-.536-.1675s-.536 1.7755-2.211 1.7755-1.91-1.8425-1.91-3.5175zm5.327 3.5846v.5025h7.772v-.5025h-1.206v-10.1172h-2.68v.5026h1.206v9.6146h-2.446v-10.1172h-2.646v.5026h1.206v9.6146zm8.341.067c.536.335 1.307.6365 2.446.6365 1.675 0 2.747-.804 2.78-2.144 0-1.0385-.435-1.608-1.675-2.1776-.235-.1039-.476-.1963-.711-.2862-.9-.3448-1.701-.6517-1.701-1.4223 0-.7035.57-1.0385 1.441-1.0385 1.608 0 1.775 1.273 1.775 1.943h.503v-1.742c-.57-.469-1.307-.737-2.278-.737-1.575 0-2.546.871-2.546 2.01 0 1.54 1.073 1.9542 1.808 2.2379.097.0372.187.0722.269.1072.05.0218.1.0432.148.0641 1.142.4922 1.728.7446 1.728 1.6444 0 .5695-.436 1.0385-1.541 1.0385-1.139 0-1.943-.7705-1.943-2.077h-.503zm-16.817-18.7268c0 .938-.167 2.0435-1.273 2.0435-1.139 0-1.273-1.1055-1.273-2.0435 0-.9045.168-2.0435 1.273-2.0435 1.139 0 1.273 1.139 1.273 2.0435zm3.183 14.4723c0-1.0385.301-2.2445 1.474-2.2445.837 0 1.507.5695 1.507 2.2445zm-13.669-2.2109c-1.675 0-1.742 1.809-1.742 3.2496 0 1.474.067 3.283 1.742 3.283 1.742 0 1.776-1.809 1.776-3.283 0-1.4741-.067-3.2496-1.776-3.2496zm3.25-11.0219c0 1.474-.034 3.2831-1.776 3.2831-1.675 0-1.742-1.8091-1.742-3.2831s.067-3.283 1.742-3.283c1.709 0 1.776 1.809 1.776 3.283zm12.596 3.0822c.503 0 .905-.2345 1.206-.603.536-.67.57-1.2395.57-2.0771v-.6365c-1.943 0-2.781.335-2.781 1.8091-.033.871.201 1.5075 1.005 1.5075z"/></g></g></svg>