<svg fill="none" height="34" viewBox="0 0 173 34" width="173" xmlns="http://www.w3.org/2000/svg" xmlns:xlink="http://www.w3.org/1999/xlink"><clipPath id="a"><path d="m.06543 0h172.019v34h-172.019z"/></clipPath><g clip-path="url(#a)" fill="#c1aeac"><path d="m5.20796 29.2268c-5.012166-5.0714-6.2689-11.1333-4.16941-17.7718 1.84814-5.84012 6.12105-9.3442 12.00555-10.807931 4.7756-1.197597 9.4329-.754043 13.8685 1.508081 1.6263.82797 2.9866 1.98121 4.2137 3.31188.2514.28091.2662.48791-.0148.73925-1.3898 1.28631-2.7944 2.57262-4.1694 3.85892-.3992.3696-.621.0591-.8575-.1922-1.3159-1.41938-2.9127-2.42476-4.7756-2.94224-3.8589-1.09411-8.5902-.04436-11.34023 3.41534-2.64654 3.3267-2.86831 9.2555-.41398 12.7152.26613.3845.53231.7689.79841 1.1533.1183.2661.0296.4583-.1774.6505-1.38984 1.3159-2.76485 2.6466-4.2138 3.9033-.23656.1922-.48791.3401-.75404.4584z" fill-opacity=".7"/><path d="m5.20813 29.2265c.05914-.4436.44355-.621.72447-.8872 1.46373-1.375 2.94225-2.75 4.4208-4.1102 1.715 1.6855 3.711 2.8239 6.121 3.1492 3.7554.5175 7.0377-.4435 9.6547-3.2527.4288-.4584.6358-.3696 1.035 0 1.2419 1.1828 2.4987 2.3656 3.7998 3.4893.4879.4287.4139.6801.0295 1.1089-2.4543 2.6465-5.4705 4.2433-8.9893 4.8791-5.7071 1.0201-11.0298.1478-15.71665-3.4745-.38442-.281-.72448-.6062-1.07932-.9019z"/><path d="m23.5122 17.0141c.0148 3.1197-2.1291 5.3227-5.1748 5.3375-3.1049.0147-5.3079-2.1587-5.3227-5.2783-.0148-3.1049 2.1882-5.3818 5.234-5.3966 3.0753-.0296 5.2635 2.203 5.2635 5.3374z"/><path d="m104.848 25.8126c-1.973 0-3.927-.0194-5.9002.0193-.7158.0194-.948-.2321-.948-.9479.0194-5.2812.0194-10.5625 0-15.84367 0-.65774.1742-.90923.8706-.90923 3.8886.01935 7.7956.01935 11.6846 0 .638 0 .851.23215.832.85119-.058 2.99851.406 2.39881-2.322 2.43751-1.992.0387-4.004.0387-5.997 0-.832-.0194-1.083.2708-1.025 1.064.058.6383.039 1.2961 0 1.9345-.039.6771.213.9092.89.8899 2.128-.0387 4.256.0193 6.384-.0194.735-.0193 1.006.1935 1.006.9673 0 2.2053.019 2.2053-2.186 2.2053-1.703 0-3.424.0194-5.127-.0193-.677-.0194-1.025.1741-.967.9285.097.9866-.387 2.2247.193 2.9018.619.7158 1.877.2321 2.864.2515 1.895.058 3.791.0387 5.706 0 .639 0 .929.1934.91.8899-.078 2.9017.425 2.3601-2.361 2.4181-1.47 0-2.979-.0193-4.507-.0193z"/><path d="m164.141 26.1222c-1.877-.0387-4.063-.4643-6.094-1.5863-.503-.2902-.716-.561-.387-1.1413.387-.6965.523-1.7218 1.103-2.0893.6-.3676 1.315.5223 2.012.7738 1.799.6384 3.598.9672 5.494.561.87-.1935 1.625-.5997 1.722-1.5863.096-.9866-.639-1.4509-1.432-1.7024-1.315-.4256-2.67-.7351-4.004-1.122-.561-.1548-1.122-.3095-1.664-.5223-1.644-.6577-2.902-1.7217-3.115-3.5982-.251-2.0506.387-3.7723 2.148-4.93302 2.36-1.54761 4.991-1.56696 7.641-1.16071 1.083.17411 2.128.50297 3.115.9866.464.23214.638.46429.406.96726-.271.58037-.523 1.18007-.735 1.77977-.194.5997-.484.619-1.006.3675-1.722-.8511-3.521-1.2187-5.436-.9285-.465.058-.871.2128-1.258.4449-.561.3482-.87.8512-.851 1.5283.039.6964.464 1.1027 1.083 1.3541.948.4063 1.974.5997 2.96.8706 1.064.2901 2.128.5416 3.154.9285 1.644.6384 2.863 1.7411 3.056 3.6369.194 1.9926-.503 3.5982-2.167 4.7396-1.586 1.1607-3.424 1.4315-5.745 1.4315z"/><path d="m42.6536 17.0299c-.0967-5.2812 4.1592-9.47911 10.1755-9.18893 2.3215.11607 4.4107.83184 6.1324 2.47613.4643.445.6191.7932.0194 1.1994-.1548.1161-.2902.2515-.4256.387-.4836.4255-.8899 1.0446-1.4509 1.238-.6577.2322-1.0059-.619-1.5089-.9479-2.3795-1.4895-5.8809-1.0059-7.564 1.122-1.7797 2.2634-1.5863 5.8423.4256 7.7961 2.0506 1.9926 5.5714 2.0893 7.7574.1161.6578-.5997 1.006-.561 1.5283.0387.2708.3095.619.5804.9092.8512 1.006.9092 1.0253.9672 0 1.7991-3.308 2.6309-6.9642 2.9018-10.7172 1.2961-3.5208-1.5283-5.2038-4.3913-5.2812-8.183z"/><path d="m154.488 25.7545c-.928.0194-1.876 0-2.805.0581-.754.0387-1.025-.2322-1.006-.9866.039-1.9926.02-3.9851.02-5.997 0-3.0953 0-6.1905 0-9.26636 0-1.43154 0-1.43154 1.392-1.43154.813 0 1.606.01935 2.419.03869.27.32887.193.73512.193 1.12202v15.36009c-.019.3675.058.7738-.213 1.1026z"/><path d="m154.488 25.7547c0-5.8616 0-11.7232 0-17.58478.464.11607.31.50298.31.79315.019 5.31993.019 10.65913 0 15.99843.019.2902.135.6577-.31.7932z"/><path d="m79.4283 14.9599c-.8318-4.1592-4.6815-7.08034-9.3824-7.13837-4.4493-.05804-8.2216 2.49547-9.4017 6.36457-1.8958 6.2678 2.5342 11.9553 9.305 11.9553 6.4033-.0194 10.7172-5.1071 9.4791-11.1815zm-9.4597 7.6607c-3.2113.0193-5.5714-2.3988-5.5714-5.6488 0-3.2694 2.3407-5.6295 5.5714-5.6488 3.1919-.0193 5.494 2.3794 5.4746 5.7068 0 3.25-2.2827 5.5908-5.4746 5.5908z"/><path d="m147.562 24.9615c-.967-1.3928-1.934-2.805-2.94-4.1979-.31-.4256-.329-.6577.174-.9672 2.553-1.4509 3.347-3.7337 2.902-6.4807-.407-2.6309-2.148-4.08179-4.585-4.79756-.871-.25149-1.76-.38691-2.67-.38691-2.36 0-4.701.03869-7.061-.01934-.812-.01935-.967.30952-.948 1.02529.039 2.61162.02 5.22322.02 7.81542 0 2.631.019 5.2812-.02 7.9122 0 .6384.155.9672.871.9285.812-.0386 1.606-.0193 2.418 0 .542.0194.851-.1547.832-.7544-.019-1.1027.019-2.186-.019-3.2887-.02-.6771.27-.8125.909-.8899 2.031-.2708 3.366.3482 4.469 2.2054 1.741 2.9211 1.895 2.8244 5.261 2.7276.233 0 .581.1355.697-.1741.097-.2514-.174-.4449-.31-.6577zm-6.19-7.5253c-1.432.3483-2.883.1355-4.333.1742-.445 0-.484-.3289-.484-.6771 0-.8125 0-1.6057 0-2.4182s0-1.6056 0-2.4181c0-.4449.174-.6577.638-.6384 1.354.0387 2.709-.1354 4.043.1548 1.548.3288 2.38 1.2961 2.438 2.805.039 1.5863-.735 2.6309-2.302 3.0178z"/><path d="m128.662 10.5107c-1.432-1.64437-3.347-2.26342-5.436-2.32145-2.515-.07738-5.03 0-7.545-.05804-.774-.01935-.987.25149-.987.9866.039 2.57289.02 5.14579.02 7.71869v7.4286c0 1.5282 0 1.5282 1.509 1.5282 2.631 0 2.631 0 2.631-2.6309 0-2.2441 0-2.2441 2.244-2.2441 1.876.0194 3.733.0194 5.494-.7931 3.656-1.683 4.72-6.5774 2.07-9.6145zm-5.146 6.9642c-.793.1741-1.606.1161-2.399.1354-2.263 0-2.263 0-2.263-2.2247 0-1.0639 0-2.1279 0-3.1919 0-.4449.116-.7545.638-.7351 1.354.0387 2.708-.1354 4.043.1547 1.586.3482 2.38 1.3542 2.38 2.9212 0 1.6056-.813 2.5729-2.399 2.9404z"/><path d="m82.311 16.8946c0-2.6116.0193-5.2232-.0193-7.8154 0-.69643.1741-.96726.9092-.96726 3.869.03869 7.738.01934 11.5877 0 .6577 0 .8899.2128.8899.88988.0387 2.41818.058 2.41818-2.3408 2.41818-2.0312 0-4.0625.0193-6.0937 0-.6771-.0194-.9092.2321-.8705.8898.0387.9673.0387 1.9345 0 2.9018-.0387.6771.2128.9092.8899.8899 2.0892-.0387 4.1785.0193 6.2871-.0194.8125-.0193 1.0447.2515 1.0447 1.0447 0 2.244.0193 2.244-2.2247 2.244-1.6831 0-3.3467.0194-5.0298-.0193-.6964-.0194-.9672.1934-.9479.9285.0387 1.5476-.0193 3.0953.0194 4.6429.0193.677-.2322.9285-.8899.8898-.7738-.0386-1.5476-.0386-2.3214 0-.6578.0387-.9092-.2321-.8899-.8898.0193-2.6697 0-5.3586 0-8.0283z"/></g></svg>