<svg fill="none" height="32" viewBox="0 0 79 32" width="79" xmlns="http://www.w3.org/2000/svg"><g fill="#c1aeac"><path d="m47.6338 12.4561c1.9581-3.13622 3.8498-6.1563 5.7415-9.17639.1327-.21572.2489-.43144.3982-.63056.5642-.8131.8463-2.00786 1.676-2.406113.8131-.381658 1.9415-.116157 2.9371-.132751h.8297c.1494.315284-.083.497816-.1991.696943-4.0489 6.969421-8.1144 13.938871-12.1799 20.908271-1.5598 2.6716-3.3852 5.1109-5.8576 7.0192-2.738 2.124-5.8577 3.1694-9.3092 3.186-3.6009.0166-7.1851-.0166-10.786.0166-.6306 0-.8463-.1493-.8463-.8131.0332-5.7746.0332-11.5659 0-17.3406 0-.6305.1659-.8297.7965-.7799.6804.0498 1.3939.0664 2.0742 0 .7136-.0664.9293.1494.9293.8961-.0332 4.4305 0 8.8445-.0332 13.2751 0 .7633.1991.979.9625.9624 2.9205-.0995 5.8908.2821 8.7781-.1825 4.4472-.697 7.9485-2.9869 9.6908-7.2515 1.7092-4.2149 1.4603-8.3965-1.4436-12.06377-2.4559-3.10305-5.7913-4.76244-9.7904-4.77903-9.1266-.03319-18.2533 0-27.37988-.03319-.79651 0-1.02882.18253-1.01223.99563.03319 8.74496.01659 17.47336.03319 26.21826 0 .7302-.18253.9791-.91266.9127-.68035-.0664-1.37729-.0332-2.074237 0-.43144.0166-.6139726-.1493-.5641911-.5808.0165941-.1991 0-.3816 0-.5808 0-9.8401 0-19.6969 0-29.53704 0-1.2777244-.1493447-1.12838 1.0785981-1.12838h30.36681c8.0314 0 13.6733 4.21484 15.9301 11.91442.0166.0995.0663.1825.1659.4148z"/><path d="m19.2251 5.23778c4.4471 0 8.9109-.06637 13.358.0166 5.5258.11615 9.807 4.34759 10.2882 9.98952.4315 5.2104-3.2192 10.0559-8.4131 11.1676-1.4768.3153-2.9703.1992-4.4637.2158-1.3773 0-2.7712-.0166-4.1485.0166-.4978.0165-.6803-.1162-.6803-.6472.0166-4.1153.0166-8.2472 0-12.3624 0-.4812.1493-.6306.614-.614.8628.0332 1.7091.0332 2.572 0 .5642-.0332.6969.1659.6969.6969-.0165 2.738.0166 5.476-.0331 8.214-.0166.7633.1991 1.0288.9624.9459.6804-.0664 1.3939-.083 2.0742 0 2.9537.365 6.6542-2.4891 7.0026-6.3223.3319-3.6507-2.3563-6.96943-6.0401-7.50043-.5476-.08297-1.0952-.11616-1.6428-.11616-7.3345 0-14.6524 0-21.98688-.01659-.69694 0-.91266.19912-.86288.87947.06638.76331.08297 1.55981 0 2.32311-.08297.8131.2655.9459.97904.9293 2.78772-.0332 5.59212 0 8.37992-.0332.6471 0 .8795.1659.8297.8297-.0498.7965-.0332 1.6096-.0166 2.4061 0 .3817-.0664.614-.531.614-4.2646-.0166-8.51268-.0166-12.7773 0-.39825 0-.531-.1494-.531-.531.01659-3.5179.01659-7.01923 0-10.53713 0-.63056.36506-.54759.74672-.54759h13.60698c.0166-.03319.0166-.03319.0166-.0166z"/><path d="m73.3872 26.6106c-4.3642 0-8.5126 0-12.6611 0-1.9913 0-3.9825-.0166-5.9738.0166-.531 0-.7467-.1161-.7135-.6969.0498-.7799.0498-1.5432 0-2.3231-.0498-.6472.1991-.78.7965-.78 3.5345.0332 7.069.0166 10.6201.0166h1.0952c-2.4062-3.9327-4.7459-7.7493-7.152-11.6489-.7301 1.2778-1.4105 2.4725-2.0908 3.6673-3.1031 5.4428-6.2227 10.8856-9.2926 16.3449-.3153.5642-.6637.7634-1.2943.7302-1.3773-.0498-2.7546-.0166-4.331-.0166 5.7083-9.4253 11.3336-18.7013 17.0087-28.09343 4.6629 7.61663 9.276 15.13363 13.9886 22.78333z"/><path d="m59.3989.126709c1.3607 0 2.5555.016594 3.7336 0 .3485 0 .4813.21572.6306.448034 4.779 7.732737 9.5415 15.465457 14.3205 23.214857.1494.2323.2987.448.0996.7467-.7136 1.145-1.4105 2.3065-2.1572 3.5511-5.559-9.3258-11.0349-18.55197-16.6271-27.960691z"/><path d="m11.775 18.4297c2.0411 0 4.0821.0166 6.1398-.0166.5808-.0166.8629.0996.8131.7633-.0664.7135-.0664 1.4437 0 2.1572.0664.7301-.2323.8463-.8795.8463-2.7546-.0332-5.5258.0332-8.28034-.0332-.87947-.0166-1.02882.2655-1.01222 1.062.04978 2.6716 0 5.3598.03319 8.0314 0 .531-.13276.7302-.68035.7136-.79651-.0498-1.60961-.0166-2.40611 0-.39826.0166-.61398-.0664-.59738-.531.01659-4.1485.01659-8.2804 0-12.4288 0-.5642.31528-.531.69694-.531 2.04105-.0332 4.11528-.0332 6.17287-.0332z"/><path d="m75.9765 28.1039c-.7634 1.2611-1.4271 2.3563-2.0909 3.4681-.1825.3153-.448.3485-.7633.3485-6.1397 0-12.2795 0-18.4192 0-.4978 0-.6803-.1494-.6637-.6638.0331-.8297.0497-1.6594 0-2.4891-.0332-.5642.1991-.6969.7135-.6803 1.1948.0332 2.3729.0166 3.5677.0166h16.5938z"/></g></svg>