<svg fill="none" height="30" viewBox="0 0 42 30" width="42" xmlns="http://www.w3.org/2000/svg" xmlns:xlink="http://www.w3.org/1999/xlink"><clipPath id="a"><path d="m.279114.125244h41.6555v29.7495h-41.6555z"/></clipPath><g clip-path="url(#a)" fill="#c1aeac"><path d="m41.1806.128719c.2467.024326.4934.052126.7506.079927v4.451564c-3.3013-.33361-6.2274.52474-8.6703 2.82176-1.6646 1.56378-2.6202 3.56543-2.9643 5.28213h8.653v4.4689c-2.8774 0-5.7617 0-8.6738 0 .6325 2.6619 2.026 4.7782 4.2535 6.3281 2.231 1.5499 4.7191 2.0677 7.4053 1.7862v4.4898c-.6776.0104-1.3483.0556-2.0155.0278-2.9469-.1112-5.647-.9974-8.0448-2.7175-3.2526-2.3283-5.3342-5.4593-6.0292-9.4035-.9174-5.2127.5421-9.73025 4.3056-13.459 2.1511-2.12674 4.7678-3.409041 7.7494-3.937251.5456-.097302 1.1016-.128578 1.6541-.191129.0556-.00695.1112-.020851.1703-.031276.483.003475.9695.003475 1.4561.003475z"/><path d="m15.8683.130981c.2502.024326.5039.052126.7646.079927v4.448092c-3.5099-.34056-6.5645.61509-9.02133 3.18316-1.95994 2.05029-2.91906 4.53154-2.8565 7.36714.0695 3.1067 1.30315 5.6957 3.65925 7.7181 2.36308 2.026 5.13958 2.7349 8.21858 2.4222v4.4898c-.6742.0104-1.3449.0521-2.0121.0278-2.3144-.08-4.5072-.6499-6.52967-1.7758-3.833-2.1302-6.30725-5.3308-7.394947-9.5842-.218929-.8549-.340557-1.7237-.389208-2.6029-.003475-.0625-.02085-.1251-.0278-.1842 0-.476 0-.9486 0-1.4247.010425-.0626.024325-.1217.0278-.1842.079927-1.4352.357933-2.8287.861815-4.17357 1.42131-3.79478 3.95463-6.58178 7.58956-8.36102 1.49085-.729764 3.07195-1.171098 4.72265-1.348327.3197-.03475.6429-.066026.9626-.097302z"/></g></svg>