<svg fill="none" height="37" viewBox="0 0 230 37" width="230" xmlns="http://www.w3.org/2000/svg"><g fill="#b8a5a3"><path d="m67.4599 14.025c.3074.0068.3849-.082.2869-.3803-.23-.6947-.3507-1.4121-.4213-2.1432-.1526-1.57144.1048-3.11102.2892-4.662.1162-.97476.615-1.63751 1.3802-2.13856 1.3711-.89734 3.1452-.11615 3.2318 1.40749.1435 2.55307.5101 5.11527-.2915 7.63187-.0479.148-.0365.2733.1708.2733h3.1201c-.854-.7698-.8313-1.6762-.8358-2.5781-.0046-1.2914-.0046-2.58041-.016-3.87175-.0068-.66731-.1115-1.31867-.3461-1.94498-.3075-.81762-.8837-1.35511-1.7173-1.60791-.8791-.26647-1.7764-.27558-2.6715-.11388-.7903.14348-1.4006.58532-1.8538 1.24351-.1686.24597-.328.49878-.5353.81535-.8039-1.59653-2.0474-2.34582-3.7783-2.21828-1.1912.05238-2.2388.37806-2.8537 1.51681-.139.12982-.1731.44639-.4236.35301-.1822-.06605-.0911-.33251-.1276-.50788-.0273-.1321-.0341-.26875-.0524-.40312-.0615-.45322-.3234-.59215-.7561-.50332-1.2458.25508-1.2458.25052-1.1046 1.49631.0069.06832.0091.13437.0182.2027.3075 2.5599.2278 5.11293-.1343 7.65923-.0615.4281.0797.4851.4373.4714.5762-.0205 1.1546-.0296 1.7308.0023.4487.0251.5398-.1139.4533-.5534-.5352-2.6989-.6423-5.38631.3735-8.01681.2983-.34846.6513-.62176 1.0704-.81534.6058-.28014 1.2481-.2027 1.8812-.21409.7243.39856 1.075.98388 1.1615 1.83338.2551 2.49158.4806 4.97176-.2573 7.42466-.0934.312.0478.337.2915.3348.7493-.0023 1.5145-.0091 2.2798.0068z"/><path d="m76.1044 20.853c-.2186-.0204-.4418-.0273-.6605-.0136-2.5963.1457-5.1949.0751-7.7913.0364-.5238-.0068-1.0522.0342-1.576.0683-.3712.0228-.6514.2141-.7857.558-.2346.599-.2187 1.2367-.3075 1.9678.353-.2961.6058-.517.8677-.7265.8359-.6628 1.7423-1.1684 2.8264-1.3073 1.1683-.148 1.6079.2209 1.6102 1.4052.0023 2.4096-.0182 4.8215.0045 7.231.0114 1.1251-.1548 2.1637-.9838 3.0018-.0114.0114.0136.0569.0296.123 1.4257-.0433 2.8559-.1367 4.3181-.1617-.9338-.533-1.1069-1.3688-1.1046-2.3003.0068-2.462 0-4.9239.0046-7.3859 0-.3394.0227-.6787.0706-1.0135.107-.7516.4646-1.0158 1.2298-.9429.9361.0888 1.7765.4214 2.5394.9657.3735.2664.7539.5192 1.1342.7766.1685.1139.2915.1663.3211-.1321.1185-1.1365-.6058-2.0406-1.7468-2.15z"/><path d="m228.736 4.10255c-.545.00228-1.087.01139-1.631-.00228-.328-.00911-.385.10705-.34.42362.121.84723.06 1.68079-.223 2.50752-.539 1.5783-1.626 2.85598-2.352 4.50259-.499-1.1273-1.107-2.02468-1.67-2.95162-.799-1.31639-1.533-2.651-1.537-4.25208 0-.19359-.1-.27558-.282-.27558-.832 0-1.665-.00227-2.497 0-.259 0-.289.11616-.143.3143.859 1.17291 1.439 2.49613 2.063 3.79658.777 1.62158 1.617 3.2135 2.248 4.9034.292.779.358 1.5533-.013 2.3231-.392.8131-1.066 1.1091-1.936.87-.164-.0456-.328-.0911-.495-.1139-.824-.1093-1.036.3075-1.106 1.2777-.039.5261.585.1799.899.2574.153.0387.337-.0205.501-.057 1.405-.3029 2.2-1.3095 2.874-2.4733 2.039-3.5211 3.549-7.3313 5.849-10.7111.196-.29152.055-.34163-.209-.33935z"/><path d="m81.5212 21.2541c.0159-.3735.0455-.7447.066-1.1183.0319-.5101-.1184-.6923-.6285-.7037-.5512-.0114-1.075.1162-1.5761.3507-.3143.1481-.4031.3439-.173.6377.148.1891.2482.3849.2619.6423.1503 3.1725.0478 6.3474.0637 9.5199.0046.7949-.041 1.6079-.6217 2.2547-.2073.2301-.0228.3075.1548.3166.3895.0228.7789.0068 1.1684.0068 0-.025 0-.0501 0-.0751.3052 0 .6126-.0251.9156.0068.4349.0456.5693-.1549.5283-.5466-.0114-.1184-.0159-.2369-.0273-.3553-.1617-1.7081-.2483-3.4117.0433-5.1243.1822-1.0705.2664-2.1705.0113-3.2386-.2072-.8564-.2254-1.7082-.1867-2.5736z"/><path d="m142.712 30.2659c.032-3.2409.048-6.484-.013-9.7249-.021-1.0385-.274-1.239-1.289-.9566-.952.2642-.9.016-.855 1.1752.158 4.0175.376 8.0373-.191 12.0434-.034.2437.027.3553.278.3553.979-.0023 1.961 0 2.94 0 .03-.0364.057-.0752.087-.1116-.952-.7242-.966-1.7468-.957-2.7808z"/><path d="m107.741 22.9577c-.561.0956-1.073.3256-1.501.706-.292.2573-.549.5534-.836.8199-.141.1298-.237.4145-.451.3325-.173-.0661-.077-.3371-.098-.5147-.03-.2528-.057-.5056-.068-.7607-.014-.2892-.13-.3872-.424-.3006-.424.123-.852.2414-1.284.3074-.424.0638-.513.2779-.465.6651.116.9588.241 1.9199.294 2.8833.105 1.9017.068 3.8011-.406 5.6641-.075.2961.01.4054.312.394.39-.0137.782-.0023 1.171-.0046.408 0 .815-.0045 1.223.0023.317.0046.405-.0956.23-.3872-.266-.4395-.424-.9201-.492-1.4325-.223-1.6443.041-3.2841.057-4.9262.007-.665.437-1.1251 1.08-1.3415.289-.0979.585-.2072.883-.2323.738-.0592 1.164-.4236 1.383-1.1296.173-.5785.002-.8472-.608-.7447z"/><path d="m104.912 4.16077c1.362-.05011 2.376.57392 3.052 1.74911.075.1321.146.27102.246.38262.187.2027.351.20042.526-.05238.572-.82446.385-1.56692-.572-1.89488-1.439-.49421-2.917-.76979-4.452-.51243-2.271.38034-3.9789 2.17273-4.2476 4.46388-.287 2.44831.8786 4.58231 3.0176 5.45911 1.262.517 2.569.5854 3.895.2597 1.305-.2346 2.525-1.3802 2.58-2.4802-.879.8905-1.772 1.6922-2.906 2.1591-.271-.016-.542-.0228-.813-.0502-2.036-.2118-2.993-1.0704-3.446-3.0723-.335-1.47125-.173-2.90152.351-4.29762.483-1.27995 1.368-2.06341 2.769-2.11351z"/><path d="m90.7221 13.661c-.1185-.3895-.2073-.788-.2893-1.1866-.4054-2.0156-.3279-4.0152.2551-5.98979.2073-.70146.7037-1.05675 1.2913-.97704 1.1638.15715 1.4781-.07744 1.8015-1.24351.1116-.40312-.0296-.47828-.3803-.46917-.8746.0205-1.5464.45778-2.1477 1.03626-.3234.31202-.624.64909-.936.97477-.098-.40084-.0615-.73791-.1276-1.0727-.1161-.5967-.4076-.77435-.9816-.56026-.2847.10704-.5466.29607-.8404.35756-.3553.07516-.394.23914-.3621.56482.2961 2.8742.5534 5.74836-.1822 8.59986-.066.2528.0273.3325.2756.3302.7812-.0091 1.5624-.0091 2.3435 0 .2711 0 .3667-.0774.2802-.3644z"/><path d="m89.1998 28.1434c.016-.7493-.0114-1.4941-.1708-2.2252-.2368-1.0795-.6832-2.036-1.7559-2.5371-1.0818-.5033-2.2001-.4282-3.3161-.107.0661.0068.1321.0159.2005.0227 1.6785.139 2.5872.9452 2.8081 2.6009.3052 2.2912.5238 4.5892-.2072 6.853-.0752.2346-.0251.3621.2368.3621.763 0 1.5259 0 2.2912-.0022.2277 0 .3029-.1116.2277-.328-.5261-1.5191-.3484-3.0837-.3143-4.6392z"/><path d="m126.112 28.8473c.055-.8996.066-1.7946-.041-2.6942-.26-2.191-1.332-3.168-3.528-3.1703-.289 0-.576.0136-.865.0205-1.283.1298-2.169.7607-2.551 2.0247-.228.1412-.301-.0661-.396-.1868-.388-.476-.8-.9246-1.294-1.2936-1.248-.936-2.565-.993-3.892-.1663-.406.2528-.768.558-1.119.8814-.157.1435-.296.4578-.494.3781-.241-.0979-.116-.4236-.123-.6514-.018-.5671-.198-.747-.754-.6787-.318.0388-.628.1367-.945.1982-.353.0683-.442.2437-.38.6104.31 1.8311.371 3.6758.253 5.532-.06.9155-.121 1.8288-.219 2.7398-.075.6924-.068.6924.604.6946.526.0023 1.054.0023 1.58 0 .59-.0022.581 0 .415-.5397-.105-.3394-.203-.6833-.269-1.034-.344-1.7787-.068-3.5529.068-5.3271.073-.9474.576-1.699 1.271-2.3002.649-.5626 1.424-.6013 2.207-.2961.749.2938 1.148.8768 1.244 1.6626.068.5557.118 1.1137.154 1.6739.13 1.9518.253 3.9036-.4 5.8008-.096.2756-.057.4236.268.4213.731-.0045 1.462-.0068 2.191.0023.301.0023.312-.1366.269-.3872-.235-1.3573-.369-2.7261-.321-4.1063.043-1.2253.248-2.4301.49-3.628.564-.6468 1.09-1.3392 1.942-1.6467.337.041.679.0547 1.007.1299.733.1685 1.18.6263 1.309 1.3847.449 2.6305.686 5.2542-.152 7.8573-.075.2369-.021.3508.246.3485.781-.0069 1.562-.0069 2.343 0 .253.0023.335-.0775.24-.3325-.476-1.2731-.438-2.5964-.358-3.9219z"/><path d="m160.522 14.0184c1.323-.1458 2.633-1.3551 2.624-2.4551-.911.8313-1.79 1.6785-2.949 2.1294-.406-.0296-.816-.0364-1.219-.0911-1.209-.164-2.186-.7083-2.605-1.9085-.927-2.64874-.848-5.14032 1.298-7.25156 2.548-.89961 4.024.51016 5.236 2.50753.052-.48056.214-.85862.314-1.25035.18-.70147.032-1.01348-.656-1.2549-.592-.20953-1.189-.40767-1.799-.55343-1.075-.25508-2.152-.29152-3.2.15487-2.416.40539-4.106 2.61456-3.963 5.14486.246 4.39328 4.25 5.52068 6.919 4.82828z"/><path d="m95.6642 13.9748h3.0928c.0228-.0387.0456-.0752.0661-.1139-.7949-.6901-.8928-1.6079-.8905-2.5622.0023-1.93358-.0069-3.86945-.0114-5.80304-.0023-1.2344-.2574-1.4371-1.469-1.17063-.706.15487-.6855.15259-.6514.90416.1253 2.8241.5034 5.65961-.3325 8.44491-.0569.1822-.0205.3007.1959.3007z"/><path d="m152.371 23.3948c-.795-.4373-1.658-.5079-2.544-.5011-2.599.016-4.856 1.9997-5.177 4.5687-.33 2.6396 1.055 4.8169 3.517 5.5297 1.339.6013 2.676.5967 4.015 0 3.05-.8973 4.491-4.309 3.038-7.2356-.594-1.1979-1.571-1.97-2.849-2.3617zm-.565 8.8412c-.1.1048-.196.2141-.202.3553-.137-.0456-.281-.0205-.424.0137-.67.1526-1.337.1526-2.009 0-.146-.0342-.291-.0593-.428-.0114-.009-.2209-.203-.353-.337-.5056-1.772-1.9951-1.865-5.589-.203-7.6661.406-.5056.888-.7948 1.569-.7857.72.0114 1.428-.0023 2.073.3872.046.0273.1.0319.155.025-.039.2096.155.3553.259.5102 1.638 2.421 1.347 5.7825-.453 7.6774z"/><path d="m135.868 23.3857c-1.384-.6833-2.787-.7152-4.204-.1025-.098.0205-.2.0319-.296.066-2.143.7562-3.366 2.5326-3.334 4.8397.032 2.3868 1.289 4.0995 3.521 4.7964 1.337.6104 2.676.6104 4.017.0137 2.13-.6036 3.48-2.2912 3.551-4.4434.089-2.6282-1.004-4.3637-3.255-5.1699zm-.637 8.9027c-.082.0911-.178.1799-.21.2984-.13-.0706-.285-.0205-.426.0113-.681.1526-1.359.1617-2.043.0046-.145-.0342-.293-.0569-.435-.0114-.013-.3029-.3-.4532-.464-.665-1.667-2.1796-1.608-5.507.148-7.7412.114-.1458.278-.2688.307-.4578.132.0592.28.0068.422-.0273.751-.18 1.498-.1663 2.245.0296.107.0273.223.0751.328.0433.043.2231.239.3666.371.5306 1.822 2.2593 1.708 5.8281-.243 7.9849z"/><path d="m52.1613 28.7856c.5671-2.2501-.5238-4.457-2.6624-5.3931-1.3801-.7197-2.7785-.6878-4.1883-.0933-1.8743.4213-3.0063 1.7058-3.7806 3.3433-.7812 1.6489-.9042 3.2887.3279 4.8283.4191.5238.8313 1.0317 1.5123 1.2185.0387.0318.0729.0706.1139.0956 1.3756.8586 2.8127.7652 4.2771.2824 1.8789-.2778 3.8831-2.2274 4.4001-4.2817zm-1.8242-1.4029c-.1094 1.8493-.8268 3.4458-2.2525 4.6848-.1685.148-.3803.2801-.4532.5102-.1663-.0866-.3553-.0183-.5284.0182-1.0089.2118-1.9882.1708-2.9357-.2688-.1093-.0501-.2186-.0888-.3234-.0592.0205-.1731-.0842-.3166-.1617-.4691-1.3391-2.6647-.6491-5.8236 1.6785-7.6911.1526-.123.3439-.2187.3758-.4373.1754.0797.3644.041.5489.0023.8017-.1708 1.5965-.1526 2.3891.0569.1139.0296.2368.082.3553.0547.025.189.1799.3188.2938.4646.7197.9246 1.0795 1.9882 1.0135 3.1338z"/><path d="m179.286 23.0893c-.815.0023-1.631-.0091-2.444-.0091-.107 0-.241-.0478-.323.1162.287.3006.619.5876.692 1.0271.112.681.046 1.3437-.234 1.9906-.561 1.2913-1.367 2.4619-1.841 3.7965-.132.3713-.426.5626-.842.5056-.891-1.7741-1.784-3.546-2.672-5.3202-.287-.5716-.403-1.1638-.066-1.7514.187-.3257.053-.3598-.237-.3553-.883.0091-1.765.0137-2.648-.0022-.385-.0069-.39.1093-.208.4008 1.695 2.7148 2.966 5.6436 4.284 8.5474.178.3895.287.7994.303 1.2276.066 1.7127-1.348 2.6715-2.879 1.9564-.077-.0365-.154-.0706-.23-.1116-.125-.0661-.216-.0592-.28.0911-.175.4213-.389.8313-.444 1.2936-.034.3029.066.4373.412.4805.907.1116 1.615-.255 2.28-.7971 1.522-1.2389 2.275-2.9653 2.995-4.7144.075-.1139.153-.2232.223-.3393 1.526-2.5212 2.54-5.3362 4.384-7.6775.242-.3029.062-.3553-.225-.3553z"/><path d="m96.8686 2.76271c.5307.00455 1.0386-.53294 1.0477-1.10687.0136-.72424-.41-1.188849-1.0864-1.193404-.6901-.004555-1.1433.450944-1.1365 1.150134.0046.64909.5102 1.14558 1.1752 1.15014z"/><path d="m164.756 22.6908c.578.1549 1.225.0752 1.717.5307.15.1389.328.0614.437-.0957.226-.3211.385-.6741.44-1.0044.011-.476-.235-.8108-.574-.7402-.759.1572-1.542.2779-2.143.8427-.096.0888-.258.1731-.224.3143.037.1526.219.1207.347.1526z"/><path d="m100.74 29.5167c-.032.0228-.067.0365-.087.0615-.073.0934-.146.1868-.207.287-.7906 1.3164-1.7494 2.4506-3.2434 3.0108-.4031-.0273-.8085-.0524-1.2116-.0842-1.3529-.1094-2.2616-.8131-2.7262-2.0817-.1685-.4577-.2915-.9337-.435-1.4006.0296-.3371.0683-.6719.0843-1.009.0455-.9952.3188-1.289 1.3255-1.3232.7424-.0273 1.4872-.0091 2.2319-.0136 1.2139-.0069 2.4324.1571 3.6395-.098.237-.0501.517-.0341.649-.312-.225-1.0978-.701-2.0452-1.6261-2.733-1.2321-.9178-2.6351-.9953-4.0813-.8267-2.1772.2528-3.8056 1.658-4.3522 3.7351-.5831 2.2114.148 4.3819 1.9335 5.6482 1.3802.9793 2.9243 1.207 4.5664.8882.3234-.1002.6536-.1799.9657-.3052 1.4348-.5762 2.41-1.5464 2.63-3.1384.016-.1025.105-.2323-.056-.3052zm-4.6853-5.9852c.927.041 1.469.5921 1.8175 1.4029.1412.3302.2163.6787.3325 1.0135-1.4918.0546-2.9835.1207-4.4776.1594-.1958.0046-.4099-.0273-.5876.0615.123-.5102.2802-1.0089.5444-1.469.5283-.9133 1.3733-1.2116 2.3708-1.1683z"/><path d="m86.0186 9.84136c-.5056 1.74914-1.5145 3.00404-3.0883 3.78064-.5238 0-1.0477.0251-1.5715-.0023-1.2435-.0615-2.1317-.6491-2.651-1.8015-.5807-1.2868-.8176-2.60315-.4509-3.9947.2368-.00683.4737-.02049.7105-.02277 2.1318-.00228 4.2658.00455 6.3975-.00456.8905-.00227 1.0614-.31885.615-1.09775-.0251-.04327-.0592-.08199-.0911-.12071-.7493-1.70128-2.0247-2.6806-3.8991-2.81725-.8062-.05922-1.5806.14348-2.3549.34617-3.2842.85406-4.7873 4.4525-3.1521 7.44737 1.3073 2.3937 4.2156 3.0314 6.4453 2.4506 2.1022-.5352 3.4914-2.3572 3.0906-4.16324zm-4.6097-5.44776c.9634.05238 1.526.60581 1.863 1.47126.1276.32796.1822.6878.3576.99526-.0752-.00911-.1503-.01594-.2232-.00683-1.5829.20498-3.1703.08427-4.7554.05238-.0501 0-.0957.00456-.139.01595.1139-.46233.2779-.90645.5148-1.32323.5261-.92694 1.3596-1.25945 2.3822-1.20479z"/><path d="m59.5189 19.2659c-.9953.1002-1.9268.3621-2.6169 1.1615-.7606.4077-1.1547 1.0568-1.305 1.8926-.1685.9383-.6513 1.3369-1.5965 1.3847-.0752.0046-.1731-.0273-.2141.0775.2255.2209.2619.271.492.296.7834.082.9041.3029.7811 1.1456-.2915 1.9974-.5784 3.9947-.8882 5.9898-.2186 1.4075-.4441 2.8196-.9269 4.1656-.2893.8039-.7402.9702-1.5191.6377-.1412-.0592-.2915-.1139-.4077-.2073-.3803-.3166-.5603-.164-.7356.2323-.3576.8108-.2961.845.5557.9383 1.1182.123 1.9176-.3393 2.6396-1.1045 1.0431-1.1046 1.5851-2.4347 1.822-3.9082.3348-2.093.5717-4.1997.8176-6.3064.1116-.9429.3963-1.6489 1.6125-1.7537.025-.0022.0478-.0341.1025-.0751-.2187-.057-.4145-.1048-.6081-.1595-.7744-.2186-.9315-.4782-.7129-1.2708.1617-.5876.3667-1.1638.5535-1.7446.4874-.3279.9474-.7447 1.5988-.3256.6149.3962.7903.3211 1.0522-.3781.1845-.4783.0091-.7379-.4965-.6878z"/><path d="m128.409 4.41661c.82.26419 1.399.78346 1.583 1.63752.157.7288.253 1.46898.346 2.20917.228 1.806.121 3.5893-.451 5.3293-.098.2984-.011.4077.292.4054.763-.0045 1.528-.0023 2.291-.0023.28 0 .358-.1047.248-.3803-.398-1.018-.439-2.0771-.378-3.1543.064-1.10005.105-2.20464-.064-3.30239-.18-1.17974-.558-2.25472-1.694-2.86053-.67-.35757-1.405-.48511-2.164-.48966-.129-.05011-.262-.04327-.396-.03872-1.353-.07288-2.599.50561-3.1 1.65574-.075.17081-.143.35529-.389.31885.007-.23686.02-.47372.016-.71058-.016-.67641-.324-.95427-.995-.90416-.36.02733-.684.19814-1.03.27102-.285.05921-.307.18675-.25.42361.701 2.91975.687 5.84182.041 8.76612-.069.3097.013.435.344.4281.712-.0136 1.425-.0182 2.136.0023.346.0091.439-.082.332-.4282-.268-.8791-.375-1.7855-.423-2.7034-.078-1.48488.136-2.9402.35-4.40007.524-1.55097 1.711-2.28888 3.355-2.07252z"/><path d="m194.664 13.6998c-.305.0046-.61.016-.915.016-1.351 0-2.337-.6172-2.975-1.7924-.508-.936-.637-1.95864-.619-3.00629.02-1.02715.171-1.18658 1.186-1.1843 1.884.00456 3.77.0205 5.653.03189.153 0 .305 0 .458-.01595.635-.06832.806-.31201.624-.91783-.226-.75385-.654-1.37788-1.257-1.87665-1.05-.87-2.264-1.2959-3.626-1.23668-2.246.09793-3.961 1.1228-4.892 3.17027-.904 1.99053-.558 3.92864.859 5.56164 1.491 1.7195 3.464 2.0589 5.623 1.5806 1.781-.2187 3.398-1.9951 3.37-3.7602-.753 1.6011-1.856 2.7877-3.489 3.4299zm-4.363-7.12851c.084-1.09092 1.423-2.36176 2.594-2.45969 1.307-.10932 2.605.74474 2.874 1.94953.184.82673.066 1.49631-1.061 1.35055-.285-.03644-.577-.01138-.866-.01138-.271-.00228-.544 0-.815 0v.0296c-.645 0-1.289-.00227-1.934 0-.574 0-.838-.2824-.792-.85861z"/><path d="m216.571 11.7684c.014-1.0362.018-2.07022-.009-3.10648-.023-.89733-.011-1.79922-.26-2.67833-.321-1.13875-1.031-1.83794-2.202-2.07252-.624-.12299-1.248-.12071-1.877-.07516-.99.02278-1.722.51699-2.291 1.28451-.2.26874-.378.55343-.567.82901-.478-.82218-1.098-1.50315-1.959-1.94271-1.236-.63086-2.842-.36439-3.587.62859.41-.09337.782-.19814 1.162-.25735 1.378-.21864 2.236.46916 2.343 1.85388.039.50788.101 1.0112.139 1.51908.153 1.9837.255 3.96508-.412 5.88958-.102.2961-.027.3918.283.3849.747-.0136 1.494-.0182 2.238 0 .378.0091.419-.1252.312-.4509-.389-1.1912-.46-2.4233-.439-3.66907.02-1.26173.3-2.4893.43-3.73509.868-1.49631 1.808-2.00191 3.257-1.75139.922.48055 1.353 1.24351 1.33 2.27977-.007.32113.041.64453.052.96566.078 2.01786.246 4.04252-.396 6.01032-.1.3074.037.3484.287.3484.815-.0045 1.631-.0045 2.446 0 .248.0023.369-.0432.189-.3097-.401-.5853-.48-1.2503-.469-1.945z"/><path d="m202.28 5.68255c-.023-.07971-.046-.12298-.048-.16853-.018-1.43482-.312-1.63297-1.667-1.14558-.251.0911-.344.21864-.314.48738.059.57393.095 1.15014.134 1.72634.155 2.30938.148 4.61644-.212 6.90994-.059.3758.068.4805.426.4623.424-.0228.849-.0045 1.273-.0045.973 0 .973 0 .809-.9839-.429-2.5668-.365-5.10616.451-7.60002.029-.08654.154-.19586.009-.31202-.31.16171-.508.48967-.861.62859z"/><path d="m165.13 31.4664c-.845-.2027-1.713-.246-2.574-.3234-.608-.0547-1.218-.0911-1.824-.1595-.301-.0319-.513-.2027-.492-.5375.02-.3234.266-.4076.535-.4304.185-.0137.374.0023.56.0023 1.531.0023 2.986-.2642 4.191-1.2914.927-.7925 1.346-1.8083.977-3.0085-.446-1.444-1.528-2.2456-2.945-2.6169-.984-.2573-1.993-.2163-2.988-.0751-.997.1412-1.89.5397-2.594 1.2959-1.348 1.4462-1.207 3.3297.346 4.5322.294.2277.617.4213.923.6331.123.0843.323.1321.316.2984-.007.1776-.223.1685-.355.2323-.228.1116-.474.1958-.681.337-.651.4533-.617 1.1456.052 1.5442.126.0729.296.0934.353.2778-.17.1822-.419.1959-.633.2779-.492.189-.984.3712-1.369.7584-.86.8654-.733 2.0338.299 2.6761.405.2505.826.4623 1.3.5671.178.0387.392.0979.501.2231.251.2847.545.3075.875.2711 1.1.0022 2.202 0 3.302.0114.258.0022.469-.0456.583-.3007.954-.1321 1.852-.4259 2.656-.9656.865-.5831 1.198-1.4758.92-2.4871-.303-1.1364-1.228-1.5031-2.234-1.7422zm-5.71-6.5296c.417-1.0385 1.223-1.6079 2.357-1.6352 1.148-.0274 1.984.4942 2.492 1.5213.243.492.344 1.0272.335 1.6307.027.6445-.171 1.2845-.527 1.8767-1.013 1.6921-3.334 1.7354-4.388.0683-.693-1.0955-.743-2.2798-.269-3.4618zm5.131 11.08c-.344.1389-.708.2255-1.063.3348-1.194-.0023-2.387-.0023-3.581-.0046-.173-.0683-.348-.1321-.519-.2072-.779-.3508-1.148-.927-1.104-1.715.045-.854.489-1.4211 1.316-1.6739.893-.2733 1.813-.1936 2.726-.205.663-.0068 1.319.0592 1.963.2255.779.2027 1.264.7607 1.328 1.5441.071.8541-.241 1.3688-1.066 1.7013z"/><path d="m185.962 10.0532c.125-3.05643-.119-6.10599-.05-9.160113.002-.152592-.005-.305184-.005-.457776.002-.177645-.068-.268744-.257-.307462-1.191-.241414-2.189.758406-1.818 1.901711.28.86089.201 1.70356.148 2.56673-.018.28924-.118.30746-.344.2027-.414-.19586-.829-.38717-1.248-.57393-2.282-1.02259-4.648-.38034-5.973 1.62158-.379.56937-.675 1.17974-.845 1.84249-.536 2.07707.022 3.87397 1.512 5.36347 1.346 1.346 2.999 1.428 4.739.9543.781-.164 1.412-.5352 1.768-1.2845.325-.2232.544-.2779.626.2414.077.4897.348.8928.879 1.0158.451.1047.911.0569 1.367-.0023.248-.0319.255-.1617.159-.353-.563-1.1274-.708-2.3504-.658-3.5711zm-2.045.6286c-.169.624-.433 1.2116-.686 1.8037-.617.3485-1.13.8381-1.708 1.2367-2.419-.0524-3.284-.7812-3.792-3.168-.298-1.39609-.203-2.76714.246-4.11314.701-2.10668 2.45-2.31393 4.161-2.00647.198.03644.31.20042.435.33479 1.59 1.71268 1.938 3.70548 1.344 5.91242z"/><path d="m147.349 8.41984c.674.06149 1.187.35529 1.474 1.00209.576 1.29817.983 2.63957.999 4.07217.005.3302.089.4509.426.4464 1.037-.0137 2.073-.0137 3.109 0 .396.0045.385-.1253.198-.4031-.597-.8883-1.145-1.8061-1.665-2.7421-1.644-2.96989-3.086-6.04678-4.792-8.98247-.075-.12982-.104-.34618-.255-.35529-.184-.00911-.223.21864-.305.35529-.824 1.38699-1.542 2.83092-2.245 4.28169-1.283 2.64416-2.563 5.28838-4.398 7.61368-.059.0751-.146.1526-.064.3143h2.514.704c-.125-.1708-.166-.246-.225-.3029-.823-.8131-.827-1.7195-.335-2.7034.325-.6514.615-1.32324.924-1.98372.137-.28924.331-.53749.677-.5466 1.089-.03644 2.173-.16625 3.259-.06604zm-3.04-.517c-.249.00684-.235-.12753-.153-.29379.483-.99071.966-1.9837 1.451-2.97441.073-.15031.157-.29607.278-.52838.637.8905 1.166 1.74229 1.605 2.63734.335.68097-.025 1.20479-.792 1.26856-.802.06377-1.59-.12981-2.389-.10932z"/><path d="m44.6616 14.1212h.7037c-.1253-.1708-.1663-.246-.2255-.3029-.8221-.8131-.8267-1.7195-.3348-2.7034.3257-.6514.615-1.32323.9247-1.9837.1366-.28924.3302-.53749.6764-.5466 1.0841-.03188 2.1682-.16398 3.2568-.06149.6742.06149 1.1866.35529 1.4736 1.0021.5762 1.29819.9839 2.63959.9998 4.07219.0046.3302.0888.4509.4259.4464 1.0362-.0137 2.0725-.0137 3.1088 0 .3963.0045.3849-.1253.1981-.4032-.5967-.8882-1.1456-1.806-1.6648-2.7421-1.6444-2.96982-3.086-6.04671-4.7919-8.9824-.0751-.12982-.1048-.34618-.2551-.35529-.1844-.00911-.2232.21864-.3052.35529-.8244 1.38699-1.5418 2.83092-2.2456 4.28169-1.2822 2.64417-2.5621 5.28831-4.3978 7.61361-.0592.0752-.1458.1526-.0638.3143.8245-.0045 1.6717-.0045 2.5167-.0045zm1.8083-6.41343c.4828-.99071.9656-1.9837 1.4507-2.97441.0729-.15031.1572-.29607.2779-.52838.6377.8905 1.1661 1.74228 1.6056 2.63734.3348.68097-.025 1.20479-.7925 1.26856-.8017.06605-1.5897-.12754-2.3891-.10704-.2483.00455-.2346-.12982-.1526-.29607z"/><path d="m166.339 13.7468c1.242.5853 2.533.7379 3.856.2505.542-.0774.902-.4282 1.255-.8062.223-.2392.389-.5739.788-.5831.064 1.2208 1.016 1.8129 2.186 1.362.121-.0478.242-.0934.139-.246-.681-1.0271-.469-2.1887-.496-3.3115-.032-1.23664.064-2.47332-.082-3.70772-.187-1.56464-.986-2.45058-2.519-2.79449-1.127-.2528-2.259-.14348-3.391-.0706-.383.05466-.77.09338-1.15.16626-1.658.3234-1.866.74246-1.141 2.27977.02.04327.045.08199.093.16854.61-1.09092 1.332-1.95865 2.517-2.31166.489.02733.981-.0205 1.473.06149 1.517.25053 2.439 1.61702 2.089 3.1065-.066.27786-.199.52838-.485.49422-.809-.09566-1.581.16853-2.371.18448-.991.02049-1.916.25735-2.793.69463-.979.48966-1.617 1.23213-1.605 2.39138.016 1.2185.533 2.1499 1.637 2.6715zm1.399-4.41835c1.018-.99754 2.25-1.16607 3.578-.98843.528.0706.717.44867.74.94288.036.7311-.098 1.453-.121 2.1796-.3.4896-.572.9952-.94 1.4439-.558.6787-1.262.9315-2.116.8199-1.039-.1799-1.642-.8153-1.9-1.8106-.262-1.0135.012-1.8539.759-2.58725z"/><path d="m112.296 13.7468c1.241.5853 2.532.7379 3.856.2505.542-.0774.902-.4282 1.255-.8062.223-.2392.389-.5739.788-.5831.063 1.2208 1.015 1.8129 2.186 1.362.121-.0478.241-.0934.139-.246-.681-1.0271-.469-2.1887-.497-3.3115-.032-1.23664.064-2.47332-.082-3.70772-.186-1.56464-.986-2.45058-2.519-2.79449-1.127-.2528-2.259-.14348-3.391-.0706-.382.05466-.769.09338-1.15.16626-1.658.3234-1.865.74246-1.141 2.27977.021.04327.046.08199.094.16854.61-1.09092 1.332-1.95865 2.516-2.31166.49.02733.982-.0205 1.474.06149 1.517.25053 2.439 1.61702 2.088 3.1065-.066.27786-.198.52838-.485.49422-.808-.09566-1.581.16853-2.371.18448-.991.02049-1.915.25735-2.792.69463-.979.48966-1.617 1.23213-1.606 2.39138.016 1.2185.533 2.1499 1.638 2.6715zm1.398-4.41835c1.018-.99754 2.25-1.16607 3.578-.98843.529.0706.718.44867.74.94288.037.7311-.098 1.453-.12 2.1796-.301.4896-.572.9952-.941 1.4439-.558.6787-1.262.9315-2.116.8199-1.038-.1799-1.642-.8153-1.899-1.8106-.262-1.0135.011-1.8539.758-2.58725z"/><path d="m18.3258 35.1423c-9.90707-.0546-17.554893-7.8824-17.493401-17.9079.059215-9.61561 8.073721-17.3112555 17.946701-17.23382073 9.5973.07515733 17.2656 8.10332073 17.195 18.00132073-.0683 9.4516-8.0372 17.1928-17.6483 17.1404zm1.4781-22.9549c1.8881-2.33438 2.0657-4.02656.7835-5.33612-1.1707-1.19568-3.0086-1.38699-4.2157-.29835-.5261.476-.9565 1.1843-1.1546 1.86754-.4396 1.50998.4646 2.60773 1.5395 3.59163-.0455.1161-.0911.2323-.1389.3507-2.3139-.1366-4.6279-.2733-6.94179-.4099 1.51449 1.1911 3.07919 2.1499 4.67569 3.0518.6195.3485.8427.7652.8518 1.4918.0501 3.9605.1503 7.9188.2847 11.8771.0114.3302.4145.6468.6377.9702.3302-.2733.8791-.4965.9497-.8244.3257-1.5191.5033-3.0678.7629-4.6006.082-.4874.2528-.9588.3827-1.4394.1321.0046.2619.0092.394.0137.1252.5398.2847 1.0727.3735 1.617.2255 1.4098.4145 2.8287.6331 4.2407.0843.5512.1777 1.0522.9771 1.0135.8768-.0433.7424-.6263.7561-1.1524.0934-3.833.2186-7.6661.2391-11.4991.0046-.9337.3075-1.428 1.0978-1.8607 1.5282-.8335 2.9972-1.7719 4.7964-2.8491-2.7421-.139-5.1016.5876-7.6843.1844z"/></g></svg>