<svg fill="none" height="36" viewBox="0 0 215 36" width="215" xmlns="http://www.w3.org/2000/svg"><g fill="#fff"><path d="m25.8345 20.2883c-1.5423 4.5863-5.5756 7.646-10.0886 8.1807-3.1659.3761-6.57024-.4914-9.51205-2.9458-3.73196-3.5301-4.90737-8.4834-3.39782-12.9714h-.00131c.04718-.1468.06552-.3053.04718-.4678-.07076-.6015-.61719-1.0313-1.21866-.9605-.43111.0511-.771811.3459-.90547.7285l-.002621-.0013c-1.219965 3.6272-.955268 7.5138.746921 10.9417 1.70218 3.428 4.63744 5.9884 8.26588 7.2084 2.07305.6971 4.19455.8924 6.23475.65 5.3294-.633 10.0939-4.247 11.9153-9.6628z"/><path d="m8.34706 26.0041c1.90924 1.1899 4.07664 1.7756 6.27544 1.7206.7705-.0197 1.5449-.1167 2.3115-.2962l-.4967-2.1398c-2.3875.5543-4.8484.1454-6.92793-1.1506-2.08089-1.2959-3.53148-3.3244-4.08577-5.7119-1.14658-4.9283 1.93281-9.86848 6.8612-11.01375v-.00262c.4848-.12318.8386-.56871.8255-1.09024-.0157-.6054-.5189-1.08369-1.1243-1.06927-.0682.00131-.1337.01048-.1979.02358v-.00131c-.0065.00131-.0118.00262-.017.00394-.0079.00131-.0144.00393-.0223.00524-6.0854 1.43617-9.88026 7.54513-8.46505 13.64103.68664 2.9602 2.48448 5.4748 5.06331 7.0813z"/><path d="m7.80377 21.6409 1.73363-1.3497c-2.56834-3.3009-1.24486-8.4153 3.276-9.7742 2.546-.59356 4.9781.2988 6.4575 2.2002l.0013-.0013c.2071.2581.5268.4206.8832.4114.6054-.0157 1.085-.5189 1.0693-1.1243-.0066-.2385-.0891-.456-.2228-.6329l.0013-.0013c-1.3719-1.76247-3.348-2.88677-5.5652-3.16327-2.2171-.27649-4.4081.32629-6.17185 1.69826-3.63892 2.83301-4.29542 8.09811-1.46238 11.73711z"/><path d="m18.1334 19.4799c.4049-.0105.7509-.2385.933-.57l.0013.0013c.004-.0079.0079-.0171.0118-.0249.004-.0066.0066-.0144.0105-.021.9553-1.8712.7745-4.1237-.6211-5.9308-2.7413-3.12391-7.3211-2.3154-9.02591.9488l1.94721 1.0168c1.0156-1.9433 3.7425-2.4255 5.3739-.5648.8373 1.085.9408 2.44.3564 3.559l.0013.0013c-.0773.1547-.1192.3303-.114.5163.0157.6041.5189 1.0824 1.1256 1.068z"/><path d="m13.0964 18.7499c.0302.0144.0603.0288.0904.0406.7496.3447 1.5882.3054 2.2788-.0511.4586-.2371.853-.6119 1.1099-1.1046.6643-1.2711.1716-2.8462-1.1008-3.5105l-1.0181 1.9472c.1979.1035.2752.3486.1716.5464-.1035.1979-.3485.2752-.5464.1717l-.0013.0026c-.3027-.152-.6722-.1638-.9959.0039-.5385.2778-.7495.9396-.4717 1.4781.1048.2032.2647.3604.4521.4613v.0013c.0104.0039.0209.0079.0314.0131z"/><path d="m58.009 26.9216c9.7768 0 16.6288-7.9566 16.6288-17.84082h-3.5682c0 6.63712-3.6756 12.20362-9.4911 13.80882v-13.81013h-3.5695z"/><path d="m90.0725 9.07947v1.78473c-1.4991-1.10595-3.3179-1.78473-5.3529-1.78473-4.9244 0-8.8844 3.99663-8.8844 8.92103 0 4.9245 3.9613 8.9211 8.8844 8.9211 2.0337 0 3.8538-.6775 5.3529-1.8201v1.8201h3.5682v-17.84213zm-5.3529 14.27393c-2.9261 0-5.3162-2.3901-5.3162-5.3529 0-2.9627 2.3901-5.3529 5.3162-5.3529 2.9614 0 5.3883 2.3902 5.3883 5.3529 0 2.9628-2.3902 5.3529-5.3883 5.3529z"/><path d="m40.8968 16.2519c.7495-2.0691 2.7125-3.6035 5.0319-3.6035 2.3547 0 4.3177 1.5344 5.0672 3.6035zm-3.8538 1.7481c0 4.9244 3.9612 8.921 8.8843 8.921 3.39 0 6.3161-1.8555 7.8152-4.5679l-3.4254-1.2842c-.9631 1.3916-2.5696 2.284-4.3884 2.284-2.533 0-4.7095-1.8201-5.2101-4.2457h14.0944c.0354-.3564.0708-.7495.0708-1.1059 0-4.9244-4.0674-8.9211-8.9565-8.9211-4.9231-.00131-8.8843 3.9954-8.8843 8.9198z"/><path d="m128.016 14.388h2.388l2.436 4.92 2.424-4.92h2.388v8.412h-1.944l-.012-5.328-2.148 4.488h-1.416l-2.16-4.488v5.328h-1.956zm12.473 0h6.636v1.752h-4.44v1.572h4.008v1.74l-4.008.012v1.584h4.56v1.752h-6.756zm9.298 0h2.388l2.436 4.92 2.424-4.92h2.388v8.412h-1.944l-.012-5.328-2.148 4.488h-1.416l-2.16-4.488v5.328h-1.956zm16.469 0c.632 0 1.18.088 1.644.264.472.168.836.412 1.092.732s.384.696.384 1.128c0 .44-.132.824-.396 1.152-.256.328-.608.552-1.056.672.536.104.956.348 1.26.732.312.384.468.848.468 1.392 0 .472-.132.888-.396 1.248-.264.352-.64.624-1.128.816-.488.184-1.06.276-1.716.276h-4.152v-8.412zm-.12 3.348c.304 0 .544-.072.72-.216.176-.152.264-.36.264-.624 0-.256-.088-.452-.264-.588-.176-.144-.416-.212-.72-.204h-1.68v1.632zm0 3.36c.384 0 .688-.08.912-.24s.336-.384.336-.672c0-.264-.112-.472-.336-.624-.224-.16-.528-.236-.912-.228h-1.68v1.764zm10.966 1.704-1.224-2.328h-.048-1.584v2.328h-2.196v-8.412h3.78c1.112 0 1.972.26 2.58.78.616.512.924 1.236.924 2.172 0 .632-.128 1.18-.384 1.644-.256.456-.628.812-1.116 1.068l1.752 2.748zm-2.856-4.08h1.596c.448 0 .792-.112 1.032-.336.248-.224.372-.548.372-.972 0-.408-.124-.72-.372-.936-.24-.224-.584-.336-1.032-.336h-1.596zm7.688-4.332h6.636v1.752h-4.44v1.572h4.008v1.74l-4.008.012v1.584h4.56v1.752h-6.756zm15.094 2.532c-.448-.264-.928-.48-1.44-.648-.504-.168-.928-.252-1.272-.252-.272 0-.488.052-.648.156-.152.096-.228.24-.228.432 0 .184.068.34.204.468.136.12.304.22.504.3.2.072.496.168.888.288.584.168 1.064.336 1.44.504.384.168.712.428.984.78.272.344.408.796.408 1.356s-.148 1.04-.444 1.44c-.296.392-.704.688-1.224.888-.512.2-1.084.3-1.716.3-.696 0-1.392-.12-2.088-.36-.688-.248-1.284-.584-1.788-1.008l.852-1.716c.424.376.924.684 1.5.924.584.24 1.1.36 1.548.36.328 0 .584-.06.768-.18.192-.12.288-.296.288-.528 0-.192-.072-.352-.216-.48-.136-.128-.312-.228-.528-.3-.208-.08-.504-.172-.888-.276-.576-.16-1.052-.32-1.428-.48-.376-.168-.7-.416-.972-.744-.264-.336-.396-.78-.396-1.332 0-.52.136-.976.408-1.368.28-.392.672-.692 1.176-.9.512-.216 1.104-.324 1.776-.324.608 0 1.208.088 1.8.264.592.168 1.112.396 1.56.684zm3.161-2.532h2.196v8.412h-2.196zm1.464-2.652 1.764.672-1.74 1.38-1.464-.12zm9.748 11.064-.576-1.488h-3.636l-.588 1.488h-2.256l3.612-8.412h2.256l3.528 8.412zm-3.552-3.168h2.328l-1.152-3z"/></g><path d="m110.999 0v36" stroke="#fff" stroke-width="1.5"/></svg>