<svg fill="none" height="124" viewBox="0 0 124 124" width="124" xmlns="http://www.w3.org/2000/svg"><rect fill="#f9eae5" height="124" opacity=".4" rx="62" width="124"/><g fill="#ee8d8b"><path d="m88.6985 80.5883h-50.1287c-.6135 0-1.1223-.5087-1.1223-1.1223v-25.3337c0-.6135.5088-1.1223 1.1223-1.1223s1.1223.5088 1.1223 1.1223v24.2115h47.8841v-13.8416c0-.6135.5088-1.1222 1.1223-1.1222s1.1223.5087 1.1223 1.1222v14.9638c0 .6285-.4938 1.1223-1.1223 1.1223z"/><path d="m98.7092 92.1104h-70.1353c-.434 0-.838-.2543-1.0176-.6584-.1795-.404-.1197-.8679.1796-1.1971l10.0108-11.5221c.2094-.2394.5237-.389.8529-.389h50.1287c.3292 0 .6285.1346.853.389l10.0107 11.5221c.2843.3292.3592.8081.1796 1.1971-.2245.4041-.6135.6584-1.0624.6584zm-67.6813-2.2445h65.2123l-8.0506-9.2776h-49.1111z"/><path d="m72.4627 88.3695h-17.6573c-.6135 0-1.1223-.5088-1.1223-1.1223s.5088-1.1223 1.1223-1.1223h17.6573c.6135 0 1.1223.5088 1.1223 1.1223s-.4939 1.1223-1.1223 1.1223z"/><path d="m63.5143 68.8717c-3.1274 0-5.6713-2.5439-5.6713-5.6713s2.5439-5.6713 5.6713-5.6713c3.1275 0 5.6713 2.5439 5.6713 5.6713s-2.5438 5.6713-5.6713 5.6713zm0-9.098c-1.8854 0-3.4267 1.5413-3.4267 3.4267s1.5413 3.4267 3.4267 3.4267c1.8855 0 3.4267-1.5413 3.4267-3.4267s-1.5263-3.4267-3.4267-3.4267z"/><path d="m56.3169 76.5182c-.6136 0-1.1223-.5088-1.1223-1.1223v-2.1997c0-3.1274 1.8854-5.8808 4.8034-7.018.5836-.2245 1.227.0598 1.4515.6434.2244.5836-.0599 1.2271-.6435 1.4515-2.05.7931-3.3669 2.7234-3.3669 4.9231v2.1997c0 .6135-.4938 1.1223-1.1222 1.1223z"/><path d="m70.2629 76.5181c-.6135 0-1.1222-.5087-1.1222-1.1223v-2.1996c0-2.1399-1.272-4.0552-3.2472-4.8782-.5686-.2395-.838-.8979-.5985-1.4665.2394-.5686.8978-.838 1.4664-.5986 2.8132 1.1822 4.6238 3.9056 4.6238 6.9433v2.1996c0 .6136-.4938 1.1223-1.1223 1.1223z"/><path d="m55.5536 63.1106c-.8829 0-1.6909-.1945-2.4391-.5836-2.888-1.4964-3.4417-5.3121-3.4566-5.4618-.0749-.5237.2094-1.0474.7033-1.227.4938-.1796 1.0175-.0299 1.3018.404.1197.1347 1.1373 1.1672 3.9056.838 1.5263-.1796 2.7384.1347 3.6063.9427 1.227 1.1372 1.197 2.7683 1.1821 2.9479-.015.404-.2394.7631-.5986.9427-1.5263.7931-2.9329 1.1971-4.2048 1.1971zm-2.7683-3.8906c.3292.5387.7781 1.0325 1.3767 1.3318.9876.5088 2.2894.404 3.8756-.2843-.0748-.2095-.1796-.434-.3741-.5986-.3591-.3292-.9727-.4489-1.8106-.3441-1.242.1346-2.2596.0598-3.0676-.1048z"/><path d="m74.0937 62.8861c-.2245 0-.4639-.0748-.6585-.2094-.3591-.2544-.5387-.7033-.4489-1.1223 0 0 .2544-1.3318.5237-2.6636.1497-.7781.2844-1.3916.3741-1.8405.015-.0898.03-.1646.0599-.2544-1.3467-1.3468-2.4241-2.918-3.2023-4.6687-.2543-.5686 0-1.2271.5687-1.4814.5686-.2544 1.227-.0001 1.4814.5686.7482 1.6759 1.8106 3.1424 3.1573 4.3993l.0898.0898c.2844.3292.3442.7781.1946 1.1522-.0748.2993-.2993 1.3917-.5686 2.7085.1047-.0599.2094-.1197.3142-.1796.7182-.404 1.2869-.7332 1.7059-.9577.9576-.5237 1.2719-.7033 1.8255-.4489.015 0 .03.015.03.015 1.7507.7931 3.6212 1.1971 5.5515 1.1971 7.4221 0 13.4675-6.0454 13.4675-13.4674 0-7.4221-6.0454-13.4674-13.4675-13.4674-.6135 0-1.1222-.5088-1.1222-1.1223s.5087-1.1223 1.1222-1.1223c8.6641 0 15.712 7.0479 15.712 15.712 0 8.664-7.0479 15.712-15.712 15.712-2.0949 0-4.115-.4041-6.0304-1.1972-.808.434-2.7084 1.5114-4.4143 2.499-.1796.1047-.3741.1496-.5536.1496z"/><path d="m52.7104 52.7107c-.1946 0-.3891-.0449-.5537-.1496-1.7208-.9876-3.6063-2.065-4.4143-2.499-1.9154.7931-3.9355 1.1971-6.0304 1.1971-8.6641 0-15.712-7.0479-15.712-15.7119 0-8.6641 7.0479-15.712 15.712-15.712 3.1424 0 6.1801.9277 8.7838 2.6785.5087.3442.6434 1.0475.2992 1.5562-.3441.5088-1.0474.6435-1.5562.2993-2.2296-1.5113-4.8333-2.3044-7.5268-2.3044-7.4221 0-13.4674 6.0453-13.4674 13.4674 0 7.422 6.0453 13.4674 13.4674 13.4674 1.9303 0 3.8008-.404 5.5516-1.1971.0149 0 .0299-.015.0299-.015.5387-.2543.8679-.0748 1.8256.449.419.2244 1.0026.5536 1.7059.9576.1047.0599.2094.1197.3142.1796-.2694-1.3168-.4938-2.4092-.5686-2.7084-.1497-.3741-.0898-.8231.1945-1.1523s.7183-.4638 1.1372-.3441c.6884.1795.7931.6584 1.0026 1.6909.0898.4489.2245 1.0624.3741 1.8405.2694 1.3318.5237 2.6636.5237 2.6636.0898.4339-.0897.8679-.4489 1.1223-.1795.1496-.419.2244-.6434.2244z"/><path d="m61.3297 54.8356c-.0748 0-.1496 0-.2244-.0299-.434-.0898-.7632-.419-.8679-.853-.4489-1.9303-.9427-4.0402-1.1822-4.938-1.8854-.853-3.5613-2.065-4.9829-3.6063-5.8957-6.3446-5.5366-16.3105.808-22.2063 3.0676-2.8581 7.0779-4.3544 11.2678-4.1898 4.1898.1496 8.0804 1.9303 10.9385 4.9979 5.8958 6.3446 5.5366 16.3105-.808 22.2063-3.0227 2.8132-7.0779 4.3245-11.2079 4.1898-.0449.0599-.0898.1347-.1497.2095-.2693.3741-.6284.8829-1.0923 1.5263-.7931 1.1073-1.5862 2.1997-1.5862 2.1997-.2095.3292-.5536.4938-.9128.4938zm-.9576-7.6764c.0149 0 .0299.0149.0448.0149.5537.2245.6435.5836.9128 1.6311.1197.4639.2694 1.1073.4639 1.9004.03.1197.0599.2394.0898.3442.7931-1.0924 1.4365-2.0052 1.6011-2.2596.1796-.3741.5387-.6285.9727-.6434h.1197c3.726.2843 7.437-1.0176 10.1754-3.5614 5.4318-5.0578 5.7461-13.6021.6883-19.034-2.4541-2.6336-5.776-4.1599-9.3674-4.2796-3.5913-.1347-7.0179 1.1522-9.6665 3.5913-2.6337 2.4541-4.16 5.776-4.2797 9.3673-.1347 3.5914 1.1522 7.0181 3.5913 9.6667 1.3168 1.4365 2.8731 2.5288 4.6538 3.2621z"/><path d="m45.2586 42.0715h-4.8334c-.4938 0-.9876-.0449-1.4514-.1197-.5836-.1047-1.4815-.015-1.7508.015-.6135.0897-1.1822-.3442-1.272-.9577-.0897-.6135.3442-1.1822.9578-1.2719.1346-.015 1.4065-.1946 2.454 0 .3442.0598.7033.0897 1.0774.0897h4.8333c.1347 0 .2544-.1197.2544-.2543v-5.0429c0-.0897-.0449-.1496-.0748-.1795-.03-.0299-.0898-.0748-.1796-.0748h-3.0825c-.4639 0-.8829-.2843-1.0475-.7333-.1646-.4339-.0449-.9277.3142-1.2419.2694-.2395 1.0176-1.0625 1.1522-1.9154.0449-.2993.0599-.5686.0599-.8978 0-.1646.015-.3292.015-.5238.0149-.1646-.0748-.2843-.1197-.3292s-.1198-.1047-.2395-.1047c-.1646 0-.3142.1347-.3441.3292-.0449.2544-.0748.4938-.1048.7482-.1347 1.0175-.2693 2.1697-1.2569 2.8581-.3143.2244-.5836.374-.7632.4788-.0299.015-.0748.0449-.1047.0598-.3891 1.4964-1.257 2.484-2.4691 2.8132-.5985.1497-1.212-.2094-1.3617-.808-.1496-.5986.2095-1.2121.8081-1.3617.5537-.1496.7931-.8829.8978-1.3168.1646-.7632.7183-1.0924 1.1223-1.3168.1646-.1048.3591-.2095.5986-.3741.1646-.1198.2543-.8081.3292-1.3168.0299-.2694.0748-.5537.1197-.838.2244-1.2719 1.3018-2.1997 2.5588-2.1997.7033 0 1.3617.2843 1.8555.808.5088.5238.7631 1.257.7332 1.9902-.015.1646-.015.3143-.015.4639-.0149.3591-.0149.7482-.0897 1.1971-.0749.4639-.2245.8978-.419 1.2869h.8679c.6733 0 1.3018.2544 1.7657.7332.4789.4789.7332 1.0924.7332 1.7657v5.0429c-.0299 1.3766-1.1522 2.4989-2.5288 2.4989z"/><path d="m33.7963 42.7c-.419 0-.823-.1796-1.1223-.4938-.2693-.2993-.4339-.6734-.4339-1.0924l-.0748-6.4045c-.015-.8829.6733-1.6011 1.5412-1.6161l2.7534-.0299c.419 0 .8379.1795 1.1372.4938.2694.2993.434.6734.434 1.0924l.0748 6.4045c.015.8828-.6734 1.6011-1.5413 1.616l-2.7533.03s0 0-.015 0zm.6135-7.3622.0599 5.1026 1.3767-.0149-.0599-5.1027zm0-.6584c0 .0149 0 .0149 0 0z"/><path d="m41.2633 38.6597c-.2993 0-.5836-.1197-.8081-.3441-.4339-.449-.4189-1.1523.03-1.5862.3591-.3442.5686-.838.5686-1.3318v-2.2446c0-.6135.5088-1.1222 1.1223-1.1222s1.1223.5087 1.1223 1.1222v2.2446c0 1.1073-.4639 2.1847-1.257 2.9479-.2244.2095-.4938.3142-.7781.3142z"/><path d="m65.4596 42.9543c-.2843 0-.5686-.1047-.793-.3291l-5.9556-5.9556c-.9278-.9278-1.4366-2.1548-1.4366-3.4567 0-1.3018.5088-2.5289 1.4366-3.4566.9277-.9278 2.1548-1.4366 3.4566-1.4366 1.227 0 2.3942.449 3.292 1.272 1.9154-1.7508 4.8932-1.6909 6.7487.1496 1.9004 1.9004 1.9004 4.9979 0 6.9133l-5.9556 5.9556c-.2095.2394-.5087.3441-.7931.3441zm-3.292-12.375c-.7033 0-1.3617.2693-1.8705.7781-.4938.4938-.7781 1.1672-.7781 1.8705s.2694 1.3617.7781 1.8705l5.1625 5.1625 5.1625-5.1625c1.0326-1.0325 1.0326-2.7085 0-3.726-1.0325-1.0325-2.7084-1.0325-3.726 0l-.6284.6285c-.434.4339-1.1523.4339-1.5862 0l-.6285-.6285c-.5087-.5088-1.1821-.7931-1.8854-.7931z"/><path d="m82.3986 51.2892c-.2843 0-.5686-.1048-.7931-.3292l-2.3193-2.3194c-.434-.434-.434-1.1522 0-1.5862.4339-.4339 1.1522-.4339 1.5861 0l1.5263 1.5263 8.1104-8.1103c.434-.434 1.1522-.434 1.5862 0 .4339.4339.4339 1.1522 0 1.5861l-8.9035 8.9035c-.2244.2244-.5088.3292-.7931.3292z"/></g></svg>