<svg fill="none" height="124" viewBox="0 0 124 124" width="124" xmlns="http://www.w3.org/2000/svg"><rect fill="#f9eae5" height="124" opacity=".4" rx="62" width="124"/><g fill="#ee8d8b"><path d="m60.6159 97.9211h-22.4906c-4.4891 0-8.1253-3.6511-8.1253-8.1253v-55.2613c0-4.4892 3.6512-8.1254 8.1253-8.1254h22.4906c4.4891 0 8.1254 3.6512 8.1254 8.1254v10.6243c0 .6135-.5088 1.1223-1.1223 1.1223s-1.1223-.5088-1.1223-1.1223v-10.6243c0-3.2472-2.6486-5.8808-5.8808-5.8808h-22.4906c-3.2471 0-5.8807 2.6486-5.8807 5.8808v55.2463c0 3.2472 2.6486 5.8808 5.8807 5.8808h22.4906c3.2471 0 5.8808-2.6486 5.8808-5.8808 0-.6135.5088-1.1223 1.1223-1.1223s1.1223.5088 1.1223 1.1223c.0149 4.4892-3.6363 8.1403-8.1254 8.1403z"/><path d="m67.634 71.8243c-.6135 0-1.1223-.5087-1.1223-1.1223v-5.4917c0-.6135.5088-1.1223 1.1223-1.1223s1.1223.5088 1.1223 1.1223v5.4917c0 .6285-.5088 1.1223-1.1223 1.1223z"/><path d="m59.0148 88.0451h-27.8925c-.6135 0-1.1223-.5088-1.1223-1.1223s.5088-1.1223 1.1223-1.1223h27.8925c.6135 0 1.1223.5088 1.1223 1.1223s-.5088 1.1223-1.1223 1.1223z"/><path d="m50.65 37.5872h-1.9153c-1.257 0-2.4691-.5387-3.307-1.4665-.419-.4639-1.0176-.7332-1.6461-.7332h-6.0902c-.6135 0-1.1223-.5088-1.1223-1.1223s.5088-1.1223 1.1223-1.1223h6.0902c1.257 0 2.4541.5387 3.307 1.4665.419.4638 1.0176.7332 1.6461.7332h1.9153c.5836 0 1.1523-.2394 1.5712-.6584l.2245-.2245c.838-.8379 1.9902-1.3168 3.1573-1.3168h5.2972c.6136 0 1.1223.5088 1.1223 1.1223s-.5087 1.1223-1.1223 1.1223h-5.2972c-.5836 0-1.1522.2394-1.5712.6584l-.2244.2245c-.838.8379-1.9902 1.3168-3.1574 1.3168z"/><path d="m50.6201 92.7437h-2.5139c-.6135 0-1.1223-.5088-1.1223-1.1223s.5088-1.1223 1.1223-1.1223h2.5139c.6135 0 1.1223.5088 1.1223 1.1223s-.4938 1.1223-1.1223 1.1223z"/><path d="m49.4528 63.6839c-3.1274 0-5.6713-2.5438-5.6713-5.6712 0-3.1275 2.5439-5.6713 5.6713-5.6713s5.6713 2.5438 5.6713 5.6713c0 3.1274-2.5439 5.6712-5.6713 5.6712zm0-9.098c-1.8854 0-3.4267 1.5413-3.4267 3.4268 0 1.8854 1.5413 3.4267 3.4267 3.4267s3.4267-1.5413 3.4267-3.4267c0-1.8855-1.5413-3.4268-3.4267-3.4268z"/><path d="m42.405 77.316c-.6135 0-1.1223-.5088-1.1223-1.1223v-8.4845c0-3.1274 1.8855-5.8808 4.8034-7.018.5836-.2245 1.227.0598 1.4515.6434.2244.5836-.0599 1.2271-.6435 1.4515-2.05.7931-3.3668 2.7234-3.3668 4.9231v8.4845c0 .6135-.5088 1.1223-1.1223 1.1223z"/><path d="m56.3513 77.316c-.6135 0-1.1223-.5088-1.1223-1.1223v-8.4845c0-2.1398-1.2719-4.0551-3.2471-4.8782-.5686-.2394-.838-.8978-.5986-1.4664.2395-.5686.8979-.838 1.4665-.5986 2.8132 1.1822 4.6238 3.9056 4.6238 6.9432v8.4845c0 .6135-.5088 1.1223-1.1223 1.1223z"/><path d="m43.2429 56.9652c-1.631 0-2.9628-.4639-3.9803-1.3617-2.4242-2.1548-2.0201-5.9855-2.0052-6.1501.0599-.5238.4639-.9577.9876-1.0176.5237-.0598.9876.2245 1.1672.7183.0898.1646.823 1.4066 3.5764 1.7807 1.5263.1945 2.6336.808 3.277 1.7957.9128 1.4066.4788 2.9778.434 3.1424-.1198.389-.419.6733-.8231.7631-.9576.2095-1.8405.3292-2.6336.3292zm-3.4865-4.6687c.1945.5986.4938 1.1821 1.0025 1.6311.838.7332 2.1249.9576 3.8308.6733-.015-.2244-.0749-.4638-.2095-.6733-.2694-.4041-.838-.6734-1.676-.7782-1.242-.1795-2.2146-.4938-2.9478-.8529z"/><path d="m72.1679 91.5765c-6.2399 0-11.3127-5.0727-11.3127-11.3126s5.0728-11.3127 11.3127-11.3127 11.3126 5.0728 11.3126 11.3127-5.0727 11.3126-11.3126 11.3126zm0-20.3807c-4.9979 0-9.0681 4.0702-9.0681 9.0681s4.0702 9.068 9.0681 9.068 9.068-4.0701 9.068-9.068-4.0701-9.0681-9.068-9.0681z"/><path d="m86.9673 79.9795c-.6136 0-1.1223-.5087-1.1223-1.1222 0-.6136.5087-1.1223 1.1223-1.1223 4.2796 0 7.7661-3.4866 7.7661-7.7662 0-4.2797-3.4865-7.7663-7.7661-7.7663-3.2173 0-6.0604 1.9304-7.2425 4.9381-.2245.5836-.8829.8679-1.4515.6285-.5836-.2245-.8679-.8829-.6285-1.4515 1.5113-3.8607 5.1775-6.3596 9.3225-6.3596 5.5216 0 10.0107 4.4891 10.0107 10.0108.015 5.5216-4.4891 10.0107-10.0107 10.0107z"/><path d="m70.1328 62.2624c-3.9953 0-7.2275-3.2471-7.2275-7.2275 0-3.9953 3.2471-7.2275 7.2275-7.2275 3.9953 0 7.2275 3.2471 7.2275 7.2275.015 3.9804-3.2322 7.2275-7.2275 7.2275zm0-12.2254c-2.7533 0-4.983 2.2446-4.983 4.983 0 2.7533 2.2446 4.9829 4.983 4.9829 2.7533 0 4.9829-2.2446 4.9829-4.9829.015-2.7384-2.2296-4.983-4.9829-4.983z"/><path d="m87.3711 53.9575c-3.6362 0-6.614-2.9628-6.614-6.614 0-3.6362 2.9628-6.614 6.614-6.614 3.6362 0 6.614 2.9629 6.614 6.614 0 3.6512-2.9629 6.614-6.614 6.614zm0-10.9684c-2.4092 0-4.3695 1.9602-4.3695 4.3694s1.9603 4.3694 4.3695 4.3694c2.4091 0 4.3694-1.9602 4.3694-4.3694s-1.9603-4.3694-4.3694-4.3694z"/><path d="m99.372 41.2233c.736 0 1.332-.5963 1.332-1.3318s-.596-1.3318-1.332-1.3318c-.7355 0-1.3317.5963-1.3317 1.3318s.5962 1.3318 1.3317 1.3318z"/><path d="m75.6994 44.3507c.7356 0 1.3318-.5962 1.3318-1.3318 0-.7355-.5962-1.3317-1.3318-1.3317-.7355 0-1.3317.5962-1.3317 1.3317 0 .7356.5962 1.3318 1.3317 1.3318z"/><path d="m95.9155 57.8331c.7356 0 1.3318-.5962 1.3318-1.3317 0-.7356-.5962-1.3318-1.3318-1.3318-.7355 0-1.3318.5962-1.3318 1.3318 0 .7355.5963 1.3317 1.3318 1.3317z"/><path d="m95.4216 27.0376c-.6135 0-1.1223-.5088-1.1223-1.1223v-.7931c0-.6135.5088-1.1223 1.1223-1.1223s1.1223.5088 1.1223 1.1223v.7931c0 .6135-.5088 1.1223-1.1223 1.1223z"/><path d="m95.4216 34.0107c-.6135 0-1.1223-.5088-1.1223-1.1223v-.7931c0-.6135.5088-1.1222 1.1223-1.1222s1.1223.5087 1.1223 1.1222v.7931c0 .6135-.5088 1.1223-1.1223 1.1223z"/><path d="m92.3241 30.1201h-.7931c-.6135 0-1.1223-.5088-1.1223-1.1223s.5088-1.1223 1.1223-1.1223h.7931c.6135 0 1.1222.5088 1.1222 1.1223s-.5087 1.1223-1.1222 1.1223z"/><path d="m99.2972 30.1201h-.7931c-.6135 0-1.1223-.5088-1.1223-1.1223s.5088-1.1223 1.1223-1.1223h.7931c.6135 0 1.1218.5088 1.1218 1.1223s-.4933 1.1223-1.1218 1.1223z"/><path d="m72.2128 86.5188c-.2844 0-.5686-.1048-.7931-.3292l-4.145-4.145c-.7033-.7033-1.0923-1.646-1.0923-2.6486s.389-1.9303 1.0923-2.6486c1.3467-1.3467 3.4716-1.4515 4.9381-.3142 1.4664-1.1373 3.5913-1.0325 4.938.3142.7033.7033 1.0924 1.646 1.0924 2.6486s-.3891 1.9303-1.0924 2.6486l-4.145 4.145c-.2244.2244-.5087.3292-.793.3292zm-2.2895-8.6042c-.389 0-.7631.1496-1.0624.4339-.5836.5836-.5836 1.5263 0 2.1099l3.3519 3.3519 3.3519-3.3519c.5836-.5836.5836-1.5263 0-2.1099s-1.5264-.5836-2.1099 0l-.434.434c-.4339.4339-1.1522.4339-1.5862 0l-.4339-.434c-.3142-.2843-.7033-.4339-1.0774-.4339z"/><path d="m87.0867 75.6401c-.2843 0-.5686-.1048-.7931-.3292l-3.4716-3.4716c-.6285-.6285-.9726-1.4665-.9726-2.3493 0-.8829.3441-1.7209.9726-2.3494.6285-.6284 1.4665-.9726 2.3493-.9726.7033 0 1.3617.2095 1.9303.6135.5537-.404 1.2271-.6135 1.9304-.6135.8829 0 1.7208.3442 2.3493.9726.6285.6285.9726 1.4665.9726 2.3494 0 .8828-.3441 1.7208-.9726 2.3493l-3.4716 3.4716c-.2394.2244-.5237.3292-.823.3292zm-1.9154-7.2275c-.2843 0-.5537.1047-.7631.3142-.2095.2095-.3143.4789-.3143.7632s.1048.5536.3143.7631l2.6785 2.6785 2.6785-2.6785c.2095-.2095.3143-.4788.3143-.7631s-.1048-.5537-.3143-.7632-.4788-.3142-.7631-.3142-.5537.1047-.7632.3142l-.3741.3741c-.4339.4339-1.1522.4339-1.5862 0l-.3741-.3741c-.1795-.2095-.4489-.3142-.7332-.3142z"/><path d="m70.1628 57.6386-2.1548-2.1548c-.5387-.5387-.5387-1.3916 0-1.9303s1.3916-.5387 1.9303 0l.2245.2245.2245-.2245c.5387-.5387 1.3916-.5387 1.9303 0s.5387 1.3916 0 1.9303z"/><path d="m87.401 49.2289-1.7657-1.7657c-.434-.4339-.434-1.1372 0-1.5712.4339-.4339 1.1372-.4339 1.5712 0l.1795.1796.1796-.1796c.4339-.4339 1.1372-.4339 1.5712 0 .4339.434.4339 1.1373 0 1.5712z"/><path d="m79.4104 39.1134c-.2843 0-.5686-.1047-.7931-.3292l-3.6063-3.6062c-1.3317-1.3318-1.3317-3.4866 0-4.8184 1.1971-1.1971 3.0676-1.3168 4.3994-.3441 1.3318-.9577 3.2022-.853 4.3993.3441 1.3318 1.3318 1.3318 3.4866 0 4.8184l-3.6062 3.6062c-.2095.2095-.5088.3292-.7931.3292zm-1.9902-7.5118c-.2993 0-.5986.1197-.823.3442-.2245.2244-.3442.5088-.3442.823s.1197.5985.3442.823l2.8132 2.8132 2.8132-2.8132c.2244-.2245.3442-.5088.3442-.823s-.1198-.5986-.3442-.823c-.4489-.4489-1.1822-.4489-1.646 0l-.3891.3891c-.2095.2094-.4938.3291-.7931.3291s-.5836-.1197-.793-.3291l-.3891-.3891c-.1946-.2245-.4938-.3442-.7931-.3442z"/></g></svg>