<svg fill="none" height="124" viewBox="0 0 124 124" width="124" xmlns="http://www.w3.org/2000/svg"><rect fill="#f9eae5" height="124" opacity=".4" rx="62" width="124"/><g fill="#ee8d8b"><path d="m86.9595 99.4h-56.8406c-.6117 0-1.1189-.5073-1.1189-1.1189 0-.6117.5072-1.1189 1.1189-1.1189h56.8406c.6117 0 1.1189.5072 1.1189 1.1189 0 .6266-.5072 1.1189-1.1189 1.1189z"/><path d="m56.7789 78.7822c-5.5349 0-10.0553-4.5054-10.0553-10.0552s4.5055-10.0553 10.0553-10.0553c5.5349 0 10.0553 4.5055 10.0553 10.0553s-4.5204 10.0552-10.0553 10.0552zm0-17.8577c-4.3115 0-7.8174 3.5059-7.8174 7.8174s3.5059 7.8175 7.8174 7.8175 7.8174-3.506 7.8174-7.8175-3.5059-7.8174-7.8174-7.8174z"/><path d="m52.4522 98.6093c-.6117 0-1.1189-.5073-1.1189-1.1189 0-1.4621-.8952-2.7003-2.0887-2.8644-.0149 0-.0298 0-.0298 0l-7.161-1.298c-.6117-.1044-1.0145-.6862-.8952-1.2979.1045-.6117.6863-1.0145 1.298-.8951l7.1461 1.2979c2.2676.3431 3.9684 2.5362 3.9684 5.0873 0 .5818-.5073 1.0891-1.1189 1.0891z"/><path d="m35.7283 98.8928c-.6117 0-1.1189-.5073-1.1189-1.119v-1.7305c0-3.312.9399-6.5792 2.6257-9.1751l3.5805-5.505c1.656-2.5511 4.0131-4.416 6.6239-5.2514l2.7302-1.2532c.5669-.2536 1.2233-.0149 1.4918.552.2537.5669.015 1.2233-.5519 1.4919l-2.7899 1.283c-.0447.0149-.0895.0447-.1342.0597-2.1483.6713-4.0878 2.2079-5.4901 4.3562l-3.5806 5.5051c-1.462 2.2527-2.2676 5.0724-2.2676 7.9666v1.7306c0 .5967-.4923 1.0891-1.1189 1.0891z"/><path d="m44.5005 92.8805c-.2387 0-.4774-.0746-.6714-.2238-.4923-.373-.5818-1.0742-.2088-1.5665l3.5805-4.6845c.373-.4923 1.0741-.5818 1.5665-.2088.4923.3729.5818 1.0741.2088 1.5664l-3.5805 4.6845c-.2238.2835-.552.4327-.8951.4327z"/><path d="m81.365 99.3701c-.0895 0-.1939-.0149-.2834-.0447-.5968-.1641-.9548-.7758-.7907-1.3725l4.8784-18.3054c.0746-.2835 0-.5371-.1193-.6714-.0448-.0596-.1343-.1342-.2238-.1342h-19.3348c-.1193 0-.2685.1342-.3431.358l-4.5651 15.9781c-.1343.4774-.567.8056-1.0593.8056l-7.161.0895h-.0149c-.6117 0-1.104-.4923-1.1189-1.104s.4923-1.1189 1.104-1.1338l6.3255-.0746 4.3414-15.1874c.3431-1.1935 1.3427-1.9842 2.4914-1.9842h19.3497c.7758 0 1.5068.373 1.9991 1.0145.552.731.746 1.7008.4924 2.6108l-4.8785 18.3054c-.1343.5072-.5967.8503-1.0891.8503z"/><path d="m41.8599 68.6225c-.4923 0-.9846-.0447-1.4769-.1492-4.9381-.9548-7.4445-6.4598-7.5489-6.6985-.2089-.4774-.0895-1.0443.3282-1.3576s.9697-.3133 1.3725.0149c.179.1193 2.5511 1.656 7.3699-.4028 2.1483-.9101 4.0281-.9847 5.5945-.2089 2.2379 1.1189 2.8644 3.5507 2.8794 3.6551.0895.3879-.015.7907-.3133 1.0742-2.7898 2.7152-5.5498 4.0728-8.2054 4.0728zm-5.4453-5.3409c1.0145 1.2681 2.5063 2.6406 4.4159 2.9987 2.1931.4177 4.595-.5371 7.1611-2.8495-.2387-.5073-.7161-1.2383-1.5068-1.6262-.9399-.4625-2.1931-.3729-3.6999.2686-2.6705 1.1636-4.8039 1.3576-6.3703 1.2084z"/><path d="m49.0956 74.411c-.5968 0-1.104-.4774-1.1189-1.089-.015-.6117.4624-1.1339 1.089-1.1488.0299 0 2.2677-.0895 4.6994-1.1786 3.1778-1.4023 5.2365-3.7744 6.1018-7.0267.1641-.5968.7758-.9548 1.3726-.7907.5967.1641.9548.7758.7907 1.3725-1.0444 3.9087-3.6253 6.8627-7.4445 8.5186-2.8346 1.2383-5.3559 1.3278-5.4603 1.3278 0 .0149-.0149.0149-.0298.0149z"/><path d="m65.2377 71.8151c-4.401 0-6.3554-4.0728-6.4449-4.2518-.2685-.5669-.0149-1.2234.5371-1.4919.552-.2536 1.2233-.0149 1.4919.5371.0745.1343 1.5217 3.0882 4.6248 2.9539.6116-.0298 1.1338.4476 1.1636 1.0742.0299.6265-.4475 1.1338-1.0741 1.1636-.1044.0149-.2089.0149-.2984.0149z"/><path d="m51.1691 47.6467h-5.2962c-.537 0-1.0741-.0447-1.5814-.1342-.6564-.1194-1.6261-.0299-1.9543.0149-.6117.0895-1.1786-.3432-1.2681-.9548-.0895-.6117.3431-1.1786.9548-1.2681.1492-.0149 1.5217-.2089 2.6406-.0149.373.0596.7758.1044 1.1935.1044h5.2962c.2088 0 .3879-.179.3879-.3879v-5.52c0-.1342-.0746-.2387-.1194-.2685-.0447-.0447-.1343-.1193-.2685-.1193h-3.3717c-.4624 0-.8802-.2835-1.0443-.7311-.1641-.4326-.0447-.9249.3133-1.2382.3133-.2686 1.1488-1.1935 1.2979-2.1632.0597-.3432.0597-.6266.0746-.9847 0-.179.015-.373.015-.5669.0149-.2238-.0896-.373-.1641-.4476-.0597-.0746-.1791-.1492-.3432-.1492-.2387 0-.4475.194-.4923.4625-.0448.2686-.0895.552-.1193.8206-.1492 1.1487-.2984 2.3273-1.3278 3.0583-.3432.2387-.6266.4028-.8355.5222-.0447.0298-.1044.0596-.1492.0895-.4028 1.6261-1.3277 2.7003-2.6406 3.0434-.5967.1492-1.2084-.2088-1.3576-.8056-.1492-.5967.2089-1.2084.8056-1.3576.6564-.179.9399-1.0294 1.0593-1.5217.179-.7907.731-1.1189 1.1785-1.3726.194-.1044.4028-.2237.6565-.4177.2237-.1641.3133-.8802.4028-1.5068.0298-.2984.0746-.5967.1342-.91.2238-1.3427 1.3576-2.3124 2.7003-2.3124.746 0 1.4322.2983 1.9544.8503s.8056 1.3129.7758 2.0887c-.0149.179-.0149.358-.0149.5072-.015.4028-.015.8056-.1045 1.2979-.0895.567-.2834 1.0891-.5221 1.5367h1.1189c.7012 0 1.3576.2685 1.8499.7758.4923.4923.7758 1.1487.7758 1.8499v5.5199c.0149 1.4322-1.1488 2.6108-2.6108 2.6108z"/><path d="m38.6524 48.3479c-.8653 0-1.5814-.7161-1.5963-1.6112l-.0895-6.997c0-.4177.1491-.8205.4177-1.1338.2984-.3282.7161-.5221 1.1487-.5371l3.0136-.0298h.0149c.4327 0 .8504.179 1.1488.5072.2834.2984.4475.7012.4475 1.1189l.0896 6.997c.0149.91-.6863 1.6559-1.5665 1.6559l-3.0136.0299c-.0149 0-.0149 0-.0149 0zm.552-8.0562.0746 5.8034 1.7305-.0149-.0745-5.8034z"/><path d="m46.8129 43.917c-.2984 0-.5819-.1193-.8056-.3431-.4327-.4476-.4178-1.1488.0298-1.5814.4177-.4028.6564-.9548.6564-1.5367v-2.4466c0-.6117.5073-1.1189 1.1189-1.1189.6117 0 1.119.5072 1.119 1.1189v2.4616c0 1.1786-.4924 2.3273-1.3427 3.1478-.2238.2089-.4924.2984-.7758.2984z"/><path d="m77.2324 50.4365c-.7459 0-1.4322-.2983-1.9543-.8503-.5222-.552-.8057-1.3129-.7758-2.0887.0149-.179.0149-.358.0149-.5072.0149-.4028.0149-.8056.1044-1.2979.0895-.5669.2835-1.0891.5222-1.5367h-1.1189c-.7012 0-1.3576-.2685-1.85-.7757-.4923-.4924-.7757-1.1488-.7757-1.85v-5.5199c0-1.4471 1.1786-2.6257 2.6257-2.6257h5.2961c.5371 0 1.0742.0447 1.5814.1342.6565.1194 1.6262.0299 1.9544-.0149.6117-.0895 1.1786.3432 1.2681.9548.0895.6117-.3431 1.1786-.9548 1.2681-.1492.0149-1.5217.2089-2.6406.0149-.373-.0596-.7758-.1044-1.1935-.1044h-5.2962c-.2089 0-.3879.179-.3879.3879v5.5199c0 .1343.0746.2387.1194.2686.0447.0447.1342.1193.2685.1193h3.3716c.4625 0 .8802.2835 1.0444.7311.1641.4326.0447.9249-.3133 1.2382-.3133.2686-1.1488 1.1935-1.298 2.1632-.0596.3432-.0596.6266-.0746.9847 0 .179-.0149.3729-.0149.5669-.0149.2238.0895.373.1641.4476.0597.0746.179.1491.3432.1491.2387 0 .4475-.1939.4923-.4624.0447-.2686.0895-.552.1193-.8206.1492-1.1487.2984-2.3273 1.3278-3.0583.3431-.2387.6266-.4028.8354-.5222.0448-.0298.1045-.0597.1492-.0895.4028-1.6261 1.3427-2.7003 2.6407-3.0434.5967-.1492 1.2084.2088 1.3576.8056.1492.5967-.2089 1.2084-.8056 1.3576-.6565.179-.9399 1.0294-1.0593 1.5217-.179.7907-.731 1.1189-1.1786 1.3725-.1939.1045-.4028.2238-.6564.4178-.2238.1641-.3133.8802-.4028 1.5068-.0298.2983-.0746.5967-.1343.91-.2536 1.3427-1.3874 2.3273-2.7152 2.3273z"/><path d="m83.6175 43.007c-.4327 0-.8504-.179-1.1488-.5073-.2834-.2983-.4476-.7011-.4476-1.1189l-.0895-6.9969c-.0149-.91.6863-1.656 1.5665-1.656l3.0136-.0298c.4326-.0149.8653.179 1.1637.5072.2834.2984.4475.7012.4475 1.1189l.0895 6.997c.015.8951-.6862 1.641-1.5664 1.6559l-3.0136.0299s0 0-.0149 0zm.5669-8.0562.0746 5.8034 1.7305-.0149-.0746-5.8034z"/><path d="m77.3816 44.1408c-.6117 0-1.1189-.5072-1.1189-1.1189v-2.4616c0-1.1786.4923-2.3273 1.3427-3.1479.4476-.4326 1.1487-.4177 1.5814.0299.4326.4476.4177 1.1487-.0299 1.5814-.4177.4028-.6564.9548-.6564 1.5366v2.4616c0 .6266-.4923 1.1189-1.1189 1.1189z"/><path d="m55.8537 58.0899c-.2088 0-.4177-.0597-.6116-.1791l-3.9684-2.5511c-1.7455.6415-3.5656.9698-5.4454.9698-8.638 0-15.6647-7.0268-15.6647-15.6648s7.0267-15.6647 15.6647-15.6647 15.6647 7.0267 15.6647 15.6647c0 4.2071-1.7007 8.2501-4.6994 11.1891l.179 5.0873c.015.4178-.2088.8056-.5669 1.0145-.1641.0895-.358.1343-.552.1343zm-4.4458-5.1023c.2089 0 .4178.0597.6117.1791l2.6555 1.7156-.1193-3.4462c-.0149-.3282.1193-.6415.358-.8653 2.76-2.5362 4.3563-6.1465 4.3563-9.8912 0-7.3997-6.0272-13.4269-13.4269-13.4269s-13.4269 6.0272-13.4269 13.4269c0 7.3998 6.0272 13.427 13.4269 13.427 1.7754 0 3.5059-.3432 5.147-1.0145.1194-.0746.2685-.1045.4177-.1045z"/><path d="m66.5953 58.985c-.3879 0-.7609-.2089-.9548-.5371-.3432-.552-.1343-.9697.2685-1.8052.194-.4028.4774-.9846.8504-1.7156.5371-1.0742 1.1786-2.3273 1.7156-3.3717-2.8196-2.9091-4.4159-6.8328-4.4159-10.8907 0-8.638 7.0267-15.6647 15.6647-15.6647s15.6647 7.0267 15.6647 15.6647-7.0267 15.6648-15.6647 15.6648c-2.0737 0-4.0728-.4029-5.9675-1.1786-6.7433 3.8341-6.7731 3.8341-7.161 3.8341zm13.1136-31.7472c-7.3997 0-13.4269 6.0272-13.4269 13.4269 0 3.7297 1.5665 7.3252 4.3115 9.8464.373.3432.4625.8802.2387 1.3278-.7012 1.3576-1.2681 2.4616-1.7156 3.3567.9846-.552 2.2825-1.283 4.0131-2.2676.3133-.1791.6863-.194 1.0145-.0448 1.7604.8056 3.6252 1.2084 5.5796 1.2084 7.3997 0 13.4269-6.0272 13.4269-13.4269s-6.0272-13.4269-13.4418-13.4269z"/></g></svg>