<svg fill="none" height="124" viewBox="0 0 124 124" width="124" xmlns="http://www.w3.org/2000/svg"><rect fill="#f9eae5" height="124" opacity=".4" rx="62" width="124"/><g fill="#ee8d8b"><path d="m46.4733 99.4c-1.7059 0-3.307-.6734-4.4891-1.9154-1.1822-1.242-1.7957-2.8581-1.7059-4.5639 0-.03 0-.0749.015-.1048l1.9752-13.6919-6.2399-.7781c-.0299 0-.0748-.015-.1048-.015-1.227-.2693-2.2894-1.0325-2.9478-2.0949l-2.9479-4.7734c-.015-.03-.0449-.0599-.0598-.1048-.4939-1.0026-.2395-2.2146.6284-2.9329.5088-.4339 1.1971-.6285 1.8555-.5387.6435.0748 1.242.419 1.6311.9427l2.7384 3.1873c.389.4639.9277.7482 1.5263.823l8.3797.0599h.1048c2.8131.2993 4.938 2.6486 4.953 5.4618l.8828 14.5298v.015c.0749 1.7059-.5237 3.3369-1.7058 4.5639-1.1822 1.242-2.7683 1.9304-4.4892 1.9304zm-3.9504-6.3297c-.0299 1.0774.3591 2.08 1.0923 2.8581.7482.7931 1.7658 1.227 2.8581 1.227 1.0924 0 2.1099-.4339 2.8581-1.227s1.1373-1.8256 1.0924-2.903l-.8829-14.5448c0-.0299 0-.0449 0-.0748 0-1.676-1.242-3.0676-2.888-3.2621l-8.3797-.0599c-.03 0-.0749 0-.1048 0-1.1821-.1197-2.2745-.6883-3.0526-1.6011l-2.7533-3.2172c-.015-.03-.0449-.0449-.0599-.0749-.0449-.0598-.0898-.0748-.1197-.0748s-.0898 0-.1347.0449c-.0598.0449-.0748.1197-.0598.1945l2.9029 4.7136c.3292.5387.8679.9278 1.4815 1.0774l7.3173.9128c.2992.03.5686.1946.7481.434.1796.2394.2544.5387.2245.8379z"/><path d="m47.8799 74.62h-10.0706c-.6135 0-1.1223-.5088-1.1223-1.1223v-9.4422c0-.6135.5088-1.1223 1.1223-1.1223h10.0706c.6135 0 1.1223.5088 1.1223 1.1223v9.4422c0 .6284-.5088 1.1223-1.1223 1.1223zm-8.9483-2.2446h7.826v-7.1976h-7.826z"/><path d="m47.88 69.2031h-4.953c-.6135 0-1.1223-.5088-1.1223-1.1223s.5088-1.1223 1.1223-1.1223h4.953c.6135 0 1.1223.5088 1.1223 1.1223 0 .6285-.5088 1.1223-1.1223 1.1223z"/><path d="m66.076 73.8568c-8.26 0-14.9937-6.7188-14.9937-14.9788s6.7337-14.9937 14.9937-14.9937 14.9788 6.7187 14.9788 14.9787c0 8.2601-6.7188 14.9938-14.9788 14.9938zm0-27.728c-7.018 0-12.7342 5.7162-12.7342 12.7342 0 7.0181 5.7162 12.7342 12.7342 12.7342s12.7342-5.7161 12.7342-12.7342c0-7.018-5.7162-12.7342-12.7342-12.7342z"/><path d="m67.3779 61.781c-.1496 0-.3142-.03-.4489-.0898-1.3467-.5986-3.0077-1.1971-3.0227-1.2121-.404-.1496-.6883-.5088-.7332-.9277-.0449-.419.1497-.838.5088-1.0625l2.6336-1.7058c.5238-.3292 1.2121-.1946 1.5563.3292.3292.5237.1945 1.212-.3292 1.5562l-.7931.5088c.3591.1496.7332.2992 1.0923.4638.5687.2544.823.9128.5687 1.4815-.1796.404-.5986.6584-1.0326.6584z"/><path d="m59.5334 59.0302c.1918-.8124-.3112-1.6264-1.1236-1.8182-.8123-.1918-1.6263.3112-1.8181 1.1236-.1918.8123.3112 1.6263 1.1235 1.8181s1.6264-.3112 1.8182-1.1235z"/><path d="m61.9759 68.4997c-1.9602 0-3.5613-1.7059-3.5613-3.8158 0-.6135.5087-1.1223 1.1222-1.1223.6136 0 1.1223.5088 1.1223 1.1223 0 .8679.5836 1.5712 1.3168 1.5712.7183 0 1.3168-.7033 1.3168-1.5712 0-.6135.5088-1.1223 1.1223-1.1223s1.1223.5088 1.1223 1.1223c0 2.095-1.6011 3.8158-3.5614 3.8158z"/><path d="m85.2445 54.6133c-2.469 0-5.2224-.8379-8.2301-2.5289-.3441-.1945-.5686-.5686-.5686-.9576 0-.1198-.015-3.0826 2.1698-5.0129 1.5412-1.3468 3.711-1.8256 6.4494-1.4365 6.599.9576 8.9333-1.7957 9.0231-1.9154.2993-.419.853-.5537 1.3318-.3591.4788.1945.7482.7182.6584 1.227-.0449.2993-1.2719 7.437-6.6589 10.0407-1.3018.6285-2.6935.9427-4.1749.9427zm-6.5092-4.1449c3.8756 2.0201 7.1377 2.4241 9.6815 1.1971 2.4092-1.1672 3.8158-3.5914 4.5939-5.5366-1.7657.7631-4.4592 1.3317-8.2899.7781-2.0501-.2993-3.6213 0-4.6388.8978-.9278.7931-1.242 1.9603-1.3467 2.6636z"/><path d="m79.6183 62.2448c-.0149 0-.0299 0-.0448 0-6.5991-.2543-9.921-3.8008-11.5371-6.7187-1.7358-3.1125-1.9154-6.1501-1.9154-6.2698-.0299-.6136.4339-1.1522 1.0624-1.1822.6135-.0299 1.1522.434 1.1822 1.0625 0 .0448.1795 2.7234 1.6759 5.372 1.9603 3.4716 5.1925 5.3121 9.6367 5.4917.6135.0299 1.1073.5536 1.0774 1.1671-.0449.5986-.5387 1.0774-1.1373 1.0774z"/><path d="m57.6365 55.6458c-2.6785 0-4.6537-.434-4.8333-.4639-.5985-.1347-.9876-.7332-.8529-1.3467.1346-.5986.7332-.9876 1.3467-.853.0898.015 8.3648 1.8107 13.647-2.3193.4938-.3891 1.1971-.2993 1.5712.1945.389.4938.2993 1.1971-.1945 1.5712-3.307 2.6037-7.4969 3.2172-10.6842 3.2172z"/><path d="m83.1796 98.4722c-.5537 0-1.0325-.404-1.1073-.9726l-2.0501-15.2182c0-.015 0-.0299 0-.0299-.404-3.9505-3.1124-7.2724-6.8983-8.4845l-2.5887-.823c-.5836-.1945-.9128-.823-.7332-1.4066.1945-.5836.823-.9128 1.4066-.7332l2.5887.823c4.6388 1.4664 7.9458 5.5366 8.4545 10.3699l2.0351 15.2032c.0898.6135-.3442 1.1821-.9577 1.257-.0449.0149-.1047.0149-.1496.0149z"/><path d="m50.6634 79.573c-.1945 0-.3891-.0449-.5686-.1646-.5387-.3143-.7033-1.0026-.3891-1.5413l.0898-.1496c1.9602-3.307 5.2373-5.7162 8.9783-6.629l1.9004-.4489c.5985-.1496 1.212.2245 1.3467.823.1496.5986-.2245 1.2121-.823 1.3467l-1.9004.449c-3.1574.7631-5.9107 2.7982-7.5717 5.5815l-.0898.1496c-.2244.389-.5836.5836-.9726.5836z"/><path d="m74.6653 98.4723c-.5686 0-1.0624-.434-1.1223-1.0176l-1.0773-11.7615c-.0599-.6135.404-1.1672 1.0175-1.227.6135-.0599 1.1672.404 1.227 1.0175l1.0774 11.7616c.0599.6135-.404 1.1671-1.0175 1.227-.0449 0-.0748 0-.1048 0z"/><path d="m88.3571 81.0544c-.2395 0-.4789-.0748-.6734-.2245-.4938-.374-.5986-1.0773-.2245-1.5711 2.5888-3.4417 4.4443-7.2874 5.5067-11.4474.1497-.5985.7632-.9576 1.3617-.808.5986.1496.9577.7632.8081 1.3617-1.1373 4.4443-3.1275 8.5593-5.8958 12.2404-.2095.2843-.5536.4489-.8828.4489z"/><path d="m95.0757 62.23c-.0149 0-.0299 0-.0449 0-.6135-.0299-1.1073-.5537-1.0774-1.1672.015-.4489.03-.8978.03-1.3467 0-.6136.5087-1.1223 1.1223-1.1223.6135 0 1.1222.5087 1.1222 1.1223 0 .4788-.0149.9576-.0299 1.4365-.0299.6135-.5237 1.0774-1.1223 1.0774z"/><path d="m81.8778 34.1279c-.2394 0-.4788-.0748-.6734-.2244-1.6759-1.2869-3.4865-2.3942-5.357-3.322-.5537-.2693-.7781-.9427-.5088-1.4964.2694-.5536.9428-.7781 1.4964-.5087 2.0201.9876 3.9505 2.1847 5.7311 3.5613.4938.3741.5836 1.0774.2095 1.5712-.2244.2694-.5536.419-.8978.419z"/><path d="m70.8045 28.5464c-.1047 0-.2095-.0149-.3142-.0449-2.903-.8379-5.9257-1.2569-8.9933-1.2569-.6135 0-1.1222-.5088-1.1222-1.1223s.5087-1.1223 1.1222-1.1223c3.2621 0 6.4943.4489 9.6068 1.3467.5985.1646.9427.7931.7631 1.3917-.1346.4938-.5835.808-1.0624.808z"/><path d="m44.0793 32.1078c-.3741 0-.7482-.1945-.9577-.5387-.3292-.5237-.1496-1.227.3741-1.5413 2.888-1.7507 6.0155-3.0825 9.2776-3.9205.5985-.1496 1.212.2095 1.3617.8081.1496.5985-.2095 1.212-.8081 1.3617-3.0526.793-5.9705 2.0201-8.679 3.6661-.1646.1047-.3591.1646-.5686.1646z"/><path d="m33.9038 60.7186c-.1795 0-.3591-.0449-.5237-.1347l-4.564-2.3792c-.5536-.2843-.7631-.9727-.4788-1.5114.2843-.5536.9726-.7631 1.5113-.4788l4.564 2.3792c.5537.2843.7631.9727.4788 1.5114-.1945.404-.5836.6135-.9876.6135z"/><path d="m38.1237 57.2769c-.4938 0-.9427-.3292-1.0774-.823l-1.5562-5.5665c-.1646-.5986.1795-1.2121.7781-1.3767.5985-.1646 1.212.1796 1.3766.7781l1.5413 5.5815c.1646.5986-.1795 1.2121-.7781 1.3767-.0898.0299-.1945.0299-.2843.0299z"/><path d="m44.1839 58.2197c-.1197 0-.2544-.015-.3741-.0599-.5836-.2095-.8978-.838-.6884-1.4365l1.9603-5.5815c.2095-.5836.8529-.8978 1.4365-.6884.5836.2095.8979.838.6884 1.4366l-1.9603 5.5815c-.1646.4638-.5985.7482-1.0624.7482z"/><path d="m85.7384 70.2057c-.1347 0-.2544-.03-.3891-.0749-.5836-.2095-.8829-.8679-.6584-1.4365.6584-1.7657 1.1073-3.6063 1.3467-5.4917.0749-.6135.6435-1.0475 1.257-.9727.6135.0749 1.0475.6435.9727 1.257-.2544 2.05-.7482 4.0552-1.4665 5.9855-.1796.4489-.5986.7333-1.0624.7333z"/><path d="m77.0893 40.742c-.2395 0-.4938-.0749-.7033-.2395-2.0501-1.631-4.3246-2.9029-6.7786-3.7708-.5836-.2095-.8829-.853-.6734-1.4366s.8529-.8828 1.4365-.6733c2.6935.9576 5.1925 2.3493 7.4221 4.13.4788.389.5686 1.0923.1795 1.5712-.2244.2843-.5536.419-.8828.419z"/><path d="m44.0792 42.7171c-.2843 0-.5686-.1047-.793-.3292-.434-.4339-.4489-1.1522-.015-1.5861 4.8932-4.9531 11.4323-7.6765 18.3905-7.6765.6135 0 1.1223.5088 1.1223 1.1223s-.5088 1.1223-1.1223 1.1223c-6.3596 0-12.3302 2.499-16.8043 7.018-.1946.2245-.4789.3292-.7782.3292z"/><path d="m28.1739 44.0844c.6567-.272.9685-1.0248.6965-1.6815-.272-.6566-1.0248-.9684-1.6814-.6964-.6567.2719-.9685 1.0248-.6965 1.6814s1.0248.9685 1.6814.6965z"/><path d="m87.7586 40.1583c.7107 0 1.2869-.5761 1.2869-1.2868 0-.7108-.5762-1.2869-1.2869-1.2869-.7108 0-1.2869.5761-1.2869 1.2869 0 .7107.5761 1.2868 1.2869 1.2868z"/><path d="m33.8737 31.4944c-.6135 0-1.1222-.5088-1.1222-1.1223v-.7632c0-.6135.5087-1.1223 1.1222-1.1223.6136 0 1.1223.5088 1.1223 1.1223v.7632c0 .6285-.5087 1.1223-1.1223 1.1223z"/><path d="m33.8737 38.1982c-.6135 0-1.1222-.5088-1.1222-1.1223v-.7632c0-.6135.5087-1.1223 1.1222-1.1223.6136 0 1.1223.5088 1.1223 1.1223v.7632c0 .6135-.5087 1.1223-1.1223 1.1223z"/><path d="m30.9111 34.4722h-.7632c-.6135 0-1.1223-.5088-1.1223-1.1223s.5088-1.1223 1.1223-1.1223h.7632c.6135 0 1.1223.5088 1.1223 1.1223s-.5088 1.1223-1.1223 1.1223z"/><path d="m37.5998 34.4722h-.7632c-.6135 0-1.1222-.5088-1.1222-1.1223s.5087-1.1223 1.1222-1.1223h.7632c.6135 0 1.1223.5088 1.1223 1.1223s-.5088 1.1223-1.1223 1.1223z"/><path d="m93.3401 28.0975c-.6136 0-1.1223-.5088-1.1223-1.1223v-.7631c0-.6135.5087-1.1223 1.1223-1.1223.6135 0 1.1222.5088 1.1222 1.1223v.7631c0 .6135-.5087 1.1223-1.1222 1.1223z"/><path d="m93.3401 34.7863c-.6136 0-1.1223-.5088-1.1223-1.1223v-.7631c0-.6135.5087-1.1223 1.1223-1.1223.6135 0 1.1222.5088 1.1222 1.1223v.7631c0 .6135-.5087 1.1223-1.1222 1.1223z"/><path d="m90.3622 31.0603h-.7631c-.6135 0-1.1223-.5087-1.1223-1.1222 0-.6136.5088-1.1223 1.1223-1.1223h.7631c.6136 0 1.1223.5087 1.1223 1.1223 0 .6135-.4938 1.1222-1.1223 1.1222z"/><path d="m97.0661 31.0603h-.7632c-.6135 0-1.1222-.5087-1.1222-1.1222 0-.6136.5087-1.1223 1.1222-1.1223h.7632c.6135 0 1.1223.5087 1.1223 1.1223 0 .6135-.5088 1.1222-1.1223 1.1222z"/><path d="m93.3401 88.1623c-.6136 0-1.1223-.5088-1.1223-1.1223v-.7632c0-.6135.5087-1.1223 1.1223-1.1223.6135 0 1.1222.5088 1.1222 1.1223v.7632c0 .6285-.5087 1.1223-1.1222 1.1223z"/><path d="m93.3401 94.866c-.6136 0-1.1223-.5088-1.1223-1.1223v-.7631c0-.6136.5087-1.1223 1.1223-1.1223.6135 0 1.1222.5087 1.1222 1.1223v.7631c0 .6135-.5087 1.1223-1.1222 1.1223z"/><path d="m90.3622 91.1401h-.7631c-.6135 0-1.1223-.5088-1.1223-1.1223s.5088-1.1223 1.1223-1.1223h.7631c.6136 0 1.1223.5088 1.1223 1.1223s-.4938 1.1223-1.1223 1.1223z"/><path d="m97.0661 91.1401h-.7632c-.6135 0-1.1222-.5088-1.1222-1.1223s.5087-1.1223 1.1222-1.1223h.7632c.6135 0 1.1223.5088 1.1223 1.1223s-.5088 1.1223-1.1223 1.1223z"/></g></svg>