<?xml version="1.0" encoding="UTF-8" standalone="no"?>
<svg
   xmlns:dc="http://purl.org/dc/elements/1.1/"
   xmlns:cc="http://creativecommons.org/ns#"
   xmlns:rdf="http://www.w3.org/1999/02/22-rdf-syntax-ns#"
   xmlns:svg="http://www.w3.org/2000/svg"
   xmlns="http://www.w3.org/2000/svg"
   xmlns:sodipodi="http://sodipodi.sourceforge.net/DTD/sodipodi-0.dtd"
   xmlns:inkscape="http://www.inkscape.org/namespaces/inkscape"
   width="260"
   height="220"
   viewBox="0 0 260 220"
   version="1.1"
   id="svg57"
   sodipodi:docname="card_3.svg"
   style="fill:none"
   inkscape:version="0.92.2 5c3e80d, 2017-08-06">
  <metadata
     id="metadata61">
    <rdf:RDF>
      <cc:Work
         rdf:about="">
        <dc:format>image/svg+xml</dc:format>
        <dc:type
           rdf:resource="http://purl.org/dc/dcmitype/StillImage" />
        <dc:title></dc:title>
      </cc:Work>
    </rdf:RDF>
  </metadata>
  <sodipodi:namedview
     pagecolor="#ffffff"
     bordercolor="#666666"
     borderopacity="1"
     objecttolerance="10"
     gridtolerance="10"
     guidetolerance="10"
     inkscape:pageopacity="0"
     inkscape:pageshadow="2"
     inkscape:window-width="1081"
     inkscape:window-height="641"
     id="namedview59"
     showgrid="false"
     inkscape:zoom="0.8"
     inkscape:cx="131.30777"
     inkscape:cy="16.521753"
     inkscape:window-x="0"
     inkscape:window-y="0"
     inkscape:window-maximized="0"
     inkscape:current-layer="svg57" />
  <rect
     x="0.5"
     y="27.5"
     width="259"
     height="192"
     id="rect24"
     style="stroke:#ee8d8b" />
  <ellipse
     cx="-24"
     cy="130"
     rx="24"
     ry="40"
     transform="rotate(-90)"
     id="ellipse26"
     style="fill:#ffffff" />
  <path
     d="m 134.132,42.5894 h -0.973 c -0.403,0 -0.73,-0.3268 -0.73,-0.7299 0,-0.4031 0.327,-0.73 0.73,-0.73 h 0.973 c 0.403,0 0.73,0.3269 0.73,0.73 0,0.4031 -0.327,0.7299 -0.73,0.7299 z"
     id="path28"
     inkscape:connector-curvature="0"
     style="fill:#ee8d8b;stroke:#ee8d8b;stroke-width:0.491162" />
  <path
     d="m 134.132,45.5091 h -0.973 c -0.403,0 -0.73,-0.3268 -0.73,-0.73 0,-0.4031 0.327,-0.7299 0.73,-0.7299 h 0.973 c 0.403,0 0.73,0.3268 0.73,0.7299 0,0.4032 -0.327,0.73 -0.73,0.73 z"
     id="path30"
     inkscape:connector-curvature="0"
     style="fill:#ee8d8b;stroke:#ee8d8b;stroke-width:0.491162" />
  <path
     d="m 139.484,33.6842 h -5.109 v -1.7518 c 4.289,-1.7537 7.174,-5.8337 7.397,-10.4623 1.331,-0.3495 2.266,-1.5434 2.287,-2.9198 -0.022,-0.816 -0.373,-1.5884 -0.974,-2.1411 -0.4,-0.3703 -0.884,-0.6375 -1.411,-0.7786 v -5.3042 h 2.239 c 0.403,0 0.73,-0.32679 0.73,-0.72991 -0.027,-4.69203 -3.824,-8.48915 -8.516,-8.51579 h -7.981 c -1.212,-0.03223 -2.387,0.42361 -3.26,1.26524 -0.238,0.25437 -0.45,0.53138 -0.633,0.82729 -4.574,0.19467 -6.18,4.08763 -6.472,6.18007 v 6.326 c -0.538,0.1232 -1.038,0.3735 -1.46,0.73 -0.565,0.5726 -0.895,1.3367 -0.924,2.1411 -0.008,1.3545 0.887,2.5484 2.189,2.9197 0.115,2.9746 1.328,5.801 3.407,7.9319 1.179,1.1803 2.586,2.1076 4.136,2.7251 v 1.5571 h -4.623 c -4.727,0.0797 -8.516,3.9345 -8.516,8.6619 v 2.433 c 0,0.4031 0.327,0.73 0.73,0.73 0.403,0 0.73,-0.3269 0.73,-0.73 v -2.433 c -0.002,-3.8039 3.011,-6.9249 6.813,-7.056 v 1.5085 c -0.82,0.1914 -1.575,0.5941 -2.19,1.1679 -0.778,0.8122 -1.213,1.8925 -1.216,3.0171 v 4.8662 c 0,0.3893 0.292,0.9732 0.681,0.9732 h 1.411 c 0.403,0 0.73,-0.3268 0.73,-0.7299 0,-0.4031 -0.327,-0.73 -0.73,-0.73 h -0.633 v -4.3795 c -0.021,-0.7288 0.261,-1.4337 0.779,-1.9465 0.486,-0.5338 1.176,-0.8347 1.898,-0.8273 1.478,-9e-4 2.677,1.1965 2.678,2.6747 0,0.0331 -0.001,0.066 -0.002,0.0991 v 4.3795 h -0.876 c -0.403,0 -0.73,0.3269 -0.73,0.73 0,0.4031 0.327,0.7299 0.73,0.7299 h 1.752 c 0.389,0 0.584,-0.5839 0.584,-0.9732 v -4.8662 c 0.056,-2.0455 -1.392,-3.8246 -3.406,-4.185 v -1.6545 h 4.087 l 3.212,3.601 v 6.0341 c 0,0.4031 0.327,0.73 0.73,0.73 0.403,0 0.73,-0.3269 0.73,-0.73 v -6.0341 l 3.698,-3.601 h 4.575 v 5.0122 h 0.048 c -1.836,0.4112 -2.99,2.2328 -2.579,4.0685 0.142,0.6347 0.463,1.2155 0.925,1.6736 0.637,0.6584 1.516,1.0277 2.433,1.0219 0.919,0.0175 1.802,-0.3536 2.433,-1.0219 1.33,-1.2919 1.361,-3.4176 0.069,-4.7479 -0.022,-0.0236 -0.046,-0.0468 -0.069,-0.0696 -0.486,-0.4659 -1.093,-0.7862 -1.752,-0.9246 h -0.049 v -4.8175 c 3.407,0.438 6.326,3.4063 6.326,7.0074 v 2.433 c 0,0.4031 0.327,0.73 0.73,0.73 0.403,0 0.73,-0.3269 0.73,-0.73 v -2.433 c 0.001,-4.7275 -3.789,-8.5823 -8.516,-8.662 z m -21.654,-13.82 c -0.516,-0.238 -0.855,-0.7459 -0.876,-1.3139 0.027,-0.4283 0.218,-0.8297 0.535,-1.1192 0.049,-0.0486 -0.146,-0.1459 0.341,-0.1946 z m 11.922,17.567 -3.163,-3.1631 v -1.6544 c 0.956,0.233 1.936,0.3474 2.92,0.3406 1.154,0.0192 2.304,-0.1451 3.406,-0.4867 v 1.8005 z m 12.312,-20.0001 c 0.289,0.2995 0.447,0.7026 0.438,1.1192 -0.001,0.5605 -0.323,1.0711 -0.828,1.3139 v -2.6277 c 0.487,0.0487 0.341,0.146 0.39,0.1946 z M 125.324,4.19509 c 0.138,-0.29768 0.337,-0.56295 0.584,-0.77857 0.592,-0.58941 1.403,-0.90665 2.238,-0.87591 h 7.981 c 3.655,-0.11373 6.748,2.67849 7.007,6.32602 h -15.182 c -1.667,-0.17501 -2.929,-1.58472 -2.92,-3.26034 -0.002,-0.48555 0.098,-0.96617 0.292,-1.4112 z m -6.034,5.30416 c 0,-0.48657 0.681,-4.2823 4.477,-4.81749 -0.096,0.28222 -0.145,0.57804 -0.146,0.87591 0.016,1.95738 1.264,3.69224 3.114,4.33092 -1.875,2.16141 -4.584,3.41871 -7.445,3.45501 z m 0,11.33815 v -6.0341 c 0,0 0,0.0974 0.048,0.0974 1.849,0 5.694,-0.6813 8.954,-4.5743 h 11.922 v 10.511 c 0.029,4.4198 -2.685,8.3945 -6.812,9.9757 -0.049,0 0,0.0487 -0.049,0.0487 -3.848,1.4475 -8.188,0.4725 -11.046,-2.4818 -1.995,-1.9957 -3.085,-4.7215 -3.017,-7.5426 z m 22.287,22.6766 c -0.019,0.5252 -0.226,1.0261 -0.584,1.4112 -0.371,0.3788 -0.881,0.5897 -1.411,0.5839 -0.516,0.0039 -1.01,-0.2078 -1.363,-0.5839 -0.766,-0.7659 -0.766,-2.0078 0,-2.7738 0.766,-0.7659 2.008,-0.7659 2.774,0 0.351,0.3702 0.558,0.8533 0.584,1.3626 z"
     id="path32"
     inkscape:connector-curvature="0"
     style="fill:#ee8d8b;stroke:#ee8d8b;stroke-width:0.491162" />
  <path
     d="m 37.98,75.682 c 0,3.6 2.718,6.318 6.3,6.318 1.89,0 3.491,-0.63 4.752,-1.782 l -1.242,-2.34 c -0.99,1.08 -2.178,1.602 -3.546,1.602 -2.16,0 -3.744,-1.548 -3.744,-3.78 0,-2.232 1.584,-3.78 3.78,-3.78 1.368,0 2.411,0.54 3.348,1.494 l 1.206,-2.304 c -1.206,-1.116 -2.79,-1.71 -4.536,-1.71 -3.6,0 -6.318,2.7 -6.318,6.282 z m 12.077,-5.256 c 0,0.864 0.648,1.512 1.512,1.512 0.864,0 1.53,-0.648 1.53,-1.512 0,-0.864 -0.666,-1.53 -1.53,-1.53 -0.864,0 -1.512,0.666 -1.512,1.53 z M 50.381,73 v 9 h 2.376 v -9 z m 9.985,8.82 v -2.25 c -0.648,0.108 -0.954,0.144 -1.314,0.144 -0.612,0 -0.9,-0.234 -0.9,-0.81 v -3.906 h 2.286 V 73 H 58.152 V 70.588 H 55.776 V 73 h -1.638 v 1.998 h 1.638 v 4.248 c 0,2.052 0.972,2.844 2.646,2.844 0.594,0 1.278,-0.108 1.944,-0.27 z m 6.8,-3.456 c 0,0.99 -0.81,1.854 -2.07,1.854 -0.828,0 -1.278,-0.378 -1.278,-0.954 0,-0.504 0.378,-0.882 1.116,-0.99 l 2.232,-0.27 z m -5.58,-3.528 1.764,1.26 c 0.342,-0.864 1.314,-1.152 2.25,-1.152 1.062,0 1.566,0.378 1.566,0.9 v 0.144 c 0,0.216 -0.126,0.324 -0.468,0.36 l -2.466,0.216 c -1.656,0.162 -2.88,1.188 -2.88,2.826 0,1.656 1.26,2.808 3.042,2.808 1.404,0 2.304,-0.684 2.772,-1.404 v 1.224 h 2.376 v -5.562 c 0,-2.502 -1.314,-3.654 -3.942,-3.654 -1.962,0 -3.42,0.684 -4.014,2.034 z m 14.661,0.882 c 0,3.636 2.61,6.282 6.408,6.282 3.276,0 5.958,-2.25 5.958,-6.372 V 74.8 h -6.426 v 2.52 h 3.528 c -0.306,1.458 -1.746,2.178 -3.114,2.178 -2.286,0 -3.834,-1.548 -3.834,-3.798 0,-2.232 1.548,-3.78 3.762,-3.78 1.35,0 2.574,0.504 3.528,1.602 l 1.224,-2.34 C 86.039,69.958 84.365,69.4 82.655,69.4 c -3.834,0 -6.408,2.682 -6.408,6.318 z m 13.8,-5.292 c 0,0.864 0.648,1.512 1.512,1.512 0.864,0 1.53,-0.648 1.53,-1.512 0,-0.864 -0.666,-1.53 -1.53,-1.53 -0.864,0 -1.512,0.666 -1.512,1.53 z M 90.371,73 v 9 h 2.376 v -9 z m 6.889,1.296 V 73 h -2.304 v 9 h 2.376 v -4.302 c 0,-1.602 0.576,-2.628 1.962,-2.628 1.008,0 1.638,0.594 1.638,1.944 V 82 h 2.43 v -5.58 c 0,-2.268 -1.08,-3.636 -3.186,-3.636 -1.314,0 -2.286,0.63 -2.916,1.512 z m 7.667,3.204 c 0,2.682 1.782,4.716 4.824,4.716 1.728,0 2.844,-0.576 3.582,-1.188 l -0.99,-1.962 c -0.63,0.54 -1.476,0.918 -2.556,0.918 -1.044,0 -2.124,-0.522 -2.412,-1.728 l -0.018,-0.036 h 6.624 v -0.648 c 0,-2.898 -1.692,-4.788 -4.446,-4.788 -2.826,0 -4.608,2.052 -4.608,4.716 z m 6.462,-1.008 h -4.05 c 0.234,-1.08 0.99,-1.692 2.124,-1.692 1.152,0 1.818,0.72 1.926,1.692 z m 3.523,1.008 c 0,2.862 2.016,4.716 4.77,4.716 1.512,0 2.7,-0.558 3.474,-1.332 l -1.314,-1.908 c -0.504,0.504 -1.206,0.918 -2.124,0.918 -1.332,0 -2.358,-0.954 -2.358,-2.394 0,-1.44 1.008,-2.394 2.358,-2.394 0.9,0 1.566,0.396 2.07,0.9 l 1.35,-1.908 c -0.81,-0.81 -1.98,-1.314 -3.42,-1.314 -2.772,0 -4.806,1.872 -4.806,4.716 z m 8.929,0 c 0,2.808 2.07,4.716 4.842,4.716 2.772,0 4.842,-1.908 4.842,-4.716 0,-2.808 -2.07,-4.716 -4.842,-4.716 -2.772,0 -4.842,1.908 -4.842,4.716 z m 7.236,0 c 0,1.44 -1.044,2.394 -2.394,2.394 -1.35,0 -2.394,-0.954 -2.394,-2.394 0,-1.44 1.044,-2.394 2.394,-2.394 1.35,0 2.394,0.954 2.394,2.394 z m 4.371,-2.16 v 2.52 h 8.388 v -2.52 z m 10.313,2.16 c 0,2.808 2.07,4.716 4.842,4.716 2.772,0 4.842,-1.908 4.842,-4.716 0,-2.808 -2.07,-4.716 -4.842,-4.716 -2.772,0 -4.842,1.908 -4.842,4.716 z m 7.236,0 c 0,1.44 -1.044,2.394 -2.394,2.394 -1.35,0 -2.394,-0.954 -2.394,-2.394 0,-1.44 1.044,-2.394 2.394,-2.394 1.35,0 2.394,0.954 2.394,2.394 z m 6.279,-3.204 V 73 h -2.304 v 9 h 2.376 v -4.302 c 0,-1.602 0.576,-2.628 1.962,-2.628 1.008,0 1.638,0.594 1.638,1.944 V 82 h 2.43 v -5.58 c 0,-2.268 -1.08,-3.636 -3.186,-3.636 -1.314,0 -2.286,0.63 -2.916,1.512 z m 7.667,3.204 c 0,2.862 2.016,4.716 4.77,4.716 1.512,0 2.7,-0.558 3.474,-1.332 l -1.314,-1.908 c -0.504,0.504 -1.206,0.918 -2.124,0.918 -1.332,0 -2.358,-0.954 -2.358,-2.394 0,-1.44 1.008,-2.394 2.358,-2.394 0.9,0 1.566,0.396 2.07,0.9 l 1.35,-1.908 c -0.81,-0.81 -1.98,-1.314 -3.42,-1.314 -2.772,0 -4.806,1.872 -4.806,4.716 z m 11.18,-6.858 1.044,1.656 4.05,-2.448 -1.044,-1.656 z m -2.25,6.858 c 0,2.808 2.07,4.716 4.842,4.716 2.772,0 4.842,-1.908 4.842,-4.716 0,-2.808 -2.07,-4.716 -4.842,-4.716 -2.772,0 -4.842,1.908 -4.842,4.716 z m 7.236,0 c 0,1.44 -1.044,2.394 -2.394,2.394 -1.35,0 -2.394,-0.954 -2.394,-2.394 0,-1.44 1.044,-2.394 2.394,-2.394 1.35,0 2.394,0.954 2.394,2.394 z m 3.974,-8.1 V 82 h 2.394 V 69.4 Z m 3.907,8.1 c 0,2.808 2.07,4.716 4.842,4.716 2.772,0 4.842,-1.908 4.842,-4.716 0,-2.808 -2.07,-4.716 -4.842,-4.716 -2.772,0 -4.842,1.908 -4.842,4.716 z m 7.236,0 c 0,1.44 -1.044,2.394 -2.394,2.394 -1.35,0 -2.394,-0.954 -2.394,-2.394 0,-1.44 1.044,-2.394 2.394,-2.394 1.35,0 2.394,0.954 2.394,2.394 z m 10.634,0 c 0,1.476 -0.99,2.412 -2.34,2.412 -1.35,0 -2.358,-0.954 -2.358,-2.412 0,-1.458 1.008,-2.412 2.358,-2.412 1.35,0 2.34,0.918 2.34,2.412 z m -7.146,-0.036 c 0,2.988 1.836,4.626 4.23,4.626 1.296,0 2.304,-0.54 2.898,-1.386 v 0.576 c 0,1.296 -0.63,2.322 -2.646,2.322 -1.098,0 -1.962,-0.396 -2.718,-1.134 l -1.17,1.962 c 0.936,0.864 2.16,1.404 3.978,1.404 3.78,0 4.896,-2.106 4.896,-4.428 V 73 h -2.376 v 1.26 c -0.504,-0.81 -1.548,-1.476 -2.934,-1.476 -2.232,0 -4.158,1.674 -4.158,4.68 z m 10.932,0.036 c 0,2.808 2.07,4.716 4.842,4.716 2.772,0 4.842,-1.908 4.842,-4.716 0,-2.808 -2.07,-4.716 -4.842,-4.716 -2.772,0 -4.842,1.908 -4.842,4.716 z m 7.236,0 c 0,1.44 -1.044,2.394 -2.394,2.394 -1.35,0 -2.394,-0.954 -2.394,-2.394 0,-1.44 1.044,-2.394 2.394,-2.394 1.35,0 2.394,0.954 2.394,2.394 z"
     id="path34"
     inkscape:connector-curvature="0"
     style="fill:#4a4d4f" />
  <path
     d="m 42.96,100.2 v 9.8 h 0.896 v -3.318 h 2.436 c 1.988,0 3.318,-1.344 3.318,-3.234 0,-1.904 -1.33,-3.248 -3.318,-3.248 z m 5.754,3.248 c 0,1.358 -0.966,2.338 -2.422,2.338 h -2.436 v -4.69 h 2.436 c 1.456,0 2.422,0.98 2.422,2.352 z m 1.77,3.052 c 0,2.128 1.54,3.668 3.668,3.668 2.114,0 3.668,-1.54 3.668,-3.668 0,-2.128 -1.554,-3.668 -3.668,-3.668 -2.128,0 -3.668,1.54 -3.668,3.668 z m 6.44,0 c 0,1.666 -1.106,2.842 -2.772,2.842 -1.68,0 -2.786,-1.176 -2.786,-2.842 0,-1.666 1.106,-2.842 2.786,-2.842 1.666,0 2.772,1.176 2.772,2.842 z m 5.599,-2.87 c 1.624,0 2.66,1.162 2.66,2.87 0,1.708 -1.036,2.87 -2.66,2.87 -1.666,0 -2.66,-1.246 -2.66,-2.87 0,-1.624 0.994,-2.87 2.66,-2.87 z m 2.604,-3.43 v 4.326 c -0.462,-0.868 -1.302,-1.694 -2.758,-1.694 -2.058,0 -3.388,1.582 -3.388,3.668 0,2.086 1.33,3.668 3.388,3.668 1.456,0 2.338,-0.826 2.758,-1.694 V 110 h 0.854 v -9.8 z m 3.969,4.396 V 103 H 68.27 v 7 h 0.854 v -3.234 c 0,-1.694 0.518,-3.038 2.156,-3.038 0.224,0 0.434,0.014 0.7,0.07 v -0.896 c -0.238,-0.042 -0.476,-0.07 -0.686,-0.07 -1.05,0 -1.834,0.574 -2.198,1.764 z m 5.154,-3.43 0.392,0.602 2.982,-1.876 -0.406,-0.63 z m 3.444,5.838 c 0,1.162 -0.882,2.338 -2.45,2.338 -1.022,0 -1.568,-0.518 -1.568,-1.316 0,-0.644 0.406,-1.204 1.47,-1.316 l 2.548,-0.28 z m -4.662,-2.492 0.756,0.406 c 0.182,-0.854 0.868,-1.316 2.058,-1.316 1.302,0 1.848,0.602 1.848,1.54 v 0.252 c 0,0.182 -0.098,0.266 -0.35,0.294 l -2.324,0.224 c -1.288,0.126 -2.24,0.812 -2.24,2.114 0,1.204 0.812,2.114 2.352,2.114 1.176,0 2.128,-0.574 2.562,-1.638 V 110 h 0.854 v -4.592 c 0,-1.708 -0.882,-2.576 -2.744,-2.576 -1.75,0 -2.52,0.728 -2.772,1.68 z m 7.207,0.308 c 0,1.498 1.4,1.82 2.618,2.058 0.952,0.196 1.806,0.35 1.806,1.302 0,0.826 -0.728,1.19 -1.764,1.19 -0.882,0 -1.862,-0.266 -2.282,-1.246 l -0.7,0.462 c 0.532,1.176 1.764,1.582 2.954,1.582 1.554,0 2.646,-0.672 2.646,-2.044 0,-1.596 -1.344,-1.82 -2.492,-2.058 -1.022,-0.21 -1.932,-0.392 -1.932,-1.302 0,-0.644 0.63,-1.134 1.708,-1.134 1.022,0 1.652,0.448 1.96,1.092 l 0.714,-0.462 c -0.518,-0.966 -1.47,-1.428 -2.66,-1.428 -1.638,0 -2.576,0.812 -2.576,1.988 z m 16.041,2.184 c 0,1.162 -0.882,2.338 -2.45,2.338 -1.022,0 -1.568,-0.518 -1.568,-1.316 0,-0.644 0.406,-1.204 1.47,-1.316 l 2.548,-0.28 z m -4.662,-2.492 0.756,0.406 c 0.182,-0.854 0.868,-1.316 2.058,-1.316 1.302,0 1.848,0.602 1.848,1.54 v 0.252 c 0,0.182 -0.098,0.266 -0.35,0.294 l -2.324,0.224 c -1.288,0.126 -2.24,0.812 -2.24,2.114 0,1.204 0.812,2.114 2.352,2.114 1.176,0 2.128,-0.574 2.562,-1.638 V 110 h 0.854 v -4.592 c 0,-1.708 -0.882,-2.576 -2.744,-2.576 -1.75,0 -2.52,0.728 -2.772,1.68 z m 13.255,1.988 c 0,1.708 -1.022,2.87 -2.646,2.87 -1.652,0 -2.674,-1.246 -2.674,-2.87 0,-1.624 1.022,-2.87 2.674,-2.87 1.624,0 2.646,1.162 2.646,2.87 z m -6.216,0 c 0,2.086 1.274,3.668 3.444,3.668 1.442,0 2.366,-0.812 2.744,-1.652 v 1.106 c 0,1.386 -0.532,2.604 -2.492,2.604 -1.274,0 -2.03,-0.504 -2.52,-1.386 l -0.658,0.546 c 0.518,0.924 1.4,1.596 3.122,1.596 2.688,0 3.374,-1.666 3.374,-3.36 V 103 h -0.868 v 1.484 c -0.336,-0.812 -1.232,-1.652 -2.716,-1.652 -2.072,0 -3.43,1.582 -3.43,3.668 z m 8.7,0.042 c 0,2.198 1.442,3.626 3.556,3.626 1.274,0 2.17,-0.588 2.758,-1.204 l -0.448,-0.672 c -0.546,0.588 -1.288,1.078 -2.352,1.078 -1.442,0 -2.604,-0.938 -2.66,-2.604 l 0.014,-0.098 h 5.88 v -0.252 c 0,-1.932 -1.092,-3.584 -3.304,-3.584 -2.1,0 -3.444,1.624 -3.444,3.71 z m 5.81,-0.56 h -4.914 c 0.168,-1.4 1.064,-2.352 2.562,-2.352 1.498,0 2.282,1.022 2.352,2.352 z m 3.416,-1.428 V 103 h -0.826 v 7 h 0.854 v -3.234 c 0,-1.68 0.56,-3.136 2.366,-3.136 1.218,0 1.932,0.826 1.932,2.226 V 110 h 0.882 v -4.088 c 0,-1.848 -0.854,-3.08 -2.646,-3.08 -1.246,0 -2.114,0.7 -2.562,1.722 z m 10.435,-0.924 c 1.624,0 2.66,1.162 2.66,2.87 0,1.708 -1.036,2.87 -2.66,2.87 -1.666,0 -2.66,-1.246 -2.66,-2.87 0,-1.624 0.994,-2.87 2.66,-2.87 z m 2.604,-3.43 v 4.326 c -0.462,-0.868 -1.302,-1.694 -2.758,-1.694 -2.058,0 -3.388,1.582 -3.388,3.668 0,2.086 1.33,3.668 3.388,3.668 1.456,0 2.338,-0.826 2.758,-1.694 V 110 h 0.854 v -9.8 z m 7.706,6.804 c 0,1.162 -0.882,2.338 -2.45,2.338 -1.022,0 -1.568,-0.518 -1.568,-1.316 0,-0.644 0.406,-1.204 1.47,-1.316 l 2.548,-0.28 z m -4.662,-2.492 0.756,0.406 c 0.182,-0.854 0.868,-1.316 2.058,-1.316 1.302,0 1.848,0.602 1.848,1.54 v 0.252 c 0,0.182 -0.098,0.266 -0.35,0.294 l -2.324,0.224 c -1.288,0.126 -2.24,0.812 -2.24,2.114 0,1.204 0.812,2.114 2.352,2.114 1.176,0 2.128,-0.574 2.562,-1.638 V 110 h 0.854 v -4.592 c 0,-1.708 -0.882,-2.576 -2.744,-2.576 -1.75,0 -2.52,0.728 -2.772,1.68 z m 8.314,0.084 V 103 h -0.826 v 7 h 0.854 v -3.234 c 0,-1.694 0.518,-3.038 2.156,-3.038 0.224,0 0.434,0.014 0.7,0.07 v -0.896 c -0.238,-0.042 -0.476,-0.07 -0.686,-0.07 -1.05,0 -1.834,0.574 -2.198,1.764 z m 12.616,5.334 v -0.756 c -0.322,0.056 -0.602,0.098 -1.036,0.098 -0.77,0 -1.036,-0.364 -1.036,-1.106 v -4.41 h 2.03 V 103 h -2.03 v -1.876 H 150.67 V 103 h -1.47 v 0.756 h 1.47 v 4.368 c 0,1.428 0.616,1.946 1.848,1.946 0.392,0 0.728,-0.056 1.078,-0.14 z m 6.548,-6.93 v 3.234 c 0,1.624 -0.56,3.136 -2.296,3.136 -1.456,0 -1.904,-0.938 -1.904,-2.254 V 103 h -0.882 v 4.116 c 0,1.792 0.714,3.052 2.646,3.052 1.176,0 2.002,-0.588 2.464,-1.764 V 110 h 0.826 v -7 z m 7.128,3.514 c 0,2.128 1.414,3.654 3.626,3.654 1.078,0 1.932,-0.392 2.52,-0.952 l -0.518,-0.672 c -0.532,0.476 -1.246,0.798 -2.016,0.798 -1.582,0 -2.73,-1.134 -2.73,-2.842 0,-1.736 1.134,-2.842 2.744,-2.842 0.742,0 1.4,0.294 1.932,0.77 l 0.546,-0.672 c -0.616,-0.588 -1.428,-0.924 -2.436,-0.924 -2.212,0 -3.668,1.554 -3.668,3.682 z m 7.409,-5.642 c 0,0.434 0.336,0.784 0.784,0.784 0.434,0 0.784,-0.35 0.784,-0.784 0,-0.448 -0.35,-0.784 -0.784,-0.784 -0.448,0 -0.784,0.336 -0.784,0.784 z m 0.35,2.128 v 7 h 0.854 v -7 z m 6.789,6.93 v -0.756 c -0.322,0.056 -0.602,0.098 -1.036,0.098 -0.77,0 -1.036,-0.364 -1.036,-1.106 v -4.41 h 2.03 V 103 h -2.03 v -1.876 h -0.854 V 103 h -1.47 v 0.756 h 1.47 v 4.368 c 0,1.428 0.616,1.946 1.848,1.946 0.392,0 0.728,-0.056 1.078,-0.14 z m 6.03,-2.926 c 0,1.162 -0.882,2.338 -2.45,2.338 -1.022,0 -1.568,-0.518 -1.568,-1.316 0,-0.644 0.406,-1.204 1.47,-1.316 l 2.548,-0.28 z m -4.662,-2.492 0.756,0.406 c 0.182,-0.854 0.868,-1.316 2.058,-1.316 1.302,0 1.848,0.602 1.848,1.54 v 0.252 c 0,0.182 -0.098,0.266 -0.35,0.294 l -2.324,0.224 c -1.288,0.126 -2.24,0.812 -2.24,2.114 0,1.204 0.812,2.114 2.352,2.114 1.176,0 2.128,-0.574 2.562,-1.638 V 110 h 0.854 v -4.592 c 0,-1.708 -0.882,-2.576 -2.744,-2.576 -1.75,0 -2.52,0.728 -2.772,1.68 z m 11.515,2.002 c 0,2.128 1.414,3.654 3.626,3.654 1.078,0 1.932,-0.392 2.52,-0.952 l -0.518,-0.672 c -0.532,0.476 -1.246,0.798 -2.016,0.798 -1.582,0 -2.73,-1.134 -2.73,-2.842 0,-1.736 1.134,-2.842 2.744,-2.842 0.742,0 1.4,0.294 1.932,0.77 l 0.546,-0.672 c -0.616,-0.588 -1.428,-0.924 -2.436,-0.924 -2.212,0 -3.668,1.554 -3.668,3.682 z m 7.157,-0.014 c 0,2.128 1.54,3.668 3.668,3.668 2.114,0 3.668,-1.54 3.668,-3.668 0,-2.128 -1.554,-3.668 -3.668,-3.668 -2.128,0 -3.668,1.54 -3.668,3.668 z m 6.44,0 c 0,1.666 -1.106,2.842 -2.772,2.842 -1.68,0 -2.786,-1.176 -2.786,-2.842 0,-1.666 1.106,-2.842 2.786,-2.842 1.666,0 2.772,1.176 2.772,2.842 z m 3.415,-1.946 V 103 h -0.826 v 7 h 0.854 v -3.234 c 0,-1.68 0.56,-3.136 2.366,-3.136 1.218,0 1.932,0.826 1.932,2.226 V 110 h 0.882 v -4.088 c 0,-1.848 -0.854,-3.08 -2.646,-3.08 -1.246,0 -2.114,0.7 -2.562,1.722 z m -190.743,18 V 121 h -0.826 v 7 H 21 v -3.234 c 0,-1.68 0.56,-3.136 2.366,-3.136 1.218,0 1.932,0.826 1.932,2.226 V 128 h 0.882 v -4.088 c 0,-1.848 -0.854,-3.08 -2.646,-3.08 -1.246,0 -2.114,0.7 -2.562,1.722 z M 33.479,121 v 3.234 c 0,1.624 -0.56,3.136 -2.296,3.136 -1.456,0 -1.904,-0.938 -1.904,-2.254 V 121 h -0.882 v 4.116 c 0,1.792 0.714,3.052 2.646,3.052 1.176,0 2.002,-0.588 2.464,-1.764 V 128 h 0.826 v -7 z m 2.568,3.542 c 0,2.198 1.442,3.626 3.556,3.626 1.274,0 2.17,-0.588 2.758,-1.204 l -0.448,-0.672 c -0.546,0.588 -1.288,1.078 -2.352,1.078 -1.442,0 -2.604,-0.938 -2.66,-2.604 l 0.014,-0.098 h 5.88 v -0.252 c 0,-1.932 -1.092,-3.584 -3.304,-3.584 -2.1,0 -3.444,1.624 -3.444,3.71 z m 5.81,-0.56 h -4.914 c 0.168,-1.4 1.064,-2.352 2.562,-2.352 1.498,0 2.282,1.022 2.352,2.352 z m 2.31,-1.162 c 0,1.498 1.4,1.82 2.618,2.058 0.952,0.196 1.806,0.35 1.806,1.302 0,0.826 -0.728,1.19 -1.764,1.19 -0.882,0 -1.862,-0.266 -2.282,-1.246 l -0.7,0.462 c 0.532,1.176 1.764,1.582 2.954,1.582 1.554,0 2.646,-0.672 2.646,-2.044 0,-1.596 -1.344,-1.82 -2.492,-2.058 -1.022,-0.21 -1.932,-0.392 -1.932,-1.302 0,-0.644 0.63,-1.134 1.708,-1.134 1.022,0 1.652,0.448 1.96,1.092 l 0.714,-0.462 c -0.518,-0.966 -1.47,-1.428 -2.66,-1.428 -1.638,0 -2.576,0.812 -2.576,1.988 z m 10.544,5.11 v -0.756 c -0.322,0.056 -0.602,0.098 -1.036,0.098 -0.77,0 -1.036,-0.364 -1.036,-1.106 v -4.41 h 2.03 V 121 h -2.03 v -1.876 H 51.785 V 121 h -1.47 v 0.756 h 1.47 v 4.368 c 0,1.428 0.616,1.946 1.848,1.946 0.392,0 0.728,-0.056 1.078,-0.14 z m 2.429,-5.334 V 121 h -0.826 v 7 h 0.854 v -3.234 c 0,-1.694 0.518,-3.038 2.156,-3.038 0.224,0 0.434,0.014 0.7,0.07 v -0.896 c -0.238,-0.042 -0.476,-0.07 -0.686,-0.07 -1.05,0 -1.834,0.574 -2.198,1.764 z m 3.406,1.904 c 0,2.128 1.54,3.668 3.668,3.668 2.114,0 3.668,-1.54 3.668,-3.668 0,-2.128 -1.554,-3.668 -3.668,-3.668 -2.128,0 -3.668,1.54 -3.668,3.668 z m 6.44,0 c 0,1.666 -1.106,2.842 -2.772,2.842 -1.68,0 -2.786,-1.176 -2.786,-2.842 0,-1.666 1.106,-2.842 2.786,-2.842 1.666,0 2.772,1.176 2.772,2.842 z m 12.846,-1.778 c -0.28,-1.218 -1.12,-1.89 -2.408,-1.89 -1.232,0 -2.1,0.644 -2.464,1.75 V 121 h -0.826 v 7 h 0.854 v -3.234 c 0,-1.68 0.56,-3.136 2.324,-3.136 1.288,0 1.946,0.826 1.946,2.212 V 128 h 0.868 v -3.29 c 0,-1.666 0.602,-3.08 2.352,-3.08 1.288,0 1.932,0.812 1.932,2.184 V 128 h 0.868 v -4.074 c 0,-1.918 -0.854,-3.094 -2.702,-3.094 -1.33,0 -2.254,0.616 -2.744,1.89 z m 9.108,-3.556 0.392,0.602 2.982,-1.876 -0.406,-0.63 z m -1.974,5.376 c 0,2.198 1.442,3.626 3.556,3.626 1.274,0 2.17,-0.588 2.758,-1.204 l -0.448,-0.672 c -0.546,0.588 -1.288,1.078 -2.352,1.078 -1.442,0 -2.604,-0.938 -2.66,-2.604 l 0.014,-0.098 h 5.88 v -0.252 c 0,-1.932 -1.092,-3.584 -3.304,-3.584 -2.1,0 -3.444,1.624 -3.444,3.71 z m 5.81,-0.56 h -4.914 c 0.168,-1.4 1.064,-2.352 2.562,-2.352 1.498,0 2.282,1.022 2.352,2.352 z m 5.6,-2.352 c 1.624,0 2.66,1.162 2.66,2.87 0,1.708 -1.036,2.87 -2.66,2.87 -1.666,0 -2.66,-1.246 -2.66,-2.87 0,-1.624 0.994,-2.87 2.66,-2.87 z m 2.604,-3.43 v 4.326 c -0.462,-0.868 -1.302,-1.694 -2.758,-1.694 -2.058,0 -3.388,1.582 -3.388,3.668 0,2.086 1.33,3.668 3.388,3.668 1.456,0 2.338,-0.826 2.758,-1.694 V 128 h 0.854 v -9.8 z m 2.863,0.672 c 0,0.434 0.336,0.784 0.784,0.784 0.434,0 0.784,-0.35 0.784,-0.784 0,-0.448 -0.35,-0.784 -0.784,-0.784 -0.448,0 -0.784,0.336 -0.784,0.784 z m 0.35,2.128 v 7 h 0.854 v -7 z m 2.631,3.514 c 0,2.128 1.414,3.654 3.626,3.654 1.078,0 1.932,-0.392 2.52,-0.952 l -0.518,-0.672 c -0.532,0.476 -1.246,0.798 -2.016,0.798 -1.582,0 -2.73,-1.134 -2.73,-2.842 0,-1.736 1.134,-2.842 2.744,-2.842 0.742,0 1.4,0.294 1.932,0.77 l 0.546,-0.672 c -0.616,-0.588 -1.428,-0.924 -2.436,-0.924 -2.212,0 -3.668,1.554 -3.668,3.682 z m 7.157,-0.014 c 0,2.128 1.54,3.668 3.668,3.668 2.114,0 3.668,-1.54 3.668,-3.668 0,-2.128 -1.554,-3.668 -3.668,-3.668 -2.128,0 -3.668,1.54 -3.668,3.668 z m 6.44,0 c 0,1.666 -1.106,2.842 -2.772,2.842 -1.68,0 -2.786,-1.176 -2.786,-2.842 0,-1.666 1.106,-2.842 2.786,-2.842 1.666,0 2.772,1.176 2.772,2.842 z m 12.916,0 c 0,1.708 -1.022,2.87 -2.646,2.87 -1.652,0 -2.674,-1.246 -2.674,-2.87 0,-1.624 1.022,-2.87 2.674,-2.87 1.624,0 2.646,1.162 2.646,2.87 z m -6.216,0 c 0,2.086 1.274,3.668 3.444,3.668 1.442,0 2.366,-0.812 2.744,-1.652 v 1.106 c 0,1.386 -0.532,2.604 -2.492,2.604 -1.274,0 -2.03,-0.504 -2.52,-1.386 l -0.658,0.546 c 0.518,0.924 1.4,1.596 3.122,1.596 2.688,0 3.374,-1.666 3.374,-3.36 V 121 h -0.868 v 1.484 c -0.336,-0.812 -1.232,-1.652 -2.716,-1.652 -2.072,0 -3.43,1.582 -3.43,3.668 z m 8.952,-5.628 c 0,0.434 0.336,0.784 0.784,0.784 0.434,0 0.784,-0.35 0.784,-0.784 0,-0.448 -0.35,-0.784 -0.784,-0.784 -0.448,0 -0.784,0.336 -0.784,0.784 z m 0.35,2.128 v 7 h 0.854 v -7 z m 3.989,1.554 V 121 h -0.826 v 7 h 0.854 v -3.234 c 0,-1.68 0.56,-3.136 2.366,-3.136 1.218,0 1.932,0.826 1.932,2.226 V 128 h 0.882 v -4.088 c 0,-1.848 -0.854,-3.08 -2.646,-3.08 -1.246,0 -2.114,0.7 -2.562,1.722 z m 6.893,1.988 c 0,2.198 1.442,3.626 3.556,3.626 1.274,0 2.17,-0.588 2.758,-1.204 l -0.448,-0.672 c -0.546,0.588 -1.288,1.078 -2.352,1.078 -1.442,0 -2.604,-0.938 -2.66,-2.604 l 0.014,-0.098 h 5.88 v -0.252 c 0,-1.932 -1.092,-3.584 -3.304,-3.584 -2.1,0 -3.444,1.624 -3.444,3.71 z m 5.81,-0.56 h -4.914 c 0.168,-1.4 1.064,-2.352 2.562,-2.352 1.498,0 2.282,1.022 2.352,2.352 z m 2.058,0.532 c 0,2.128 1.414,3.654 3.626,3.654 1.078,0 1.932,-0.392 2.52,-0.952 l -0.518,-0.672 c -0.532,0.476 -1.246,0.798 -2.016,0.798 -1.582,0 -2.73,-1.134 -2.73,-2.842 0,-1.736 1.134,-2.842 2.744,-2.842 0.742,0 1.4,0.294 1.932,0.77 l 0.546,-0.672 c -0.616,-0.588 -1.428,-0.924 -2.436,-0.924 -2.212,0 -3.668,1.554 -3.668,3.682 z m 7.156,-0.014 c 0,2.128 1.54,3.668 3.668,3.668 2.114,0 3.668,-1.54 3.668,-3.668 0,-2.128 -1.554,-3.668 -3.668,-3.668 -2.128,0 -3.668,1.54 -3.668,3.668 z m 6.44,0 c 0,1.666 -1.106,2.842 -2.772,2.842 -1.68,0 -2.786,-1.176 -2.786,-2.842 0,-1.666 1.106,-2.842 2.786,-2.842 1.666,0 2.772,1.176 2.772,2.842 z m 2.729,-1.428 v 0.896 h 6.552 v -0.896 z m 8.399,1.428 c 0,2.128 1.54,3.668 3.668,3.668 2.114,0 3.668,-1.54 3.668,-3.668 0,-2.128 -1.554,-3.668 -3.668,-3.668 -2.128,0 -3.668,1.54 -3.668,3.668 z m 6.44,0 c 0,1.666 -1.106,2.842 -2.772,2.842 -1.68,0 -2.786,-1.176 -2.786,-2.842 0,-1.666 1.106,-2.842 2.786,-2.842 1.666,0 2.772,1.176 2.772,2.842 z m 3.415,-1.946 V 121 h -0.826 v 7 h 0.854 v -3.234 c 0,-1.68 0.56,-3.136 2.366,-3.136 1.218,0 1.932,0.826 1.932,2.226 V 128 h 0.882 v -4.088 c 0,-1.848 -0.854,-3.08 -2.646,-3.08 -1.246,0 -2.114,0.7 -2.562,1.722 z m 6.893,1.96 c 0,2.128 1.414,3.654 3.626,3.654 1.078,0 1.932,-0.392 2.52,-0.952 l -0.518,-0.672 c -0.532,0.476 -1.246,0.798 -2.016,0.798 -1.582,0 -2.73,-1.134 -2.73,-2.842 0,-1.736 1.134,-2.842 2.744,-2.842 0.742,0 1.4,0.294 1.932,0.77 l 0.546,-0.672 c -0.616,-0.588 -1.428,-0.924 -2.436,-0.924 -2.212,0 -3.668,1.554 -3.668,3.682 z m 9.229,-5.348 0.392,0.602 2.982,-1.876 -0.406,-0.63 z m -2.072,5.334 c 0,2.128 1.54,3.668 3.668,3.668 2.114,0 3.668,-1.54 3.668,-3.668 0,-2.128 -1.554,-3.668 -3.668,-3.668 -2.128,0 -3.668,1.54 -3.668,3.668 z m 6.44,0 c 0,1.666 -1.106,2.842 -2.772,2.842 -1.68,0 -2.786,-1.176 -2.786,-2.842 0,-1.666 1.106,-2.842 2.786,-2.842 1.666,0 2.772,1.176 2.772,2.842 z m 2.631,-6.3 v 9.8 h 0.882 v -9.8 z m 2.631,6.3 c 0,2.128 1.54,3.668 3.668,3.668 2.114,0 3.668,-1.54 3.668,-3.668 0,-2.128 -1.554,-3.668 -3.668,-3.668 -2.128,0 -3.668,1.54 -3.668,3.668 z m 6.44,0 c 0,1.666 -1.106,2.842 -2.772,2.842 -1.68,0 -2.786,-1.176 -2.786,-2.842 0,-1.666 1.106,-2.842 2.786,-2.842 1.666,0 2.772,1.176 2.772,2.842 z m 8.357,0 c 0,1.708 -1.022,2.87 -2.646,2.87 -1.652,0 -2.674,-1.246 -2.674,-2.87 0,-1.624 1.022,-2.87 2.674,-2.87 1.624,0 2.646,1.162 2.646,2.87 z m -6.216,0 c 0,2.086 1.274,3.668 3.444,3.668 1.442,0 2.366,-0.812 2.744,-1.652 v 1.106 c 0,1.386 -0.532,2.604 -2.492,2.604 -1.274,0 -2.03,-0.504 -2.52,-1.386 l -0.658,0.546 c 0.518,0.924 1.4,1.596 3.122,1.596 2.688,0 3.374,-1.666 3.374,-3.36 V 121 h -0.868 v 1.484 c -0.336,-0.812 -1.232,-1.652 -2.716,-1.652 -2.072,0 -3.43,1.582 -3.43,3.668 z m 8.7,0 c 0,2.128 1.54,3.668 3.668,3.668 2.114,0 3.668,-1.54 3.668,-3.668 0,-2.128 -1.554,-3.668 -3.668,-3.668 -2.128,0 -3.668,1.54 -3.668,3.668 z m 6.44,0 c 0,1.666 -1.106,2.842 -2.772,2.842 -1.68,0 -2.786,-1.176 -2.786,-2.842 0,-1.666 1.106,-2.842 2.786,-2.842 1.666,0 2.772,1.176 2.772,2.842 z m -184.92,18.042 c 0,2.198 1.442,3.626 3.556,3.626 1.274,0 2.17,-0.588 2.758,-1.204 l -0.448,-0.672 c -0.546,0.588 -1.288,1.078 -2.352,1.078 -1.442,0 -2.604,-0.938 -2.66,-2.604 l 0.014,-0.098 h 5.88 v -0.252 c 0,-1.932 -1.092,-3.584 -3.304,-3.584 -2.1,0 -3.444,1.624 -3.444,3.71 z m 5.81,-0.56 h -4.914 c 0.168,-1.4 1.064,-2.352 2.562,-2.352 1.498,0 2.282,1.022 2.352,2.352 z m 3.416,-1.428 V 139 h -0.826 v 7 h 0.854 v -3.234 c 0,-1.68 0.56,-3.136 2.366,-3.136 1.218,0 1.932,0.826 1.932,2.226 V 146 h 0.882 v -4.088 c 0,-1.848 -0.854,-3.08 -2.646,-3.08 -1.246,0 -2.114,0.7 -2.562,1.722 z m 11.452,1.96 c 0,2.128 1.414,3.654 3.626,3.654 1.078,0 1.932,-0.392 2.52,-0.952 l -0.518,-0.672 c -0.532,0.476 -1.246,0.798 -2.016,0.798 -1.582,0 -2.73,-1.134 -2.73,-2.842 0,-1.736 1.134,-2.842 2.744,-2.842 0.742,0 1.4,0.294 1.932,0.77 l 0.546,-0.672 c -0.616,-0.588 -1.428,-0.924 -2.436,-0.924 -2.212,0 -3.668,1.554 -3.668,3.682 z M 87.754,139 v 3.234 c 0,1.624 -0.56,3.136 -2.296,3.136 -1.456,0 -1.904,-0.938 -1.904,-2.254 V 139 h -0.882 v 4.116 c 0,1.792 0.714,3.052 2.646,3.052 1.176,0 2.002,-0.588 2.464,-1.764 V 146 h 0.826 v -7 z m 7.664,4.004 c 0,1.162 -0.882,2.338 -2.45,2.338 -1.022,0 -1.568,-0.518 -1.568,-1.316 0,-0.644 0.406,-1.204 1.47,-1.316 l 2.548,-0.28 z m -4.662,-2.492 0.756,0.406 c 0.182,-0.854 0.868,-1.316 2.058,-1.316 1.302,0 1.848,0.602 1.848,1.54 v 0.252 c 0,0.182 -0.098,0.266 -0.35,0.294 l -2.324,0.224 c -1.288,0.126 -2.24,0.812 -2.24,2.114 0,1.204 0.812,2.114 2.352,2.114 1.176,0 2.128,-0.574 2.562,-1.638 V 146 h 0.854 v -4.592 c 0,-1.708 -0.882,-2.576 -2.744,-2.576 -1.75,0 -2.52,0.728 -2.772,1.68 z m 7.53,-4.312 v 9.8 h 0.882 v -9.8 z m 9.632,12.6 V 139 h -0.854 v 1.526 c -0.42,-0.868 -1.302,-1.694 -2.758,-1.694 -2.058,0 -3.388,1.582 -3.388,3.668 0,2.086 1.33,3.668 3.388,3.668 1.456,0 2.296,-0.826 2.758,-1.694 v 4.326 z m -6.118,-6.3 c 0,-1.624 0.994,-2.87 2.66,-2.87 1.624,0 2.66,1.162 2.66,2.87 0,1.708 -1.036,2.87 -2.66,2.87 -1.666,0 -2.66,-1.246 -2.66,-2.87 z m 13.488,-3.5 v 3.234 c 0,1.624 -0.56,3.136 -2.296,3.136 -1.456,0 -1.904,-0.938 -1.904,-2.254 V 139 h -0.882 v 4.116 c 0,1.792 0.714,3.052 2.646,3.052 1.176,0 2.002,-0.588 2.464,-1.764 V 146 h 0.826 v -7 z m 2.82,-2.128 c 0,0.434 0.336,0.784 0.784,0.784 0.434,0 0.784,-0.35 0.784,-0.784 0,-0.448 -0.35,-0.784 -0.784,-0.784 -0.448,0 -0.784,0.336 -0.784,0.784 z m 0.35,2.128 v 7 h 0.854 v -7 z m 2.632,3.542 c 0,2.198 1.442,3.626 3.556,3.626 1.274,0 2.17,-0.588 2.758,-1.204 l -0.448,-0.672 c -0.546,0.588 -1.288,1.078 -2.352,1.078 -1.442,0 -2.604,-0.938 -2.66,-2.604 l 0.014,-0.098 h 5.88 v -0.252 c 0,-1.932 -1.092,-3.584 -3.304,-3.584 -2.1,0 -3.444,1.624 -3.444,3.71 z m 5.81,-0.56 h -4.914 c 0.168,-1.4 1.064,-2.352 2.562,-2.352 1.498,0 2.282,1.022 2.352,2.352 z m 3.415,-1.386 V 139 h -0.826 v 7 h 0.854 v -3.234 c 0,-1.694 0.518,-3.038 2.156,-3.038 0.224,0 0.434,0.014 0.7,0.07 v -0.896 c -0.238,-0.042 -0.476,-0.07 -0.686,-0.07 -1.05,0 -1.834,0.574 -2.198,1.764 z m 14.688,0.126 c -0.28,-1.218 -1.12,-1.89 -2.408,-1.89 -1.232,0 -2.1,0.644 -2.464,1.75 V 139 h -0.826 v 7 h 0.854 v -3.234 c 0,-1.68 0.56,-3.136 2.324,-3.136 1.288,0 1.946,0.826 1.946,2.212 V 146 h 0.868 v -3.29 c 0,-1.666 0.602,-3.08 2.352,-3.08 1.288,0 1.932,0.812 1.932,2.184 V 146 h 0.868 v -4.074 c 0,-1.918 -0.854,-3.094 -2.702,-3.094 -1.33,0 -2.254,0.616 -2.744,1.89 z m 7.134,1.778 c 0,2.128 1.54,3.668 3.668,3.668 2.114,0 3.668,-1.54 3.668,-3.668 0,-2.128 -1.554,-3.668 -3.668,-3.668 -2.128,0 -3.668,1.54 -3.668,3.668 z m 6.44,0 c 0,1.666 -1.106,2.842 -2.772,2.842 -1.68,0 -2.786,-1.176 -2.786,-2.842 0,-1.666 1.106,-2.842 2.786,-2.842 1.666,0 2.772,1.176 2.772,2.842 z m 8.287,-1.778 c -0.28,-1.218 -1.12,-1.89 -2.408,-1.89 -1.232,0 -2.1,0.644 -2.464,1.75 V 139 h -0.826 v 7 h 0.854 v -3.234 c 0,-1.68 0.56,-3.136 2.324,-3.136 1.288,0 1.946,0.826 1.946,2.212 V 146 h 0.868 v -3.29 c 0,-1.666 0.602,-3.08 2.352,-3.08 1.288,0 1.932,0.812 1.932,2.184 V 146 h 0.868 v -4.074 c 0,-1.918 -0.854,-3.094 -2.702,-3.094 -1.33,0 -2.254,0.616 -2.744,1.89 z m 7.134,1.82 c 0,2.198 1.442,3.626 3.556,3.626 1.274,0 2.17,-0.588 2.758,-1.204 l -0.448,-0.672 c -0.546,0.588 -1.288,1.078 -2.352,1.078 -1.442,0 -2.604,-0.938 -2.66,-2.604 l 0.014,-0.098 h 5.88 v -0.252 c 0,-1.932 -1.092,-3.584 -3.304,-3.584 -2.1,0 -3.444,1.624 -3.444,3.71 z m 5.81,-0.56 h -4.914 c 0.168,-1.4 1.064,-2.352 2.562,-2.352 1.498,0 2.282,1.022 2.352,2.352 z m 3.416,-1.428 V 139 h -0.826 v 7 h 0.854 v -3.234 c 0,-1.68 0.56,-3.136 2.366,-3.136 1.218,0 1.932,0.826 1.932,2.226 V 146 h 0.882 v -4.088 c 0,-1.848 -0.854,-3.08 -2.646,-3.08 -1.246,0 -2.114,0.7 -2.562,1.722 z m 10.695,5.376 v -0.756 c -0.322,0.056 -0.602,0.098 -1.036,0.098 -0.77,0 -1.036,-0.364 -1.036,-1.106 v -4.41 h 2.03 V 139 h -2.03 v -1.876 h -0.854 V 139 h -1.47 v 0.756 h 1.47 v 4.368 c 0,1.428 0.616,1.946 1.848,1.946 0.392,0 0.728,-0.056 1.078,-0.14 z m 0.866,-3.43 c 0,2.128 1.54,3.668 3.668,3.668 2.114,0 3.668,-1.54 3.668,-3.668 0,-2.128 -1.554,-3.668 -3.668,-3.668 -2.128,0 -3.668,1.54 -3.668,3.668 z m 6.44,0 c 0,1.666 -1.106,2.842 -2.772,2.842 -1.68,0 -2.786,-1.176 -2.786,-2.842 0,-1.666 1.106,-2.842 2.786,-2.842 1.666,0 2.772,1.176 2.772,2.842 z m 2.981,1.736 c -0.504,0 -0.882,0.392 -0.882,0.882 0,0.504 0.378,0.882 0.882,0.882 0.49,0 0.882,-0.378 0.882,-0.882 0,-0.49 -0.392,-0.882 -0.882,-0.882 z"
     id="path36"
     inkscape:connector-curvature="0"
     style="fill:#4a4d4f" />
  <defs
     id="defs55">
    <clipPath
       id="clip0">
      <rect
         width="240"
         height="204"
         transform="translate(12)"
         id="rect52"
         x="0"
         y="0"
         style="fill:#ffffff" />
    </clipPath>
  </defs>
</svg>
