<?xml version="1.0" encoding="UTF-8" standalone="no"?>
<svg
   xmlns:dc="http://purl.org/dc/elements/1.1/"
   xmlns:cc="http://creativecommons.org/ns#"
   xmlns:rdf="http://www.w3.org/1999/02/22-rdf-syntax-ns#"
   xmlns:svg="http://www.w3.org/2000/svg"
   xmlns="http://www.w3.org/2000/svg"
   xmlns:sodipodi="http://sodipodi.sourceforge.net/DTD/sodipodi-0.dtd"
   xmlns:inkscape="http://www.inkscape.org/namespaces/inkscape"
   width="260"
   height="220"
   viewBox="0 0 260 220"
   version="1.1"
   id="svg57"
   sodipodi:docname="card1.1.svg"
   style="fill:none"
   inkscape:version="0.92.2 5c3e80d, 2017-08-06">
  <metadata
     id="metadata61">
    <rdf:RDF>
      <cc:Work
         rdf:about="">
        <dc:format>image/svg+xml</dc:format>
        <dc:type
           rdf:resource="http://purl.org/dc/dcmitype/StillImage" />
        <dc:title></dc:title>
      </cc:Work>
    </rdf:RDF>
  </metadata>
  <sodipodi:namedview
     pagecolor="#ffffff"
     bordercolor="#666666"
     borderopacity="1"
     objecttolerance="10"
     gridtolerance="10"
     guidetolerance="10"
     inkscape:pageopacity="0"
     inkscape:pageshadow="2"
     inkscape:window-width="1081"
     inkscape:window-height="641"
     id="namedview59"
     showgrid="false"
     inkscape:zoom="0.8"
     inkscape:cx="258.125"
     inkscape:cy="16.521753"
     inkscape:window-x="0"
     inkscape:window-y="0"
     inkscape:window-maximized="0"
     inkscape:current-layer="svg57" />
  <rect
     x="0.5"
     y="27.5"
     width="259"
     height="192"
     id="rect2"
     style="stroke:#ee8d8b" />
  <g
     clip-path="url(#clip0)"
     id="g12">
    <ellipse
       cx="132"
       cy="24"
       rx="24"
       ry="40"
       transform="rotate(-90,132,24)"
       id="ellipse4"
       style="fill:#ffffff" />
    <path
       d="m 147.305,42.4202 v 4.7118 c 0,0.4405 -0.357,0.7977 -0.797,0.7977 -0.441,0 -0.798,-0.3572 -0.798,-0.7977 v -4.7118 c 0,-2.2085 -1.094,-4.2664 -2.927,-5.5045 -0.365,-0.2466 -0.461,-0.7425 -0.214,-1.1075 0.246,-0.3651 0.742,-0.4611 1.107,-0.2144 2.273,1.5352 3.629,4.0871 3.629,6.8264 z M 149,19.6129 v 10.0704 c 0,0.4405 -0.357,0.7977 -0.797,0.7977 h -1.695 c -2.082,0 -4.039,-0.9191 -5.371,-2.5214 -0.281,-0.3388 -0.235,-0.8418 0.104,-1.1234 0.339,-0.2814 0.842,-0.2351 1.123,0.1037 1.028,1.2366 2.538,1.9457 4.144,1.9457 h 0.897 v -9.2727 c 0,-1.8708 -1.328,-3.437 -3.091,-3.8059 v 2.842 c 0,0.4405 -0.357,0.7977 -0.798,0.7977 -0.44,0 -0.797,-0.3572 -0.797,-0.7977 v -7.8103 c 0,-5.05807 -4.115,-9.17307 -9.173,-9.17307 h -4.786 c -5.058,0 -9.173,4.1151 -9.173,9.17347 v 7.8099 c 0,0.6464 0.364,1.209 0.897,1.4948 v -4.7186 c 0,-0.4405 0.357,-0.7977 0.798,-0.7977 0.44,0 0.797,0.3572 0.797,0.7977 v 5.5961 c 0,5.0031 4.071,9.0733 9.074,9.0733 5.003,0 9.073,-4.0702 9.073,-9.0733 v -4.7754 c -1.924,-0.1093 -3.593,-1.3117 -4.188,-3.5439 -1.701,1.0896 -3.516,1.9874 -5.411,2.6753 -2.691,0.9775 -5.356,1.3845 -5.652,1.3845 -0.391,0 -0.733,-0.2885 -0.789,-0.6872 -0.061,-0.4363 0.243,-0.8395 0.68,-0.9006 4.072,-0.5701 7.936,-2.0996 11.31,-4.4878 0.529,-0.3746 1.262,0.0074 1.258,0.6562 0,0.0197 0.008,1.998 1.508,2.9008 0.992,0.5967 1.937,0.3621 2.177,0.3906 0.321,0.0379 0.591,0.2692 0.675,0.5874 0.039,0.1498 0.027,-0.2018 0.027,5.8608 0,6.9369 -6.779,12.2062 -13.677,10.1754 -0.075,0.9633 -0.429,1.8696 -1.022,2.6269 l 4.031,3.0718 2.125,-1.6204 c 0.351,-0.2671 0.851,-0.1994 1.118,0.1509 0.268,0.3503 0.2,0.8508 -0.15,1.1179 -2.744,2.0916 -2.614,2.0002 -2.708,2.0519 -0.192,0.1062 -0.426,0.1321 -0.643,0.0574 -0.176,-0.0598 0.183,0.1918 -4.964,-3.732 -0.506,0.3315 -1.067,0.5647 -1.658,0.6908 v 3.592 c 1.263,0.35 2.193,1.5092 2.193,2.8823 0,1.6493 -1.342,2.9912 -2.991,2.9912 -1.649,0 -2.991,-1.3419 -2.991,-2.9912 0,-1.3731 0.93,-2.5323 2.193,-2.8823 v -3.4573 c -3.366,0.2773 -6.082,3.0914 -6.082,6.6131 v 4.7116 c 0,0.4405 -0.357,0.7977 -0.797,0.7977 -0.441,0 -0.798,-0.3572 -0.798,-0.7977 v -4.7118 c 0,-4.5504 3.682,-8.2329 8.233,-8.2329 1.846,0 3.333,-1.4942 3.333,-3.3245 v -0.21 c -3.358,-1.6055 -5.75,-4.9165 -6.05,-8.8042 -1.446,-0.3459 -2.525,-1.6487 -2.525,-3.1996 v -7.8099 c 0,-5.93798 4.831,-10.7687875 10.769,-10.7687875 h 4.786 c 5.937,0 10.768,4.8306075 10.768,10.7683875 v 3.3489 C 146.961,14.5752 149,16.86 149,19.6129 Z m -25.525,21.1379 c -0.769,0 -1.396,0.6261 -1.396,1.3959 0,0.7697 0.627,1.3959 1.396,1.3959 0.77,0 1.396,-0.6262 1.396,-1.3959 0,-0.7698 -0.626,-1.3959 -1.396,-1.3959 z m 16.153,-1.5197 c 0,-4.5565 0.018,-4.3298 -0.042,-4.5081 -0.1,-0.2965 -0.371,-0.518 -0.702,-0.5404 -1.18,-0.0847 -2.119,-0.7022 -2.663,-1.5957 -0.229,-0.3763 -0.72,-0.4956 -1.096,-0.2664 -0.376,0.2292 -0.495,0.7199 -0.266,1.0961 0.709,1.1648 1.862,1.9716 3.174,2.2536 v 3.5609 c -1.985,0.3749 -3.49,2.1204 -3.49,4.2118 v 3.6891 c 0,0.4405 0.357,0.7977 0.797,0.7977 0.441,0 0.798,-0.3572 0.798,-0.7977 v -3.6891 c 0,-1.4845 1.208,-2.6921 2.692,-2.6921 1.485,0 2.692,1.2076 2.692,2.6921 v 3.6891 c 0,0.4405 0.357,0.7977 0.798,0.7977 0.44,0 0.798,-0.3572 0.798,-0.7977 v -3.6891 c 0,-2.0915 -1.506,-3.8369 -3.49,-4.2118 z"
       id="path6"
       inkscape:connector-curvature="0"
       style="fill:#ee8d8b;stroke:#ee8d8b;stroke-width:0.40000001" />
    <path
       d="M 83.0498,69.4 V 82 h 4.572 c 3.564,0 6.174,-2.664 6.174,-6.3 0,-3.636 -2.61,-6.3 -6.174,-6.3 z m 8.226,6.3 c 0,2.178 -1.494,3.78 -3.654,3.78 h -2.052 v -7.56 h 2.052 c 2.16,0 3.654,1.602 3.654,3.78 z m 3.6721,1.8 c 0,2.808 2.07,4.716 4.842,4.716 2.7721,0 4.8421,-1.908 4.8421,-4.716 0,-2.808 -2.07,-4.716 -4.8421,-4.716 -2.772,0 -4.842,1.908 -4.842,4.716 z m 7.2361,0 c 0,1.44 -1.044,2.394 -2.3941,2.394 -1.35,0 -2.394,-0.954 -2.394,-2.394 0,-1.44 1.044,-2.394 2.394,-2.394 1.3501,0 2.3941,0.954 2.3941,2.394 z m 3.416,0 c 0,2.862 2.016,4.716 4.77,4.716 1.512,0 2.7,-0.558 3.474,-1.332 l -1.314,-1.908 c -0.504,0.504 -1.206,0.918 -2.124,0.918 -1.332,0 -2.358,-0.954 -2.358,-2.394 0,-1.44 1.008,-2.394 2.358,-2.394 0.9,0 1.566,0.396 2.07,0.9 l 1.35,-1.908 c -0.81,-0.81 -1.98,-1.314 -3.42,-1.314 -2.772,0 -4.806,1.872 -4.806,4.716 z m 14.993,4.32 v -2.25 c -0.648,0.108 -0.954,0.144 -1.314,0.144 -0.612,0 -0.9,-0.234 -0.9,-0.81 v -3.906 h 2.286 V 73 h -2.286 v -2.412 h -2.376 V 73 h -1.638 v 1.998 h 1.638 v 4.248 c 0,2.052 0.972,2.844 2.646,2.844 0.594,0 1.278,-0.108 1.944,-0.27 z m 0.863,-4.32 c 0,2.808 2.07,4.716 4.842,4.716 2.772,0 4.842,-1.908 4.842,-4.716 0,-2.808 -2.07,-4.716 -4.842,-4.716 -2.772,0 -4.842,1.908 -4.842,4.716 z m 7.236,0 c 0,1.44 -1.044,2.394 -2.394,2.394 -1.35,0 -2.394,-0.954 -2.394,-2.394 0,-1.44 1.044,-2.394 2.394,-2.394 1.35,0 2.394,0.954 2.394,2.394 z m 6.26,-3.024 V 73 h -2.286 v 9 h 2.376 v -4.068 c 0,-1.728 0.702,-2.61 2.268,-2.61 0.378,0 0.756,0.036 1.08,0.144 V 72.91 c -0.288,-0.072 -0.558,-0.126 -0.882,-0.126 -1.26,0 -2.07,0.648 -2.556,1.692 z m 9.615,3.888 c 0,0.99 -0.81,1.854 -2.07,1.854 -0.828,0 -1.278,-0.378 -1.278,-0.954 0,-0.504 0.378,-0.882 1.116,-0.99 l 2.232,-0.27 z m -5.58,-3.528 1.764,1.26 c 0.342,-0.864 1.314,-1.152 2.25,-1.152 1.062,0 1.566,0.378 1.566,0.9 v 0.144 c 0,0.216 -0.126,0.324 -0.468,0.36 l -2.466,0.216 c -1.656,0.162 -2.88,1.188 -2.88,2.826 0,1.656 1.26,2.808 3.042,2.808 1.404,0 2.304,-0.684 2.772,-1.404 v 1.224 h 2.376 v -5.562 c 0,-2.502 -1.314,-3.654 -3.942,-3.654 -1.962,0 -3.42,0.684 -4.014,2.034 z M 154.364,69.4 V 82 h 8.136 v -2.52 h -5.616 v -2.52 h 5.616 v -2.52 h -5.616 V 71.92 H 162.5 V 69.4 Z m 14.572,12.6 4.05,-9 H 170.34 L 168.036,78.58 165.75,73 h -2.664 l 4.05,9 z m 9.997,-3.636 c 0,0.99 -0.81,1.854 -2.07,1.854 -0.828,0 -1.278,-0.378 -1.278,-0.954 0,-0.504 0.378,-0.882 1.116,-0.99 l 2.232,-0.27 z m -5.58,-3.528 1.764,1.26 c 0.342,-0.864 1.314,-1.152 2.25,-1.152 1.062,0 1.566,0.378 1.566,0.9 v 0.144 c 0,0.216 -0.126,0.324 -0.468,0.36 l -2.466,0.216 c -1.656,0.162 -2.88,1.188 -2.88,2.826 0,1.656 1.26,2.808 3.042,2.808 1.404,0 2.304,-0.684 2.772,-1.404 v 1.224 h 2.376 v -5.562 c 0,-2.502 -1.314,-3.654 -3.942,-3.654 -1.962,0 -3.42,0.684 -4.014,2.034 z"
       id="path8"
       inkscape:connector-curvature="0"
       style="fill:#4a4d4f" />
    <path
       d="M 31.0773,101.096 V 100.2 h -8.918 v 0.896 h 4.004 V 110 h 0.896 v -8.904 z m -0.59,5.446 c 0,2.198 1.442,3.626 3.556,3.626 1.274,0 2.17,-0.588 2.758,-1.204 l -0.448,-0.672 c -0.546,0.588 -1.288,1.078 -2.352,1.078 -1.442,0 -2.604,-0.938 -2.66,-2.604 l 0.014,-0.098 h 5.88 v -0.252 c 0,-1.932 -1.092,-3.584 -3.304,-3.584 -2.1,0 -3.444,1.624 -3.444,3.71 z m 5.81,-0.56 h -4.914 c 0.168,-1.4 1.064,-2.352 2.562,-2.352 1.498,0 2.282,1.022 2.352,2.352 z m 11.7131,1.022 c 0,1.162 -0.882,2.338 -2.45,2.338 -1.022,0 -1.568,-0.518 -1.568,-1.316 0,-0.644 0.406,-1.204 1.47,-1.316 l 2.548,-0.28 z m -4.662,-2.492 0.756,0.406 c 0.182,-0.854 0.868,-1.316 2.058,-1.316 1.302,0 1.848,0.602 1.848,1.54 v 0.252 c 0,0.182 -0.098,0.266 -0.35,0.294 l -2.324,0.224 c -1.288,0.126 -2.24,0.812 -2.24,2.114 0,1.204 0.812,2.114 2.352,2.114 1.176,0 2.128,-0.574 2.562,-1.638 V 110 h 0.854 v -4.592 c 0,-1.708 -0.882,-2.576 -2.744,-2.576 -1.75,0 -2.52,0.728 -2.772,1.68 z m 7.2074,0.308 c 0,1.498 1.4,1.82 2.618,2.058 0.952,0.196 1.806,0.35 1.806,1.302 0,0.826 -0.728,1.19 -1.764,1.19 -0.882,0 -1.862,-0.266 -2.282,-1.246 l -0.7,0.462 c 0.532,1.176 1.764,1.582 2.954,1.582 1.554,0 2.646,-0.672 2.646,-2.044 0,-1.596 -1.344,-1.82 -2.492,-2.058 -1.022,-0.21 -1.932,-0.392 -1.932,-1.302 0,-0.644 0.63,-1.134 1.708,-1.134 1.022,0 1.652,0.448 1.96,1.092 l 0.714,-0.462 c -0.518,-0.966 -1.47,-1.428 -2.66,-1.428 -1.638,0 -2.576,0.812 -2.576,1.988 z m 6.6374,-3.948 c 0,0.434 0.336,0.784 0.784,0.784 0.434,0 0.784,-0.35 0.784,-0.784 0,-0.448 -0.35,-0.784 -0.784,-0.784 -0.448,0 -0.784,0.336 -0.784,0.784 z m 0.35,2.128 v 7 h 0.854 v -7 z m 8.9312,3.5 c 0,1.708 -1.022,2.87 -2.646,2.87 -1.652,0 -2.674,-1.246 -2.674,-2.87 0,-1.624 1.022,-2.87 2.674,-2.87 1.624,0 2.646,1.162 2.646,2.87 z m -6.216,0 c 0,2.086 1.274,3.668 3.444,3.668 1.442,0 2.366,-0.812 2.744,-1.652 v 1.106 c 0,1.386 -0.532,2.604 -2.492,2.604 -1.274,0 -2.03,-0.504 -2.52,-1.386 l -0.658,0.546 c 0.518,0.924 1.4,1.596 3.122,1.596 2.688,0 3.374,-1.666 3.374,-3.36 V 103 h -0.868 v 1.484 c -0.336,-0.812 -1.232,-1.652 -2.716,-1.652 -2.072,0 -3.43,1.582 -3.43,3.668 z m 10.0579,-1.946 V 103 h -0.826 v 7 h 0.854 v -3.234 c 0,-1.68 0.56,-3.136 2.366,-3.136 1.218,0 1.932,0.826 1.932,2.226 V 110 h 0.882 v -4.088 c 0,-1.848 -0.854,-3.08 -2.646,-3.08 -1.246,0 -2.114,0.7 -2.562,1.722 z m 11.9887,2.45 c 0,1.162 -0.882,2.338 -2.45,2.338 -1.022,0 -1.568,-0.518 -1.568,-1.316 0,-0.644 0.406,-1.204 1.47,-1.316 l 2.548,-0.28 z m -4.662,-2.492 0.756,0.406 c 0.182,-0.854 0.868,-1.316 2.058,-1.316 1.302,0 1.848,0.602 1.848,1.54 v 0.252 c 0,0.182 -0.098,0.266 -0.35,0.294 l -2.324,0.224 c -1.288,0.126 -2.24,0.812 -2.24,2.114 0,1.204 0.812,2.114 2.352,2.114 1.176,0 2.128,-0.574 2.562,-1.638 V 110 h 0.854 v -4.592 c 0,-1.708 -0.882,-2.576 -2.744,-2.576 -1.75,0 -2.52,0.728 -2.772,1.68 z m 8.3133,0.084 V 103 h -0.826 v 7 h 0.854 v -3.234 c 0,-1.694 0.518,-3.038 2.156,-3.038 0.224,0 0.434,0.014 0.7,0.07 v -0.896 c -0.238,-0.042 -0.476,-0.07 -0.686,-0.07 -1.05,0 -1.834,0.574 -2.198,1.764 z m 3.4064,1.946 c 0,2.198 1.442,3.626 3.556,3.626 1.274,0 2.17,-0.588 2.758,-1.204 l -0.448,-0.672 c -0.546,0.588 -1.288,1.078 -2.352,1.078 -1.442,0 -2.604,-0.938 -2.66,-2.604 l 0.014,-0.098 h 5.88 v -0.252 c 0,-1.932 -1.092,-3.584 -3.304,-3.584 -2.1,0 -3.444,1.624 -3.444,3.71 z m 5.81,-0.56 h -4.914 c 0.168,-1.4 1.064,-2.352 2.562,-2.352 1.498,0 2.282,1.022 2.352,2.352 z m 8.2883,-1.26 c -0.28,-1.218 -1.12,-1.89 -2.408,-1.89 -1.2324,0 -2.1004,0.644 -2.4644,1.75 V 103 h -0.826 v 7 h 0.854 v -3.234 c 0,-1.68 0.56,-3.136 2.3244,-3.136 1.288,0 1.946,0.826 1.946,2.212 V 110 h 0.868 v -3.29 c 0,-1.666 0.602,-3.08 2.352,-3.08 1.288,0 1.932,0.812 1.932,2.184 V 110 h 0.868 v -4.074 c 0,-1.918 -0.854,-3.094 -2.702,-3.094 -1.33,0 -2.254,0.616 -2.744,1.89 z m 7.134,1.778 c 0,2.128 1.54,3.668 3.668,3.668 2.114,0 3.668,-1.54 3.668,-3.668 0,-2.128 -1.554,-3.668 -3.668,-3.668 -2.128,0 -3.668,1.54 -3.668,3.668 z m 6.44,0 c 0,1.666 -1.106,2.842 -2.772,2.842 -1.68,0 -2.786,-1.176 -2.786,-2.842 0,-1.666 1.106,-2.842 2.786,-2.842 1.666,0 2.772,1.176 2.772,2.842 z m 2.308,-1.68 c 0,1.498 1.4,1.82 2.618,2.058 0.952,0.196 1.806,0.35 1.806,1.302 0,0.826 -0.728,1.19 -1.764,1.19 -0.882,0 -1.862,-0.266 -2.282,-1.246 l -0.7,0.462 c 0.532,1.176 1.764,1.582 2.954,1.582 1.554,0 2.646,-0.672 2.646,-2.044 0,-1.596 -1.344,-1.82 -2.492,-2.058 -1.022,-0.21 -1.932,-0.392 -1.932,-1.302 0,-0.644 0.63,-1.134 1.708,-1.134 1.022,0 1.652,0.448 1.96,1.092 l 0.714,-0.462 c -0.518,-0.966 -1.47,-1.428 -2.66,-1.428 -1.638,0 -2.576,0.812 -2.576,1.988 z m 16.041,2.184 c 0,1.162 -0.882,2.338 -2.45,2.338 -1.022,0 -1.568,-0.518 -1.568,-1.316 0,-0.644 0.406,-1.204 1.47,-1.316 l 2.548,-0.28 z m -4.662,-2.492 0.756,0.406 c 0.182,-0.854 0.868,-1.316 2.058,-1.316 1.302,0 1.848,0.602 1.848,1.54 v 0.252 c 0,0.182 -0.098,0.266 -0.35,0.294 l -2.324,0.224 c -1.288,0.126 -2.24,0.812 -2.24,2.114 0,1.204 0.812,2.114 2.352,2.114 1.176,0 2.128,-0.574 2.562,-1.638 V 110 h 0.854 v -4.592 c 0,-1.708 -0.882,-2.576 -2.744,-2.576 -1.75,0 -2.52,0.728 -2.772,1.68 z m 15.673,5.418 v -0.756 c -0.322,0.056 -0.602,0.098 -1.036,0.098 -0.77,0 -1.036,-0.364 -1.036,-1.106 v -4.41 h 2.03 V 103 h -2.03 v -1.876 h -0.854 V 103 h -1.47 v 0.756 h 1.47 v 4.368 c 0,1.428 0.616,1.946 1.848,1.946 0.392,0 0.728,-0.056 1.078,-0.14 z m 6.548,-6.93 v 3.234 c 0,1.624 -0.56,3.136 -2.296,3.136 -1.456,0 -1.904,-0.938 -1.904,-2.254 V 103 h -0.882 v 4.116 c 0,1.792 0.714,3.052 2.646,3.052 1.176,0 2.002,-0.588 2.464,-1.764 V 110 h 0.826 v -7 z m 7.8,-2.8 v 9.8 h 3.276 c 2.786,0 4.9,-2.072 4.9,-4.9 0,-2.828 -2.114,-4.9 -4.9,-4.9 z m 7.28,4.9 c 0,2.324 -1.694,4.004 -4.004,4.004 h -2.38 v -8.008 h 2.38 c 2.31,0 4.004,1.68 4.004,4.004 z m 2.322,1.4 c 0,2.128 1.54,3.668 3.668,3.668 2.114,0 3.668,-1.54 3.668,-3.668 0,-2.128 -1.554,-3.668 -3.668,-3.668 -2.128,0 -3.668,1.54 -3.668,3.668 z m 6.44,0 c 0,1.666 -1.106,2.842 -2.772,2.842 -1.68,0 -2.786,-1.176 -2.786,-2.842 0,-1.666 1.106,-2.842 2.786,-2.842 1.666,0 2.772,1.176 2.772,2.842 z m 2.057,0.014 c 0,2.128 1.414,3.654 3.626,3.654 1.078,0 1.932,-0.392 2.52,-0.952 l -0.518,-0.672 c -0.532,0.476 -1.246,0.798 -2.016,0.798 -1.582,0 -2.73,-1.134 -2.73,-2.842 0,-1.736 1.134,-2.842 2.744,-2.842 0.742,0 1.4,0.294 1.932,0.77 l 0.546,-0.672 c -0.616,-0.588 -1.428,-0.924 -2.436,-0.924 -2.212,0 -3.668,1.554 -3.668,3.682 z m 11.315,3.416 v -0.756 c -0.322,0.056 -0.602,0.098 -1.036,0.098 -0.77,0 -1.036,-0.364 -1.036,-1.106 v -4.41 h 2.03 V 103 h -2.03 v -1.876 h -0.854 V 103 h -1.47 v 0.756 h 1.47 v 4.368 c 0,1.428 0.616,1.946 1.848,1.946 0.392,0 0.728,-0.056 1.078,-0.14 z m 0.866,-3.43 c 0,2.128 1.54,3.668 3.668,3.668 2.114,0 3.668,-1.54 3.668,-3.668 0,-2.128 -1.554,-3.668 -3.668,-3.668 -2.128,0 -3.668,1.54 -3.668,3.668 z m 6.44,0 c 0,1.666 -1.106,2.842 -2.772,2.842 -1.68,0 -2.786,-1.176 -2.786,-2.842 0,-1.666 1.106,-2.842 2.786,-2.842 1.666,0 2.772,1.176 2.772,2.842 z m 3.415,-1.904 V 103 h -0.826 v 7 h 0.854 v -3.234 c 0,-1.694 0.518,-3.038 2.156,-3.038 0.224,0 0.434,0.014 0.7,0.07 v -0.896 c -0.238,-0.042 -0.476,-0.07 -0.686,-0.07 -1.05,0 -1.834,0.574 -2.198,1.764 z m 8.598,2.408 c 0,1.162 -0.882,2.338 -2.45,2.338 -1.022,0 -1.568,-0.518 -1.568,-1.316 0,-0.644 0.406,-1.204 1.47,-1.316 l 2.548,-0.28 z m -4.662,-2.492 0.756,0.406 c 0.182,-0.854 0.868,-1.316 2.058,-1.316 1.302,0 1.848,0.602 1.848,1.54 v 0.252 c 0,0.182 -0.098,0.266 -0.35,0.294 l -2.324,0.224 c -1.288,0.126 -2.24,0.812 -2.24,2.114 0,1.204 0.812,2.114 2.352,2.114 1.176,0 2.128,-0.574 2.562,-1.638 V 110 h 0.854 v -4.592 c 0,-1.708 -0.882,-2.576 -2.744,-2.576 -1.75,0 -2.52,0.728 -2.772,1.68 z M 217,100.2 v 9.8 h 5.852 v -0.896 h -4.956 v -3.556 h 4.956 v -0.896 h -4.956 v -3.556 h 4.956 V 100.2 Z m 10.49,9.8 3.08,-7 h -0.994 l -2.422,5.824 -2.422,-5.824 h -1.008 l 3.08,7 z m 8.7,-2.996 c 0,1.162 -0.882,2.338 -2.45,2.338 -1.022,0 -1.568,-0.518 -1.568,-1.316 0,-0.644 0.406,-1.204 1.47,-1.316 l 2.548,-0.28 z m -4.662,-2.492 0.756,0.406 c 0.182,-0.854 0.868,-1.316 2.058,-1.316 1.302,0 1.848,0.602 1.848,1.54 v 0.252 c 0,0.182 -0.098,0.266 -0.35,0.294 l -2.324,0.224 c -1.288,0.126 -2.24,0.812 -2.24,2.114 0,1.204 0.812,2.114 2.352,2.114 1.176,0 2.128,-0.574 2.562,-1.638 V 110 h 0.854 v -4.592 c 0,-1.708 -0.882,-2.576 -2.744,-2.576 -1.75,0 -2.52,0.728 -2.772,1.68 z m 6.689,7.812 0.7,0.378 2.394,-4.214 -0.7,-0.406 z M 39.9223,127.93 v -0.756 c -0.322,0.056 -0.602,0.098 -1.036,0.098 -0.77,0 -1.036,-0.364 -1.036,-1.106 v -4.41 h 2.03 V 121 h -2.03 v -1.876 h -0.854 V 121 h -1.47 v 0.756 h 1.47 v 4.368 c 0,1.428 0.616,1.946 1.848,1.946 0.392,0 0.728,-0.056 1.078,-0.14 z M 46.4708,121 v 3.234 c 0,1.624 -0.56,3.136 -2.296,3.136 -1.456,0 -1.904,-0.938 -1.904,-2.254 V 121 h -0.882 v 4.116 c 0,1.792 0.714,3.052 2.646,3.052 1.176,0 2.002,-0.588 2.464,-1.764 V 128 h 0.826 v -7 z m 12.2237,4.004 c 0,1.162 -0.882,2.338 -2.45,2.338 -1.022,0 -1.568,-0.518 -1.568,-1.316 0,-0.644 0.406,-1.204 1.47,-1.316 l 2.548,-0.28 z m -4.662,-2.492 0.756,0.406 c 0.182,-0.854 0.868,-1.316 2.058,-1.316 1.302,0 1.848,0.602 1.848,1.54 v 0.252 c 0,0.182 -0.098,0.266 -0.35,0.294 l -2.324,0.224 c -1.288,0.126 -2.24,0.812 -2.24,2.114 0,1.204 0.812,2.114 2.352,2.114 1.176,0 2.128,-0.574 2.562,-1.638 V 128 h 0.854 v -4.592 c 0,-1.708 -0.882,-2.576 -2.744,-2.576 -1.75,0 -2.52,0.728 -2.772,1.68 z m 6.9553,2.002 c 0,2.128 1.414,3.654 3.626,3.654 1.078,0 1.932,-0.392 2.52,-0.952 l -0.518,-0.672 c -0.532,0.476 -1.246,0.798 -2.016,0.798 -1.582,0 -2.73,-1.134 -2.73,-2.842 0,-1.736 1.134,-2.842 2.744,-2.842 0.742,0 1.4,0.294 1.932,0.77 l 0.546,-0.672 c -0.616,-0.588 -1.428,-0.924 -2.436,-0.924 -2.212,0 -3.668,1.554 -3.668,3.682 z m 7.157,-0.014 c 0,2.128 1.54,3.668 3.668,3.668 2.114,0 3.668,-1.54 3.668,-3.668 0,-2.128 -1.554,-3.668 -3.668,-3.668 -2.128,0 -3.668,1.54 -3.668,3.668 z m 6.44,0 c 0,1.666 -1.106,2.842 -2.772,2.842 -1.68,0 -2.786,-1.176 -2.786,-2.842 0,-1.666 1.106,-2.842 2.786,-2.842 1.666,0 2.772,1.176 2.772,2.842 z m 8.2868,-1.778 c -0.28,-1.218 -1.12,-1.89 -2.408,-1.89 -1.232,0 -2.1,0.644 -2.464,1.75 V 121 h -0.826 v 7 h 0.854 v -3.234 c 0,-1.68 0.56,-3.136 2.324,-3.136 1.288,0 1.946,0.826 1.946,2.212 V 128 h 0.868 v -3.29 c 0,-1.666 0.602,-3.08 2.352,-3.08 1.288,0 1.932,0.812 1.932,2.184 V 128 h 0.868 v -4.074 c 0,-1.918 -0.854,-3.094 -2.702,-3.094 -1.33,0 -2.254,0.616 -2.744,1.89 z m 11.166,4.648 c -1.624,0 -2.66,-1.162 -2.66,-2.87 0,-1.708 1.036,-2.87 2.66,-2.87 1.666,0 2.66,1.246 2.66,2.87 0,1.624 -0.994,2.87 -2.66,2.87 z m -2.604,3.43 v -4.326 c 0.462,0.868 1.302,1.694 2.758,1.694 2.058,0 3.388,-1.582 3.388,-3.668 0,-2.086 -1.33,-3.668 -3.388,-3.668 -1.456,0 -2.338,0.826 -2.758,1.694 V 121 h -0.854 v 9.8 z m 12.4244,-5.796 c 0,1.162 -0.882,2.338 -2.45,2.338 -1.022,0 -1.5679,-0.518 -1.5679,-1.316 0,-0.644 0.4059,-1.204 1.4699,-1.316 l 2.548,-0.28 z m -4.6619,-2.492 0.756,0.406 c 0.1819,-0.854 0.8679,-1.316 2.0579,-1.316 1.302,0 1.848,0.602 1.848,1.54 v 0.252 c 0,0.182 -0.098,0.266 -0.35,0.294 l -2.324,0.224 c -1.2879,0.126 -2.2399,0.812 -2.2399,2.114 0,1.204 0.812,2.114 2.3519,2.114 1.176,0 2.128,-0.574 2.562,-1.638 V 128 h 0.854 v -4.592 c 0,-1.708 -0.882,-2.576 -2.744,-2.576 -1.75,0 -2.5199,0.728 -2.7719,1.68 z m 11.4919,-2.828 c 0.574,0 1.022,-0.462 1.4,-0.924 l -0.476,-0.462 c -0.28,0.322 -0.546,0.63 -0.91,0.63 -0.49,0 -1.092,-0.728 -1.792,-0.728 -0.588,0 -1.036,0.476 -1.414,0.924 l 0.49,0.462 c 0.28,-0.322 0.546,-0.63 0.896,-0.63 0.504,0 1.106,0.728 1.806,0.728 z m -3.178,2.87 V 121 h -0.826 v 7 h 0.854 v -3.234 c 0,-1.68 0.56,-3.136 2.366,-3.136 1.218,0 1.932,0.826 1.932,2.226 V 128 h 0.882 v -4.088 c 0,-1.848 -0.854,-3.08 -2.646,-3.08 -1.246,0 -2.114,0.7 -2.562,1.722 z m 11.988,2.45 c 0,1.162 -0.882,2.338 -2.45,2.338 -1.022,0 -1.568,-0.518 -1.568,-1.316 0,-0.644 0.406,-1.204 1.47,-1.316 l 2.548,-0.28 z m -4.662,-2.492 0.756,0.406 c 0.182,-0.854 0.868,-1.316 2.058,-1.316 1.302,0 1.848,0.602 1.848,1.54 v 0.252 c 0,0.182 -0.098,0.266 -0.35,0.294 l -2.324,0.224 c -1.288,0.126 -2.24,0.812 -2.24,2.114 0,1.204 0.812,2.114 2.352,2.114 1.176,0 2.128,-0.574 2.562,-1.638 V 128 h 0.854 v -4.592 c 0,-1.708 -0.882,-2.576 -2.744,-2.576 -1.75,0 -2.52,0.728 -2.772,1.68 z m 8.314,0.042 V 121 h -0.826 v 7 h 0.854 v -3.234 c 0,-1.68 0.56,-3.136 2.366,-3.136 1.218,0 1.932,0.826 1.932,2.226 V 128 h 0.882 v -4.088 c 0,-1.848 -0.854,-3.08 -2.646,-3.08 -1.246,0 -2.114,0.7 -2.562,1.722 z m 10.695,5.376 v -0.756 c -0.322,0.056 -0.602,0.098 -1.036,0.098 -0.77,0 -1.036,-0.364 -1.036,-1.106 v -4.41 h 2.03 V 121 h -2.03 v -1.876 h -0.854 V 121 h -1.47 v 0.756 h 1.47 v 4.368 c 0,1.428 0.616,1.946 1.848,1.946 0.392,0 0.728,-0.056 1.078,-0.14 z m 0.866,-3.388 c 0,2.198 1.442,3.626 3.556,3.626 1.274,0 2.17,-0.588 2.758,-1.204 l -0.448,-0.672 c -0.546,0.588 -1.288,1.078 -2.352,1.078 -1.442,0 -2.604,-0.938 -2.66,-2.604 l 0.014,-0.098 h 5.88 v -0.252 c 0,-1.932 -1.092,-3.584 -3.304,-3.584 -2.1,0 -3.444,1.624 -3.444,3.71 z m 5.81,-0.56 h -4.914 c 0.168,-1.4 1.064,-2.352 2.562,-2.352 1.498,0 2.282,1.022 2.352,2.352 z m 11.713,1.022 c 0,1.162 -0.882,2.338 -2.45,2.338 -1.022,0 -1.568,-0.518 -1.568,-1.316 0,-0.644 0.406,-1.204 1.47,-1.316 l 2.548,-0.28 z m -4.662,-2.492 0.756,0.406 c 0.182,-0.854 0.868,-1.316 2.058,-1.316 1.302,0 1.848,0.602 1.848,1.54 v 0.252 c 0,0.182 -0.098,0.266 -0.35,0.294 l -2.324,0.224 c -1.288,0.126 -2.24,0.812 -2.24,2.114 0,1.204 0.812,2.114 2.352,2.114 1.176,0 2.128,-0.574 2.562,-1.638 V 128 h 0.854 v -4.592 c 0,-1.708 -0.882,-2.576 -2.744,-2.576 -1.75,0 -2.52,0.728 -2.772,1.68 z m 12.089,-4.312 v 9.8 h 0.882 v -9.8 z m 2.632,6.3 c 0,2.128 1.54,3.668 3.668,3.668 2.114,0 3.668,-1.54 3.668,-3.668 0,-2.128 -1.554,-3.668 -3.668,-3.668 -2.128,0 -3.668,1.54 -3.668,3.668 z m 6.44,0 c 0,1.666 -1.106,2.842 -2.772,2.842 -1.68,0 -2.786,-1.176 -2.786,-2.842 0,-1.666 1.106,-2.842 2.786,-2.842 1.666,0 2.772,1.176 2.772,2.842 z m 7.19,-6.3 v 9.8 h 0.882 v -9.8 z m 7.727,6.804 c 0,1.162 -0.882,2.338 -2.45,2.338 -1.022,0 -1.568,-0.518 -1.568,-1.316 0,-0.644 0.406,-1.204 1.47,-1.316 l 2.548,-0.28 z m -4.662,-2.492 0.756,0.406 c 0.182,-0.854 0.868,-1.316 2.058,-1.316 1.302,0 1.848,0.602 1.848,1.54 v 0.252 c 0,0.182 -0.098,0.266 -0.35,0.294 l -2.324,0.224 c -1.288,0.126 -2.24,0.812 -2.24,2.114 0,1.204 0.812,2.114 2.352,2.114 1.176,0 2.128,-0.574 2.562,-1.638 V 128 h 0.854 v -4.592 c 0,-1.708 -0.882,-2.576 -2.744,-2.576 -1.75,0 -2.52,0.728 -2.772,1.68 z m 8.314,0.084 V 121 h -0.826 v 7 h 0.854 v -3.234 c 0,-1.694 0.518,-3.038 2.156,-3.038 0.224,0 0.434,0.014 0.7,0.07 v -0.896 c -0.238,-0.042 -0.476,-0.07 -0.686,-0.07 -1.05,0 -1.834,0.574 -2.198,1.764 z m 9.706,1.904 c 0,1.708 -1.022,2.87 -2.646,2.87 -1.652,0 -2.674,-1.246 -2.674,-2.87 0,-1.624 1.022,-2.87 2.674,-2.87 1.624,0 2.646,1.162 2.646,2.87 z m -6.216,0 c 0,2.086 1.274,3.668 3.444,3.668 1.442,0 2.366,-0.812 2.744,-1.652 v 1.106 c 0,1.386 -0.532,2.604 -2.492,2.604 -1.274,0 -2.03,-0.504 -2.52,-1.386 l -0.658,0.546 c 0.518,0.924 1.4,1.596 3.122,1.596 2.688,0 3.374,-1.666 3.374,-3.36 V 121 h -0.868 v 1.484 c -0.336,-0.812 -1.232,-1.652 -2.716,-1.652 -2.072,0 -3.43,1.582 -3.43,3.668 z m 8.7,0 c 0,2.128 1.54,3.668 3.668,3.668 2.114,0 3.668,-1.54 3.668,-3.668 0,-2.128 -1.554,-3.668 -3.668,-3.668 -2.128,0 -3.668,1.54 -3.668,3.668 z m 6.44,0 c 0,1.666 -1.106,2.842 -2.772,2.842 -1.68,0 -2.786,-1.176 -2.786,-2.842 0,-1.666 1.106,-2.842 2.786,-2.842 1.666,0 2.772,1.176 2.772,2.842 z m 10.158,-2.87 c 1.624,0 2.66,1.162 2.66,2.87 0,1.708 -1.036,2.87 -2.66,2.87 -1.666,0 -2.66,-1.246 -2.66,-2.87 0,-1.624 0.994,-2.87 2.66,-2.87 z m 2.604,-3.43 v 4.326 c -0.462,-0.868 -1.302,-1.694 -2.758,-1.694 -2.058,0 -3.388,1.582 -3.388,3.668 0,2.086 1.33,3.668 3.388,3.668 1.456,0 2.338,-0.826 2.758,-1.694 V 128 h 0.854 v -9.8 z m 2.57,6.342 c 0,2.198 1.442,3.626 3.556,3.626 1.274,0 2.17,-0.588 2.758,-1.204 l -0.448,-0.672 c -0.546,0.588 -1.288,1.078 -2.352,1.078 -1.442,0 -2.604,-0.938 -2.66,-2.604 l 0.014,-0.098 h 5.88 v -0.252 c 0,-1.932 -1.092,-3.584 -3.304,-3.584 -2.1,0 -3.444,1.624 -3.444,3.71 z m 5.81,-0.56 h -4.914 c 0.168,-1.4 1.064,-2.352 2.562,-2.352 1.498,0 2.282,1.022 2.352,2.352 z M 64.4111,145.93 v -0.756 c -0.322,0.056 -0.602,0.098 -1.036,0.098 -0.77,0 -1.036,-0.364 -1.036,-1.106 v -4.41 h 2.03 V 139 h -2.03 v -1.876 h -0.854 V 139 h -1.47 v 0.756 h 1.47 v 4.368 c 0,1.428 0.616,1.946 1.848,1.946 0.392,0 0.728,-0.056 1.078,-0.14 z m 0.8662,-3.43 c 0,2.128 1.54,3.668 3.668,3.668 2.114,0 3.668,-1.54 3.668,-3.668 0,-2.128 -1.554,-3.668 -3.668,-3.668 -2.128,0 -3.668,1.54 -3.668,3.668 z m 6.44,0 c 0,1.666 -1.106,2.842 -2.772,2.842 -1.68,0 -2.786,-1.176 -2.786,-2.842 0,-1.666 1.106,-2.842 2.786,-2.842 1.666,0 2.772,1.176 2.772,2.842 z m 5.5988,-2.87 c 1.624,0 2.66,1.162 2.66,2.87 0,1.708 -1.036,2.87 -2.66,2.87 -1.666,0 -2.66,-1.246 -2.66,-2.87 0,-1.624 0.994,-2.87 2.66,-2.87 z m 2.604,-3.43 v 4.326 c -0.462,-0.868 -1.302,-1.694 -2.758,-1.694 -2.058,0 -3.388,1.582 -3.388,3.668 0,2.086 1.33,3.668 3.388,3.668 1.456,0 2.338,-0.826 2.758,-1.694 V 146 h 0.854 v -9.8 z m 2.5695,6.3 c 0,2.128 1.54,3.668 3.668,3.668 2.114,0 3.668,-1.54 3.668,-3.668 0,-2.128 -1.554,-3.668 -3.668,-3.668 -2.128,0 -3.668,1.54 -3.668,3.668 z m 6.44,0 c 0,1.666 -1.106,2.842 -2.772,2.842 -1.68,0 -2.786,-1.176 -2.786,-2.842 0,-1.666 1.106,-2.842 2.786,-2.842 1.666,0 2.772,1.176 2.772,2.842 z m 6.6161,0.042 c 0,2.198 1.442,3.626 3.556,3.626 1.2743,0 2.1703,-0.588 2.7583,-1.204 l -0.448,-0.672 c -0.546,0.588 -1.288,1.078 -2.3523,1.078 -1.442,0 -2.604,-0.938 -2.66,-2.604 l 0.014,-0.098 h 5.8803 v -0.252 c 0,-1.932 -1.092,-3.584 -3.3043,-3.584 -2.1,0 -3.444,1.624 -3.444,3.71 z m 5.8103,-0.56 h -4.9143 c 0.168,-1.4 1.064,-2.352 2.562,-2.352 1.4983,0 2.2823,1.022 2.3523,2.352 z m 2.632,-5.782 v 9.8 h 0.882 v -9.8 z m 11.223,9.17 c -1.624,0 -2.66,-1.162 -2.66,-2.87 0,-1.708 1.036,-2.87 2.66,-2.87 1.666,0 2.66,1.246 2.66,2.87 0,1.624 -0.994,2.87 -2.66,2.87 z m -2.604,3.43 v -4.326 c 0.462,0.868 1.302,1.694 2.758,1.694 2.058,0 3.388,-1.582 3.388,-3.668 0,-2.086 -1.33,-3.668 -3.388,-3.668 -1.456,0 -2.338,0.826 -2.758,1.694 V 139 h -0.854 v 9.8 z m 8.686,-8.204 V 139 h -0.826 v 7 h 0.854 v -3.234 c 0,-1.694 0.518,-3.038 2.156,-3.038 0.224,0 0.434,0.014 0.7,0.07 v -0.896 c -0.238,-0.042 -0.476,-0.07 -0.686,-0.07 -1.05,0 -1.834,0.574 -2.198,1.764 z m 3.407,1.904 c 0,2.128 1.54,3.668 3.668,3.668 2.114,0 3.668,-1.54 3.668,-3.668 0,-2.128 -1.554,-3.668 -3.668,-3.668 -2.128,0 -3.668,1.54 -3.668,3.668 z m 6.44,0 c 0,1.666 -1.106,2.842 -2.772,2.842 -1.68,0 -2.786,-1.176 -2.786,-2.842 0,-1.666 1.106,-2.842 2.786,-2.842 1.666,0 2.772,1.176 2.772,2.842 z m 2.056,0.014 c 0,2.128 1.414,3.654 3.626,3.654 1.078,0 1.932,-0.392 2.52,-0.952 l -0.518,-0.672 c -0.532,0.476 -1.246,0.798 -2.016,0.798 -1.582,0 -2.73,-1.134 -2.73,-2.842 0,-1.736 1.134,-2.842 2.744,-2.842 0.742,0 1.4,0.294 1.932,0.77 l 0.546,-0.672 c -0.616,-0.588 -1.428,-0.924 -2.436,-0.924 -2.212,0 -3.668,1.554 -3.668,3.682 z m 7.157,0.028 c 0,2.198 1.442,3.626 3.556,3.626 1.274,0 2.17,-0.588 2.758,-1.204 l -0.448,-0.672 c -0.546,0.588 -1.288,1.078 -2.352,1.078 -1.442,0 -2.604,-0.938 -2.66,-2.604 l 0.014,-0.098 h 5.88 v -0.252 c 0,-1.932 -1.092,-3.584 -3.304,-3.584 -2.1,0 -3.444,1.624 -3.444,3.71 z m 5.81,-0.56 h -4.914 c 0.168,-1.4 1.064,-2.352 2.562,-2.352 1.498,0 2.282,1.022 2.352,2.352 z m 2.31,-1.162 c 0,1.498 1.4,1.82 2.618,2.058 0.952,0.196 1.806,0.35 1.806,1.302 0,0.826 -0.728,1.19 -1.764,1.19 -0.882,0 -1.862,-0.266 -2.282,-1.246 l -0.7,0.462 c 0.532,1.176 1.764,1.582 2.954,1.582 1.554,0 2.646,-0.672 2.646,-2.044 0,-1.596 -1.344,-1.82 -2.492,-2.058 -1.022,-0.21 -1.932,-0.392 -1.932,-1.302 0,-0.644 0.63,-1.134 1.708,-1.134 1.022,0 1.652,0.448 1.96,1.092 l 0.714,-0.462 c -0.518,-0.966 -1.47,-1.428 -2.66,-1.428 -1.638,0 -2.576,0.812 -2.576,1.988 z m 6.386,1.68 c 0,2.128 1.54,3.668 3.668,3.668 2.114,0 3.668,-1.54 3.668,-3.668 0,-2.128 -1.554,-3.668 -3.668,-3.668 -2.128,0 -3.668,1.54 -3.668,3.668 z m 6.44,0 c 0,1.666 -1.106,2.842 -2.772,2.842 -1.68,0 -2.786,-1.176 -2.786,-2.842 0,-1.666 1.106,-2.842 2.786,-2.842 1.666,0 2.772,1.176 2.772,2.842 z m 8.632,6.3 4.536,-9.8 h -0.91 l -2.422,5.194 -2.492,-5.194 h -1.036 l 3.066,6.188 -1.68,3.612 z m 16.905,0 V 139 h -0.854 v 1.526 c -0.42,-0.868 -1.302,-1.694 -2.758,-1.694 -2.058,0 -3.388,1.582 -3.388,3.668 0,2.086 1.33,3.668 3.388,3.668 1.456,0 2.296,-0.826 2.758,-1.694 v 4.326 z m -6.118,-6.3 c 0,-1.624 0.994,-2.87 2.66,-2.87 1.624,0 2.66,1.162 2.66,2.87 0,1.708 -1.036,2.87 -2.66,2.87 -1.666,0 -2.66,-1.246 -2.66,-2.87 z m 13.489,-3.5 v 3.234 c 0,1.624 -0.56,3.136 -2.296,3.136 -1.456,0 -1.904,-0.938 -1.904,-2.254 V 139 h -0.882 v 4.116 c 0,1.792 0.714,3.052 2.646,3.052 1.176,0 2.002,-0.588 2.464,-1.764 V 146 h 0.826 v -7 z m 2.568,3.542 c 0,2.198 1.442,3.626 3.556,3.626 1.274,0 2.17,-0.588 2.758,-1.204 l -0.448,-0.672 c -0.546,0.588 -1.288,1.078 -2.352,1.078 -1.442,0 -2.604,-0.938 -2.66,-2.604 l 0.014,-0.098 h 5.88 v -0.252 c 0,-1.932 -1.092,-3.584 -3.304,-3.584 -2.1,0 -3.444,1.624 -3.444,3.71 z m 5.81,-0.56 h -4.914 c 0.168,-1.4 1.064,-2.352 2.562,-2.352 1.498,0 2.282,1.022 2.352,2.352 z M 41.2488,163.37 c -1.624,0 -2.66,-1.162 -2.66,-2.87 0,-1.708 1.036,-2.87 2.66,-2.87 1.666,0 2.66,1.246 2.66,2.87 0,1.624 -0.994,2.87 -2.66,2.87 z m -2.604,3.43 v -4.326 c 0.462,0.868 1.302,1.694 2.758,1.694 2.058,0 3.388,-1.582 3.388,-3.668 0,-2.086 -1.33,-3.668 -3.388,-3.668 -1.456,0 -2.338,0.826 -2.758,1.694 V 157 h -0.854 v 9.8 z m 7.3286,-6.258 c 0,2.198 1.442,3.626 3.556,3.626 1.274,0 2.17,-0.588 2.758,-1.204 l -0.448,-0.672 c -0.546,0.588 -1.288,1.078 -2.352,1.078 -1.442,0 -2.604,-0.938 -2.66,-2.604 l 0.014,-0.098 h 5.88 v -0.252 c 0,-1.932 -1.092,-3.584 -3.304,-3.584 -2.1,0 -3.444,1.624 -3.444,3.71 z m 5.81,-0.56 h -4.914 c 0.168,-1.4 1.064,-2.352 2.562,-2.352 1.498,0 2.282,1.022 2.352,2.352 z m 3.4159,-1.386 V 157 h -0.826 v 7 h 0.854 v -3.234 c 0,-1.694 0.518,-3.038 2.156,-3.038 0.224,0 0.434,0.014 0.7,0.07 v -0.896 c -0.238,-0.042 -0.476,-0.07 -0.686,-0.07 -1.05,0 -1.834,0.574 -2.198,1.764 z m 10.1285,0.126 c -0.28,-1.218 -1.12,-1.89 -2.408,-1.89 -1.232,0 -2.1,0.644 -2.464,1.75 V 157 h -0.826 v 7 h 0.854 v -3.234 c 0,-1.68 0.56,-3.136 2.324,-3.136 1.288,0 1.946,0.826 1.946,2.212 V 164 h 0.868 v -3.29 c 0,-1.666 0.602,-3.08 2.352,-3.08 1.288,0 1.932,0.812 1.932,2.184 V 164 h 0.868 v -4.074 c 0,-1.918 -0.854,-3.094 -2.702,-3.094 -1.33,0 -2.254,0.616 -2.744,1.89 z m 12.23,2.282 c 0,1.162 -0.882,2.338 -2.45,2.338 -1.022,0 -1.568,-0.518 -1.568,-1.316 0,-0.644 0.406,-1.204 1.47,-1.316 l 2.548,-0.28 z m -4.662,-2.492 0.756,0.406 c 0.182,-0.854 0.868,-1.316 2.058,-1.316 1.302,0 1.848,0.602 1.848,1.54 v 0.252 c 0,0.182 -0.098,0.266 -0.35,0.294 l -2.324,0.224 c -1.288,0.126 -2.24,0.812 -2.24,2.114 0,1.204 0.812,2.114 2.352,2.114 1.176,0 2.128,-0.574 2.562,-1.638 V 164 h 0.854 v -4.592 c 0,-1.708 -0.882,-2.576 -2.744,-2.576 -1.75,0 -2.52,0.728 -2.772,1.68 z m 8.3134,0.042 V 157 h -0.826 v 7 h 0.854 v -3.234 c 0,-1.68 0.56,-3.136 2.366,-3.136 1.218,0 1.932,0.826 1.932,2.226 V 164 h 0.882 v -4.088 c 0,-1.848 -0.854,-3.08 -2.646,-3.08 -1.246,0 -2.114,0.7 -2.562,1.722 z m 6.8927,1.988 c 0,2.198 1.442,3.626 3.556,3.626 1.274,0 2.17,-0.588 2.758,-1.204 l -0.448,-0.672 c -0.546,0.588 -1.288,1.078 -2.352,1.078 -1.442,0 -2.604,-0.938 -2.66,-2.604 l 0.014,-0.098 h 5.88 v -0.252 c 0,-1.932 -1.092,-3.584 -3.304,-3.584 -2.1,0 -3.444,1.624 -3.444,3.71 z m 5.81,-0.56 h -4.914 c 0.168,-1.4 1.064,-2.352 2.562,-2.352 1.498,0 2.282,1.022 2.352,2.352 z m 2.0579,0.532 c 0,2.128 1.414,3.654 3.626,3.654 1.0782,0 1.9322,-0.392 2.5202,-0.952 l -0.518,-0.672 c -0.532,0.476 -1.246,0.798 -2.0162,0.798 -1.582,0 -2.73,-1.134 -2.73,-2.842 0,-1.736 1.134,-2.842 2.744,-2.842 0.7422,0 1.4002,0.294 1.9322,0.77 l 0.546,-0.672 c -0.616,-0.588 -1.428,-0.924 -2.4362,-0.924 -2.212,0 -3.668,1.554 -3.668,3.682 z m 7.1572,0.028 c 0,2.198 1.442,3.626 3.556,3.626 1.274,0 2.17,-0.588 2.758,-1.204 l -0.448,-0.672 c -0.546,0.588 -1.288,1.078 -2.352,1.078 -1.442,0 -2.604,-0.938 -2.66,-2.604 l 0.014,-0.098 h 5.88 v -0.252 c 0,-1.932 -1.092,-3.584 -3.304,-3.584 -2.1,0 -3.444,1.624 -3.444,3.71 z m 5.81,-0.56 h -4.914 c 0.168,-1.4 1.064,-2.352 2.562,-2.352 1.498,0 2.282,1.022 2.352,2.352 z m 3.416,-1.386 V 157 h -0.826 v 7 h 0.854 v -3.234 c 0,-1.694 0.518,-3.038 2.156,-3.038 0.224,0 0.434,0.014 0.7,0.07 v -0.896 c -0.238,-0.042 -0.476,-0.07 -0.686,-0.07 -1.05,0 -1.834,0.574 -2.198,1.764 z m 5.154,-3.43 0.392,0.602 2.982,-1.876 -0.406,-0.63 z m 3.444,5.838 c 0,1.162 -0.882,2.338 -2.45,2.338 -1.022,0 -1.568,-0.518 -1.568,-1.316 0,-0.644 0.406,-1.204 1.47,-1.316 l 2.548,-0.28 z m -4.662,-2.492 0.756,0.406 c 0.182,-0.854 0.868,-1.316 2.058,-1.316 1.302,0 1.848,0.602 1.848,1.54 v 0.252 c 0,0.182 -0.098,0.266 -0.35,0.294 l -2.324,0.224 c -1.288,0.126 -2.24,0.812 -2.24,2.114 0,1.204 0.812,2.114 2.352,2.114 1.176,0 2.128,-0.574 2.562,-1.638 V 164 h 0.854 v -4.592 c 0,-1.708 -0.882,-2.576 -2.744,-2.576 -1.75,0 -2.52,0.728 -2.772,1.68 z m 15.056,-0.882 c 1.624,0 2.66,1.162 2.66,2.87 0,1.708 -1.036,2.87 -2.66,2.87 -1.666,0 -2.66,-1.246 -2.66,-2.87 0,-1.624 0.994,-2.87 2.66,-2.87 z m 2.604,-3.43 v 4.326 c -0.462,-0.868 -1.302,-1.694 -2.758,-1.694 -2.058,0 -3.388,1.582 -3.388,3.668 0,2.086 1.33,3.668 3.388,3.668 1.456,0 2.338,-0.826 2.758,-1.694 V 164 h 0.854 v -9.8 z m 2.863,0.672 c 0,0.434 0.336,0.784 0.784,0.784 0.434,0 0.784,-0.35 0.784,-0.784 0,-0.448 -0.35,-0.784 -0.784,-0.784 -0.448,0 -0.784,0.336 -0.784,0.784 z m 0.35,2.128 v 7 h 0.854 v -7 z m 2.61,1.82 c 0,1.498 1.4,1.82 2.618,2.058 0.952,0.196 1.806,0.35 1.806,1.302 0,0.826 -0.728,1.19 -1.764,1.19 -0.882,0 -1.862,-0.266 -2.282,-1.246 l -0.7,0.462 c 0.532,1.176 1.764,1.582 2.954,1.582 1.554,0 2.646,-0.672 2.646,-2.044 0,-1.596 -1.344,-1.82 -2.492,-2.058 -1.022,-0.21 -1.932,-0.392 -1.932,-1.302 0,-0.644 0.63,-1.134 1.708,-1.134 1.022,0 1.652,0.448 1.96,1.092 l 0.714,-0.462 c -0.518,-0.966 -1.47,-1.428 -2.66,-1.428 -1.638,0 -2.576,0.812 -2.576,1.988 z m 10.417,4.55 c -1.624,0 -2.66,-1.162 -2.66,-2.87 0,-1.708 1.036,-2.87 2.66,-2.87 1.666,0 2.66,1.246 2.66,2.87 0,1.624 -0.994,2.87 -2.66,2.87 z m -2.604,3.43 v -4.326 c 0.462,0.868 1.302,1.694 2.758,1.694 2.058,0 3.388,-1.582 3.388,-3.668 0,-2.086 -1.33,-3.668 -3.388,-3.668 -1.456,0 -2.338,0.826 -2.758,1.694 V 157 h -0.854 v 9.8 z m 7.329,-6.3 c 0,2.128 1.54,3.668 3.668,3.668 2.114,0 3.668,-1.54 3.668,-3.668 0,-2.128 -1.554,-3.668 -3.668,-3.668 -2.128,0 -3.668,1.54 -3.668,3.668 z m 6.44,0 c 0,1.666 -1.106,2.842 -2.772,2.842 -1.68,0 -2.786,-1.176 -2.786,-2.842 0,-1.666 1.106,-2.842 2.786,-2.842 1.666,0 2.772,1.176 2.772,2.842 z m 3.414,-1.946 V 157 h -0.826 v 7 h 0.854 v -3.234 c 0,-1.68 0.56,-3.136 2.366,-3.136 1.218,0 1.932,0.826 1.932,2.226 V 164 h 0.882 v -4.088 c 0,-1.848 -0.854,-3.08 -2.646,-3.08 -1.246,0 -2.114,0.7 -2.562,1.722 z m 7.145,-3.682 c 0,0.434 0.336,0.784 0.784,0.784 0.434,0 0.784,-0.35 0.784,-0.784 0,-0.448 -0.35,-0.784 -0.784,-0.784 -0.448,0 -0.784,0.336 -0.784,0.784 z m 0.35,2.128 v 7 h 0.854 v -7 z m 3.205,-2.8 v 9.8 h 0.854 v -1.526 c 0.42,0.868 1.302,1.694 2.758,1.694 2.058,0 3.388,-1.582 3.388,-3.668 0,-2.086 -1.33,-3.668 -3.388,-3.668 -1.456,0 -2.296,0.826 -2.758,1.694 V 154.2 Z m 6.118,6.3 c 0,1.624 -0.994,2.87 -2.66,2.87 -1.624,0 -2.66,-1.162 -2.66,-2.87 0,-1.708 1.036,-2.87 2.66,-2.87 1.666,0 2.66,1.246 2.66,2.87 z m 2.639,-6.3 v 9.8 h 0.882 v -9.8 z m 2.632,6.342 c 0,2.198 1.442,3.626 3.556,3.626 1.274,0 2.17,-0.588 2.758,-1.204 l -0.448,-0.672 c -0.546,0.588 -1.288,1.078 -2.352,1.078 -1.442,0 -2.604,-0.938 -2.66,-2.604 l 0.014,-0.098 h 5.88 v -0.252 c 0,-1.932 -1.092,-3.584 -3.304,-3.584 -2.1,0 -3.444,1.624 -3.444,3.71 z m 5.81,-0.56 h -4.914 c 0.168,-1.4 1.064,-2.352 2.562,-2.352 1.498,0 2.282,1.022 2.352,2.352 z m 10.649,3.388 c -1.624,0 -2.66,-1.162 -2.66,-2.87 0,-1.708 1.036,-2.87 2.66,-2.87 1.666,0 2.66,1.246 2.66,2.87 0,1.624 -0.994,2.87 -2.66,2.87 z m -2.604,3.43 v -4.326 c 0.462,0.868 1.302,1.694 2.758,1.694 2.058,0 3.388,-1.582 3.388,-3.668 0,-2.086 -1.33,-3.668 -3.388,-3.668 -1.456,0 -2.338,0.826 -2.758,1.694 V 157 h -0.854 v 9.8 z m 12.424,-5.796 c 0,1.162 -0.882,2.338 -2.45,2.338 -1.022,0 -1.568,-0.518 -1.568,-1.316 0,-0.644 0.406,-1.204 1.47,-1.316 l 2.548,-0.28 z m -4.662,-2.492 0.756,0.406 c 0.182,-0.854 0.868,-1.316 2.058,-1.316 1.302,0 1.848,0.602 1.848,1.54 v 0.252 c 0,0.182 -0.098,0.266 -0.35,0.294 l -2.324,0.224 c -1.288,0.126 -2.24,0.812 -2.24,2.114 0,1.204 0.812,2.114 2.352,2.114 1.176,0 2.128,-0.574 2.562,-1.638 V 164 h 0.854 v -4.592 c 0,-1.708 -0.882,-2.576 -2.744,-2.576 -1.75,0 -2.52,0.728 -2.772,1.68 z m 8.314,0.084 V 157 h -0.826 v 7 h 0.854 v -3.234 c 0,-1.694 0.518,-3.038 2.156,-3.038 0.224,0 0.434,0.014 0.7,0.07 v -0.896 c -0.238,-0.042 -0.476,-0.07 -0.686,-0.07 -1.05,0 -1.834,0.574 -2.198,1.764 z m 8.598,2.408 c 0,1.162 -0.882,2.338 -2.45,2.338 -1.022,0 -1.568,-0.518 -1.568,-1.316 0,-0.644 0.406,-1.204 1.47,-1.316 l 2.548,-0.28 z m -4.662,-2.492 0.756,0.406 c 0.182,-0.854 0.868,-1.316 2.058,-1.316 1.302,0 1.848,0.602 1.848,1.54 v 0.252 c 0,0.182 -0.098,0.266 -0.35,0.294 l -2.324,0.224 c -1.288,0.126 -2.24,0.812 -2.24,2.114 0,1.204 0.812,2.114 2.352,2.114 1.176,0 2.128,-0.574 2.562,-1.638 V 164 h 0.854 v -4.592 c 0,-1.708 -0.882,-2.576 -2.744,-2.576 -1.75,0 -2.52,0.728 -2.772,1.68 z M 24.4354,176.596 V 175 h -0.826 v 7 h 0.854 v -3.234 c 0,-1.694 0.518,-3.038 2.156,-3.038 0.224,0 0.434,0.014 0.7,0.07 v -0.896 c -0.238,-0.042 -0.476,-0.07 -0.686,-0.07 -1.05,0 -1.834,0.574 -2.198,1.764 z m 3.4063,1.946 c 0,2.198 1.442,3.626 3.556,3.626 1.274,0 2.17,-0.588 2.758,-1.204 l -0.448,-0.672 c -0.546,0.588 -1.288,1.078 -2.352,1.078 -1.442,0 -2.604,-0.938 -2.66,-2.604 l 0.014,-0.098 h 5.88 v -0.252 c 0,-1.932 -1.092,-3.584 -3.304,-3.584 -2.1,0 -3.444,1.624 -3.444,3.71 z m 5.81,-0.56 h -4.914 c 0.168,-1.4 1.064,-2.352 2.562,-2.352 1.498,0 2.282,1.022 2.352,2.352 z m 2.3099,-1.162 c 0,1.498 1.4,1.82 2.618,2.058 0.952,0.196 1.806,0.35 1.806,1.302 0,0.826 -0.728,1.19 -1.764,1.19 -0.882,0 -1.862,-0.266 -2.282,-1.246 l -0.7,0.462 c 0.532,1.176 1.764,1.582 2.954,1.582 1.554,0 2.646,-0.672 2.646,-2.044 0,-1.596 -1.344,-1.82 -2.492,-2.058 -1.022,-0.21 -1.932,-0.392 -1.932,-1.302 0,-0.644 0.63,-1.134 1.708,-1.134 1.022,0 1.652,0.448 1.96,1.092 l 0.714,-0.462 c -0.518,-0.966 -1.47,-1.428 -2.66,-1.428 -1.638,0 -2.576,0.812 -2.576,1.988 z m 10.4175,4.55 c -1.624,0 -2.66,-1.162 -2.66,-2.87 0,-1.708 1.036,-2.87 2.66,-2.87 1.666,0 2.66,1.246 2.66,2.87 0,1.624 -0.994,2.87 -2.66,2.87 z m -2.604,3.43 v -4.326 c 0.462,0.868 1.302,1.694 2.758,1.694 2.058,0 3.388,-1.582 3.388,-3.668 0,-2.086 -1.33,-3.668 -3.388,-3.668 -1.456,0 -2.338,0.826 -2.758,1.694 V 175 h -0.854 v 9.8 z m 7.3285,-6.3 c 0,2.128 1.54,3.668 3.668,3.668 2.114,0 3.668,-1.54 3.668,-3.668 0,-2.128 -1.554,-3.668 -3.668,-3.668 -2.128,0 -3.668,1.54 -3.668,3.668 z m 6.44,0 c 0,1.666 -1.106,2.842 -2.772,2.842 -1.68,0 -2.786,-1.176 -2.786,-2.842 0,-1.666 1.106,-2.842 2.786,-2.842 1.666,0 2.772,1.176 2.772,2.842 z m 3.4148,-1.946 V 175 h -0.826 v 7 h 0.854 v -3.234 c 0,-1.68 0.56,-3.136 2.366,-3.136 1.218,0 1.932,0.826 1.932,2.226 V 182 h 0.882 v -4.088 c 0,-1.848 -0.854,-3.08 -2.646,-3.08 -1.246,0 -2.114,0.7 -2.562,1.722 z m 10.4347,-0.924 c 1.624,0 2.66,1.162 2.66,2.87 0,1.708 -1.036,2.87 -2.66,2.87 -1.666,0 -2.66,-1.246 -2.66,-2.87 0,-1.624 0.994,-2.87 2.66,-2.87 z m 2.604,-3.43 v 4.326 c -0.462,-0.868 -1.302,-1.694 -2.758,-1.694 -2.058,0 -3.388,1.582 -3.388,3.668 0,2.086 1.33,3.668 3.388,3.668 1.456,0 2.338,-0.826 2.758,-1.694 V 182 h 0.854 v -9.8 z m 2.5696,6.342 c 0,2.198 1.442,3.626 3.556,3.626 1.274,0 2.17,-0.588 2.758,-1.204 l -0.448,-0.672 c -0.546,0.588 -1.288,1.078 -2.352,1.078 -1.442,0 -2.604,-0.938 -2.66,-2.604 l 0.014,-0.098 h 5.88 v -0.252 c 0,-1.932 -1.092,-3.584 -3.304,-3.584 -2.1,0 -3.444,1.624 -3.444,3.71 z m 5.81,-0.56 h -4.914 c 0.168,-1.4 1.064,-2.352 2.562,-2.352 1.498,0 2.282,1.022 2.352,2.352 z m 3.4159,-1.386 V 175 h -0.826 v 7 h 0.854 v -3.234 c 0,-1.694 0.518,-3.038 2.156,-3.038 0.224,0 0.434,0.014 0.7,0.07 v -0.896 c -0.238,-0.042 -0.476,-0.07 -0.686,-0.07 -1.05,0 -1.834,0.574 -2.198,1.764 z m 8.4578,1.918 c 0,2.128 1.414,3.654 3.626,3.654 1.078,0 1.932,-0.392 2.5196,-0.952 l -0.5176,-0.672 c -0.532,0.476 -1.246,0.798 -2.016,0.798 -1.582,0 -2.73,-1.134 -2.73,-2.842 0,-1.736 1.134,-2.842 2.744,-2.842 0.742,0 1.4,0.294 1.932,0.77 l 0.5456,-0.672 c -0.6156,-0.588 -1.4276,-0.924 -2.4356,-0.924 -2.212,0 -3.668,1.554 -3.668,3.682 z M 107.021,175 v 3.234 c 0,1.624 -0.56,3.136 -2.296,3.136 -1.456,0 -1.904,-0.938 -1.904,-2.254 V 175 h -0.882 v 4.116 c 0,1.792 0.714,3.052 2.646,3.052 1.176,0 2.002,-0.588 2.464,-1.764 V 182 h 0.826 v -7 z m 7.665,4.004 c 0,1.162 -0.882,2.338 -2.45,2.338 -1.022,0 -1.568,-0.518 -1.568,-1.316 0,-0.644 0.406,-1.204 1.47,-1.316 l 2.548,-0.28 z m -4.662,-2.492 0.756,0.406 c 0.182,-0.854 0.868,-1.316 2.058,-1.316 1.302,0 1.848,0.602 1.848,1.54 v 0.252 c 0,0.182 -0.098,0.266 -0.35,0.294 l -2.324,0.224 c -1.288,0.126 -2.24,0.812 -2.24,2.114 0,1.204 0.812,2.114 2.352,2.114 1.176,0 2.128,-0.574 2.562,-1.638 V 182 h 0.854 v -4.592 c 0,-1.708 -0.882,-2.576 -2.744,-2.576 -1.75,0 -2.52,0.728 -2.772,1.68 z m 7.529,-4.312 v 9.8 h 0.882 v -9.8 z m 9.632,12.6 V 175 h -0.854 v 1.526 c -0.42,-0.868 -1.302,-1.694 -2.758,-1.694 -2.058,0 -3.388,1.582 -3.388,3.668 0,2.086 1.33,3.668 3.388,3.668 1.456,0 2.296,-0.826 2.758,-1.694 v 4.326 z m -6.118,-6.3 c 0,-1.624 0.994,-2.87 2.66,-2.87 1.624,0 2.66,1.162 2.66,2.87 0,1.708 -1.036,2.87 -2.66,2.87 -1.666,0 -2.66,-1.246 -2.66,-2.87 z m 13.488,-3.5 v 3.234 c 0,1.624 -0.56,3.136 -2.296,3.136 -1.456,0 -1.904,-0.938 -1.904,-2.254 V 175 h -0.882 v 4.116 c 0,1.792 0.714,3.052 2.646,3.052 1.176,0 2.002,-0.588 2.464,-1.764 V 182 h 0.826 v -7 z m 2.821,-2.128 c 0,0.434 0.336,0.784 0.784,0.784 0.434,0 0.784,-0.35 0.784,-0.784 0,-0.448 -0.35,-0.784 -0.784,-0.784 -0.448,0 -0.784,0.336 -0.784,0.784 z m 0.35,2.128 v 7 h 0.854 v -7 z m 2.631,3.542 c 0,2.198 1.442,3.626 3.556,3.626 1.274,0 2.17,-0.588 2.758,-1.204 l -0.448,-0.672 c -0.546,0.588 -1.288,1.078 -2.352,1.078 -1.442,0 -2.604,-0.938 -2.66,-2.604 l 0.014,-0.098 h 5.88 v -0.252 c 0,-1.932 -1.092,-3.584 -3.304,-3.584 -2.1,0 -3.444,1.624 -3.444,3.71 z m 5.81,-0.56 h -4.914 c 0.168,-1.4 1.064,-2.352 2.562,-2.352 1.498,0 2.282,1.022 2.352,2.352 z m 3.416,-1.386 V 175 h -0.826 v 7 h 0.854 v -3.234 c 0,-1.694 0.518,-3.038 2.156,-3.038 0.224,0 0.434,0.014 0.7,0.07 v -0.896 c -0.238,-0.042 -0.476,-0.07 -0.686,-0.07 -1.05,0 -1.834,0.574 -2.198,1.764 z m 8.458,1.918 c 0,2.128 1.414,3.654 3.626,3.654 1.078,0 1.932,-0.392 2.52,-0.952 l -0.518,-0.672 c -0.532,0.476 -1.246,0.798 -2.016,0.798 -1.582,0 -2.73,-1.134 -2.73,-2.842 0,-1.736 1.134,-2.842 2.744,-2.842 0.742,0 1.4,0.294 1.932,0.77 l 0.546,-0.672 c -0.616,-0.588 -1.428,-0.924 -2.436,-0.924 -2.212,0 -3.668,1.554 -3.668,3.682 z m 7.157,-0.014 c 0,2.128 1.54,3.668 3.668,3.668 2.114,0 3.668,-1.54 3.668,-3.668 0,-2.128 -1.554,-3.668 -3.668,-3.668 -2.128,0 -3.668,1.54 -3.668,3.668 z m 6.44,0 c 0,1.666 -1.106,2.842 -2.772,2.842 -1.68,0 -2.786,-1.176 -2.786,-2.842 0,-1.666 1.106,-2.842 2.786,-2.842 1.666,0 2.772,1.176 2.772,2.842 z m 3.414,-1.946 V 175 h -0.826 v 7 h 0.854 v -3.234 c 0,-1.68 0.56,-3.136 2.366,-3.136 1.218,0 1.932,0.826 1.932,2.226 V 182 h 0.882 v -4.088 c 0,-1.848 -0.854,-3.08 -2.646,-3.08 -1.246,0 -2.114,0.7 -2.562,1.722 z m 7.145,0.266 c 0,1.498 1.4,1.82 2.618,2.058 0.952,0.196 1.806,0.35 1.806,1.302 0,0.826 -0.728,1.19 -1.764,1.19 -0.882,0 -1.862,-0.266 -2.282,-1.246 l -0.7,0.462 c 0.532,1.176 1.764,1.582 2.954,1.582 1.554,0 2.646,-0.672 2.646,-2.044 0,-1.596 -1.344,-1.82 -2.492,-2.058 -1.022,-0.21 -1.932,-0.392 -1.932,-1.302 0,-0.644 0.63,-1.134 1.708,-1.134 1.022,0 1.652,0.448 1.96,1.092 l 0.714,-0.462 c -0.518,-0.966 -1.47,-1.428 -2.66,-1.428 -1.638,0 -2.576,0.812 -2.576,1.988 z m 12,-1.82 v 3.234 c 0,1.624 -0.56,3.136 -2.296,3.136 -1.456,0 -1.904,-0.938 -1.904,-2.254 V 175 h -0.882 v 4.116 c 0,1.792 0.714,3.052 2.646,3.052 1.176,0 2.002,-0.588 2.464,-1.764 V 182 h 0.826 v -7 z m 3.142,-2.8 v 9.8 h 0.882 v -9.8 z m 6.79,9.73 v -0.756 c -0.322,0.056 -0.602,0.098 -1.036,0.098 -0.77,0 -1.036,-0.364 -1.036,-1.106 v -4.41 h 2.03 V 175 h -2.03 v -1.876 h -0.854 V 175 h -1.47 v 0.756 h 1.47 v 4.368 c 0,1.428 0.616,1.946 1.848,1.946 0.392,0 0.728,-0.056 1.078,-0.14 z m 6.03,-2.926 c 0,1.162 -0.882,2.338 -2.45,2.338 -1.022,0 -1.568,-0.518 -1.568,-1.316 0,-0.644 0.406,-1.204 1.47,-1.316 l 2.548,-0.28 z m -4.662,-2.492 0.756,0.406 c 0.182,-0.854 0.868,-1.316 2.058,-1.316 1.302,0 1.848,0.602 1.848,1.54 v 0.252 c 0,0.182 -0.098,0.266 -0.35,0.294 l -2.324,0.224 c -1.288,0.126 -2.24,0.812 -2.24,2.114 0,1.204 0.812,2.114 2.352,2.114 1.176,0 2.128,-0.574 2.562,-1.638 V 182 h 0.854 v -4.592 c 0,-1.708 -0.882,-2.576 -2.744,-2.576 -1.75,0 -2.52,0.728 -2.772,1.68 z m 18.515,8.288 V 175 h -0.854 v 1.526 c -0.42,-0.868 -1.302,-1.694 -2.758,-1.694 -2.058,0 -3.388,1.582 -3.388,3.668 0,2.086 1.33,3.668 3.388,3.668 1.456,0 2.296,-0.826 2.758,-1.694 v 4.326 z m -6.118,-6.3 c 0,-1.624 0.994,-2.87 2.66,-2.87 1.624,0 2.66,1.162 2.66,2.87 0,1.708 -1.036,2.87 -2.66,2.87 -1.666,0 -2.66,-1.246 -2.66,-2.87 z m 13.488,-3.5 v 3.234 c 0,1.624 -0.56,3.136 -2.296,3.136 -1.456,0 -1.904,-0.938 -1.904,-2.254 V 175 H 226.3 v 4.116 c 0,1.792 0.714,3.052 2.646,3.052 1.176,0 2.002,-0.588 2.464,-1.764 V 182 h 0.826 v -7 z m 2.569,3.542 c 0,2.198 1.442,3.626 3.556,3.626 1.274,0 2.17,-0.588 2.758,-1.204 l -0.448,-0.672 c -0.546,0.588 -1.288,1.078 -2.352,1.078 -1.442,0 -2.604,-0.938 -2.66,-2.604 l 0.014,-0.098 h 5.88 v -0.252 c 0,-1.932 -1.092,-3.584 -3.304,-3.584 -2.1,0 -3.444,1.624 -3.444,3.71 z m 5.81,-0.56 h -4.914 c 0.168,-1.4 1.064,-2.352 2.562,-2.352 1.498,0 2.282,1.022 2.352,2.352 z M 112.907,199.93 v -0.756 c -0.322,0.056 -0.602,0.098 -1.036,0.098 -0.77,0 -1.036,-0.364 -1.036,-1.106 v -4.41 h 2.03 V 193 h -2.03 v -1.876 h -0.854 V 193 h -1.47 v 0.756 h 1.47 v 4.368 c 0,1.428 0.616,1.946 1.848,1.946 0.392,0 0.728,-0.056 1.078,-0.14 z m 0.866,-3.388 c 0,2.198 1.442,3.626 3.556,3.626 1.274,0 2.17,-0.588 2.758,-1.204 l -0.448,-0.672 c -0.546,0.588 -1.288,1.078 -2.352,1.078 -1.442,0 -2.604,-0.938 -2.66,-2.604 l 0.014,-0.098 h 5.88 v -0.252 c 0,-1.932 -1.092,-3.584 -3.304,-3.584 -2.1,0 -3.444,1.624 -3.444,3.71 z m 5.81,-0.56 h -4.914 c 0.168,-1.4 1.064,-2.352 2.562,-2.352 1.498,0 2.282,1.022 2.352,2.352 z m 3.416,-1.428 V 193 h -0.826 v 7 h 0.854 v -3.234 c 0,-1.68 0.56,-3.136 2.366,-3.136 1.218,0 1.932,0.826 1.932,2.226 V 200 h 0.882 v -4.088 c 0,-1.848 -0.854,-3.08 -2.646,-3.08 -1.246,0 -2.114,0.7 -2.562,1.722 z m 13.192,1.946 c 0,1.708 -1.022,2.87 -2.646,2.87 -1.652,0 -2.674,-1.246 -2.674,-2.87 0,-1.624 1.022,-2.87 2.674,-2.87 1.624,0 2.646,1.162 2.646,2.87 z m -6.216,0 c 0,2.086 1.274,3.668 3.444,3.668 1.442,0 2.366,-0.812 2.744,-1.652 v 1.106 c 0,1.386 -0.532,2.604 -2.492,2.604 -1.274,0 -2.03,-0.504 -2.52,-1.386 l -0.658,0.546 c 0.518,0.924 1.4,1.596 3.122,1.596 2.688,0 3.374,-1.666 3.374,-3.36 V 193 h -0.868 v 1.484 c -0.336,-0.812 -1.232,-1.652 -2.716,-1.652 -2.072,0 -3.43,1.582 -3.43,3.668 z m 13.796,0.504 c 0,1.162 -0.882,2.338 -2.45,2.338 -1.022,0 -1.568,-0.518 -1.568,-1.316 0,-0.644 0.406,-1.204 1.47,-1.316 l 2.548,-0.28 z m -4.662,-2.492 0.756,0.406 c 0.182,-0.854 0.868,-1.316 2.058,-1.316 1.302,0 1.848,0.602 1.848,1.54 v 0.252 c 0,0.182 -0.098,0.266 -0.35,0.294 l -2.324,0.224 c -1.288,0.126 -2.24,0.812 -2.24,2.114 0,1.204 0.812,2.114 2.352,2.114 1.176,0 2.128,-0.574 2.562,-1.638 V 200 h 0.854 v -4.592 c 0,-1.708 -0.882,-2.576 -2.744,-2.576 -1.75,0 -2.52,0.728 -2.772,1.68 z m 7.208,0.308 c 0,1.498 1.4,1.82 2.618,2.058 0.952,0.196 1.806,0.35 1.806,1.302 0,0.826 -0.728,1.19 -1.764,1.19 -0.882,0 -1.862,-0.266 -2.282,-1.246 l -0.7,0.462 c 0.532,1.176 1.764,1.582 2.954,1.582 1.554,0 2.646,-0.672 2.646,-2.044 0,-1.596 -1.344,-1.82 -2.492,-2.058 -1.022,-0.21 -1.932,-0.392 -1.932,-1.302 0,-0.644 0.63,-1.134 1.708,-1.134 1.022,0 1.652,0.448 1.96,1.092 l 0.714,-0.462 c -0.518,-0.966 -1.47,-1.428 -2.66,-1.428 -1.638,0 -2.576,0.812 -2.576,1.988 z m 7.445,3.416 c -0.504,0 -0.882,0.392 -0.882,0.882 0,0.504 0.378,0.882 0.882,0.882 0.49,0 0.882,-0.378 0.882,-0.882 0,-0.49 -0.392,-0.882 -0.882,-0.882 z"
       id="path10"
       inkscape:connector-curvature="0"
       style="fill:#4a4d4f" />
  </g>
  <defs
     id="defs55">
    <clipPath
       id="clip0">
      <rect
         width="240"
         height="204"
         transform="translate(12)"
         id="rect52"
         x="0"
         y="0"
         style="fill:#ffffff" />
    </clipPath>
  </defs>
</svg>
