<?xml version="1.0" encoding="UTF-8" standalone="no"?>
<svg
   xmlns:dc="http://purl.org/dc/elements/1.1/"
   xmlns:cc="http://creativecommons.org/ns#"
   xmlns:rdf="http://www.w3.org/1999/02/22-rdf-syntax-ns#"
   xmlns:svg="http://www.w3.org/2000/svg"
   xmlns="http://www.w3.org/2000/svg"
   xmlns:sodipodi="http://sodipodi.sourceforge.net/DTD/sodipodi-0.dtd"
   xmlns:inkscape="http://www.inkscape.org/namespaces/inkscape"
   width="260"
   height="220"
   viewBox="0 0 260 220"
   version="1.1"
   id="svg57"
   sodipodi:docname="card_4.svg"
   style="fill:none"
   inkscape:version="0.92.2 5c3e80d, 2017-08-06">
  <metadata
     id="metadata61">
    <rdf:RDF>
      <cc:Work
         rdf:about="">
        <dc:format>image/svg+xml</dc:format>
        <dc:type
           rdf:resource="http://purl.org/dc/dcmitype/StillImage" />
        <dc:title></dc:title>
      </cc:Work>
    </rdf:RDF>
  </metadata>
  <sodipodi:namedview
     pagecolor="#ffffff"
     bordercolor="#666666"
     borderopacity="1"
     objecttolerance="10"
     gridtolerance="10"
     guidetolerance="10"
     inkscape:pageopacity="0"
     inkscape:pageshadow="2"
     inkscape:window-width="1081"
     inkscape:window-height="641"
     id="namedview59"
     showgrid="false"
     inkscape:zoom="0.8"
     inkscape:cx="-181.69223"
     inkscape:cy="16.521753"
     inkscape:window-x="0"
     inkscape:window-y="0"
     inkscape:window-maximized="0"
     inkscape:current-layer="svg57" />
  <rect
     x="0.5"
     y="27.5"
     width="259"
     height="192"
     id="rect38"
     style="stroke:#ee8d8b" />
  <ellipse
     cx="-24"
     cy="129"
     rx="24"
     ry="40"
     transform="rotate(-90)"
     id="ellipse40"
     style="fill:#ffffff" />
  <path
     d="m 114.47,10 c -3.89,3.8115 -6.3,9.1239 -6.3,15 0,11.598 9.4,21 21,21 11.59,0 21,-9.402 21,-21 0,-5.8761 -2.42,-11.1885 -6.31,-15 H 140 c 4.64,3.3607 7.67,8.8273 7.67,15 0,10.2172 -8.29,18.5 -18.5,18.5 -10.22,0 -18.5,-8.2828 -18.5,-18.5 0,-6.1727 3.02,-11.6393 7.67,-15 z"
     id="path42"
     inkscape:connector-curvature="0"
     style="clip-rule:evenodd;fill:#ee8d8b;fill-rule:evenodd" />
  <circle
     cx="129.17004"
     cy="25"
     r="7.75"
     id="circle44"
     style="stroke:#f9c2b5;stroke-width:2.5" />
  <circle
     cx="129.17004"
     cy="25"
     r="2.25"
     id="circle46"
     style="fill:#ee8d8b" />
  <path
     d="m 47.765,69.4 v 6.768 c 0,2.052 -1.422,3.312 -3.33,3.312 -1.908,0 -3.348,-1.26 -3.348,-3.312 V 69.4 h -2.52 v 6.768 c 0,3.456 2.52,5.832 5.868,5.832 3.348,0 5.85,-2.376 5.85,-5.832 V 69.4 Z m 4.601,0 V 82 H 54.76 V 69.4 Z m 9.864,12.42 v -2.25 c -0.65,0.108 -0.95,0.144 -1.313,0.144 -0.612,0 -0.9,-0.234 -0.9,-0.81 V 74.998 H 62.3 V 73 H 60.017 V 70.588 H 57.641 V 73 h -1.638 v 1.998 h 1.638 v 4.248 c 0,2.052 0.972,2.844 2.646,2.844 0.594,0 1.283,-0.108 1.943,-0.27 z M 66.2,74.476 V 73 h -2.28 v 9 h 2.37 v -4.068 c 0,-1.728 0.7,-2.61 2.27,-2.61 0.38,0 0.76,0.036 1.08,0.144 V 72.91 c -0.29,-0.072 -0.56,-0.126 -0.88,-0.126 -1.26,0 -2.07,0.648 -2.56,1.692 z m 9.62,3.888 c 0,0.99 -0.81,1.854 -2.07,1.854 -0.83,0 -1.28,-0.378 -1.28,-0.954 0,-0.504 0.38,-0.882 1.11,-0.99 l 2.24,-0.27 z m -5.58,-3.528 1.76,1.26 c 0.34,-0.864 1.31,-1.152 2.25,-1.152 1.06,0 1.57,0.378 1.57,0.9 v 0.144 c 0,0.216 -0.13,0.324 -0.47,0.36 l -2.47,0.216 C 71.23,76.726 70,77.752 70,79.39 c 0,1.656 1.26,2.808 3.04,2.808 1.41,0 2.31,-0.684 2.78,-1.404 v 1.224 h 2.37 v -5.562 c 0,-2.502 -1.31,-3.654 -3.94,-3.654 -1.96,0 -3.42,0.684 -4.01,2.034 z m 9.75,0.81 c 0,1.962 1.66,2.574 2.99,2.844 1.51,0.324 2,0.432 2,0.918 0,0.504 -0.54,0.684 -1.21,0.684 -1.26,0 -2.25,-0.45 -2.84,-1.17 l -1.39,1.8 c 0.8,1.008 2.27,1.494 4,1.494 2.39,0 3.89,-0.882 3.89,-2.934 0,-1.89 -1.32,-2.484 -2.88,-2.826 -1.6,-0.342 -2.09,-0.45 -2.09,-0.9 0,-0.396 0.41,-0.63 1.15,-0.63 0.96,0 1.93,0.36 2.43,0.918 l 1.33,-1.728 c -0.79,-0.81 -1.94,-1.332 -3.58,-1.332 -2.36,0 -3.8,1.044 -3.8,2.862 z m 8.26,1.854 c 0,2.808 2.07,4.716 4.84,4.716 2.77,0 4.84,-1.908 4.84,-4.716 0,-2.808 -2.07,-4.716 -4.84,-4.716 -2.77,0 -4.84,1.908 -4.84,4.716 z m 7.23,0 c 0,1.44 -1.04,2.394 -2.39,2.394 -1.35,0 -2.39,-0.954 -2.39,-2.394 0,-1.44 1.04,-2.394 2.39,-2.394 1.35,0 2.39,0.954 2.39,2.394 z m 6.28,-3.204 V 73 h -2.3 v 9 h 2.37 v -4.302 c 0,-1.602 0.58,-2.628 1.97,-2.628 1,0 1.63,0.594 1.63,1.944 V 82 h 2.43 v -5.58 c 0,-2.268 -1.08,-3.636 -3.18,-3.636 -1.32,0 -2.29,0.63 -2.92,1.512 z m 8.03,-3.87 c 0,0.864 0.65,1.512 1.51,1.512 0.87,0 1.53,-0.648 1.53,-1.512 0,-0.864 -0.66,-1.53 -1.53,-1.53 -0.86,0 -1.51,0.666 -1.51,1.53 z M 110.11,73 v 9 h 2.38 v -9 z m 8.84,2.088 c 1.33,0 2.35,0.918 2.35,2.412 0,1.476 -1.02,2.412 -2.35,2.412 -1.35,0 -2.36,-0.954 -2.36,-2.412 0,-1.458 1.01,-2.412 2.36,-2.412 z m 2.28,-5.688 v 4.896 c -0.61,-0.864 -1.62,-1.53 -3.02,-1.53 -2.2,0 -4.07,1.692 -4.07,4.734 0,3.042 1.87,4.734 4.1,4.734 1.32,0 2.34,-0.576 2.99,-1.494 V 82 h 2.38 V 69.4 Z m 3.91,8.1 c 0,2.808 2.07,4.716 4.85,4.716 2.77,0 4.84,-1.908 4.84,-4.716 0,-2.808 -2.07,-4.716 -4.84,-4.716 -2.78,0 -4.85,1.908 -4.85,4.716 z m 7.24,0 c 0,1.44 -1.04,2.394 -2.39,2.394 -1.35,0 -2.4,-0.954 -2.4,-2.394 0,-1.44 1.05,-2.394 2.4,-2.394 1.35,0 2.39,0.954 2.39,2.394 z m 13.34,-2.412 c 1.33,0 2.36,0.918 2.36,2.412 0,1.476 -1.03,2.412 -2.36,2.412 -1.35,0 -2.36,-0.954 -2.36,-2.412 0,-1.458 1.01,-2.412 2.36,-2.412 z M 148,69.4 v 4.896 c -0.61,-0.864 -1.62,-1.53 -3.02,-1.53 -2.2,0 -4.07,1.692 -4.07,4.734 0,3.042 1.87,4.734 4.11,4.734 1.31,0 2.34,-0.576 2.98,-1.494 V 82 h 2.38 V 69.4 Z m 3.92,8.1 c 0,2.682 1.78,4.716 4.82,4.716 1.73,0 2.84,-0.576 3.58,-1.188 l -0.99,-1.962 c -0.63,0.54 -1.47,0.918 -2.55,0.918 -1.05,0 -2.13,-0.522 -2.42,-1.728 l -0.01,-0.036 h 6.62 v -0.648 c 0,-2.898 -1.69,-4.788 -4.45,-4.788 -2.82,0 -4.6,2.052 -4.6,4.716 z m 6.46,-1.008 h -4.05 c 0.23,-1.08 0.99,-1.692 2.12,-1.692 1.15,0 1.82,0.72 1.93,1.692 z m 12,-1.818 4.18,7.326 h 2.07 l 4.17,-7.326 V 82 h 2.52 V 69.4 h -2.43 l -5.29,9.306 -5.31,-9.306 h -2.43 V 82 h 2.52 z m 20.61,3.69 c 0,0.99 -0.81,1.854 -2.07,1.854 -0.83,0 -1.28,-0.378 -1.28,-0.954 0,-0.504 0.38,-0.882 1.12,-0.99 l 2.23,-0.27 z m -5.58,-3.528 1.76,1.26 c 0.34,-0.864 1.32,-1.152 2.25,-1.152 1.06,0 1.57,0.378 1.57,0.9 v 0.144 c 0,0.216 -0.13,0.324 -0.47,0.36 l -2.47,0.216 c -1.65,0.162 -2.88,1.188 -2.88,2.826 0,1.656 1.26,2.808 3.05,2.808 1.4,0 2.3,-0.684 2.77,-1.404 v 1.224 h 2.37 v -5.562 c 0,-2.502 -1.31,-3.654 -3.94,-3.654 -1.96,0 -3.42,0.684 -4.01,2.034 z m 17.87,-0.378 c -0.5,-1.098 -1.45,-1.674 -2.79,-1.674 -1.4,0 -2.26,0.666 -2.8,1.53 V 73 h -2.31 v 9 h 2.38 v -4.302 c 0,-1.53 0.5,-2.628 1.94,-2.628 1.08,0 1.64,0.666 1.64,1.944 V 82 h 2.38 v -4.302 c 0,-1.53 0.52,-2.628 1.98,-2.628 1.06,0 1.62,0.666 1.62,1.944 V 82 h 2.39 v -5.472 c 0,-2.34 -1.3,-3.744 -3.4,-3.744 -1.5,0 -2.49,0.702 -3.03,1.674 z m 13.85,3.906 c 0,0.99 -0.81,1.854 -2.07,1.854 -0.83,0 -1.28,-0.378 -1.28,-0.954 0,-0.504 0.38,-0.882 1.12,-0.99 l 2.23,-0.27 z m -5.58,-3.528 1.76,1.26 c 0.34,-0.864 1.32,-1.152 2.25,-1.152 1.06,0 1.57,0.378 1.57,0.9 v 0.144 c 0,0.216 -0.13,0.324 -0.47,0.36 l -2.47,0.216 c -1.65,0.162 -2.88,1.188 -2.88,2.826 0,1.656 1.26,2.808 3.05,2.808 1.4,0 2.3,-0.684 2.77,-1.404 v 1.224 h 2.37 v -5.562 c 0,-2.502 -1.31,-3.654 -3.94,-3.654 -1.96,0 -3.42,0.684 -4.01,2.034 z"
     id="path48"
     inkscape:connector-curvature="0"
     style="fill:#4a4d4f" />
  <path
     d="m 45.621,100.2 v 9.8 h 0.896 v -3.318 h 2.436 c 1.988,0 3.318,-1.344 3.318,-3.234 0,-1.904 -1.33,-3.248 -3.318,-3.248 z m 5.754,3.248 c 0,1.358 -0.966,2.338 -2.422,2.338 h -2.436 v -4.69 h 2.436 c 1.456,0 2.422,0.98 2.422,2.352 z m 1.77,3.052 c 0,2.128 1.54,3.668 3.668,3.668 2.114,0 3.668,-1.54 3.668,-3.668 0,-2.128 -1.554,-3.668 -3.668,-3.668 -2.128,0 -3.668,1.54 -3.668,3.668 z m 6.44,0 c 0,1.666 -1.106,2.842 -2.772,2.842 -1.68,0 -2.786,-1.176 -2.786,-2.842 0,-1.666 1.106,-2.842 2.786,-2.842 1.666,0 2.772,1.176 2.772,2.842 z m 5.595,-2.87 c 1.63,0 2.66,1.162 2.66,2.87 0,1.708 -1.03,2.87 -2.66,2.87 -1.66,0 -2.66,-1.246 -2.66,-2.87 0,-1.624 1,-2.87 2.66,-2.87 z m 2.61,-3.43 v 4.326 c -0.46,-0.868 -1.3,-1.694 -2.76,-1.694 -2.06,0 -3.39,1.582 -3.39,3.668 0,2.086 1.33,3.668 3.39,3.668 1.46,0 2.34,-0.826 2.76,-1.694 V 110 h 0.85 v -9.8 z m 3.97,4.396 V 103 h -0.83 v 7 h 0.85 v -3.234 c 0,-1.694 0.52,-3.038 2.16,-3.038 0.22,0 0.43,0.014 0.7,0.07 v -0.896 c -0.24,-0.042 -0.48,-0.07 -0.69,-0.07 -1.05,0 -1.83,0.574 -2.19,1.764 z m 5.15,-3.43 0.39,0.602 2.98,-1.876 -0.4,-0.63 z m 3.44,5.838 c 0,1.162 -0.88,2.338 -2.45,2.338 -1.02,0 -1.56,-0.518 -1.56,-1.316 0,-0.644 0.4,-1.204 1.47,-1.316 l 2.54,-0.28 z m -4.66,-2.492 0.76,0.406 c 0.18,-0.854 0.87,-1.316 2.06,-1.316 1.3,0 1.84,0.602 1.84,1.54 v 0.252 c 0,0.182 -0.09,0.266 -0.35,0.294 l -2.32,0.224 c -1.29,0.126 -2.24,0.812 -2.24,2.114 0,1.204 0.81,2.114 2.35,2.114 1.18,0 2.13,-0.574 2.56,-1.638 V 110 h 0.86 v -4.592 c 0,-1.708 -0.88,-2.576 -2.75,-2.576 -1.75,0 -2.52,0.728 -2.77,1.68 z m 7.21,0.308 c 0,1.498 1.4,1.82 2.62,2.058 0.95,0.196 1.8,0.35 1.8,1.302 0,0.826 -0.72,1.19 -1.76,1.19 -0.88,0 -1.86,-0.266 -2.28,-1.246 l -0.7,0.462 c 0.53,1.176 1.76,1.582 2.95,1.582 1.56,0 2.65,-0.672 2.65,-2.044 0,-1.596 -1.35,-1.82 -2.49,-2.058 -1.03,-0.21 -1.94,-0.392 -1.94,-1.302 0,-0.644 0.63,-1.134 1.71,-1.134 1.02,0 1.65,0.448 1.96,1.092 l 0.72,-0.462 c -0.52,-0.966 -1.47,-1.428 -2.66,-1.428 -1.64,0 -2.58,0.812 -2.58,1.988 z m 16.04,2.184 c 0,1.162 -0.88,2.338 -2.45,2.338 -1.02,0 -1.57,-0.518 -1.57,-1.316 0,-0.644 0.41,-1.204 1.47,-1.316 l 2.55,-0.28 z m -4.66,-2.492 0.75,0.406 c 0.19,-0.854 0.87,-1.316 2.06,-1.316 1.3,0 1.85,0.602 1.85,1.54 v 0.252 c 0,0.182 -0.1,0.266 -0.35,0.294 l -2.32,0.224 c -1.29,0.126 -2.24,0.812 -2.24,2.114 0,1.204 0.81,2.114 2.35,2.114 1.17,0 2.13,-0.574 2.56,-1.638 V 110 h 0.85 v -4.592 c 0,-1.708 -0.88,-2.576 -2.74,-2.576 -1.75,0 -2.52,0.728 -2.77,1.68 z m 13.25,1.988 c 0,1.708 -1.02,2.87 -2.64,2.87 -1.65,0 -2.68,-1.246 -2.68,-2.87 0,-1.624 1.03,-2.87 2.68,-2.87 1.62,0 2.64,1.162 2.64,2.87 z m -6.21,0 c 0,2.086 1.27,3.668 3.44,3.668 1.44,0 2.37,-0.812 2.75,-1.652 v 1.106 c 0,1.386 -0.54,2.604 -2.5,2.604 -1.27,0 -2.03,-0.504 -2.52,-1.386 l -0.65,0.546 c 0.51,0.924 1.4,1.596 3.12,1.596 2.69,0 3.37,-1.666 3.37,-3.36 V 103 h -0.87 v 1.484 c -0.33,-0.812 -1.23,-1.652 -2.71,-1.652 -2.07,0 -3.43,1.582 -3.43,3.668 z m 8.7,0.042 c 0,2.198 1.44,3.626 3.55,3.626 1.28,0 2.17,-0.588 2.76,-1.204 l -0.45,-0.672 c -0.54,0.588 -1.28,1.078 -2.35,1.078 -1.44,0 -2.6,-0.938 -2.66,-2.604 l 0.02,-0.098 h 5.88 v -0.252 c 0,-1.932 -1.1,-3.584 -3.31,-3.584 -2.1,0 -3.44,1.624 -3.44,3.71 z m 5.81,-0.56 h -4.92 c 0.17,-1.4 1.07,-2.352 2.57,-2.352 1.49,0 2.28,1.022 2.35,2.352 z m 3.41,-1.428 V 103 h -0.82 v 7 h 0.85 v -3.234 c 0,-1.68 0.56,-3.136 2.37,-3.136 1.22,0 1.93,0.826 1.93,2.226 V 110 h 0.88 v -4.088 c 0,-1.848 -0.85,-3.08 -2.64,-3.08 -1.25,0 -2.12,0.7 -2.57,1.722 z m 10.44,-0.924 c 1.62,0 2.66,1.162 2.66,2.87 0,1.708 -1.04,2.87 -2.66,2.87 -1.67,0 -2.66,-1.246 -2.66,-2.87 0,-1.624 0.99,-2.87 2.66,-2.87 z m 2.6,-3.43 v 4.326 c -0.46,-0.868 -1.3,-1.694 -2.76,-1.694 -2.05,0 -3.38,1.582 -3.38,3.668 0,2.086 1.33,3.668 3.38,3.668 1.46,0 2.34,-0.826 2.76,-1.694 V 110 h 0.86 v -9.8 z m 7.71,6.804 c 0,1.162 -0.88,2.338 -2.45,2.338 -1.02,0 -1.57,-0.518 -1.57,-1.316 0,-0.644 0.41,-1.204 1.47,-1.316 l 2.55,-0.28 z m -4.66,-2.492 0.75,0.406 c 0.18,-0.854 0.87,-1.316 2.06,-1.316 1.3,0 1.85,0.602 1.85,1.54 v 0.252 c 0,0.182 -0.1,0.266 -0.35,0.294 l -2.33,0.224 c -1.28,0.126 -2.24,0.812 -2.24,2.114 0,1.204 0.82,2.114 2.36,2.114 1.17,0 2.12,-0.574 2.56,-1.638 V 110 h 0.85 v -4.592 c 0,-1.708 -0.88,-2.576 -2.74,-2.576 -1.75,0 -2.52,0.728 -2.77,1.68 z m 8.31,0.084 V 103 h -0.83 v 7 h 0.86 v -3.234 c 0,-1.694 0.52,-3.038 2.15,-3.038 0.23,0 0.44,0.014 0.7,0.07 v -0.896 c -0.23,-0.042 -0.47,-0.07 -0.68,-0.07 -1.05,0 -1.84,0.574 -2.2,1.764 z m 12.62,5.334 v -0.756 c -0.33,0.056 -0.61,0.098 -1.04,0.098 -0.77,0 -1.04,-0.364 -1.04,-1.106 v -4.41 h 2.03 V 103 h -2.03 v -1.876 h -0.85 V 103 h -1.47 v 0.756 h 1.47 v 4.368 c 0,1.428 0.62,1.946 1.85,1.946 0.39,0 0.73,-0.056 1.08,-0.14 z M 162.8,103 v 3.234 c 0,1.624 -0.56,3.136 -2.29,3.136 -1.46,0 -1.91,-0.938 -1.91,-2.254 V 103 h -0.88 v 4.116 c 0,1.792 0.72,3.052 2.65,3.052 1.17,0 2,-0.588 2.46,-1.764 V 110 h 0.83 v -7 z m 7.13,3.514 c 0,2.128 1.42,3.654 3.63,3.654 1.08,0 1.93,-0.392 2.52,-0.952 l -0.52,-0.672 c -0.53,0.476 -1.25,0.798 -2.02,0.798 -1.58,0 -2.73,-1.134 -2.73,-2.842 0,-1.736 1.14,-2.842 2.75,-2.842 0.74,0 1.4,0.294 1.93,0.77 l 0.55,-0.672 c -0.62,-0.588 -1.43,-0.924 -2.44,-0.924 -2.21,0 -3.67,1.554 -3.67,3.682 z m 7.41,-5.642 c 0,0.434 0.34,0.784 0.79,0.784 0.43,0 0.78,-0.35 0.78,-0.784 0,-0.448 -0.35,-0.784 -0.78,-0.784 -0.45,0 -0.79,0.336 -0.79,0.784 z m 0.35,2.128 v 7 h 0.86 v -7 z m 6.79,6.93 v -0.756 c -0.32,0.056 -0.6,0.098 -1.04,0.098 -0.77,0 -1.03,-0.364 -1.03,-1.106 v -4.41 h 2.03 V 103 h -2.03 v -1.876 h -0.86 V 103 h -1.47 v 0.756 h 1.47 v 4.368 c 0,1.428 0.62,1.946 1.85,1.946 0.39,0 0.73,-0.056 1.08,-0.14 z m 6.03,-2.926 c 0,1.162 -0.88,2.338 -2.45,2.338 -1.02,0 -1.57,-0.518 -1.57,-1.316 0,-0.644 0.41,-1.204 1.47,-1.316 l 2.55,-0.28 z m -4.66,-2.492 0.75,0.406 c 0.19,-0.854 0.87,-1.316 2.06,-1.316 1.3,0 1.85,0.602 1.85,1.54 v 0.252 c 0,0.182 -0.1,0.266 -0.35,0.294 l -2.32,0.224 c -1.29,0.126 -2.24,0.812 -2.24,2.114 0,1.204 0.81,2.114 2.35,2.114 1.17,0 2.13,-0.574 2.56,-1.638 V 110 h 0.85 v -4.592 c 0,-1.708 -0.88,-2.576 -2.74,-2.576 -1.75,0 -2.52,0.728 -2.77,1.68 z m 15.06,-0.882 c 1.62,0 2.66,1.162 2.66,2.87 0,1.708 -1.04,2.87 -2.66,2.87 -1.67,0 -2.66,-1.246 -2.66,-2.87 0,-1.624 0.99,-2.87 2.66,-2.87 z m 2.6,-3.43 v 4.326 c -0.46,-0.868 -1.3,-1.694 -2.76,-1.694 -2.06,0 -3.39,1.582 -3.39,3.668 0,2.086 1.33,3.668 3.39,3.668 1.46,0 2.34,-0.826 2.76,-1.694 V 110 h 0.85 v -9.8 z m 2.57,6.342 c 0,2.198 1.44,3.626 3.56,3.626 1.27,0 2.17,-0.588 2.75,-1.204 l -0.44,-0.672 c -0.55,0.588 -1.29,1.078 -2.36,1.078 -1.44,0 -2.6,-0.938 -2.66,-2.604 l 0.02,-0.098 h 5.88 v -0.252 c 0,-1.932 -1.09,-3.584 -3.31,-3.584 -2.1,0 -3.44,1.624 -3.44,3.71 z m 5.81,-0.56 h -4.91 c 0.16,-1.4 1.06,-2.352 2.56,-2.352 1.5,0 2.28,1.022 2.35,2.352 z M 54.77,121 v 3.234 c 0,1.624 -0.56,3.136 -2.296,3.136 -1.456,0 -1.904,-0.938 -1.904,-2.254 V 121 h -0.882 v 4.116 c 0,1.792 0.714,3.052 2.646,3.052 1.176,0 2.002,-0.588 2.464,-1.764 V 128 h 0.826 v -7 z m 3.142,-2.8 v 9.8 h 0.882 v -9.8 z m 6.788,9.73 v -0.756 c -0.32,0.056 -0.6,0.098 -1.03,0.098 -0.77,0 -1.04,-0.364 -1.04,-1.106 v -4.41 h 2.03 V 121 h -2.03 v -1.876 H 61.78 V 121 h -1.474 v 0.756 h 1.474 v 4.368 c 0,1.428 0.61,1.946 1.84,1.946 0.4,0 0.73,-0.056 1.08,-0.14 z m 2.43,-5.334 V 121 h -0.82 v 7 h 0.85 v -3.234 c 0,-1.694 0.52,-3.038 2.16,-3.038 0.22,0 0.43,0.014 0.7,0.07 v -0.896 c -0.24,-0.042 -0.48,-0.07 -0.69,-0.07 -1.05,0 -1.83,0.574 -2.2,1.764 z m 8.6,2.408 c 0,1.162 -0.88,2.338 -2.45,2.338 -1.02,0 -1.57,-0.518 -1.57,-1.316 0,-0.644 0.41,-1.204 1.47,-1.316 l 2.55,-0.28 z m -4.66,-2.492 0.75,0.406 c 0.19,-0.854 0.87,-1.316 2.06,-1.316 1.3,0 1.85,0.602 1.85,1.54 v 0.252 c 0,0.182 -0.1,0.266 -0.35,0.294 l -2.32,0.224 c -1.29,0.126 -2.24,0.812 -2.24,2.114 0,1.204 0.81,2.114 2.35,2.114 1.17,0 2.13,-0.574 2.56,-1.638 V 128 h 0.85 v -4.592 c 0,-1.708 -0.88,-2.576 -2.74,-2.576 -1.75,0 -2.52,0.728 -2.77,1.68 z m 7.2,0.308 c 0,1.498 1.4,1.82 2.62,2.058 0.95,0.196 1.81,0.35 1.81,1.302 0,0.826 -0.73,1.19 -1.77,1.19 -0.88,0 -1.86,-0.266 -2.28,-1.246 l -0.7,0.462 c 0.53,1.176 1.77,1.582 2.96,1.582 1.55,0 2.64,-0.672 2.64,-2.044 0,-1.596 -1.34,-1.82 -2.49,-2.058 -1.02,-0.21 -1.93,-0.392 -1.93,-1.302 0,-0.644 0.63,-1.134 1.71,-1.134 1.02,0 1.65,0.448 1.96,1.092 l 0.71,-0.462 c -0.52,-0.966 -1.47,-1.428 -2.66,-1.428 -1.64,0 -2.58,0.812 -2.58,1.988 z m 6.39,1.68 c 0,2.128 1.54,3.668 3.67,3.668 2.11,0 3.67,-1.54 3.67,-3.668 0,-2.128 -1.56,-3.668 -3.67,-3.668 -2.13,0 -3.67,1.54 -3.67,3.668 z m 6.44,0 c 0,1.666 -1.11,2.842 -2.77,2.842 -1.68,0 -2.79,-1.176 -2.79,-2.842 0,-1.666 1.11,-2.842 2.79,-2.842 1.66,0 2.77,1.176 2.77,2.842 z m 3.42,-1.946 V 121 h -0.83 v 7 h 0.85 v -3.234 c 0,-1.68 0.56,-3.136 2.37,-3.136 1.22,0 1.93,0.826 1.93,2.226 V 128 h 0.88 v -4.088 c 0,-1.848 -0.85,-3.08 -2.64,-3.08 -1.25,0 -2.12,0.7 -2.56,1.722 z m 7.14,-3.682 c 0,0.434 0.34,0.784 0.78,0.784 0.44,0 0.79,-0.35 0.79,-0.784 0,-0.448 -0.35,-0.784 -0.79,-0.784 -0.44,0 -0.78,0.336 -0.78,0.784 z m 0.35,2.128 v 7 h 0.85 v -7 z m 6.17,0.63 c 1.63,0 2.66,1.162 2.66,2.87 0,1.708 -1.03,2.87 -2.66,2.87 -1.66,0 -2.66,-1.246 -2.66,-2.87 0,-1.624 1,-2.87 2.66,-2.87 z m 2.61,-3.43 v 4.326 c -0.47,-0.868 -1.31,-1.694 -2.76,-1.694 -2.06,0 -3.39,1.582 -3.39,3.668 0,2.086 1.33,3.668 3.39,3.668 1.45,0 2.34,-0.826 2.76,-1.694 V 128 h 0.85 v -9.8 z m 2.57,6.3 c 0,2.128 1.54,3.668 3.66,3.668 2.12,0 3.67,-1.54 3.67,-3.668 0,-2.128 -1.55,-3.668 -3.67,-3.668 -2.12,0 -3.66,1.54 -3.66,3.668 z m 6.44,0 c 0,1.666 -1.11,2.842 -2.78,2.842 -1.68,0 -2.78,-1.176 -2.78,-2.842 0,-1.666 1.1,-2.842 2.78,-2.842 1.67,0 2.78,1.176 2.78,2.842 z m 10.15,-2.87 c 1.63,0 2.66,1.162 2.66,2.87 0,1.708 -1.03,2.87 -2.66,2.87 -1.66,0 -2.66,-1.246 -2.66,-2.87 0,-1.624 1,-2.87 2.66,-2.87 z m 2.61,-3.43 v 4.326 c -0.46,-0.868 -1.3,-1.694 -2.76,-1.694 -2.06,0 -3.39,1.582 -3.39,3.668 0,2.086 1.33,3.668 3.39,3.668 1.46,0 2.34,-0.826 2.76,-1.694 V 128 h 0.85 v -9.8 z m 2.57,6.342 c 0,2.198 1.44,3.626 3.55,3.626 1.28,0 2.17,-0.588 2.76,-1.204 l -0.45,-0.672 c -0.54,0.588 -1.28,1.078 -2.35,1.078 -1.44,0 -2.6,-0.938 -2.66,-2.604 l 0.02,-0.098 h 5.88 v -0.252 c 0,-1.932 -1.1,-3.584 -3.31,-3.584 -2.1,0 -3.44,1.624 -3.44,3.71 z m 5.81,-0.56 h -4.92 c 0.17,-1.4 1.07,-2.352 2.57,-2.352 1.49,0 2.28,1.022 2.35,2.352 z m 12.85,-1.26 c -0.28,-1.218 -1.12,-1.89 -2.41,-1.89 -1.23,0 -2.1,0.644 -2.47,1.75 V 121 h -0.82 v 7 h 0.85 v -3.234 c 0,-1.68 0.56,-3.136 2.33,-3.136 1.28,0 1.94,0.826 1.94,2.212 V 128 h 0.87 v -3.29 c 0,-1.666 0.6,-3.08 2.35,-3.08 1.29,0 1.93,0.812 1.93,2.184 V 128 h 0.87 v -4.074 c 0,-1.918 -0.85,-3.094 -2.7,-3.094 -1.33,0 -2.25,0.616 -2.74,1.89 z m 12.23,2.282 c 0,1.162 -0.89,2.338 -2.45,2.338 -1.03,0 -1.57,-0.518 -1.57,-1.316 0,-0.644 0.4,-1.204 1.47,-1.316 l 2.55,-0.28 z m -4.67,-2.492 0.76,0.406 c 0.18,-0.854 0.87,-1.316 2.06,-1.316 1.3,0 1.85,0.602 1.85,1.54 v 0.252 c 0,0.182 -0.1,0.266 -0.35,0.294 l -2.33,0.224 c -1.29,0.126 -2.24,0.812 -2.24,2.114 0,1.204 0.81,2.114 2.35,2.114 1.18,0 2.13,-0.574 2.57,-1.638 V 128 h 0.85 v -4.592 c 0,-1.708 -0.88,-2.576 -2.74,-2.576 -1.75,0 -2.52,0.728 -2.78,1.68 z m 13.19,0.21 c -0.28,-1.218 -1.12,-1.89 -2.41,-1.89 -1.23,0 -2.1,0.644 -2.46,1.75 V 121 h -0.83 v 7 h 0.85 v -3.234 c 0,-1.68 0.56,-3.136 2.33,-3.136 1.29,0 1.94,0.826 1.94,2.212 V 128 h 0.87 v -3.29 c 0,-1.666 0.6,-3.08 2.35,-3.08 1.29,0 1.94,0.812 1.94,2.184 V 128 h 0.86 v -4.074 c 0,-1.918 -0.85,-3.094 -2.7,-3.094 -1.33,0 -2.25,0.616 -2.74,1.89 z m 12.23,2.282 c 0,1.162 -0.88,2.338 -2.45,2.338 -1.02,0 -1.57,-0.518 -1.57,-1.316 0,-0.644 0.41,-1.204 1.47,-1.316 l 2.55,-0.28 z m -4.66,-2.492 0.75,0.406 c 0.18,-0.854 0.87,-1.316 2.06,-1.316 1.3,0 1.85,0.602 1.85,1.54 v 0.252 c 0,0.182 -0.1,0.266 -0.35,0.294 l -2.33,0.224 c -1.28,0.126 -2.24,0.812 -2.24,2.114 0,1.204 0.82,2.114 2.36,2.114 1.17,0 2.12,-0.574 2.56,-1.638 V 128 h 0.85 v -4.592 c 0,-1.708 -0.88,-2.576 -2.74,-2.576 -1.75,0 -2.52,0.728 -2.77,1.68 z m 11.51,2.03 c 0,2.198 1.44,3.626 3.56,3.626 1.27,0 2.17,-0.588 2.76,-1.204 l -0.45,-0.672 c -0.55,0.588 -1.29,1.078 -2.35,1.078 -1.45,0 -2.61,-0.938 -2.66,-2.604 l 0.01,-0.098 h 5.88 v -0.252 c 0,-1.932 -1.09,-3.584 -3.3,-3.584 -2.1,0 -3.45,1.624 -3.45,3.71 z m 5.81,-0.56 h -4.91 c 0.17,-1.4 1.06,-2.352 2.56,-2.352 1.5,0 2.28,1.022 2.35,2.352 z m 3.42,-1.428 V 121 h -0.83 v 7 h 0.86 v -3.234 c 0,-1.68 0.56,-3.136 2.36,-3.136 1.22,0 1.93,0.826 1.93,2.226 V 128 h 0.89 v -4.088 c 0,-1.848 -0.86,-3.08 -2.65,-3.08 -1.25,0 -2.11,0.7 -2.56,1.722 z m -139.21,19.96 c 0,2.128 1.42,3.654 3.63,3.654 1.08,0 1.93,-0.392 2.52,-0.952 l -0.52,-0.672 c -0.53,0.476 -1.24,0.798 -2.01,0.798 -1.59,0 -2.73,-1.134 -2.73,-2.842 0,-1.736 1.13,-2.842 2.74,-2.842 0.74,0 1.4,0.294 1.93,0.77 l 0.55,-0.672 c -0.62,-0.588 -1.43,-0.924 -2.44,-0.924 -2.21,0 -3.67,1.554 -3.67,3.682 z M 76.42,139 v 3.234 c 0,1.624 -0.56,3.136 -2.3,3.136 -1.46,0 -1.9,-0.938 -1.9,-2.254 V 139 h -0.89 v 4.116 c 0,1.792 0.72,3.052 2.65,3.052 1.18,0 2,-0.588 2.46,-1.764 V 146 h 0.83 v -7 z m 7.66,4.004 c 0,1.162 -0.88,2.338 -2.45,2.338 -1.02,0 -1.57,-0.518 -1.57,-1.316 0,-0.644 0.41,-1.204 1.47,-1.316 l 2.55,-0.28 z m -4.66,-2.492 0.75,0.406 c 0.19,-0.854 0.87,-1.316 2.06,-1.316 1.3,0 1.85,0.602 1.85,1.54 v 0.252 c 0,0.182 -0.1,0.266 -0.35,0.294 l -2.32,0.224 c -1.29,0.126 -2.24,0.812 -2.24,2.114 0,1.204 0.81,2.114 2.35,2.114 1.17,0 2.13,-0.574 2.56,-1.638 V 146 h 0.85 v -4.592 c 0,-1.708 -0.88,-2.576 -2.74,-2.576 -1.75,0 -2.52,0.728 -2.77,1.68 z m 7.53,-4.312 v 9.8 h 0.88 v -9.8 z m 9.63,12.6 V 139 h -0.86 v 1.526 c -0.42,-0.868 -1.3,-1.694 -2.75,-1.694 -2.06,0 -3.39,1.582 -3.39,3.668 0,2.086 1.33,3.668 3.39,3.668 1.45,0 2.29,-0.826 2.75,-1.694 v 4.326 z m -6.12,-6.3 c 0,-1.624 0.99,-2.87 2.66,-2.87 1.62,0 2.66,1.162 2.66,2.87 0,1.708 -1.04,2.87 -2.66,2.87 -1.67,0 -2.66,-1.246 -2.66,-2.87 z m 13.49,-3.5 v 3.234 c 0,1.624 -0.56,3.136 -2.3,3.136 -1.45,0 -1.9,-0.938 -1.9,-2.254 V 139 h -0.88 v 4.116 c 0,1.792 0.71,3.052 2.64,3.052 1.18,0 2.01,-0.588 2.47,-1.764 V 146 h 0.82 v -7 z m 2.82,-2.128 c 0,0.434 0.34,0.784 0.78,0.784 0.44,0 0.79,-0.35 0.79,-0.784 0,-0.448 -0.35,-0.784 -0.79,-0.784 -0.44,0 -0.78,0.336 -0.78,0.784 z m 0.35,2.128 v 7 h 0.85 v -7 z m 2.63,3.542 c 0,2.198 1.44,3.626 3.56,3.626 1.27,0 2.17,-0.588 2.75,-1.204 l -0.44,-0.672 c -0.55,0.588 -1.29,1.078 -2.36,1.078 -1.44,0 -2.6,-0.938 -2.66,-2.604 l 0.02,-0.098 h 5.88 v -0.252 c 0,-1.932 -1.09,-3.584 -3.31,-3.584 -2.1,0 -3.44,1.624 -3.44,3.71 z m 5.81,-0.56 h -4.91 c 0.16,-1.4 1.06,-2.352 2.56,-2.352 1.5,0 2.28,1.022 2.35,2.352 z m 3.42,-1.386 V 139 h -0.83 v 7 H 119 v -3.234 c 0,-1.694 0.52,-3.038 2.16,-3.038 0.22,0 0.43,0.014 0.7,0.07 v -0.896 c -0.24,-0.042 -0.48,-0.07 -0.69,-0.07 -1.05,0 -1.83,0.574 -2.19,1.764 z m 14.68,0.126 c -0.28,-1.218 -1.12,-1.89 -2.4,-1.89 -1.24,0 -2.1,0.644 -2.47,1.75 V 139 h -0.82 v 7 h 0.85 v -3.234 c 0,-1.68 0.56,-3.136 2.32,-3.136 1.29,0 1.95,0.826 1.95,2.212 V 146 h 0.87 v -3.29 c 0,-1.666 0.6,-3.08 2.35,-3.08 1.29,0 1.93,0.812 1.93,2.184 V 146 h 0.87 v -4.074 c 0,-1.918 -0.85,-3.094 -2.7,-3.094 -1.33,0 -2.26,0.616 -2.75,1.89 z m 7.14,1.778 c 0,2.128 1.54,3.668 3.67,3.668 2.11,0 3.66,-1.54 3.66,-3.668 0,-2.128 -1.55,-3.668 -3.66,-3.668 -2.13,0 -3.67,1.54 -3.67,3.668 z m 6.44,0 c 0,1.666 -1.11,2.842 -2.77,2.842 -1.68,0 -2.79,-1.176 -2.79,-2.842 0,-1.666 1.11,-2.842 2.79,-2.842 1.66,0 2.77,1.176 2.77,2.842 z m 8.29,-1.778 c -0.28,-1.218 -1.12,-1.89 -2.41,-1.89 -1.23,0 -2.1,0.644 -2.47,1.75 V 139 h -0.82 v 7 h 0.85 v -3.234 c 0,-1.68 0.56,-3.136 2.33,-3.136 1.28,0 1.94,0.826 1.94,2.212 V 146 h 0.87 v -3.29 c 0,-1.666 0.6,-3.08 2.35,-3.08 1.29,0 1.93,0.812 1.93,2.184 V 146 h 0.87 v -4.074 c 0,-1.918 -0.85,-3.094 -2.7,-3.094 -1.33,0 -2.25,0.616 -2.74,1.89 z m 7.13,1.82 c 0,2.198 1.44,3.626 3.56,3.626 1.27,0 2.17,-0.588 2.75,-1.204 l -0.44,-0.672 c -0.55,0.588 -1.29,1.078 -2.36,1.078 -1.44,0 -2.6,-0.938 -2.66,-2.604 l 0.02,-0.098 h 5.88 v -0.252 c 0,-1.932 -1.09,-3.584 -3.31,-3.584 -2.1,0 -3.44,1.624 -3.44,3.71 z m 5.81,-0.56 h -4.91 c 0.16,-1.4 1.06,-2.352 2.56,-2.352 1.5,0 2.28,1.022 2.35,2.352 z m 3.42,-1.428 V 139 h -0.83 v 7 h 0.85 v -3.234 c 0,-1.68 0.56,-3.136 2.37,-3.136 1.22,0 1.93,0.826 1.93,2.226 V 146 h 0.88 v -4.088 c 0,-1.848 -0.85,-3.08 -2.64,-3.08 -1.25,0 -2.12,0.7 -2.56,1.722 z m 10.69,5.376 v -0.756 c -0.32,0.056 -0.6,0.098 -1.04,0.098 -0.77,0 -1.03,-0.364 -1.03,-1.106 v -4.41 h 2.03 V 139 h -2.03 v -1.876 h -0.86 V 139 h -1.47 v 0.756 h 1.47 v 4.368 c 0,1.428 0.62,1.946 1.85,1.946 0.39,0 0.73,-0.056 1.08,-0.14 z m 0.87,-3.43 c 0,2.128 1.54,3.668 3.66,3.668 2.12,0 3.67,-1.54 3.67,-3.668 0,-2.128 -1.55,-3.668 -3.67,-3.668 -2.12,0 -3.66,1.54 -3.66,3.668 z m 6.44,0 c 0,1.666 -1.11,2.842 -2.78,2.842 -1.68,0 -2.78,-1.176 -2.78,-2.842 0,-1.666 1.1,-2.842 2.78,-2.842 1.67,0 2.78,1.176 2.78,2.842 z m 2.98,1.736 c -0.51,0 -0.89,0.392 -0.89,0.882 0,0.504 0.38,0.882 0.89,0.882 0.49,0 0.88,-0.378 0.88,-0.882 0,-0.49 -0.39,-0.882 -0.88,-0.882 z"
     id="path50"
     inkscape:connector-curvature="0"
     style="fill:#4a4d4f" />
  <defs
     id="defs55">
    <clipPath
       id="clip0">
      <rect
         width="240"
         height="204"
         transform="translate(12)"
         id="rect52"
         x="0"
         y="0"
         style="fill:#ffffff" />
    </clipPath>
  </defs>
</svg>
