<?xml version="1.0" encoding="UTF-8" standalone="no"?>
<svg
   xmlns:dc="http://purl.org/dc/elements/1.1/"
   xmlns:cc="http://creativecommons.org/ns#"
   xmlns:rdf="http://www.w3.org/1999/02/22-rdf-syntax-ns#"
   xmlns:svg="http://www.w3.org/2000/svg"
   xmlns="http://www.w3.org/2000/svg"
   xmlns:sodipodi="http://sodipodi.sourceforge.net/DTD/sodipodi-0.dtd"
   xmlns:inkscape="http://www.inkscape.org/namespaces/inkscape"
   width="260"
   height="220"
   viewBox="0 0 260 220"
   version="1.1"
   id="svg57"
   sodipodi:docname="card_2.svg"
   style="fill:none"
   inkscape:version="0.92.2 5c3e80d, 2017-08-06">
  <metadata
     id="metadata61">
    <rdf:RDF>
      <cc:Work
         rdf:about="">
        <dc:format>image/svg+xml</dc:format>
        <dc:type
           rdf:resource="http://purl.org/dc/dcmitype/StillImage" />
        <dc:title></dc:title>
      </cc:Work>
    </rdf:RDF>
  </metadata>
  <sodipodi:namedview
     pagecolor="#ffffff"
     bordercolor="#666666"
     borderopacity="1"
     objecttolerance="10"
     gridtolerance="10"
     guidetolerance="10"
     inkscape:pageopacity="0"
     inkscape:pageshadow="2"
     inkscape:window-width="1081"
     inkscape:window-height="641"
     id="namedview59"
     showgrid="false"
     inkscape:zoom="0.8"
     inkscape:cx="444.30777"
     inkscape:cy="16.521753"
     inkscape:window-x="0"
     inkscape:window-y="0"
     inkscape:window-maximized="0"
     inkscape:current-layer="svg57" />
  <rect
     x="0.5"
     y="27.5"
     width="259"
     height="192"
     id="rect14"
     style="stroke:#ee8d8b" />
  <ellipse
     cx="-24"
     cy="131"
     rx="24"
     ry="40"
     transform="rotate(-90)"
     id="ellipse16"
     style="fill:#ffffff" />
  <path
     d="m 121.182,39.2727 h -5.727 V 8.72727 h 5.727 M 146.001,39.2727 V 8.72727 L 126.91,3 V 45 Z M 132.637,23.6182 v 0.7636 h 0.764 v -0.7636 z"
     id="path18"
     inkscape:connector-curvature="0"
     style="stroke:#ee8d8b;stroke-width:2.34635997;stroke-linecap:round;stroke-linejoin:round" />
  <path
     d="m 63.05,82 5.958,-12.6 h -2.79 L 61.952,78.454 57.668,69.4 h -2.79 L 60.836,82 Z m 6.789,-11.574 c 0,0.864 0.648,1.512 1.512,1.512 0.864,0 1.53,-0.648 1.53,-1.512 0,-0.864 -0.666,-1.53 -1.53,-1.53 -0.864,0 -1.512,0.666 -1.512,1.53 z M 70.163,73 v 9 h 2.376 v -9 z m 4.07,2.646 c 0,1.962 1.656,2.574 2.988,2.844 1.512,0.324 1.998,0.432 1.998,0.918 0,0.504 -0.54,0.684 -1.206,0.684 -1.26,0 -2.25,-0.45 -2.844,-1.17 l -1.386,1.8 c 0.792,1.008 2.268,1.494 3.996,1.494 2.394,0 3.888,-0.882 3.888,-2.934 0,-1.89 -1.314,-2.484 -2.88,-2.826 -1.602,-0.342 -2.088,-0.45 -2.088,-0.9 0,-0.396 0.414,-0.63 1.152,-0.63 0.954,0 1.926,0.36 2.43,0.918 l 1.332,-1.728 c -0.792,-0.81 -1.944,-1.332 -3.582,-1.332 -2.358,0 -3.798,1.044 -3.798,2.862 z m 8.614,-5.22 c 0,0.864 0.648,1.512 1.512,1.512 0.864,0 1.53,-0.648 1.53,-1.512 0,-0.864 -0.666,-1.53 -1.53,-1.53 -0.864,0 -1.512,0.666 -1.512,1.53 z M 83.171,73 v 9 h 2.376 v -9 z m 9.985,8.82 v -2.25 c -0.648,0.108 -0.954,0.144 -1.314,0.144 -0.612,0 -0.9,-0.234 -0.9,-0.81 v -3.906 h 2.286 V 73 H 90.942 V 70.588 H 88.566 V 73 h -1.638 v 1.998 h 1.638 v 4.248 c 0,2.052 0.972,2.844 2.646,2.844 0.594,0 1.278,-0.108 1.944,-0.27 z m 6.8,-3.456 c 0,0.99 -0.81,1.854 -2.07,1.854 -0.828,0 -1.278,-0.378 -1.278,-0.954 0,-0.504 0.378,-0.882 1.116,-0.99 l 2.232,-0.27 z m -5.58,-3.528 1.764,1.26 c 0.342,-0.864 1.314,-1.152 2.25,-1.152 1.062,0 1.566,0.378 1.566,0.9 v 0.144 c 0,0.216 -0.126,0.324 -0.468,0.36 l -2.466,0.216 c -1.656,0.162 -2.88,1.188 -2.88,2.826 0,1.656 1.26,2.808 3.042,2.808 1.404,0 2.304,-0.684 2.772,-1.404 v 1.224 h 2.376 v -5.562 c 0,-2.502 -1.314,-3.654 -3.942,-3.654 -1.962,0 -3.42,0.684 -4.014,2.034 z m 9.758,0.81 c 0,1.962 1.656,2.574 2.988,2.844 1.512,0.324 1.998,0.432 1.998,0.918 0,0.504 -0.54,0.684 -1.206,0.684 -1.26,0 -2.25,-0.45 -2.844,-1.17 l -1.386,1.8 c 0.792,1.008 2.268,1.494 3.996,1.494 2.394,0 3.888,-0.882 3.888,-2.934 0,-1.89 -1.314,-2.484 -2.88,-2.826 -1.602,-0.342 -2.088,-0.45 -2.088,-0.9 0,-0.396 0.414,-0.63 1.152,-0.63 0.954,0 1.926,0.36 2.43,0.918 l 1.332,-1.728 c -0.792,-0.81 -1.944,-1.332 -3.582,-1.332 -2.358,0 -3.798,1.044 -3.798,2.862 z M 118.12,69.4 V 82 h 8.136 v -2.52 h -5.616 v -2.52 h 5.616 v -2.52 h -5.616 v -2.52 h 5.616 V 69.4 Z m 14.572,12.6 4.05,-9 h -2.646 l -2.304,5.58 -2.286,-5.58 h -2.664 l 4.05,9 z m 9.997,-3.636 c 0,0.99 -0.81,1.854 -2.07,1.854 -0.828,0 -1.278,-0.378 -1.278,-0.954 0,-0.504 0.378,-0.882 1.116,-0.99 l 2.232,-0.27 z m -5.58,-3.528 1.764,1.26 c 0.342,-0.864 1.314,-1.152 2.25,-1.152 1.062,0 1.566,0.378 1.566,0.9 v 0.144 c 0,0.216 -0.126,0.324 -0.468,0.36 l -2.466,0.216 c -1.656,0.162 -2.88,1.188 -2.88,2.826 0,1.656 1.26,2.808 3.042,2.808 1.404,0 2.304,-0.684 2.772,-1.404 v 1.224 h 2.376 v -5.562 c 0,-2.502 -1.314,-3.654 -3.942,-3.654 -1.962,0 -3.42,0.684 -4.014,2.034 z m 14.661,0.846 c 0,3.6 2.718,6.318 6.3,6.318 1.89,0 3.492,-0.63 4.752,-1.782 l -1.242,-2.34 c -0.99,1.08 -2.178,1.602 -3.546,1.602 -2.16,0 -3.744,-1.548 -3.744,-3.78 0,-2.232 1.584,-3.78 3.78,-3.78 1.368,0 2.412,0.54 3.348,1.494 l 1.206,-2.304 c -1.206,-1.116 -2.79,-1.71 -4.536,-1.71 -3.6,0 -6.318,2.7 -6.318,6.282 z m 11.717,1.818 c 0,2.682 1.782,4.716 4.824,4.716 1.728,0 2.844,-0.576 3.582,-1.188 l -0.99,-1.962 c -0.63,0.54 -1.476,0.918 -2.556,0.918 -1.044,0 -2.124,-0.522 -2.412,-1.728 l -0.018,-0.036 h 6.624 v -0.648 c 0,-2.898 -1.692,-4.788 -4.446,-4.788 -2.826,0 -4.608,2.052 -4.608,4.716 z m 6.462,-1.008 h -4.05 c 0.234,-1.08 0.99,-1.692 2.124,-1.692 1.152,0 1.818,0.72 1.926,1.692 z m 6.384,-2.196 V 73 h -2.304 v 9 h 2.376 v -4.302 c 0,-1.602 0.576,-2.628 1.962,-2.628 1.008,0 1.638,0.594 1.638,1.944 V 82 h 2.43 v -5.58 c 0,-2.268 -1.08,-3.636 -3.186,-3.636 -1.314,0 -2.286,0.63 -2.916,1.512 z M 189.8,81.82 v -2.25 c -0.648,0.108 -0.954,0.144 -1.314,0.144 -0.612,0 -0.9,-0.234 -0.9,-0.81 v -3.906 h 2.286 V 73 h -2.286 V 70.588 H 185.21 V 73 h -1.638 v 1.998 h 1.638 v 4.248 c 0,2.052 0.972,2.844 2.646,2.844 0.594,0 1.278,-0.108 1.944,-0.27 z m 0.863,-4.32 c 0,2.682 1.782,4.716 4.824,4.716 1.728,0 2.844,-0.576 3.582,-1.188 l -0.99,-1.962 c -0.63,0.54 -1.476,0.918 -2.556,0.918 -1.044,0 -2.124,-0.522 -2.412,-1.728 l -0.018,-0.036 h 6.624 v -0.648 c 0,-2.898 -1.692,-4.788 -4.446,-4.788 -2.826,0 -4.608,2.052 -4.608,4.716 z m 6.462,-1.008 h -4.05 c 0.234,-1.08 0.99,-1.692 2.124,-1.692 1.152,0 1.818,0.72 1.926,1.692 z m 6.366,-2.016 V 73 h -2.286 v 9 h 2.376 v -4.068 c 0,-1.728 0.702,-2.61 2.268,-2.61 0.378,0 0.756,0.036 1.08,0.144 V 72.91 c -0.288,-0.072 -0.558,-0.126 -0.882,-0.126 -1.26,0 -2.07,0.648 -2.556,1.692 z"
     id="path20"
     inkscape:connector-curvature="0"
     style="fill:#4a4d4f" />
  <path
     d="m 52.899,100.2 v 6.748 c 0,1.19 -0.532,2.156 -1.862,2.156 -1.232,0 -1.862,-0.896 -1.918,-2.1 l -0.826,0.42 c 0.028,1.204 0.84,2.576 2.744,2.576 1.708,0 2.758,-1.12 2.758,-3.052 V 100.2 Z m 8.212,2.8 v 3.234 c 0,1.624 -0.56,3.136 -2.296,3.136 -1.456,0 -1.904,-0.938 -1.904,-2.254 V 103 h -0.882 v 4.116 c 0,1.792 0.714,3.052 2.646,3.052 1.176,0 2.002,-0.588 2.464,-1.764 V 110 h 0.826 v -7 z m 3.926,1.554 V 103 h -0.826 v 7 h 0.854 v -3.234 c 0,-1.68 0.56,-3.136 2.366,-3.136 1.218,0 1.932,0.826 1.932,2.226 V 110 h 0.882 v -4.088 c 0,-1.848 -0.854,-3.08 -2.646,-3.08 -1.246,0 -2.114,0.7 -2.562,1.722 z m 10.695,5.376 v -0.756 c -0.322,0.056 -0.602,0.098 -1.036,0.098 -0.77,0 -1.036,-0.364 -1.036,-1.106 v -4.41 h 2.03 V 103 h -2.03 v -1.876 H 72.806 V 103 h -1.47 v 0.756 h 1.47 v 4.368 c 0,1.428 0.616,1.946 1.848,1.946 0.392,0 0.728,-0.056 1.078,-0.14 z m 0.867,-3.43 c 0,2.128 1.54,3.668 3.668,3.668 2.114,0 3.668,-1.54 3.668,-3.668 0,-2.128 -1.554,-3.668 -3.668,-3.668 -2.128,0 -3.668,1.54 -3.668,3.668 z m 6.44,0 c 0,1.666 -1.106,2.842 -2.772,2.842 -1.68,0 -2.786,-1.176 -2.786,-2.842 0,-1.666 1.106,-2.842 2.786,-2.842 1.666,0 2.772,1.176 2.772,2.842 z m 6.616,0.014 c 0,2.128 1.414,3.654 3.626,3.654 1.078,0 1.932,-0.392 2.52,-0.952 l -0.518,-0.672 c -0.532,0.476 -1.246,0.798 -2.016,0.798 -1.582,0 -2.73,-1.134 -2.73,-2.842 0,-1.736 1.134,-2.842 2.744,-2.842 0.742,0 1.4,0.294 1.932,0.77 l 0.546,-0.672 c -0.616,-0.588 -1.428,-0.924 -2.436,-0.924 -2.212,0 -3.668,1.554 -3.668,3.682 z m 7.157,-0.014 c 0,2.128 1.54,3.668 3.668,3.668 2.114,0 3.668,-1.54 3.668,-3.668 0,-2.128 -1.554,-3.668 -3.668,-3.668 -2.128,0 -3.668,1.54 -3.668,3.668 z m 6.44,0 c 0,1.666 -1.106,2.842 -2.772,2.842 -1.68,0 -2.786,-1.176 -2.786,-2.842 0,-1.666 1.106,-2.842 2.786,-2.842 1.666,0 2.772,1.176 2.772,2.842 z m 3.414,-1.946 V 103 h -0.826 v 7 h 0.854 v -3.234 c 0,-1.68 0.56,-3.136 2.366,-3.136 1.218,0 1.932,0.826 1.932,2.226 V 110 h 0.882 v -4.088 c 0,-1.848 -0.854,-3.08 -2.646,-3.08 -1.246,0 -2.114,0.7 -2.562,1.722 z m 15.61,5.376 v -0.756 c -0.322,0.056 -0.602,0.098 -1.036,0.098 -0.77,0 -1.036,-0.364 -1.036,-1.106 v -4.41 h 2.03 V 103 h -2.03 v -1.876 H 119.35 V 103 h -1.47 v 0.756 h 1.47 v 4.368 c 0,1.428 0.616,1.946 1.848,1.946 0.392,0 0.728,-0.056 1.078,-0.14 z m 6.549,-6.93 v 3.234 c 0,1.624 -0.56,3.136 -2.296,3.136 -1.456,0 -1.904,-0.938 -1.904,-2.254 V 103 h -0.882 v 4.116 c 0,1.792 0.714,3.052 2.646,3.052 1.176,0 2.002,-0.588 2.464,-1.764 V 110 h 0.826 v -7 z m 7.8,-2.8 v 9.8 h 3.276 c 2.786,0 4.9,-2.072 4.9,-4.9 0,-2.828 -2.114,-4.9 -4.9,-4.9 z m 7.28,4.9 c 0,2.324 -1.694,4.004 -4.004,4.004 h -2.38 v -8.008 h 2.38 c 2.31,0 4.004,1.68 4.004,4.004 z m 2.322,1.4 c 0,2.128 1.54,3.668 3.668,3.668 2.114,0 3.668,-1.54 3.668,-3.668 0,-2.128 -1.554,-3.668 -3.668,-3.668 -2.128,0 -3.668,1.54 -3.668,3.668 z m 6.44,0 c 0,1.666 -1.106,2.842 -2.772,2.842 -1.68,0 -2.786,-1.176 -2.786,-2.842 0,-1.666 1.106,-2.842 2.786,-2.842 1.666,0 2.772,1.176 2.772,2.842 z m 2.057,0.014 c 0,2.128 1.414,3.654 3.626,3.654 1.078,0 1.932,-0.392 2.52,-0.952 l -0.518,-0.672 c -0.532,0.476 -1.246,0.798 -2.016,0.798 -1.582,0 -2.73,-1.134 -2.73,-2.842 0,-1.736 1.134,-2.842 2.744,-2.842 0.742,0 1.4,0.294 1.932,0.77 l 0.546,-0.672 c -0.616,-0.588 -1.428,-0.924 -2.436,-0.924 -2.212,0 -3.668,1.554 -3.668,3.682 z m 11.314,3.416 v -0.756 c -0.322,0.056 -0.602,0.098 -1.036,0.098 -0.77,0 -1.036,-0.364 -1.036,-1.106 v -4.41 h 2.03 V 103 h -2.03 v -1.876 h -0.854 V 103 h -1.47 v 0.756 h 1.47 v 4.368 c 0,1.428 0.616,1.946 1.848,1.946 0.392,0 0.728,-0.056 1.078,-0.14 z m 0.867,-3.43 c 0,2.128 1.54,3.668 3.668,3.668 2.114,0 3.668,-1.54 3.668,-3.668 0,-2.128 -1.554,-3.668 -3.668,-3.668 -2.128,0 -3.668,1.54 -3.668,3.668 z m 6.44,0 c 0,1.666 -1.106,2.842 -2.772,2.842 -1.68,0 -2.786,-1.176 -2.786,-2.842 0,-1.666 1.106,-2.842 2.786,-2.842 1.666,0 2.772,1.176 2.772,2.842 z m 3.414,-1.904 V 103 h -0.826 v 7 h 0.854 v -3.234 c 0,-1.694 0.518,-3.038 2.156,-3.038 0.224,0 0.434,0.014 0.7,0.07 v -0.896 c -0.238,-0.042 -0.476,-0.07 -0.686,-0.07 -1.05,0 -1.834,0.574 -2.198,1.764 z m 8.599,2.408 c 0,1.162 -0.882,2.338 -2.45,2.338 -1.022,0 -1.568,-0.518 -1.568,-1.316 0,-0.644 0.406,-1.204 1.47,-1.316 l 2.548,-0.28 z m -4.662,-2.492 0.756,0.406 c 0.182,-0.854 0.868,-1.316 2.058,-1.316 1.302,0 1.848,0.602 1.848,1.54 v 0.252 c 0,0.182 -0.098,0.266 -0.35,0.294 l -2.324,0.224 c -1.288,0.126 -2.24,0.812 -2.24,2.114 0,1.204 0.812,2.114 2.352,2.114 1.176,0 2.128,-0.574 2.562,-1.638 V 110 h 0.854 v -4.592 c 0,-1.708 -0.882,-2.576 -2.744,-2.576 -1.75,0 -2.52,0.728 -2.772,1.68 z m 12.186,-4.312 v 9.8 h 5.852 v -0.896 h -4.956 v -3.556 h 4.956 v -0.896 h -4.956 v -3.556 h 4.956 V 100.2 Z m 10.49,9.8 3.08,-7 h -0.994 l -2.422,5.824 -2.422,-5.824 h -1.008 l 3.08,7 z m 8.699,-2.996 c 0,1.162 -0.882,2.338 -2.45,2.338 -1.022,0 -1.568,-0.518 -1.568,-1.316 0,-0.644 0.406,-1.204 1.47,-1.316 l 2.548,-0.28 z m -4.662,-2.492 0.756,0.406 c 0.182,-0.854 0.868,-1.316 2.058,-1.316 1.302,0 1.848,0.602 1.848,1.54 v 0.252 c 0,0.182 -0.098,0.266 -0.35,0.294 l -2.324,0.224 c -1.288,0.126 -2.24,0.812 -2.24,2.114 0,1.204 0.812,2.114 2.352,2.114 1.176,0 2.128,-0.574 2.562,-1.638 V 110 h 0.854 v -4.592 c 0,-1.708 -0.882,-2.576 -2.744,-2.576 -1.75,0 -2.52,0.728 -2.772,1.68 z M 40.544,125.004 c 0,1.162 -0.882,2.338 -2.45,2.338 -1.022,0 -1.568,-0.518 -1.568,-1.316 0,-0.644 0.406,-1.204 1.47,-1.316 l 2.548,-0.28 z m -4.662,-2.492 0.756,0.406 c 0.182,-0.854 0.868,-1.316 2.058,-1.316 1.302,0 1.848,0.602 1.848,1.54 v 0.252 c 0,0.182 -0.098,0.266 -0.35,0.294 l -2.324,0.224 c -1.288,0.126 -2.24,0.812 -2.24,2.114 0,1.204 0.812,2.114 2.352,2.114 1.176,0 2.128,-0.574 2.562,-1.638 V 128 h 0.854 v -4.592 c 0,-1.708 -0.882,-2.576 -2.744,-2.576 -1.75,0 -2.52,0.728 -2.772,1.68 z m 13.256,1.988 c 0,1.708 -1.022,2.87 -2.646,2.87 -1.652,0 -2.674,-1.246 -2.674,-2.87 0,-1.624 1.022,-2.87 2.674,-2.87 1.624,0 2.646,1.162 2.646,2.87 z m -6.216,0 c 0,2.086 1.274,3.668 3.444,3.668 1.442,0 2.366,-0.812 2.744,-1.652 v 1.106 c 0,1.386 -0.532,2.604 -2.492,2.604 -1.274,0 -2.03,-0.504 -2.52,-1.386 l -0.658,0.546 c 0.518,0.924 1.4,1.596 3.122,1.596 2.688,0 3.374,-1.666 3.374,-3.36 V 121 h -0.868 v 1.484 c -0.336,-0.812 -1.232,-1.652 -2.716,-1.652 -2.072,0 -3.43,1.582 -3.43,3.668 z m 8.699,0.042 c 0,2.198 1.442,3.626 3.556,3.626 1.274,0 2.17,-0.588 2.758,-1.204 l -0.448,-0.672 c -0.546,0.588 -1.288,1.078 -2.352,1.078 -1.442,0 -2.604,-0.938 -2.66,-2.604 l 0.014,-0.098 h 5.88 v -0.252 c 0,-1.932 -1.092,-3.584 -3.304,-3.584 -2.1,0 -3.444,1.624 -3.444,3.71 z m 5.81,-0.56 h -4.914 c 0.168,-1.4 1.064,-2.352 2.562,-2.352 1.498,0 2.282,1.022 2.352,2.352 z m 3.416,-1.428 V 121 h -0.826 v 7 h 0.854 v -3.234 c 0,-1.68 0.56,-3.136 2.366,-3.136 1.218,0 1.932,0.826 1.932,2.226 V 128 h 0.882 v -4.088 c 0,-1.848 -0.854,-3.08 -2.646,-3.08 -1.246,0 -2.114,0.7 -2.562,1.722 z m 10.435,-0.924 c 1.624,0 2.66,1.162 2.66,2.87 0,1.708 -1.036,2.87 -2.66,2.87 -1.666,0 -2.66,-1.246 -2.66,-2.87 0,-1.624 0.994,-2.87 2.66,-2.87 z m 2.604,-3.43 v 4.326 c -0.462,-0.868 -1.302,-1.694 -2.758,-1.694 -2.058,0 -3.388,1.582 -3.388,3.668 0,2.086 1.33,3.668 3.388,3.668 1.456,0 2.338,-0.826 2.758,-1.694 V 128 h 0.854 v -9.8 z m 7.707,6.804 c 0,1.162 -0.882,2.338 -2.45,2.338 -1.022,0 -1.568,-0.518 -1.568,-1.316 0,-0.644 0.406,-1.204 1.47,-1.316 l 2.548,-0.28 z m -4.662,-2.492 0.756,0.406 c 0.182,-0.854 0.868,-1.316 2.058,-1.316 1.302,0 1.848,0.602 1.848,1.54 v 0.252 c 0,0.182 -0.098,0.266 -0.35,0.294 l -2.324,0.224 c -1.288,0.126 -2.24,0.812 -2.24,2.114 0,1.204 0.812,2.114 2.352,2.114 1.176,0 2.128,-0.574 2.562,-1.638 V 128 h 0.854 v -4.592 c 0,-1.708 -0.882,-2.576 -2.744,-2.576 -1.75,0 -2.52,0.728 -2.772,1.68 z m 8.313,0.084 V 121 h -0.826 v 7 h 0.854 v -3.234 c 0,-1.694 0.518,-3.038 2.156,-3.038 0.224,0 0.434,0.014 0.7,0.07 v -0.896 c -0.238,-0.042 -0.476,-0.07 -0.686,-0.07 -1.05,0 -1.834,0.574 -2.198,1.764 z m 5.154,-3.43 0.392,0.602 2.982,-1.876 -0.406,-0.63 z m 3.444,5.838 c 0,1.162 -0.882,2.338 -2.45,2.338 -1.022,0 -1.568,-0.518 -1.568,-1.316 0,-0.644 0.406,-1.204 1.47,-1.316 l 2.548,-0.28 z m -4.662,-2.492 0.756,0.406 c 0.182,-0.854 0.868,-1.316 2.058,-1.316 1.302,0 1.848,0.602 1.848,1.54 v 0.252 c 0,0.182 -0.098,0.266 -0.35,0.294 l -2.324,0.224 c -1.288,0.126 -2.24,0.812 -2.24,2.114 0,1.204 0.812,2.114 2.352,2.114 1.176,0 2.128,-0.574 2.562,-1.638 V 128 h 0.854 v -4.592 c 0,-1.708 -0.882,-2.576 -2.744,-2.576 -1.75,0 -2.52,0.728 -2.772,1.68 z m 7.207,0.308 c 0,1.498 1.4,1.82 2.618,2.058 0.952,0.196 1.806,0.35 1.806,1.302 0,0.826 -0.728,1.19 -1.764,1.19 -0.882,0 -1.862,-0.266 -2.282,-1.246 l -0.7,0.462 c 0.532,1.176 1.764,1.582 2.954,1.582 1.554,0 2.646,-0.672 2.646,-2.044 0,-1.596 -1.344,-1.82 -2.492,-2.058 -1.022,-0.21 -1.932,-0.392 -1.932,-1.302 0,-0.644 0.63,-1.134 1.708,-1.134 1.022,0 1.652,0.448 1.96,1.092 l 0.714,-0.462 c -0.518,-0.966 -1.47,-1.428 -2.66,-1.428 -1.638,0 -2.576,0.812 -2.576,1.988 z m 15.103,5.11 v -0.756 c -0.322,0.056 -0.602,0.098 -1.036,0.098 -0.77,0 -1.036,-0.364 -1.036,-1.106 v -4.41 h 2.03 V 121 h -2.03 v -1.876 h -0.854 V 121 h -1.47 v 0.756 h 1.47 v 4.368 c 0,1.428 0.616,1.946 1.848,1.946 0.392,0 0.728,-0.056 1.078,-0.14 z m 6.549,-6.93 v 3.234 c 0,1.624 -0.56,3.136 -2.296,3.136 -1.456,0 -1.904,-0.938 -1.904,-2.254 V 121 h -0.882 v 4.116 c 0,1.792 0.714,3.052 2.646,3.052 1.176,0 2.002,-0.588 2.464,-1.764 V 128 h 0.826 v -7 z m 2.82,1.82 c 0,1.498 1.4,1.82 2.618,2.058 0.952,0.196 1.806,0.35 1.806,1.302 0,0.826 -0.728,1.19 -1.764,1.19 -0.882,0 -1.862,-0.266 -2.282,-1.246 l -0.7,0.462 c 0.532,1.176 1.764,1.582 2.954,1.582 1.554,0 2.646,-0.672 2.646,-2.044 0,-1.596 -1.344,-1.82 -2.492,-2.058 -1.022,-0.21 -1.932,-0.392 -1.932,-1.302 0,-0.644 0.63,-1.134 1.708,-1.134 1.022,0 1.652,0.448 1.96,1.092 l 0.714,-0.462 c -0.518,-0.966 -1.47,-1.428 -2.66,-1.428 -1.638,0 -2.576,0.812 -2.576,1.988 z m 16.685,-4.62 -5.768,6.804 v 0.826 h 5.642 V 128 h 0.896 v -2.17 h 1.988 v -0.896 h -1.988 V 118.2 Z m -0.126,6.734 h -4.382 l 4.382,-5.18 z m 12.253,3.066 3.08,-7 h -0.994 l -2.422,5.824 -2.422,-5.824 h -1.008 l 3.08,7 z m 4.211,-9.128 c 0,0.434 0.336,0.784 0.784,0.784 0.434,0 0.784,-0.35 0.784,-0.784 0,-0.448 -0.35,-0.784 -0.784,-0.784 -0.448,0 -0.784,0.336 -0.784,0.784 z m 0.35,2.128 v 7 h 0.854 v -7 z m 2.61,1.82 c 0,1.498 1.4,1.82 2.618,2.058 0.952,0.196 1.806,0.35 1.806,1.302 0,0.826 -0.728,1.19 -1.764,1.19 -0.882,0 -1.862,-0.266 -2.282,-1.246 l -0.7,0.462 c 0.532,1.176 1.764,1.582 2.954,1.582 1.554,0 2.646,-0.672 2.646,-2.044 0,-1.596 -1.344,-1.82 -2.492,-2.058 -1.022,-0.21 -1.932,-0.392 -1.932,-1.302 0,-0.644 0.63,-1.134 1.708,-1.134 1.022,0 1.652,0.448 1.96,1.092 l 0.714,-0.462 c -0.518,-0.966 -1.47,-1.428 -2.66,-1.428 -1.638,0 -2.576,0.812 -2.576,1.988 z m 6.637,-3.948 c 0,0.434 0.336,0.784 0.784,0.784 0.434,0 0.784,-0.35 0.784,-0.784 0,-0.448 -0.35,-0.784 -0.784,-0.784 -0.448,0 -0.784,0.336 -0.784,0.784 z m 0.35,2.128 v 7 h 0.854 v -7 z m 6.789,6.93 v -0.756 c -0.322,0.056 -0.602,0.098 -1.036,0.098 -0.77,0 -1.036,-0.364 -1.036,-1.106 v -4.41 h 2.03 V 121 h -2.03 v -1.876 h -0.854 V 121 h -1.47 v 0.756 h 1.47 v 4.368 c 0,1.428 0.616,1.946 1.848,1.946 0.392,0 0.728,-0.056 1.078,-0.14 z m 6.031,-2.926 c 0,1.162 -0.882,2.338 -2.45,2.338 -1.022,0 -1.568,-0.518 -1.568,-1.316 0,-0.644 0.406,-1.204 1.47,-1.316 l 2.548,-0.28 z m -4.662,-2.492 0.756,0.406 c 0.182,-0.854 0.868,-1.316 2.058,-1.316 1.302,0 1.848,0.602 1.848,1.54 v 0.252 c 0,0.182 -0.098,0.266 -0.35,0.294 l -2.324,0.224 c -1.288,0.126 -2.24,0.812 -2.24,2.114 0,1.204 0.812,2.114 2.352,2.114 1.176,0 2.128,-0.574 2.562,-1.638 V 128 h 0.854 v -4.592 c 0,-1.708 -0.882,-2.576 -2.744,-2.576 -1.75,0 -2.52,0.728 -2.772,1.68 z m 7.207,0.308 c 0,1.498 1.4,1.82 2.618,2.058 0.952,0.196 1.806,0.35 1.806,1.302 0,0.826 -0.728,1.19 -1.764,1.19 -0.882,0 -1.862,-0.266 -2.282,-1.246 l -0.7,0.462 c 0.532,1.176 1.764,1.582 2.954,1.582 1.554,0 2.646,-0.672 2.646,-2.044 0,-1.596 -1.344,-1.82 -2.492,-2.058 -1.022,-0.21 -1.932,-0.392 -1.932,-1.302 0,-0.644 0.63,-1.134 1.708,-1.134 1.022,0 1.652,0.448 1.96,1.092 l 0.714,-0.462 c -0.518,-0.966 -1.47,-1.428 -2.66,-1.428 -1.638,0 -2.576,0.812 -2.576,1.988 z m 16.041,2.184 c 0,1.162 -0.882,2.338 -2.45,2.338 -1.022,0 -1.568,-0.518 -1.568,-1.316 0,-0.644 0.406,-1.204 1.47,-1.316 l 2.548,-0.28 z m -4.662,-2.492 0.756,0.406 c 0.182,-0.854 0.868,-1.316 2.058,-1.316 1.302,0 1.848,0.602 1.848,1.54 v 0.252 c 0,0.182 -0.098,0.266 -0.35,0.294 l -2.324,0.224 c -1.288,0.126 -2.24,0.812 -2.24,2.114 0,1.204 0.812,2.114 2.352,2.114 1.176,0 2.128,-0.574 2.562,-1.638 V 128 h 0.854 v -4.592 c 0,-1.708 -0.882,-2.576 -2.744,-2.576 -1.75,0 -2.52,0.728 -2.772,1.68 z m 7.529,-4.312 v 9.8 h 0.882 v -9.8 z m 7.863,0 v 9.8 h 5.852 v -0.896 h -4.956 v -3.556 h 4.956 v -0.896 h -4.956 v -3.556 h 4.956 V 118.2 Z m 10.49,9.8 3.08,-7 h -0.994 l -2.422,5.824 -2.422,-5.824 h -1.008 l 3.08,7 z m 8.699,-2.996 c 0,1.162 -0.882,2.338 -2.45,2.338 -1.022,0 -1.568,-0.518 -1.568,-1.316 0,-0.644 0.406,-1.204 1.47,-1.316 l 2.548,-0.28 z m -4.662,-2.492 0.756,0.406 c 0.182,-0.854 0.868,-1.316 2.058,-1.316 1.302,0 1.848,0.602 1.848,1.54 v 0.252 c 0,0.182 -0.098,0.266 -0.35,0.294 l -2.324,0.224 c -1.288,0.126 -2.24,0.812 -2.24,2.114 0,1.204 0.812,2.114 2.352,2.114 1.176,0 2.128,-0.574 2.562,-1.638 V 128 h 0.854 v -4.592 c 0,-1.708 -0.882,-2.576 -2.744,-2.576 -1.75,0 -2.52,0.728 -2.772,1.68 z M 28.164,141.086 c 0,2.814 2.128,4.914 4.844,4.914 1.442,0 2.59,-0.49 3.514,-1.302 l -0.406,-0.854 c -0.742,0.686 -1.736,1.26 -3.108,1.26 -2.254,0 -3.948,-1.652 -3.948,-4.004 0,-2.352 1.68,-4.004 3.976,-4.004 1.302,0 2.212,0.532 2.968,1.232 l 0.392,-0.854 c -0.882,-0.756 -1.96,-1.274 -3.332,-1.274 -2.786,0 -4.9,2.1 -4.9,4.886 z m 9.366,1.456 c 0,2.198 1.442,3.626 3.556,3.626 1.274,0 2.17,-0.588 2.758,-1.204 l -0.448,-0.672 c -0.546,0.588 -1.288,1.078 -2.352,1.078 -1.442,0 -2.604,-0.938 -2.66,-2.604 l 0.014,-0.098 h 5.88 v -0.252 c 0,-1.932 -1.092,-3.584 -3.304,-3.584 -2.1,0 -3.444,1.624 -3.444,3.71 z m 5.81,-0.56 h -4.914 c 0.168,-1.4 1.064,-2.352 2.562,-2.352 1.498,0 2.282,1.022 2.352,2.352 z m 3.415,-1.428 V 139 h -0.826 v 7 h 0.854 v -3.234 c 0,-1.68 0.56,-3.136 2.366,-3.136 1.218,0 1.932,0.826 1.932,2.226 V 146 h 0.882 v -4.088 c 0,-1.848 -0.854,-3.08 -2.646,-3.08 -1.246,0 -2.114,0.7 -2.562,1.722 z m 10.696,5.376 v -0.756 c -0.322,0.056 -0.602,0.098 -1.036,0.098 -0.77,0 -1.036,-0.364 -1.036,-1.106 v -4.41 h 2.03 V 139 h -2.03 v -1.876 H 54.525 V 139 h -1.47 v 0.756 h 1.47 v 4.368 c 0,1.428 0.616,1.946 1.848,1.946 0.392,0 0.728,-0.056 1.078,-0.14 z m 0.866,-3.388 c 0,2.198 1.442,3.626 3.556,3.626 1.274,0 2.17,-0.588 2.758,-1.204 l -0.448,-0.672 c -0.546,0.588 -1.288,1.078 -2.352,1.078 -1.442,0 -2.604,-0.938 -2.66,-2.604 l 0.014,-0.098 h 5.88 v -0.252 c 0,-1.932 -1.092,-3.584 -3.304,-3.584 -2.1,0 -3.444,1.624 -3.444,3.71 z m 5.81,-0.56 h -4.914 c 0.168,-1.4 1.064,-2.352 2.562,-2.352 1.498,0 2.282,1.022 2.352,2.352 z m 3.416,-1.386 V 139 h -0.826 v 7 h 0.854 v -3.234 c 0,-1.694 0.518,-3.038 2.156,-3.038 0.224,0 0.434,0.014 0.7,0.07 v -0.896 c -0.238,-0.042 -0.476,-0.07 -0.686,-0.07 -1.05,0 -1.834,0.574 -2.198,1.764 z m 12.49,4.774 c -1.624,0 -2.66,-1.162 -2.66,-2.87 0,-1.708 1.036,-2.87 2.66,-2.87 1.666,0 2.66,1.246 2.66,2.87 0,1.624 -0.994,2.87 -2.66,2.87 z m -2.604,3.43 v -4.326 c 0.462,0.868 1.302,1.694 2.758,1.694 2.058,0 3.388,-1.582 3.388,-3.668 0,-2.086 -1.33,-3.668 -3.388,-3.668 -1.456,0 -2.338,0.826 -2.758,1.694 V 139 h -0.854 v 9.8 z m 12.424,-5.796 c 0,1.162 -0.882,2.338 -2.45,2.338 -1.022,0 -1.568,-0.518 -1.568,-1.316 0,-0.644 0.406,-1.204 1.47,-1.316 l 2.548,-0.28 z m -4.662,-2.492 0.756,0.406 c 0.182,-0.854 0.868,-1.316 2.058,-1.316 1.302,0 1.848,0.602 1.848,1.54 v 0.252 c 0,0.182 -0.098,0.266 -0.35,0.294 l -2.324,0.224 c -1.288,0.126 -2.24,0.812 -2.24,2.114 0,1.204 0.812,2.114 2.352,2.114 1.176,0 2.128,-0.574 2.562,-1.638 V 146 h 0.854 v -4.592 c 0,-1.708 -0.882,-2.576 -2.744,-2.576 -1.75,0 -2.52,0.728 -2.772,1.68 z m 8.314,0.084 V 139 h -0.826 v 7 h 0.854 v -3.234 c 0,-1.694 0.518,-3.038 2.156,-3.038 0.224,0 0.434,0.014 0.7,0.07 v -0.896 c -0.238,-0.042 -0.476,-0.07 -0.686,-0.07 -1.05,0 -1.834,0.574 -2.198,1.764 z m 8.598,2.408 c 0,1.162 -0.882,2.338 -2.45,2.338 -1.022,0 -1.568,-0.518 -1.568,-1.316 0,-0.644 0.406,-1.204 1.47,-1.316 l 2.548,-0.28 z m -4.662,-2.492 0.756,0.406 c 0.182,-0.854 0.868,-1.316 2.058,-1.316 1.302,0 1.848,0.602 1.848,1.54 v 0.252 c 0,0.182 -0.098,0.266 -0.35,0.294 l -2.324,0.224 c -1.288,0.126 -2.24,0.812 -2.24,2.114 0,1.204 0.812,2.114 2.352,2.114 1.176,0 2.128,-0.574 2.562,-1.638 V 146 h 0.854 v -4.592 c 0,-1.708 -0.882,-2.576 -2.744,-2.576 -1.75,0 -2.52,0.728 -2.772,1.68 z m 17.744,0.21 c -0.28,-1.218 -1.12,-1.89 -2.408,-1.89 -1.232,0 -2.1,0.644 -2.464,1.75 V 139 h -0.826 v 7 h 0.854 v -3.234 c 0,-1.68 0.56,-3.136 2.324,-3.136 1.288,0 1.946,0.826 1.946,2.212 V 146 h 0.868 v -3.29 c 0,-1.666 0.602,-3.08 2.352,-3.08 1.288,0 1.932,0.812 1.932,2.184 V 146 h 0.868 v -4.074 c 0,-1.918 -0.854,-3.094 -2.702,-3.094 -1.33,0 -2.254,0.616 -2.744,1.89 z m 7.134,1.778 c 0,2.128 1.54,3.668 3.668,3.668 2.114,0 3.668,-1.54 3.668,-3.668 0,-2.128 -1.554,-3.668 -3.668,-3.668 -2.128,0 -3.668,1.54 -3.668,3.668 z m 6.44,0 c 0,1.666 -1.106,2.842 -2.772,2.842 -1.68,0 -2.786,-1.176 -2.786,-2.842 0,-1.666 1.106,-2.842 2.786,-2.842 1.666,0 2.772,1.176 2.772,2.842 z m 3.415,-1.946 V 139 h -0.826 v 7 h 0.854 v -3.234 c 0,-1.68 0.56,-3.136 2.366,-3.136 1.218,0 1.932,0.826 1.932,2.226 V 146 h 0.882 v -4.088 c 0,-1.848 -0.854,-3.08 -2.646,-3.08 -1.246,0 -2.114,0.7 -2.562,1.722 z m 7.145,-3.682 c 0,0.434 0.336,0.784 0.784,0.784 0.434,0 0.784,-0.35 0.784,-0.784 0,-0.448 -0.35,-0.784 -0.784,-0.784 -0.448,0 -0.784,0.336 -0.784,0.784 z m 0.35,2.128 v 7 h 0.854 v -7 z m 6.789,6.93 v -0.756 c -0.322,0.056 -0.602,0.098 -1.036,0.098 -0.77,0 -1.036,-0.364 -1.036,-1.106 v -4.41 h 2.03 V 139 h -2.03 v -1.876 h -0.854 V 139 h -1.47 v 0.756 h 1.47 v 4.368 c 0,1.428 0.616,1.946 1.848,1.946 0.392,0 0.728,-0.056 1.078,-0.14 z m 0.866,-3.43 c 0,2.128 1.54,3.668 3.668,3.668 2.114,0 3.668,-1.54 3.668,-3.668 0,-2.128 -1.554,-3.668 -3.668,-3.668 -2.128,0 -3.668,1.54 -3.668,3.668 z m 6.44,0 c 0,1.666 -1.106,2.842 -2.772,2.842 -1.68,0 -2.786,-1.176 -2.786,-2.842 0,-1.666 1.106,-2.842 2.786,-2.842 1.666,0 2.772,1.176 2.772,2.842 z m 3.415,-1.904 V 139 h -0.826 v 7 h 0.854 v -3.234 c 0,-1.694 0.518,-3.038 2.156,-3.038 0.224,0 0.434,0.014 0.7,0.07 v -0.896 c -0.238,-0.042 -0.476,-0.07 -0.686,-0.07 -1.05,0 -1.834,0.574 -2.198,1.764 z m 3.406,1.946 c 0,2.198 1.442,3.626 3.556,3.626 1.274,0 2.17,-0.588 2.758,-1.204 l -0.448,-0.672 c -0.546,0.588 -1.288,1.078 -2.352,1.078 -1.442,0 -2.604,-0.938 -2.66,-2.604 l 0.014,-0.098 h 5.88 v -0.252 c 0,-1.932 -1.092,-3.584 -3.304,-3.584 -2.1,0 -3.444,1.624 -3.444,3.71 z m 5.81,-0.56 h -4.914 c 0.168,-1.4 1.064,-2.352 2.562,-2.352 1.498,0 2.282,1.022 2.352,2.352 z m 7.154,1.022 c 0,1.162 -0.882,2.338 -2.45,2.338 -1.022,0 -1.568,-0.518 -1.568,-1.316 0,-0.644 0.406,-1.204 1.47,-1.316 l 2.548,-0.28 z m -4.662,-2.492 0.756,0.406 c 0.182,-0.854 0.868,-1.316 2.058,-1.316 1.302,0 1.848,0.602 1.848,1.54 v 0.252 c 0,0.182 -0.098,0.266 -0.35,0.294 l -2.324,0.224 c -1.288,0.126 -2.24,0.812 -2.24,2.114 0,1.204 0.812,2.114 2.352,2.114 1.176,0 2.128,-0.574 2.562,-1.638 V 146 h 0.854 v -4.592 c 0,-1.708 -0.882,-2.576 -2.744,-2.576 -1.75,0 -2.52,0.728 -2.772,1.68 z m 8.314,0.084 V 139 h -0.826 v 7 h 0.854 v -3.234 c 0,-1.694 0.518,-3.038 2.156,-3.038 0.224,0 0.434,0.014 0.7,0.07 v -0.896 c -0.238,-0.042 -0.476,-0.07 -0.686,-0.07 -1.05,0 -1.834,0.574 -2.198,1.764 z m 9.031,-4.396 v 9.8 h 0.882 v -9.8 z m 7.728,6.804 c 0,1.162 -0.882,2.338 -2.45,2.338 -1.022,0 -1.568,-0.518 -1.568,-1.316 0,-0.644 0.406,-1.204 1.47,-1.316 l 2.548,-0.28 z m -4.662,-2.492 0.756,0.406 c 0.182,-0.854 0.868,-1.316 2.058,-1.316 1.302,0 1.848,0.602 1.848,1.54 v 0.252 c 0,0.182 -0.098,0.266 -0.35,0.294 l -2.324,0.224 c -1.288,0.126 -2.24,0.812 -2.24,2.114 0,1.204 0.812,2.114 2.352,2.114 1.176,0 2.128,-0.574 2.562,-1.638 V 146 h 0.854 v -4.592 c 0,-1.708 -0.882,-2.576 -2.744,-2.576 -1.75,0 -2.52,0.728 -2.772,1.68 z m 11.767,0.308 c 0,1.498 1.4,1.82 2.618,2.058 0.952,0.196 1.806,0.35 1.806,1.302 0,0.826 -0.728,1.19 -1.764,1.19 -0.882,0 -1.862,-0.266 -2.282,-1.246 l -0.7,0.462 c 0.532,1.176 1.764,1.582 2.954,1.582 1.554,0 2.646,-0.672 2.646,-2.044 0,-1.596 -1.344,-1.82 -2.492,-2.058 -1.022,-0.21 -1.932,-0.392 -1.932,-1.302 0,-0.644 0.63,-1.134 1.708,-1.134 1.022,0 1.652,0.448 1.96,1.092 l 0.714,-0.462 c -0.518,-0.966 -1.47,-1.428 -2.66,-1.428 -1.638,0 -2.576,0.812 -2.576,1.988 z m 11.481,2.184 c 0,1.162 -0.882,2.338 -2.45,2.338 -1.022,0 -1.568,-0.518 -1.568,-1.316 0,-0.644 0.406,-1.204 1.47,-1.316 l 2.548,-0.28 z m -4.662,-2.492 0.756,0.406 c 0.182,-0.854 0.868,-1.316 2.058,-1.316 1.302,0 1.848,0.602 1.848,1.54 v 0.252 c 0,0.182 -0.098,0.266 -0.35,0.294 l -2.324,0.224 c -1.288,0.126 -2.24,0.812 -2.24,2.114 0,1.204 0.812,2.114 2.352,2.114 1.176,0 2.128,-0.574 2.562,-1.638 V 146 h 0.854 v -4.592 c 0,-1.708 -0.882,-2.576 -2.744,-2.576 -1.75,0 -2.52,0.728 -2.772,1.68 z m 7.53,-4.312 v 9.8 h 0.882 v -9.8 z m 8.245,2.8 v 3.234 c 0,1.624 -0.56,3.136 -2.296,3.136 -1.456,0 -1.904,-0.938 -1.904,-2.254 V 139 h -0.882 v 4.116 c 0,1.792 0.714,3.052 2.646,3.052 1.176,0 2.002,-0.588 2.464,-1.764 V 146 h 0.826 v -7 z m 6.111,0.63 c 1.624,0 2.66,1.162 2.66,2.87 0,1.708 -1.036,2.87 -2.66,2.87 -1.666,0 -2.66,-1.246 -2.66,-2.87 0,-1.624 0.994,-2.87 2.66,-2.87 z m 2.604,-3.43 v 4.326 c -0.462,-0.868 -1.302,-1.694 -2.758,-1.694 -2.058,0 -3.388,1.582 -3.388,3.668 0,2.086 1.33,3.668 3.388,3.668 1.456,0 2.338,-0.826 2.758,-1.694 V 146 h 0.854 v -9.8 z m -145.47,21.43 c 1.624,0 2.66,1.162 2.66,2.87 0,1.708 -1.036,2.87 -2.66,2.87 -1.666,0 -2.66,-1.246 -2.66,-2.87 0,-1.624 0.994,-2.87 2.66,-2.87 z m 2.604,-3.43 v 4.326 c -0.462,-0.868 -1.302,-1.694 -2.758,-1.694 -2.058,0 -3.388,1.582 -3.388,3.668 0,2.086 1.33,3.668 3.388,3.668 1.456,0 2.338,-0.826 2.758,-1.694 V 164 h 0.854 v -9.8 z m 2.57,6.342 c 0,2.198 1.442,3.626 3.556,3.626 1.274,0 2.17,-0.588 2.758,-1.204 l -0.448,-0.672 c -0.546,0.588 -1.288,1.078 -2.352,1.078 -1.442,0 -2.604,-0.938 -2.66,-2.604 l 0.014,-0.098 h 5.88 v -0.252 c 0,-1.932 -1.092,-3.584 -3.304,-3.584 -2.1,0 -3.444,1.624 -3.444,3.71 z m 5.81,-0.56 h -4.914 c 0.168,-1.4 1.064,-2.352 2.562,-2.352 1.498,0 2.282,1.022 2.352,2.352 z m 10.775,3.948 v -0.756 c -0.322,0.056 -0.602,0.098 -1.036,0.098 -0.77,0 -1.036,-0.364 -1.036,-1.106 v -4.41 h 2.03 V 157 h -2.03 v -1.876 h -0.854 V 157 h -1.47 v 0.756 h 1.47 v 4.368 c 0,1.428 0.616,1.946 1.848,1.946 0.392,0 0.728,-0.056 1.078,-0.14 z m 6.549,-6.93 v 3.234 c 0,1.624 -0.56,3.136 -2.296,3.136 -1.456,0 -1.904,-0.938 -1.904,-2.254 V 157 h -0.882 v 4.116 c 0,1.792 0.714,3.052 2.646,3.052 1.176,0 2.002,-0.588 2.464,-1.764 V 164 h 0.826 v -7 z m 2.82,1.82 c 0,1.498 1.4,1.82 2.618,2.058 0.952,0.196 1.806,0.35 1.806,1.302 0,0.826 -0.728,1.19 -1.764,1.19 -0.882,0 -1.862,-0.266 -2.282,-1.246 l -0.7,0.462 c 0.532,1.176 1.764,1.582 2.954,1.582 1.554,0 2.646,-0.672 2.646,-2.044 0,-1.596 -1.344,-1.82 -2.492,-2.058 -1.022,-0.21 -1.932,-0.392 -1.932,-1.302 0,-0.644 0.63,-1.134 1.708,-1.134 1.022,0 1.652,0.448 1.96,1.092 l 0.714,-0.462 c -0.518,-0.966 -1.47,-1.428 -2.66,-1.428 -1.638,0 -2.576,0.812 -2.576,1.988 z m 14.977,4.55 c -1.624,0 -2.66,-1.162 -2.66,-2.87 0,-1.708 1.036,-2.87 2.66,-2.87 1.666,0 2.66,1.246 2.66,2.87 0,1.624 -0.994,2.87 -2.66,2.87 z m -2.604,3.43 v -4.326 c 0.462,0.868 1.302,1.694 2.758,1.694 2.058,0 3.388,-1.582 3.388,-3.668 0,-2.086 -1.33,-3.668 -3.388,-3.668 -1.456,0 -2.338,0.826 -2.758,1.694 V 157 h -0.854 v 9.8 z m 7.328,-6.258 c 0,2.198 1.442,3.626 3.556,3.626 1.274,0 2.17,-0.588 2.758,-1.204 l -0.448,-0.672 c -0.546,0.588 -1.288,1.078 -2.352,1.078 -1.442,0 -2.604,-0.938 -2.66,-2.604 l 0.014,-0.098 h 5.88 v -0.252 c 0,-1.932 -1.092,-3.584 -3.304,-3.584 -2.1,0 -3.444,1.624 -3.444,3.71 z m 5.81,-0.56 h -4.914 c 0.168,-1.4 1.064,-2.352 2.562,-2.352 1.498,0 2.282,1.022 2.352,2.352 z m 2.058,0.532 c 0,2.128 1.414,3.654 3.626,3.654 1.078,0 1.932,-0.392 2.52,-0.952 l -0.518,-0.672 c -0.532,0.476 -1.246,0.798 -2.016,0.798 -1.582,0 -2.73,-1.134 -2.73,-2.842 0,-1.736 1.134,-2.842 2.744,-2.842 0.742,0 1.4,0.294 1.932,0.77 l 0.546,-0.672 c -0.616,-0.588 -1.428,-0.924 -2.436,-0.924 -2.212,0 -3.668,1.554 -3.668,3.682 z m 7.731,-6.314 v 9.8 h 0.854 v -3.234 c 0,-1.68 0.574,-3.136 2.38,-3.136 1.26,0 1.918,0.896 1.918,2.226 V 164 h 0.882 v -4.088 c 0,-1.848 -0.854,-3.08 -2.646,-3.08 -1.274,0 -2.1,0.714 -2.534,1.708 v -4.34 z m 7.622,6.3 c 0,2.128 1.54,3.668 3.668,3.668 2.114,0 3.668,-1.54 3.668,-3.668 0,-2.128 -1.554,-3.668 -3.668,-3.668 -2.128,0 -3.668,1.54 -3.668,3.668 z m 6.44,0 c 0,1.666 -1.106,2.842 -2.772,2.842 -1.68,0 -2.786,-1.176 -2.786,-2.842 0,-1.666 1.106,-2.842 2.786,-2.842 1.666,0 2.772,1.176 2.772,2.842 z m 2.309,-1.68 c 0,1.498 1.4,1.82 2.618,2.058 0.952,0.196 1.806,0.35 1.806,1.302 0,0.826 -0.728,1.19 -1.764,1.19 -0.882,0 -1.862,-0.266 -2.282,-1.246 l -0.7,0.462 c 0.532,1.176 1.764,1.582 2.954,1.582 1.554,0 2.646,-0.672 2.646,-2.044 0,-1.596 -1.344,-1.82 -2.492,-2.058 -1.022,-0.21 -1.932,-0.392 -1.932,-1.302 0,-0.644 0.63,-1.134 1.708,-1.134 1.022,0 1.652,0.448 1.96,1.092 l 0.714,-0.462 c -0.518,-0.966 -1.47,-1.428 -2.66,-1.428 -1.638,0 -2.576,0.812 -2.576,1.988 z m 7.445,3.416 c -0.504,0 -0.882,0.392 -0.882,0.882 0,0.504 0.378,0.882 0.882,0.882 0.49,0 0.882,-0.378 0.882,-0.882 0,-0.49 -0.392,-0.882 -0.882,-0.882 z"
     id="path22"
     inkscape:connector-curvature="0"
     style="fill:#4a4d4f" />
  <defs
     id="defs55">
    <clipPath
       id="clip0">
      <rect
         width="240"
         height="204"
         transform="translate(12)"
         id="rect52"
         x="0"
         y="0"
         style="fill:#ffffff" />
    </clipPath>
  </defs>
</svg>
